#N canvas 0 23 1280 751 12;
#X msg 92 77 \; pd dsp \$1;
#X obj 92 52 tgl 15 0 empty empty empty 17 7 0 10 -262144 -1 -1 1 1
;
#X obj 514 542 env~;
#X obj 513 599 vu 15 120 empty empty -1 -8 0 10 -66577 -1 1 0;
#X obj 512 566 - 100;
#X obj 399 569 dac~;
#X obj 575 543 env~;
#X obj 575 600 vu 15 120 empty empty -1 -8 0 10 -66577 -1 1 0;
#X obj 574 566 - 100;
#X obj 823 541 line~;
#X obj 826 429 hsl 128 15 0 127 0 0 empty empty empty -2 -8 0 10 -262144
-1 -1 12700 1;
#X obj 823 454 / 127;
#X obj 823 483 pow 2;
#X msg 823 512 \$1 50;
#X obj 575 515 *~;
#X obj 514 516 *~;
#X msg 521 369 all trig \$1;
#X obj 614 121 t f f;
#X obj 646 146 sel 1;
#X obj 934 237 hsl 128 15 0 127 0 0 empty empty empty -2 -8 0 10 -262144
-1 -1 300 1;
#X obj 931 258 / 127;
#N canvas 0 23 1280 751 rand-env 0;
#X obj 297 173 uzi 6, f 13;
#X obj 383 596 pack f f f f f, f 62;
#X msg 383 621 \$1 env \$2 \$3 \$4 \$5;
#X obj 297 145 inlet;
#X obj 383 645 outlet;
#X obj 649 278 inlet;
#X obj 385 228 - 1;
#X msg 809 234 50;
#N canvas 0 23 1280 751 decay 0;
#X obj 752 256 random 1000;
#X obj 434 214 t f b;
#X obj 436 455 *;
#X obj 753 435 *;
#X obj 525 560 +;
#X obj 455 426 !- 1;
#X obj 434 184 inlet;
#X obj 1044 351 inlet;
#X obj 525 584 outlet;
#X obj 609 145 inlet;
#X obj 458 280 sel 0 1, f 12;
#X msg 458 315 1;
#X msg 498 315 6;
#X msg 537 314 6;
#X msg 577 314 1;
#X obj 458 249 inlet;
#X obj 434 351 scale 1 6 5000 250, f 42;
#X obj 666 296 / 4;
#X obj 609 204 * 10000;
#X obj 609 174 pow 2;
#X obj 609 228 + 10;
#X obj 666 322 + 10;
#X obj 752 280 * 0.001;
#X obj 752 351 scale 0 1 50 10000;
#X obj 752 304 pow 2.5;
#X connect 0 0 22 0;
#X connect 1 0 16 0;
#X connect 1 1 0 0;
#X connect 2 0 4 0;
#X connect 3 0 4 1;
#X connect 4 0 8 0;
#X connect 5 0 2 1;
#X connect 6 0 1 0;
#X connect 7 0 3 1;
#X connect 7 0 5 0;
#X connect 9 0 19 0;
#X connect 10 0 11 0;
#X connect 10 0 12 0;
#X connect 10 1 13 0;
#X connect 10 1 14 0;
#X connect 11 0 16 1;
#X connect 12 0 16 2;
#X connect 13 0 16 1;
#X connect 14 0 16 2;
#X connect 15 0 10 0;
#X connect 16 0 2 0;
#X connect 17 0 21 0;
#X connect 18 0 17 0;
#X connect 18 0 20 0;
#X connect 19 0 18 0;
#X connect 20 0 16 3;
#X connect 21 0 16 4;
#X connect 22 0 24 0;
#X connect 23 0 3 0;
#X connect 24 0 23 0;
#X restore 596 374 pd decay;
#X obj 385 201 t f f f b b, f 61;
#X obj 557 281 inlet;
#X obj 632 251 inlet;
#X obj 1023 274 inlet;
#X obj 534 249 inlet;
#N canvas 0 23 1280 751 attack 0;
#X obj 752 274 random 1000;
#X obj 434 214 t f b;
#X obj 436 455 *;
#X obj 753 435 *;
#X obj 525 560 +;
#X obj 455 426 !- 1;
#X obj 434 184 inlet;
#X obj 1044 351 inlet;
#X obj 525 584 outlet;
#X obj 609 154 inlet;
#X obj 458 280 sel 0 1, f 12;
#X msg 458 315 1;
#X msg 498 315 6;
#X msg 537 314 6;
#X msg 577 314 1;
#X obj 458 249 inlet;
#X obj 434 375 + 2;
#X obj 434 351 scale 1 6 1 1, f 42;
#X obj 609 178 pow 2.5;
#X obj 609 204 * 10000;
#X obj 666 312 / 4;
#X obj 752 298 * 0.001;
#X obj 752 322 pow 2.5;
#X obj 752 351 scale 0 1 50 10000;
#X connect 0 0 21 0;
#X connect 1 0 17 0;
#X connect 1 1 0 0;
#X connect 2 0 4 0;
#X connect 3 0 4 1;
#X connect 4 0 8 0;
#X connect 5 0 2 1;
#X connect 6 0 1 0;
#X connect 7 0 3 1;
#X connect 7 0 5 0;
#X connect 9 0 18 0;
#X connect 10 0 11 0;
#X connect 10 0 12 0;
#X connect 10 1 13 0;
#X connect 10 1 14 0;
#X connect 11 0 17 1;
#X connect 12 0 17 2;
#X connect 13 0 17 1;
#X connect 14 0 17 2;
#X connect 15 0 10 0;
#X connect 16 0 2 0;
#X connect 17 0 16 0;
#X connect 18 0 19 0;
#X connect 19 0 17 3;
#X connect 19 0 20 0;
#X connect 20 0 17 4;
#X connect 21 0 22 0;
#X connect 22 0 23 0;
#X connect 23 0 3 0;
#X restore 490 371 pd attack;
#X f 10;
#X msg 703 236 0;
#X obj 1073 272 inlet;
#X connect 0 2 9 0;
#X connect 1 0 2 0;
#X connect 2 0 4 0;
#X connect 3 0 0 0;
#X connect 5 0 8 3;
#X connect 6 0 1 0;
#X connect 8 0 1 2;
#X connect 8 0 1 4;
#X connect 9 0 6 0;
#X connect 9 1 14 0;
#X connect 9 2 8 0;
#X connect 9 3 15 0;
#X connect 9 4 7 0;
#X connect 10 0 14 3;
#X connect 11 0 8 2;
#X connect 12 0 14 1;
#X connect 13 0 14 2;
#X connect 14 0 1 1;
#X connect 15 0 1 3;
#X connect 16 0 8 1;
#X restore 788 290 pd rand-env;
#X f 31;
#X obj 861 146 hsl 128 15 0 127 0 0 empty empty empty -2 -8 0 10 -262144
-1 -1 0 1;
#X obj 858 171 / 127;
#X obj 897 200 hsl 128 15 0 127 0 0 empty empty empty -2 -8 0 10 -262144
-1 -1 100 1;
#X obj 894 219 / 127;
#X obj 967 269 tgl 15 0 empty empty empty 17 7 0 10 -262144 -1 -1 0
1;
#X obj 1017 476 array define ch1;
#X obj 1014 626 soundfiler;
#X obj 1017 505 array define ch2;
#X obj 712 605 tabwrite~ ch1;
#X obj 823 606 tabwrite~ ch2;
#X obj 823 570 bng 15 250 50 0 empty empty empty 17 7 0 10 -262144
-1 -1;
#X msg 1017 447 resize \$1;
#X obj 1018 392 * 44100;
#X floatatom 1018 364 5 0 0 0 - - -;
#X obj 1018 419 i;
#N canvas 0 23 1280 751 harmonics 0;
#X obj 292 251 uzi 6, f 13;
#X obj 496 395 pow 2;
#X obj 380 519 pack f f f, f 17;
#X obj 380 307 - 1;
#X msg 380 551 \$1 freq \$2 \$3;
#X obj 615 306 random 1000;
#X obj 292 189 inlet;
#X obj 380 575 outlet;
#X obj 439 180 inlet;
#X obj 633 186 inlet;
#X obj 690 187 inlet;
#X obj 766 381 inlet;
#X obj 615 337 *;
#X obj 615 367 + 1;
#X obj 690 211 * 0.0001;
#X obj 380 279 t f f b, f 34;
#X obj 496 419 sel 1;
#X msg 491 451 1;
#X obj 550 470 * 1;
#X connect 0 2 15 0;
#X connect 1 0 16 0;
#X connect 2 0 4 0;
#X connect 3 0 2 0;
#X connect 4 0 7 0;
#X connect 5 0 12 0;
#X connect 6 0 0 0;
#X connect 8 0 2 1;
#X connect 9 0 13 1;
#X connect 10 0 14 0;
#X connect 11 0 18 1;
#X connect 12 0 13 0;
#X connect 13 0 1 1;
#X connect 14 0 12 1;
#X connect 15 0 3 0;
#X connect 15 1 1 0;
#X connect 15 2 5 0;
#X connect 16 0 17 0;
#X connect 16 1 18 0;
#X connect 17 0 2 2;
#X connect 18 0 2 2;
#X restore 206 301 pd harmonics;
#X f 23;
#X floatatom 287 258 5 0 0 0 - - -;
#X floatatom 324 258 5 0 1 0 - - -;
#X floatatom 364 258 5 0 0 0 - - -;
#X obj 825 101 hsl 128 15 0 127 0 0 empty empty empty -2 -8 0 10 -262144
-1 -1 0 1;
#X obj 822 121 / 127;
#N canvas 0 23 1280 751 keys 0;
#X obj 539 267 key;
#X obj 677 265 keyup;
#X obj 514 527 mtof;
#X msg 652 320 0;
#X obj 514 292 gate;
#X obj 652 291 gate;
#X msg 514 586 1;
#X obj 514 555 t b f;
#X obj 514 472 list store;
#X msg 514 441 get \$1 1;
#X obj 581 416 loadbang;
#X obj 514 397 clip 0 9;
#X obj 514 496 + 48;
#X obj 514 372 - 49;
#X msg 581 443 list 0 2 4 5 7 9 11 12 14;
#X obj 513 161 inlet;
#X obj 653 687 outlet;
#X obj 547 688 outlet;
#X connect 0 0 4 1;
#X connect 1 0 5 1;
#X connect 2 0 7 0;
#X connect 3 0 16 0;
#X connect 4 0 13 0;
#X connect 5 0 3 0;
#X connect 6 0 16 0;
#X connect 7 0 6 0;
#X connect 7 1 17 0;
#X connect 8 0 12 0;
#X connect 9 0 8 0;
#X connect 10 0 14 0;
#X connect 11 0 9 0;
#X connect 12 0 2 0;
#X connect 13 0 11 0;
#X connect 14 0 8 1;
#X connect 15 0 4 0;
#X connect 15 0 5 0;
#X restore 568 95 pd keys;
#X obj 568 75 tgl 15 0 empty empty empty 17 7 0 10 -262144 -1 -1 1
1;
#X floatatom 206 505 5 0 1 0 - - -;
#X floatatom 254 505 5 0 0 0 - - -;
#X floatatom 117 505 5 0 0 0 - - -;
#X floatatom 161 505 5 0 0 0 - - -;
#X msg 138 569 all env \$1 \$2 \$3 \$4;
#X obj 138 540 pak f f f f;
#X floatatom 268 192 5 0 0 0 - - -;
#X floatatom 160 256 5 0 0 0 - - -;
#X obj 245 258 * 0.5;
#X obj 1002 268 tgl 15 0 empty empty empty 17 7 0 10 -262144 -1 -1
1 1;
#X obj 515 429 clone ssi-synthvoice 6;
#X obj 931 65 loadmess 0;
#X obj 894 176 loadmess 25;
#X obj 311 204 loadmess 1.5;
#X msg 1014 569 write -wave /Users/olafwisselink/Desktop/ssi10.wav
ch1 ch2, f 37;
#X connect 1 0 0 0;
#X connect 2 0 4 0;
#X connect 4 0 3 0;
#X connect 6 0 8 0;
#X connect 8 0 7 0;
#X connect 9 0 14 1;
#X connect 9 0 15 1;
#X connect 10 0 11 0;
#X connect 11 0 12 0;
#X connect 12 0 13 0;
#X connect 13 0 9 0;
#X connect 14 0 6 0;
#X connect 14 0 5 1;
#X connect 14 0 31 0;
#X connect 15 0 2 0;
#X connect 15 0 5 0;
#X connect 15 0 30 0;
#X connect 16 0 55 0;
#X connect 17 0 16 0;
#X connect 17 1 18 0;
#X connect 18 0 21 0;
#X connect 18 0 37 0;
#X connect 19 0 20 0;
#X connect 20 0 21 4;
#X connect 21 0 55 0;
#X connect 22 0 23 0;
#X connect 23 0 21 2;
#X connect 24 0 25 0;
#X connect 25 0 21 3;
#X connect 26 0 21 5;
#X connect 32 0 31 0;
#X connect 32 0 30 0;
#X connect 33 0 27 0;
#X connect 33 0 29 0;
#X connect 34 0 36 0;
#X connect 35 0 34 0;
#X connect 36 0 33 0;
#X connect 37 0 55 0;
#X connect 38 0 37 2;
#X connect 39 0 37 3;
#X connect 40 0 37 4;
#X connect 41 0 42 0;
#X connect 42 0 21 1;
#X connect 43 0 53 0;
#X connect 43 1 17 0;
#X connect 44 0 43 0;
#X connect 45 0 50 2;
#X connect 46 0 50 3;
#X connect 47 0 50 0;
#X connect 48 0 50 1;
#X connect 50 0 49 0;
#X connect 51 0 53 1;
#X connect 53 0 37 1;
#X connect 53 0 52 0;
#X connect 54 0 21 6;
#X connect 55 0 15 0;
#X connect 55 1 14 0;
#X connect 56 0 22 0;
#X connect 56 0 41 0;
#X connect 56 0 19 0;
#X connect 57 0 24 0;
#X connect 58 0 38 0;
#X connect 58 0 40 0;
#X connect 59 0 28 0;
