#N canvas 0 23 1280 751 12;
#X obj 646 492 tgl 15 1 empty empty empty 17 7 0 10 -262144 -1 -1 0
1;
#X text 672 490 invert fb;
#X obj 379 592 +~;
#X obj 451 593 +~;
#X obj 652 114 inlet;
#X obj 93 442 delwrite~ \$0-earlyref 5000;
#X obj 379 623 outlet~;
#X obj 451 623 outlet~;
#N canvas 0 23 1280 751 latereflections 0;
#X obj 431 423 *~;
#X obj 749 398 line~;
#X msg 749 374 \$1 5;
#X obj 433 263 onepole~ 8000;
#X obj 731 262 onepole~ 8000;
#X obj 731 429 *~;
#X obj 749 317 inlet;
#X text 125 437 early reflections ch 1 & 2;
#X text 543 104 latereflections delay time;
#X text 810 215 dampening;
#X text 588 592 cross feedback: delread 1 into delwrite 2 and vice
versa, f 22;
#X obj 931 361 inlet;
#X obj 931 416 * 2;
#X obj 931 440 - 1;
#X obj 749 347 pow 0.2;
#X obj 931 385 !- 1;
#X text 900 338 fb inversion;
#X obj 431 470 *~ 1;
#X obj 731 467 *~ 1;
#X text 791 317 feedback;
#X obj 431 520 +~;
#X obj 731 521 +~;
#X obj 65 331 outlet~;
#X obj 65 146 +~ 0.5;
#X obj 65 122 *~ 0.5;
#X obj 65 304 +~;
#X msg 65 68 \$1 5;
#X obj 65 92 line~;
#X obj 1006 182 !-~ 1;
#X obj 1006 313 outlet~;
#X obj 1006 128 +~ 0.5;
#X obj 1006 104 *~ 0.5;
#X obj 1006 286 +~;
#X msg 1006 50 \$1 5;
#X obj 1006 74 line~;
#X obj 433 287 hip~ 10;
#X obj 731 287 hip~ 10;
#X text 489 286 remove dc;
#X obj 65 191 !-~ 1;
#X obj 512 518 r cleardelay;
#X msg 512 542 clear;
#X obj 227 271 delread4~ \$0-lateref2;
#X obj 65 270 delread4~ \$0-lateref1;
#X obj 65 44 r \$0-pickup1;
#X obj 1006 26 r \$0-pickup2;
#X obj 1006 252 delread4~ \$0-lateref1;
#X obj 1162 252 delread4~ \$0-lateref2;
#X obj 433 194 delread4~ \$0-lateref1;
#X obj 731 191 delread4~ \$0-lateref2;
#X obj 431 569 delwrite~ \$0-lateref2 5000;
#X obj 731 571 delwrite~ \$0-lateref1 5000;
#X obj 130 458 inlet~;
#X obj 220 459 inlet~;
#X obj 227 235 *~;
#X obj 65 234 *~;
#X obj 1162 216 *~;
#X obj 1006 216 *~;
#X obj 1180 190 r~ \$0-delayT;
#X obj 590 130 r~ \$0-delayT;
#X obj 245 210 r~ \$0-delayT;
#X obj 819 235 inlet~;
#X connect 0 0 17 0;
#X connect 1 0 0 1;
#X connect 1 0 5 1;
#X connect 2 0 1 0;
#X connect 3 0 35 0;
#X connect 4 0 36 0;
#X connect 5 0 18 0;
#X connect 6 0 14 0;
#X connect 11 0 15 0;
#X connect 12 0 13 0;
#X connect 13 0 18 1;
#X connect 13 0 17 1;
#X connect 14 0 2 0;
#X connect 15 0 12 0;
#X connect 17 0 20 0;
#X connect 18 0 21 0;
#X connect 20 0 49 0;
#X connect 21 0 50 0;
#X connect 23 0 38 0;
#X connect 23 0 53 0;
#X connect 24 0 23 0;
#X connect 25 0 22 0;
#X connect 26 0 27 0;
#X connect 27 0 24 0;
#X connect 28 0 56 0;
#X connect 30 0 28 0;
#X connect 30 0 55 0;
#X connect 31 0 30 0;
#X connect 32 0 29 0;
#X connect 33 0 34 0;
#X connect 34 0 31 0;
#X connect 35 0 0 0;
#X connect 36 0 5 0;
#X connect 38 0 54 0;
#X connect 39 0 40 0;
#X connect 40 0 49 0;
#X connect 40 0 50 0;
#X connect 41 0 25 1;
#X connect 42 0 25 0;
#X connect 43 0 26 0;
#X connect 44 0 33 0;
#X connect 45 0 32 0;
#X connect 46 0 32 1;
#X connect 47 0 3 0;
#X connect 48 0 4 0;
#X connect 51 0 20 1;
#X connect 52 0 21 1;
#X connect 53 0 41 0;
#X connect 54 0 42 0;
#X connect 55 0 46 0;
#X connect 56 0 45 0;
#X connect 57 0 56 1;
#X connect 57 0 55 1;
#X connect 58 0 47 0;
#X connect 58 0 48 0;
#X connect 59 0 53 1;
#X connect 59 0 54 1;
#X connect 60 0 4 1;
#X connect 60 0 3 1;
#X restore 481 514 pd latereflections;
#X f 24;
#N canvas 0 23 1280 751 earlyreflections 1;
#X obj 1044 423 !-~ 1;
#X obj 831 599 outlet~;
#X obj 1043 598 outlet~;
#X obj 831 200 +~ 0.5;
#X obj 831 176 *~ 0.5;
#X obj 255 227 *~ 0.5;
#X obj 255 251 +~ 0.5;
#X obj 254 442 -~;
#X obj 466 446 -~;
#X obj 467 280 !-~ 1;
#X obj 467 227 *~ 0.5;
#X obj 467 252 +~ 0.5;
#X obj 222 604 outlet~;
#X obj 434 606 outlet~;
#X obj 254 466 abs~;
#X obj 466 470 abs~;
#X obj 484 408 !-~ 1;
#X text 897 599 to late reflections;
#X text 327 607 to output;
#X obj 222 575 gate~;
#X obj 222 310 >~ 0;
#X obj 434 574 gate~;
#X obj 434 310 >~ 0;
#X obj 1043 574 delread4~ \$0-earlyref;
#X obj 831 575 delread4~ \$0-earlyref;
#X obj 466 549 delread4~ \$0-earlyref;
#X obj 254 543 delread4~ \$0-earlyref;
#X obj 254 517 *~;
#X obj 466 521 *~;
#X obj 831 514 *~;
#X obj 1043 515 *~;
#X obj 831 149 inlet~;
#X obj 1112 484 r~ \$0-delayT;
#N canvas 0 23 1280 755 mod-position 0;
#X obj 566 324 slide~;
#X obj 605 276 random 1000;
#X obj 605 300 + 100;
#X obj 605 252 loadbang;
#X msg 810 448 \$1 5;
#X obj 810 472 line~;
#X obj 809 349 rand~;
#X obj 809 270 loadbang;
#X obj 809 294 random 1000;
#X obj 792 499 *~;
#X obj 810 424 r \$0-pickup2;
#X obj 792 528 outlet~;
#X obj 791 383 *~;
#X msg 375 453 \$1 5;
#X obj 375 477 line~;
#X obj 356 350 rand~;
#X obj 356 271 loadbang;
#X obj 356 295 random 1000;
#X obj 357 504 *~;
#X obj 357 533 outlet~;
#X obj 356 388 *~;
#X obj 375 429 r \$0-pickup1;
#X obj 564 176 inlet~;
#X obj 356 322 scale 0 999 0.1 2 2;
#X obj 809 321 scale 0 999 0.1 2 2;
#X text 438 143 amount of random varition in pickup positions is modulated
by interact sig, f 75;
#X connect 0 0 12 0;
#X connect 0 0 20 1;
#X connect 1 0 2 0;
#X connect 2 0 0 2;
#X connect 2 0 0 1;
#X connect 3 0 1 0;
#X connect 4 0 5 0;
#X connect 5 0 9 1;
#X connect 6 0 12 1;
#X connect 7 0 8 0;
#X connect 8 0 24 0;
#X connect 9 0 11 0;
#X connect 10 0 4 0;
#X connect 12 0 9 0;
#X connect 13 0 14 0;
#X connect 14 0 18 1;
#X connect 15 0 20 0;
#X connect 16 0 17 0;
#X connect 17 0 23 0;
#X connect 18 0 19 0;
#X connect 20 0 18 0;
#X connect 21 0 13 0;
#X connect 22 0 0 0;
#X connect 23 0 15 0;
#X connect 24 0 6 0;
#X restore 255 172 pd mod-position;
#X obj 255 140 inlet~;
#X connect 0 0 30 0;
#X connect 3 0 0 0;
#X connect 3 0 7 1;
#X connect 3 0 16 0;
#X connect 3 0 29 0;
#X connect 4 0 3 0;
#X connect 5 0 6 0;
#X connect 6 0 7 0;
#X connect 6 0 20 0;
#X connect 7 0 14 0;
#X connect 8 0 15 0;
#X connect 9 0 8 0;
#X connect 9 0 22 0;
#X connect 10 0 11 0;
#X connect 11 0 9 0;
#X connect 14 0 27 0;
#X connect 15 0 28 0;
#X connect 16 0 8 1;
#X connect 19 0 12 0;
#X connect 20 0 19 0;
#X connect 21 0 13 0;
#X connect 22 0 21 0;
#X connect 23 0 2 0;
#X connect 24 0 1 0;
#X connect 25 0 21 1;
#X connect 26 0 19 1;
#X connect 27 0 26 0;
#X connect 28 0 25 0;
#X connect 29 0 24 0;
#X connect 30 0 23 0;
#X connect 31 0 4 0;
#X connect 32 0 27 1;
#X connect 32 0 28 1;
#X connect 32 0 29 1;
#X connect 32 0 30 1;
#X connect 33 0 5 0;
#X connect 33 1 10 0;
#X connect 34 0 33 0;
#X restore 378 474 pd earlyreflections;
#X f 21;
#X obj 719 169 unpack f f;
#X obj 719 214 s \$0-pickup1;
#X obj 786 192 s \$0-pickup2;
#X obj 95 110 inlet~;
#X obj 522 118 inlet~;
#X text 372 428 pickup position;
#X obj 215 109 inlet~;
#N canvas 0 23 1280 755 delaytime+offset 0;
#X obj 593 661 s~ \$0-delayT;
#X obj 214 362 loadbang;
#X obj 189 411 *~ 1;
#X obj 189 435 +~ 1;
#X obj 593 626 /~;
#X obj 214 386 f \$1;
#X obj 189 110 inlet~;
#X obj 804 512 inlet;
#X obj 284 251 line~;
#X obj 189 298 *~;
#X obj 284 199 threshold~ 0.6 1000 0.3 1000;
#X obj 189 322 *~ 0.05;
#X msg 284 223 1 10000;
#X msg 477 223 0 10000;
#X obj 189 134 slide~, f 26;
#X obj 368 57 loadbang;
#X obj 368 81 random 500;
#X obj 368 105 + 50;
#X obj 284 173 pow~ 1.2;
#X obj 804 560 line~;
#X obj 709 538 loadmess 60;
#X msg 804 536 \$1 10000;
#X text 545 208 interaction signal modulates if and how much the base
freq is offset by some amount dependent on voice index;
#X text 715 488 base freq is modulated by interact sig;
#X connect 1 0 5 0;
#X connect 2 0 3 0;
#X connect 3 0 4 1;
#X connect 4 0 0 0;
#X connect 5 0 2 1;
#X connect 6 0 14 0;
#X connect 7 0 21 0;
#X connect 8 0 9 1;
#X connect 9 0 11 0;
#X connect 10 0 12 0;
#X connect 10 1 13 0;
#X connect 11 0 2 0;
#X connect 12 0 8 0;
#X connect 13 0 8 0;
#X connect 14 0 9 0;
#X connect 14 0 18 0;
#X connect 15 0 16 0;
#X connect 16 0 17 0;
#X connect 17 0 14 2;
#X connect 17 0 14 1;
#X connect 18 0 10 0;
#X connect 19 0 4 0;
#X connect 20 0 19 0;
#X connect 21 0 19 0;
#X restore 215 282 pd delaytime+offset;
#N canvas 0 23 1280 755 damping 0;
#X obj 618 214 inlet~;
#X obj 608 484 line~;
#X obj 518 506 *~;
#X obj 618 243 slide~, f 26;
#X obj 797 166 loadbang;
#X obj 342 231 inlet;
#X obj 342 255 scale 0 1 50 10000 2;
#X obj 518 530 outlet~;
#X obj 614 452 loadmess 1;
#X obj 797 190 random 1000;
#X obj 797 214 + 200;
#X msg 726 417 1 10000;
#X obj 657 306 + 1;
#X obj 618 330 % 3;
#X obj 618 354 == 0;
#X obj 618 378 sel 1 0;
#X obj 618 278 threshold~ 0.75 1000 0.4 1000;
#X obj 618 306 i 1;
#X msg 607 417 0.45 10000;
#X text 326 207 max damping freq;
#X text 598 191 interact sig;
#X connect 0 0 3 0;
#X connect 1 0 2 1;
#X connect 2 0 7 0;
#X connect 3 0 16 0;
#X connect 4 0 9 0;
#X connect 5 0 6 0;
#X connect 6 0 2 0;
#X connect 8 0 1 0;
#X connect 9 0 10 0;
#X connect 10 0 3 2;
#X connect 10 0 3 1;
#X connect 11 0 1 0;
#X connect 12 0 17 1;
#X connect 13 0 14 0;
#X connect 14 0 15 0;
#X connect 15 0 18 0;
#X connect 15 1 11 0;
#X connect 16 0 17 0;
#X connect 17 0 12 0;
#X connect 17 0 13 0;
#X connect 18 0 1 0;
#X restore 854 244 pd damping;
#X obj 234 152 s~ \$0-interact-fb;
#X obj 921 211 r~ \$0-interact-fb;
#X obj 378 447 r~ \$0-interact-fb;
#X obj 652 138 route delay pickup feedback damp, f 39;
#X text 177 87 interact signal;
#X text 92 87 mpu sig;
#X text 499 96 pluck position;
#X connect 0 0 8 4;
#X connect 2 0 6 0;
#X connect 3 0 7 0;
#X connect 4 0 22 0;
#X connect 8 0 2 1;
#X connect 8 1 3 1;
#X connect 9 0 2 0;
#X connect 9 1 3 0;
#X connect 9 2 8 0;
#X connect 9 3 8 1;
#X connect 10 0 11 0;
#X connect 10 1 12 0;
#X connect 13 0 5 0;
#X connect 14 0 9 1;
#X connect 16 0 17 0;
#X connect 16 0 19 0;
#X connect 18 0 8 3;
#X connect 20 0 18 1;
#X connect 21 0 9 0;
#X connect 22 0 17 1;
#X connect 22 1 10 0;
#X connect 22 2 8 2;
#X connect 22 3 18 0;
