#N canvas 640 23 640 751 10;
#X obj 62 213 bng 15 250 50 0 empty empty empty 17 7 0 10 -262144 -1
-1;
#X obj 61 278 i 10;
#X obj 62 336 * 4;
#X obj 62 427 print out1;
#X obj 62 237 t b b b;
#X obj 158 281 f 0;
#X obj 105 278 f 2.5;
#X msg 62 397 The \$2 solution is: \$1;
#X msg 62 367 list \$1 correct;
#X text 191 276 Add [f 2.5] to the calculation. Cold inlet of [*] gets
updated with 2.5 after the 0;
#X text 173 364 Change list to \$1 correct (switch the arguments);
#X connect 0 0 4 0;
#X connect 1 0 2 0;
#X connect 2 0 8 0;
#X connect 4 0 1 0;
#X connect 4 1 6 0;
#X connect 4 2 5 0;
#X connect 5 0 2 1;
#X connect 6 0 2 1;
#X connect 7 0 3 0;
#X connect 8 0 7 0;
