#N canvas 3 23 1597 831 10;
#X floatatom 79 288 5 0 0 0 - - -, f 5;
#X obj 79 187 +;
#X obj 79 58 key;
#X floatatom 79 81 5 0 0 0 - - -, f 5;
#X obj 79 102 sel 97 100 119 115;
#X obj 79 124 bng 13 250 50 0 empty empty empty 17 7 0 10 -262144 -1
-1;
#X obj 107 124 bng 13 250 50 0 empty empty empty 17 7 0 10 -262144
-1 -1;
#X obj 166 124 bng 13 250 50 0 empty empty empty 17 7 0 10 -262144
-1 -1;
#X obj 196 124 bng 12 250 50 0 empty empty empty 17 7 0 10 -262144
-1 -1;
#X floatatom 79 205 5 0 0 0 - - -, f 5;
#X msg 79 145 -1;
#X msg 196 145 -1;
#X obj 166 185 +;
#X floatatom 166 203 5 0 0 0 - - -, f 5;
#X msg 107 145 1;
#X msg 166 145 1;
#X obj 79 256 moses 11;
#X obj 79 229 moses -10;
#X floatatom 166 287 5 0 0 0 - - -, f 5;
#X obj 166 254 moses 11;
#X obj 166 229 moses -10;
#X floatatom 867 273 5 0 0 0 - - -, f 5;
#X obj 867 176 +;
#X obj 867 49 key;
#X floatatom 867 72 5 0 0 0 - - -, f 5;
#X obj 867 94 sel 97 100 119 115;
#X obj 867 117 bng 8 250 50 0 empty empty empty 17 7 0 10 -262144 -1
-1;
#X obj 895 117 bng 8 250 50 0 empty empty empty 17 7 0 10 -262144 -1
-1;
#X obj 924 117 bng 8 250 50 0 empty empty empty 17 7 0 10 -262144 -1
-1;
#X obj 953 117 bng 8 250 50 0 empty empty empty 17 7 0 10 -262144 -1
-1;
#X floatatom 867 201 5 0 0 0 - - -, f 5;
#X msg 1003 133 -1;
#X obj 867 229 mod 360;
#X obj 867 296 / 57.2958;
#X obj 867 320 cos;
#X floatatom 867 340 5 0 0 0 - - -, f 5;
#X obj 909 322 sin;
#X floatatom 909 339 5 0 0 0 - - -, f 5;
#X msg 867 132 -10;
#X msg 895 132 10;
#X obj 1003 294 +;
#X obj 1152 294 +;
#X obj 1003 250 float;
#X obj 1152 250 float;
#X floatatom 1152 351 5 0 0 0 - - -, f 5;
#X floatatom 1003 353 5 0 0 0 - - -, f 5;
#X msg 924 132 1;
#X obj 1003 161 t b f;
#X obj 925 160 t b f;
#X obj 1003 273 *;
#X obj 1152 273 *;
#X obj 1003 319 cyclone/clip -10 10;
#X obj 1152 319 cyclone/clip -10 10;
#X text 89 310 X;
#X text 177 309 Y;
#X text 1017 370 X;
#X text 1166 370 Y;
#X text 206 101 a-d and w-s;
#X text 995 94 a-d and w-s;
#X floatatom 332 256 5 0 0 0 - - -, f 5;
#X obj 332 177 +;
#X obj 332 53 key;
#X floatatom 332 76 5 0 0 0 - - -, f 5;
#X obj 332 120 bng 8 250 50 0 empty empty empty 17 7 0 10 -262144 -1
-1;
#X obj 360 120 bng 8 250 50 0 empty empty empty 17 7 0 10 -262144 -1
-1;
#X obj 389 120 bng 8 250 50 0 empty empty empty 17 7 0 10 -262144 -1
-1;
#X floatatom 332 202 5 0 0 0 - - -, f 5;
#X obj 332 230 mod 360;
#X obj 332 297 / 57.2958;
#X obj 332 321 cos;
#X floatatom 332 341 5 0 0 0 - - -, f 5;
#X obj 374 323 sin;
#X floatatom 374 340 5 0 0 0 - - -, f 5;
#X msg 332 133 -10;
#X msg 360 133 10;
#X obj 518 301 +;
#X obj 667 301 +;
#X obj 518 257 float;
#X obj 667 257 float;
#X floatatom 667 358 5 0 0 0 - - -, f 5;
#X floatatom 518 360 5 0 0 0 - - -, f 5;
#X obj 518 324 cyclone/clip -10 10;
#X obj 667 324 cyclone/clip -10 10;
#X text 532 377 X;
#X text 681 377 Y;
#X text 460 96 a-d and w;
#X obj 332 97 sel 97 100 119;
#X text 458 123 rotate (a-d) and move forwards (w);
#X text 995 112 rotate (a-d) and move forwards and backwards (w-s)
;
#X text 397 296 deg->rad;
#X text 366 256 direction in degrees;
#X obj 1347 181 moses 11;
#X obj 1347 152 moses -10;
#X msg 1392 205 10;
#X floatatom 1347 115 5 0 0 0 - - -, f 5;
#X msg 1311 181 -10;
#X floatatom 1347 239 5 0 0 0 - - -, f 5;
#X connect 1 0 9 0;
#X connect 2 0 3 0;
#X connect 3 0 4 0;
#X connect 4 0 5 0;
#X connect 4 1 6 0;
#X connect 4 2 7 0;
#X connect 4 3 8 0;
#X connect 5 0 10 0;
#X connect 6 0 14 0;
#X connect 7 0 15 0;
#X connect 8 0 11 0;
#X connect 9 0 17 0;
#X connect 10 0 1 0;
#X connect 11 0 12 0;
#X connect 12 0 13 0;
#X connect 13 0 20 0;
#X connect 14 0 1 0;
#X connect 15 0 12 0;
#X connect 16 0 1 1;
#X connect 16 0 0 0;
#X connect 17 1 16 0;
#X connect 19 0 18 0;
#X connect 19 0 12 1;
#X connect 20 1 19 0;
#X connect 21 0 33 0;
#X connect 22 0 30 0;
#X connect 23 0 24 0;
#X connect 24 0 25 0;
#X connect 25 0 26 0;
#X connect 25 1 27 0;
#X connect 25 2 28 0;
#X connect 25 3 29 0;
#X connect 26 0 38 0;
#X connect 27 0 39 0;
#X connect 28 0 46 0;
#X connect 29 0 31 0;
#X connect 30 0 32 0;
#X connect 31 0 47 0;
#X connect 32 0 21 0;
#X connect 32 0 22 1;
#X connect 33 0 34 0;
#X connect 33 0 36 0;
#X connect 34 0 35 0;
#X connect 35 0 43 1;
#X connect 36 0 37 0;
#X connect 37 0 42 1;
#X connect 38 0 22 0;
#X connect 39 0 22 0;
#X connect 40 0 51 0;
#X connect 41 0 52 0;
#X connect 42 0 49 0;
#X connect 43 0 50 0;
#X connect 46 0 48 0;
#X connect 47 0 43 0;
#X connect 47 0 42 0;
#X connect 47 1 50 1;
#X connect 47 1 49 1;
#X connect 48 0 43 0;
#X connect 48 0 42 0;
#X connect 48 1 49 1;
#X connect 48 1 50 1;
#X connect 49 0 40 0;
#X connect 50 0 41 0;
#X connect 51 0 45 0;
#X connect 51 0 40 1;
#X connect 52 0 41 1;
#X connect 52 0 44 0;
#X connect 59 0 68 0;
#X connect 60 0 66 0;
#X connect 61 0 62 0;
#X connect 62 0 86 0;
#X connect 63 0 73 0;
#X connect 64 0 74 0;
#X connect 65 0 77 0;
#X connect 65 0 78 0;
#X connect 66 0 67 0;
#X connect 67 0 59 0;
#X connect 67 0 60 1;
#X connect 68 0 69 0;
#X connect 68 0 71 0;
#X connect 69 0 70 0;
#X connect 70 0 78 1;
#X connect 71 0 72 0;
#X connect 72 0 77 1;
#X connect 73 0 60 0;
#X connect 74 0 60 0;
#X connect 75 0 81 0;
#X connect 76 0 82 0;
#X connect 77 0 75 0;
#X connect 78 0 76 0;
#X connect 81 0 75 1;
#X connect 81 0 80 0;
#X connect 82 0 76 1;
#X connect 82 0 79 0;
#X connect 86 0 63 0;
#X connect 86 1 64 0;
#X connect 86 2 65 0;
#X connect 91 0 96 0;
#X connect 91 1 93 0;
#X connect 92 0 95 0;
#X connect 92 1 91 0;
#X connect 93 0 96 0;
#X connect 94 0 92 0;
#X connect 95 0 96 0;
