#N canvas 568 23 535 340 10;
#X obj 184 32 key;
#X floatatom 218 62 5 0 0 0 - - -, f 5;
#X obj 184 197 mtof;
#X obj 184 219 osc~;
#X obj 184 241 dac~ 1 2;
#X obj 184 93 sel 49 50 51 52 53 54 55 56 57 48 45 61;
#X msg 184 125 60;
#X msg 217 125 62;
#X msg 251 125 64;
#X msg 284 125 65;
#X floatatom 184 149 5 0 0 0 - - -, f 5;
#X msg 319 125 67;
#X obj 184 171 - 12;
#X text 373 125 etc.;
#X text 226 171 twelve notes lower = one octave lower;
#X connect 0 0 1 0;
#X connect 0 0 5 0;
#X connect 2 0 3 0;
#X connect 3 0 4 0;
#X connect 5 0 6 0;
#X connect 5 1 7 0;
#X connect 5 2 8 0;
#X connect 5 3 9 0;
#X connect 5 4 11 0;
#X connect 6 0 10 0;
#X connect 7 0 10 0;
#X connect 8 0 10 0;
#X connect 9 0 10 0;
#X connect 10 0 12 0;
#X connect 11 0 10 0;
#X connect 12 0 2 0;
