#N canvas 266 269 1420 654 10;
#X floatatom 73 41 7 0 0 0 - - -, f 7;
#X floatatom 205 41 7 0 0 0 - - -, f 7;
#X text 72 16 angle (degrees);
#X text 203 16 distance;
#X obj 73 62 / 360;
#X floatatom 73 106 6 0 0 0 - - -, f 6;
#X text 114 105 angle (radians);
#X obj 73 142 cos;
#X obj 168 142 sin;
#X floatatom 73 167 8 0 0 0 - - -, f 8;
#X floatatom 168 167 8 0 0 0 - - -, f 8;
#X obj 73 194 *;
#X obj 168 194 *;
#X obj 205 62 t b f;
#X floatatom 73 216 8 0 0 0 - - -, f 8;
#X floatatom 168 216 8 0 0 0 - - -, f 8;
#X text 71 237 x coordinate;
#X text 166 237 y coordinate;
#X floatatom 368 41 8 0 0 0 - - -, f 8;
#X floatatom 504 41 8 0 0 0 - - -, f 8;
#X text 368 16 x;
#X text 505 16 y, f 2;
#X obj 368 102 atan2;
#X obj 368 62 t b f;
#X floatatom 368 124 7 0 0 0 - - -, f 7;
#X obj 368 145 / 6.28319;
#X obj 368 167 * 360;
#X floatatom 368 216 7 0 0 0 - - -, f 7;
#X text 367 237 angle in degrees;
#X obj 504 96 *;
#X obj 554 95 *;
#X obj 504 144 +;
#X obj 554 117 t b f;
#X floatatom 504 166 5 0 0 0 - - -, f 5;
#X obj 504 187 sqrt;
#X floatatom 504 216 7 0 0 0 - - -, f 7;
#X text 504 237 distance;
#X obj 554 62 t f f;
#X obj 504 62 t f f;
#X obj 73 84 * 6.28319;
#X text 409 101 atan2(y/x);
#X connect 0 0 4 0;
#X connect 1 0 13 0;
#X connect 4 0 39 0;
#X connect 5 0 7 0;
#X connect 5 0 8 0;
#X connect 7 0 9 0;
#X connect 8 0 10 0;
#X connect 9 0 11 0;
#X connect 10 0 12 0;
#X connect 11 0 14 0;
#X connect 12 0 15 0;
#X connect 13 0 12 0;
#X connect 13 0 11 0;
#X connect 13 1 12 1;
#X connect 13 1 11 1;
#X connect 18 0 23 0;
#X connect 18 0 38 0;
#X connect 19 0 22 0;
#X connect 19 0 37 0;
#X connect 22 0 24 0;
#X connect 23 0 19 0;
#X connect 23 1 22 1;
#X connect 24 0 25 0;
#X connect 25 0 26 0;
#X connect 26 0 27 0;
#X connect 29 0 31 0;
#X connect 30 0 32 0;
#X connect 31 0 33 0;
#X connect 32 0 31 0;
#X connect 32 1 31 1;
#X connect 33 0 34 0;
#X connect 34 0 35 0;
#X connect 37 0 30 0;
#X connect 37 1 30 1;
#X connect 38 0 29 0;
#X connect 38 1 29 1;
#X connect 39 0 5 0;
