#N canvas 12 23 1040 454 12;
#N canvas 0 22 450 300 (subpatch) 0;
#X array E01-signal 882 float 0;
#X coords 0 2 882 -2 200 130 1 0 0;
#X restore 469 72 graph;
#N canvas 0 22 450 300 (subpatch) 0;
#X array E01-spectrum 256 float 0;
#X coords 0 4300 255 -40 512 130 1 0 0;
#X restore 468 257 graph;
#X text 276 241 <-- click to graph;
#N canvas 60 23 558 569 fft 0;
#X obj 19 62 inlet~;
#X obj 85 214 inlet;
#X obj 19 92 rfft~;
#X obj 19 125 *~;
#X obj 50 125 *~;
#X obj 19 155 sqrt~;
#X obj 85 248 tabwrite~ E01-spectrum;
#X obj 332 109 block~ 4096 1;
#X obj 19 181 biquad~ 0 0 0 0 1;
#X text 83 93 Fourier series;
#X text 88 146 magnitude;
#X text 86 131 calculate;
#X text 21 3 This subpatch computes the spectrum of the incoming signal
with a (rectangular windowed) FFT. FFTs aren't properly introduced
until much later.;
#X text 83 62 signal to analyze;
#X text 182 166 delay two samples;
#X text 181 182 for better graphing;
#X obj 90 425 samplerate~;
#X obj 90 402 bng 18 250 50 0 empty empty empty 0 -6 0 8 -262144 -1
-1;
#X floatatom 90 472 5 0 0 0 - - -, f 5;
#X obj 90 448 / 256;
#X obj 90 378 loadbang;
#X floatatom 90 541 5 0 0 0 - - -, f 5;
#X obj 98 494 s fundamental;
#X obj 90 517 ftom;
#X text 146 540 <-just out of curiosity \, here's the pitch;
#X text 14 319 At load time \, calculate a good choice of fundamental
frequency for showing spectra: the 16th bin in a 4096-point spectrum
\, so SR*16/4096 or SR/256.;
#X text 135 216 "bang" into this inlet to graph it;
#X connect 0 0 2 0;
#X connect 1 0 6 0;
#X connect 2 0 3 0;
#X connect 2 0 3 1;
#X connect 2 1 4 0;
#X connect 2 1 4 1;
#X connect 3 0 5 0;
#X connect 4 0 5 0;
#X connect 5 0 8 0;
#X connect 8 0 6 0;
#X connect 16 0 19 0;
#X connect 17 0 16 0;
#X connect 18 0 22 0;
#X connect 18 0 23 0;
#X connect 19 0 18 0;
#X connect 20 0 17 0;
#X connect 23 0 21 0;
#X restore 193 277 pd fft;
#X text 469 204 ---- 0.02 seconds ----;
#X obj 253 242 bng 18 250 50 0 empty empty empty 0 -6 0 8 -262144 -1
-1;
#X obj 253 277 tabwrite~ E01-signal;
#X text 671 128 0;
#X obj 184 109 osc~;
#X obj 205 134 tgl 18 0 empty empty empty 0 -6 0 8 -262144 -1 -1 0
1;
#X obj 183 159 *~;
#X text 533 42 WAVEFORM;
#X text 561 235 SPECTRUM;
#X text 988 373 0;
#X obj 183 220 *~ 1;
#X text 223 219 sum;
#X text 238 3 GRAPHING SPECTRA OF AUDIO SIGNALS;
#X floatatom 183 84 5 0 0 0 - - -, f 5;
#X obj 263 200 metro 500;
#X obj 263 174 tgl 15 0 empty empty empty 17 7 0 10 -262144 -1 -1 0
1;
#X text 987 311 1;
#X text 986 252 2;
#X text 639 404 1000 Hz;
#X text 654 389 |;
#X text 561 389 |;
#X text 546 404 500 Hz;
#X text 841 390 |;
#X text 748 390 |;
#X text 733 405 1500 Hz;
#X text 826 405 2000 Hz;
#X obj 183 321 *~ 0.5;
#X obj 183 366 dac~ 1 2;
#X obj 263 84 send~ a;
#X obj 263 109 receive~ audio_1;
#X text 672 188 -2;
#X text 671 68 2;
#X obj 122 108 osc~;
#X obj 121 158 *~;
#X floatatom 121 83 5 0 0 0 - - -, f 5;
#X floatatom 160 46 5 0 0 0 - - -, f 5;
#X obj 40 247 *~;
#X floatatom 34 81 5 0 0 0 - - -, f 5;
#X obj 35 106 phasor~;
#X obj 34 148 -~ 0.5;
#X obj 61 221 tgl 18 0 empty empty empty 0 -6 0 8 -262144 -1 -1 0 1
;
#X obj 34 173 *~ 5;
#X connect 5 0 3 1;
#X connect 5 0 6 0;
#X connect 8 0 10 0;
#X connect 9 0 10 1;
#X connect 10 0 14 0;
#X connect 14 0 3 0;
#X connect 14 0 6 0;
#X connect 14 0 30 0;
#X connect 17 0 8 0;
#X connect 18 0 5 0;
#X connect 19 0 18 0;
#X connect 30 0 31 0;
#X connect 30 0 31 1;
#X connect 33 0 14 0;
#X connect 36 0 37 0;
#X connect 37 0 14 0;
#X connect 38 0 36 0;
#X connect 39 0 37 1;
#X connect 40 0 14 0;
#X connect 41 0 42 0;
#X connect 42 0 43 0;
#X connect 43 0 45 0;
#X connect 44 0 40 1;
#X connect 45 0 40 0;
