#N canvas 12 23 1163 742 12;
#N canvas 0 22 450 300 (subpatch) 0;
#X array E01-signal 882 float 0;
#X coords 0 2 882 -2 200 130 1 0 0;
#X restore 611 69 graph;
#N canvas 0 22 450 300 (subpatch) 0;
#X array E01-spectrum 256 float 0;
#X coords 0 4300 255 -40 512 130 1 0 0;
#X restore 610 254 graph;
#X text 418 238 <-- click to graph;
#N canvas 60 23 558 569 fft 0;
#X obj 19 62 inlet~;
#X obj 85 214 inlet;
#X obj 19 92 rfft~;
#X obj 19 125 *~;
#X obj 50 125 *~;
#X obj 19 155 sqrt~;
#X obj 85 248 tabwrite~ E01-spectrum;
#X obj 332 109 block~ 4096 1;
#X obj 19 181 biquad~ 0 0 0 0 1;
#X text 83 93 Fourier series;
#X text 88 146 magnitude;
#X text 86 131 calculate;
#X text 21 3 This subpatch computes the spectrum of the incoming signal
with a (rectangular windowed) FFT. FFTs aren't properly introduced
until much later.;
#X text 83 62 signal to analyze;
#X text 182 166 delay two samples;
#X text 181 182 for better graphing;
#X obj 90 425 samplerate~;
#X obj 90 402 bng 18 250 50 0 empty empty empty 0 -6 0 8 -262144 -1
-1;
#X floatatom 90 472 5 0 0 0 - - -, f 5;
#X obj 90 448 / 256;
#X obj 90 378 loadbang;
#X floatatom 90 541 5 0 0 0 - - -, f 5;
#X obj 98 494 s fundamental;
#X obj 90 517 ftom;
#X text 146 540 <-just out of curiosity \, here's the pitch;
#X text 14 319 At load time \, calculate a good choice of fundamental
frequency for showing spectra: the 16th bin in a 4096-point spectrum
\, so SR*16/4096 or SR/256.;
#X text 135 216 "bang" into this inlet to graph it;
#X connect 0 0 2 0;
#X connect 1 0 6 0;
#X connect 2 0 3 0;
#X connect 2 0 3 1;
#X connect 2 1 4 0;
#X connect 2 1 4 1;
#X connect 3 0 5 0;
#X connect 4 0 5 0;
#X connect 5 0 8 0;
#X connect 8 0 6 0;
#X connect 16 0 19 0;
#X connect 17 0 16 0;
#X connect 18 0 22 0;
#X connect 18 0 23 0;
#X connect 19 0 18 0;
#X connect 20 0 17 0;
#X connect 23 0 21 0;
#X restore 335 274 pd fft;
#X text 611 201 ---- 0.02 seconds ----;
#X obj 395 239 bng 18 250 50 0 empty empty empty 0 -6 0 8 -262144 -1
-1;
#X obj 395 274 tabwrite~ E01-signal;
#X text 813 125 0;
#X obj 326 106 osc~;
#X obj 347 131 tgl 18 0 empty empty empty 0 -6 0 8 -262144 -1 -1 0
1;
#X obj 325 156 *~;
#X text 675 39 WAVEFORM;
#X text 703 232 SPECTRUM;
#X text 1130 370 0;
#X obj 325 217 *~ 1;
#X text 365 216 sum;
#X text 380 0 GRAPHING SPECTRA OF AUDIO SIGNALS;
#X floatatom 325 81 5 0 0 0 - - -, f 5;
#X obj 405 197 metro 500;
#X obj 405 171 tgl 15 0 empty empty empty 17 7 0 10 -262144 -1 -1 1
1;
#X text 1129 308 1;
#X text 1128 249 2;
#X text 781 401 1000 Hz;
#X text 796 386 |;
#X text 703 386 |;
#X text 688 401 500 Hz;
#X text 983 387 |;
#X text 890 387 |;
#X text 875 402 1500 Hz;
#X text 968 402 2000 Hz;
#X obj 325 363 dac~ 1 2;
#X obj 405 81 send~ a;
#X obj 405 106 receive~ audio_1;
#X text 814 185 -2;
#X text 813 65 2;
#X obj 264 105 osc~;
#X obj 263 155 *~;
#X floatatom 263 80 5 0 0 0 - - -, f 5;
#X floatatom 302 43 5 0 0 0 - - -, f 5;
#X obj 106 241 *~;
#X floatatom 100 75 5 0 0 0 - - -, f 5;
#X obj 101 100 phasor~;
#X obj 127 215 tgl 18 0 empty empty empty 0 -6 0 8 -262144 -1 -1 1
1;
#X obj 335 626 +~;
#X obj 243 534 *~ 1;
#X floatatom 272 507 5 0 0 0 - - -, f 5;
#X floatatom 215 439 5 0 0 0 - - -, f 5;
#X obj 243 477 osc~ 200;
#X floatatom 362 507 5 0 0 0 - - -, f 5;
#X obj 333 477 osc~ 400;
#X obj 333 534 *~ 0.5;
#X floatatom 452 508 5 0 0 0 - - -, f 5;
#X obj 423 478 osc~ 600;
#X obj 423 535 *~ 0.3333;
#X floatatom 559 506 5 0 0 0 - - -, f 5;
#X obj 530 476 osc~ 800;
#X obj 530 533 *~ 0.25;
#X floatatom 657 505 5 0 0 0 - - -, f 5;
#X obj 628 475 osc~ 1000;
#X obj 628 532 *~ 0.2;
#X floatatom 754 504 5 0 0 0 - - -, f 5;
#X obj 725 474 osc~ 1200;
#X obj 725 531 *~ 0.16666;
#X floatatom 855 502 5 0 0 0 - - -, f 5;
#X obj 826 472 osc~ 1400;
#X obj 826 529 *~ 0.143;
#X floatatom 950 503 5 0 0 0 - - -, f 5;
#X obj 921 473 osc~ 1600;
#X obj 921 530 *~ 0.125;
#X obj 441 27 adc~ 1 2;
#X floatatom 914 46 5 0 0 0 - - -, f 5;
#X floatatom 461 376 5 0 0 0 - - -, f 5;
#X obj 914 68 mtof;
#X obj 913 19 key;
#X obj 371 432 * 2;
#X obj 450 433 * 3;
#X obj 535 432 * 4;
#X obj 634 437 * 5;
#X obj 732 441 * 6;
#X obj 827 442 * 7;
#X obj 928 440 * 8;
#X msg 225 407 -0.25;
#X obj 959 134 sigmund~;
#X obj 336 672 send~ audio_1;
#X obj 325 318 *~ 0.2;
#X obj 101 170 -~ 0.5;
#X obj 89 133 expr~ ($v1 > $v2);
#X floatatom 212 95 5 0 0 0 - - -, f 5;
#X connect 5 0 3 1;
#X connect 5 0 6 0;
#X connect 8 0 10 0;
#X connect 9 0 10 1;
#X connect 10 0 14 0;
#X connect 14 0 3 0;
#X connect 14 0 6 0;
#X connect 14 0 84 0;
#X connect 17 0 8 0;
#X connect 18 0 5 0;
#X connect 19 0 18 0;
#X connect 32 0 14 0;
#X connect 35 0 36 0;
#X connect 36 0 14 0;
#X connect 37 0 35 0;
#X connect 38 0 36 1;
#X connect 39 0 14 0;
#X connect 40 0 41 0;
#X connect 41 0 86 0;
#X connect 42 0 39 1;
#X connect 44 0 43 0;
#X connect 45 0 44 1;
#X connect 46 0 47 1;
#X connect 46 0 49 1;
#X connect 46 0 52 1;
#X connect 46 0 55 1;
#X connect 46 0 58 1;
#X connect 46 0 61 1;
#X connect 46 0 64 1;
#X connect 46 0 67 1;
#X connect 47 0 44 0;
#X connect 48 0 50 1;
#X connect 49 0 50 0;
#X connect 51 0 53 1;
#X connect 52 0 53 0;
#X connect 53 0 43 0;
#X connect 54 0 56 1;
#X connect 55 0 56 0;
#X connect 57 0 59 1;
#X connect 58 0 59 0;
#X connect 59 0 43 0;
#X connect 60 0 62 1;
#X connect 61 0 62 0;
#X connect 63 0 65 1;
#X connect 64 0 65 0;
#X connect 65 0 43 0;
#X connect 66 0 68 1;
#X connect 67 0 68 0;
#X connect 70 0 72 0;
#X connect 71 0 47 0;
#X connect 71 0 74 0;
#X connect 71 0 75 0;
#X connect 71 0 76 0;
#X connect 71 0 77 0;
#X connect 71 0 78 0;
#X connect 71 0 79 0;
#X connect 71 0 80 0;
#X connect 73 0 70 0;
#X connect 74 0 49 0;
#X connect 75 0 52 0;
#X connect 76 0 55 0;
#X connect 77 0 58 0;
#X connect 78 0 61 0;
#X connect 79 0 64 0;
#X connect 80 0 67 0;
#X connect 81 0 46 0;
#X connect 84 0 30 0;
#X connect 84 0 30 1;
#X connect 85 0 39 0;
#X connect 86 0 85 0;
#X connect 87 0 86 1;
