#N canvas 0 22 1350 688 16;
#X msg 371 84 1 12 32 5;
#X obj 369 146 unpack 0 0 0 0;
#X obj 369 262 pack 0 0 0 0;
#X msg 616 80 1 12 32 5;
#X obj 614 142 unpack 0 0 0 0;
#X obj 613 315 pack 0 0 0 0;
#X obj 369 322 print A;
#X obj 617 371 print B;
#X obj 608 270 float;
#X obj 589 246 bng 15 250 50 0 empty empty empty 17 7 0 10 -262144
-1 -1;
#X obj 589 207 t b f;
#X obj 103 171 swap;
#X floatatom 96 118 5 0 0 0 - - -, f 5;
#X floatatom 182 116 5 0 0 0 - - -, f 5;
#X floatatom 90 224 5 0 0 0 - - -, f 5;
#X floatatom 176 224 5 0 0 0 - - -, f 5;
#X connect 0 0 1 0;
#X connect 1 0 2 0;
#X connect 1 1 2 3;
#X connect 1 2 2 2;
#X connect 1 3 2 1;
#X connect 2 0 6 0;
#X connect 3 0 4 0;
#X connect 4 0 10 0;
#X connect 4 1 5 3;
#X connect 4 2 5 2;
#X connect 4 3 8 1;
#X connect 5 0 7 0;
#X connect 8 0 5 0;
#X connect 9 0 8 0;
#X connect 10 0 9 0;
#X connect 10 1 5 1;
#X connect 11 0 14 0;
#X connect 11 1 15 0;
#X connect 12 0 11 0;
#X connect 13 0 11 1;
