#N canvas 0 23 1280 751 12;
#X obj 392 164 else/brown~;
#X obj 589 578 dac~;
#X obj 392 533 *~;
#X obj 246 469 hsl 128 15 0.0001 1 1 0 empty empty empty -2 -8 0 10
-262144 -1 -1 12700 1;
#X obj 243 517 line~;
#X msg 243 493 \$1 50;
#X obj 392 378 *~;
#X obj 735 133 osc~;
#X msg 203 129 \; pd dsp \$1;
#X obj 203 106 tgl 15 0 empty empty empty 17 7 0 10 -262144 -1 -1 0
1;
#X obj 735 58 osc~;
#X obj 735 82 *~;
#X obj 735 106 +~;
#X floatatom 774 94 5 0 0 0 - ml -;
#X floatatom 777 66 5 0 0 0 - mh -;
#X floatatom 735 32 5 0 0 0 - mod -;
#X obj 734 390 *~;
#X obj 769 527 *~;
#X obj 647 195 rand~;
#X obj 647 219 *~;
#X floatatom 647 169 5 0 0 0 - rf1 -;
#X obj 776 204 else/brown~;
#X obj 392 558 else/vu~;
#X obj 392 582 vu 15 120 empty empty -1 -8 0 10 -66577 -1 1 0;
#X obj 769 555 else/vu~;
#X obj 769 579 vu 15 120 empty empty -1 -8 0 10 -66577 -1 1 0;
#X floatatom 680 221 5 0 1 0 - r1 -;
#X obj 680 244 !- 1;
#X obj 1015 166 rand~;
#X obj 1015 190 *~;
#X floatatom 1015 140 5 0 0 0 - rf2 -;
#X floatatom 1048 192 5 0 1 0 - r1 -;
#X obj 1048 215 !- 1;
#X obj 542 221 +~;
#X obj 542 195 *~;
#X obj 952 217 +~;
#X obj 952 192 *~;
#X obj 435 189 noise~;
#X obj 392 439 +~;
#X obj 769 449 +~;
#X obj 792 233 noise~;
#X floatatom 868 102 5 0 0 0 - d1 -;
#X obj 928 264 *~ 0.25;
#X obj 435 213 *~ 0.75;
#X obj 391 314 else/bandpass~, f 22;
#X obj 466 262 *~ 300;
#X obj 776 318 bandpass~, f 22;
#X obj 792 257 *~ 0.75;
#X obj 851 266 *~ 1000;
#X obj 851 290 +~ 2500;
#X obj 735 160 delwrite~ del_mod 1000;
#X obj 868 125 delread4~ del_mod;
#X obj 1306 192 delread4~ del_mod;
#X obj 1156 195 else/brown~;
#X obj 1306 252 +~;
#X obj 1306 226 *~;
#X obj 1199 220 noise~;
#X obj 1199 244 *~ 0.75;
#X obj 1385 245 rand~;
#X obj 1385 269 *~;
#X floatatom 1385 219 5 0 0 0 - rf3 -;
#X floatatom 1418 271 5 0 1 0 - r1 -;
#X obj 1418 294 !- 1;
#X obj 1230 293 *~ 50;
#X obj 1230 317 +~ 100;
#X obj 1155 345 bob~, f 22;
#X obj 1155 304 *~ 1;
#X obj 466 286 +~ 750;
#X floatatom 1306 165 5 0 0 0 - d2 -;
#X obj 1306 294 *~ 2;
#X obj 656 322 +~ 0.5;
#X obj 1041 357 +~ 0.5;
#X obj 1155 393 *~;
#X obj 1376 343 *~ 0.5;
#X obj 1306 318 +~ 2.5;
#X obj 1376 367 +~ 1;
#X obj 1041 333 *~ 0.4;
#X obj 1042 384 *~ 10;
#X obj 927 291 +~;
#X obj 656 351 *~ 10;
#X obj 542 287 +~;
#X obj 42 100 else/initmess \; mod 0.05 \; mh 0.04 \; ml 0.1 \; rf1
1 \; rf2 0.9 \; rf3 0.3 \; r1 0.5 \; r2 0.5 \; p1 -0.3 \; p2 0.3 \;
d1 1000 \; d2 750 \;;
#X obj 656 375 +~ 15;
#X obj 542 263 *~ 12;
#X obj 1042 408 +~ 1;
#X text 242 441 main volume;
#X obj 776 342 *~ 1;
#X obj 1155 369 *~ 0.6;
#X text 386 39 wind patch;
#X obj 392 412 ssi-pan2~;
#X obj 734 421 ssi-pan2~;
#X obj 794 374 rand~ 0.08;
#X obj 452 364 rand~ 0.07;
#X obj 452 388 *~ 0.5;
#X obj 794 398 *~ 0.5;
#X obj 656 298 *~ 0.5;
#X obj 391 338 *~ 3;
#X connect 0 0 44 0;
#X connect 2 0 22 0;
#X connect 2 0 1 0;
#X connect 3 0 5 0;
#X connect 4 0 2 1;
#X connect 4 0 17 1;
#X connect 5 0 4 0;
#X connect 6 0 89 0;
#X connect 7 0 34 0;
#X connect 7 0 50 0;
#X connect 9 0 8 0;
#X connect 10 0 11 0;
#X connect 11 0 12 0;
#X connect 12 0 7 0;
#X connect 13 0 12 1;
#X connect 14 0 11 1;
#X connect 15 0 10 0;
#X connect 16 0 90 0;
#X connect 17 0 24 0;
#X connect 17 0 1 1;
#X connect 18 0 19 0;
#X connect 19 0 33 1;
#X connect 20 0 18 0;
#X connect 21 0 46 0;
#X connect 22 0 23 0;
#X connect 24 0 25 0;
#X connect 26 0 27 0;
#X connect 26 0 19 1;
#X connect 27 0 34 1;
#X connect 28 0 29 0;
#X connect 29 0 35 1;
#X connect 30 0 28 0;
#X connect 31 0 32 0;
#X connect 31 0 29 1;
#X connect 32 0 36 1;
#X connect 33 0 45 0;
#X connect 33 0 83 0;
#X connect 33 0 95 0;
#X connect 34 0 33 0;
#X connect 35 0 42 0;
#X connect 35 0 48 0;
#X connect 35 0 76 0;
#X connect 36 0 35 0;
#X connect 37 0 43 0;
#X connect 38 0 2 0;
#X connect 39 0 17 0;
#X connect 40 0 47 0;
#X connect 41 0 51 0;
#X connect 42 0 78 0;
#X connect 43 0 44 0;
#X connect 44 0 96 0;
#X connect 45 0 67 0;
#X connect 46 0 86 0;
#X connect 47 0 46 0;
#X connect 48 0 49 0;
#X connect 49 0 46 1;
#X connect 51 0 36 0;
#X connect 52 0 55 0;
#X connect 53 0 66 0;
#X connect 54 0 63 0;
#X connect 54 0 69 0;
#X connect 54 0 73 0;
#X connect 55 0 54 0;
#X connect 56 0 57 0;
#X connect 57 0 66 0;
#X connect 58 0 59 0;
#X connect 59 0 54 1;
#X connect 60 0 58 0;
#X connect 61 0 62 0;
#X connect 61 0 59 1;
#X connect 62 0 55 1;
#X connect 63 0 64 0;
#X connect 64 0 65 1;
#X connect 65 0 87 0;
#X connect 66 0 65 0;
#X connect 67 0 44 1;
#X connect 68 0 52 0;
#X connect 69 0 74 0;
#X connect 70 0 6 1;
#X connect 70 0 79 0;
#X connect 71 0 16 1;
#X connect 71 0 77 0;
#X connect 72 0 17 0;
#X connect 72 0 2 0;
#X connect 73 0 75 0;
#X connect 74 0 65 2;
#X connect 75 0 72 1;
#X connect 76 0 71 0;
#X connect 77 0 84 0;
#X connect 78 0 46 2;
#X connect 79 0 82 0;
#X connect 80 0 44 2;
#X connect 82 0 80 1;
#X connect 83 0 80 0;
#X connect 84 0 78 1;
#X connect 86 0 16 0;
#X connect 87 0 72 0;
#X connect 89 0 38 0;
#X connect 89 1 39 0;
#X connect 90 0 38 1;
#X connect 90 1 39 1;
#X connect 91 0 94 0;
#X connect 92 0 93 0;
#X connect 93 0 89 1;
#X connect 94 0 90 1;
#X connect 95 0 70 0;
#X connect 96 0 6 0;
