#N canvas 0 23 1280 751 12;
#X msg 52 65 \; pd dsp \$1;
#X obj 52 41 tgl 15 0 empty empty empty 17 7 0 10 -262144 -1 -1 1 1
;
#X obj 675 568 - 100;
#X obj 676 592 vu 15 120 empty empty -1 -8 0 10 -66577 -1 1 0;
#X obj 675 544 env~;
#X obj 750 567 - 100;
#X obj 751 591 vu 15 120 empty empty -1 -8 0 10 -66577 -1 1 0;
#X obj 750 543 env~;
#X obj 556 561 dac~;
#X obj 1027 210 openpanel;
#X obj 1027 187 bng 15 250 50 0 empty empty empty 17 7 0 10 -262144
-1 -1;
#X obj 1027 266 soundfiler;
#N canvas 0 22 450 278 (subpatch) 0;
#X array buffer 2.646e+06 float 2;
#X coords 0 1 2.646e+06 -1 200 140 1;
#X restore 1026 309 graph;
#X msg 1027 234 read -resize \$1 buffer;
#X obj 826 305 hsl 128 15 0 127 0 0 empty empty empty -2 -8 0 10 -262144
-1 -1 6300 1;
#X obj 823 325 scale 0 127 -1 1;
#X obj 378 158 tabplay~ buffer;
#X obj 378 136 bng 15 250 50 0 empty empty empty 17 7 0 10 -262144
-1 -1;
#X obj 494 157 gate;
#X obj 494 136 tgl 15 0 empty empty empty 17 7 0 10 -262144 -1 -1 1
1;
#X msg 333 138 stop;
#X obj 378 357 send~ ch1;
#X obj 556 513 r~ ch1;
#X obj 612 511 r~ ch2;
#X obj 494 110 loadmess 1;
#X text 517 134 toggle looping;
#X text 370 112 play;
#X text 1049 185 load soundfile;
#X obj 459 358 send~ ch2;
#X msg 823 281 63;
#X obj 823 253 loadbang;
#X obj 378 324 ssi-del2~, f 12;
#X obj 459 297 cycle~;
#X msg 507 273 0.1;
#X obj 507 248 loadbang;
#X obj 749 352 ssi-del2, f 11;
#X floatatom 459 266 5 0 0 0 - - -;
#X obj 578 374 hsl 128 15 0 127 0 0 empty empty empty -2 -8 0 10 -262144
-1 -1 0 1;
#X obj 575 326 snapshot~;
#X obj 575 350 scale -1 1 0 127;
#X obj 575 304 metro 50;
#X obj 576 286 tgl 15 0 empty empty empty 17 7 0 10 -262144 -1 -1 0
1;
#X connect 1 0 0 0;
#X connect 2 0 3 0;
#X connect 4 0 2 0;
#X connect 5 0 6 0;
#X connect 7 0 5 0;
#X connect 9 0 13 0;
#X connect 10 0 9 0;
#X connect 13 0 11 0;
#X connect 14 0 15 0;
#X connect 15 0 35 1;
#X connect 16 0 31 0;
#X connect 16 1 18 1;
#X connect 17 0 16 0;
#X connect 18 0 17 0;
#X connect 19 0 18 0;
#X connect 20 0 16 0;
#X connect 22 0 4 0;
#X connect 22 0 8 0;
#X connect 23 0 7 0;
#X connect 23 0 8 1;
#X connect 24 0 19 0;
#X connect 29 0 14 0;
#X connect 30 0 29 0;
#X connect 31 0 21 0;
#X connect 31 1 28 0;
#X connect 32 0 31 1;
#X connect 32 0 38 0;
#X connect 33 0 32 0;
#X connect 34 0 33 0;
#X connect 36 0 32 0;
#X connect 38 0 39 0;
#X connect 39 0 37 0;
#X connect 40 0 38 0;
#X connect 41 0 40 0;
