#N canvas 0 23 1280 751 12;
#X msg 82 134 \; pd dsp \$1;
#X obj 82 100 tgl 15 0 empty empty empty 17 7 0 10 -262144 -1 -1 1
1;
#X text 104 102 Turn on DAC;
#X obj 603 185 soundfiler;
#N canvas 0 22 450 278 (subpatch) 0;
#X array readbuffer 470400 float 2;
#X coords 0 1 470400 -1 200 140 1;
#X restore 900 277 graph;
#X obj 603 133 openpanel;
#X obj 603 111 bng 15 250 50 0 empty empty empty 17 7 0 10 -262144
-1 -1;
#N canvas 0 23 450 278 (subpatch) 0;
#X array writebuffer 470400 float 2;
#X coords 0 1 470400 -1 200 140 1;
#X restore 899 444 graph;
#X msg 603 157 read -resize \$1 readbuffer;
#X obj 583 464 tabread4~ readbuffer;
#X msg 652 271 \$1;
#X obj 637 309 / 1;
#X msg 809 89 string /Users/olafwisselink/Downloads/usb-hku_jaar1/2TurvenHoogMaxMSP/samples/2th_interact_bel6.wav
;
#X obj 585 268 t f f;
#X msg 583 398 \$1 \, 0 \$2;
#X obj 584 367 pack f f;
#X obj 583 432 line~;
#X obj 584 504 dac~;
#X obj 637 340 * 1000;
#X obj 585 227 f;
#X obj 522 236 bng 15 250 50 0 empty empty empty 17 7 0 10 -262144
-1 -1;
#X obj 521 549 tabwrite~ writebuffer;
#X obj 735 232 array size writebuffer;
#X text 600 82 Load soundfile;
#X text 139 236 Play soundfile in reverse and record in second buffer
;
#X obj 159 568 soundfiler;
#X msg 159 541 write -wave /tmp/ssi_rev writebuffer;
#X text 155 518 Write the reversed buffer to a file on disk;
#X text 690 339 Amount of ms;
#X text 662 397 Play from last sample to first;
#X connect 1 0 0 0;
#X connect 3 0 19 1;
#X connect 3 0 22 0;
#X connect 3 1 10 0;
#X connect 5 0 8 0;
#X connect 6 0 5 0;
#X connect 8 0 3 0;
#X connect 9 0 17 0;
#X connect 9 0 17 1;
#X connect 9 0 21 0;
#X connect 10 0 11 1;
#X connect 11 0 18 0;
#X connect 12 0 8 0;
#X connect 13 0 15 0;
#X connect 13 1 11 0;
#X connect 14 0 16 0;
#X connect 15 0 14 0;
#X connect 16 0 9 0;
#X connect 18 0 15 1;
#X connect 19 0 13 0;
#X connect 20 0 19 0;
#X connect 20 0 21 0;
#X connect 26 0 25 0;
