#N canvas 0 23 1280 751 12;
#X obj 464 252 inlet;
#X obj 464 276 unpack 0 0;
#X obj 464 441 osc~;
#X obj 464 471 *~;
#X obj 464 504 outlet~;
#X obj 531 443 line~;
#X obj 681 226 inlet;
#X obj 464 373 * 1;
#X obj 464 411 +;
#X obj 681 250 unpack 0 0;
#X msg 531 419 \$1 1;
#X connect 0 0 1 0;
#X connect 1 0 7 0;
#X connect 1 1 10 0;
#X connect 2 0 3 0;
#X connect 3 0 4 0;
#X connect 5 0 3 1;
#X connect 6 0 9 0;
#X connect 7 0 8 0;
#X connect 8 0 2 0;
#X connect 9 0 7 1;
#X connect 9 1 8 1;
#X connect 10 0 5 0;
