#N canvas 0 23 1280 751 12;
#X obj 432 170 inlet;
#X obj 431 280 unpack 0 0;
#X obj 431 531 osc~;
#X obj 431 575 *~;
#X obj 431 605 outlet~;
#X obj 498 527 line~;
#X obj 622 281 unpack 0 0;
#X obj 431 415 *;
#X obj 449 386 !- 1;
#X obj 498 417 *;
#X obj 516 388 !- 1;
#X obj 431 467 +;
#X obj 498 468 +;
#X obj 622 402 *;
#X obj 689 403 *;
#X msg 812 290 \$1 10;
#X msg 886 291 \$1 10;
#X obj 812 321 line;
#X obj 886 322 line;
#X obj 812 262 unpack f f, f 11;
#X obj 432 198 route sound1 sound2 mix, f 82;
#X obj 978 271 loadbang;
#X msg 978 295 0;
#X msg 498 503 \$1 1;
#X connect 0 0 20 0;
#X connect 1 0 7 0;
#X connect 1 1 9 0;
#X connect 2 0 3 0;
#X connect 3 0 4 0;
#X connect 5 0 3 1;
#X connect 6 0 13 0;
#X connect 6 1 14 0;
#X connect 7 0 11 0;
#X connect 8 0 7 1;
#X connect 9 0 12 0;
#X connect 10 0 9 1;
#X connect 11 0 2 0;
#X connect 12 0 23 0;
#X connect 13 0 11 1;
#X connect 14 0 12 1;
#X connect 15 0 17 0;
#X connect 16 0 18 0;
#X connect 17 0 13 1;
#X connect 17 0 8 0;
#X connect 18 0 14 1;
#X connect 18 0 10 0;
#X connect 19 0 15 0;
#X connect 19 1 16 0;
#X connect 20 0 1 0;
#X connect 20 1 6 0;
#X connect 20 2 19 0;
#X connect 21 0 22 0;
#X connect 22 0 17 0;
#X connect 22 0 18 0;
#X connect 23 0 5 0;
