#N canvas 0 23 1280 751 16;
#X obj 135 605 pan4~, f 26;
#X text 398 547 position control 0..4;
#X obj 137 83 *~ 0.5;
#X text 449 459 0..360 -> 0..4;
#X text 408 602 spatialization of the direct signal;
#X obj 137 34 inlet~;
#X obj 1236 95 cnv 15 404 370 empty empty empty 20 12 0 14 -233017
-66577 0;
#X text 1262 122 speaker 0;
#X text 1511 122 speaker 1;
#X text 1511 385 speaker 2;
#X text 1262 385 speaker 3;
#X text 1567 260 x=1;
#X text 1419 260 0 \, 0;
#X text 1266 260 x=-1;
#X text 1277 143 dac~ 3;
#X text 1530 143 dac~ 4;
#X text 1532 408 dac~ 5;
#X text 1280 408 dac~ 6;
#X text 1419 122 y=1;
#X text 1419 385 y=-1;
#X obj 136 664 outlet~;
#X obj 220 664 outlet~;
#X obj 306 664 outlet~;
#X obj 392 664 outlet~;
#X obj 551 58 inlet~;
#X obj 819 55 inlet~;
#X obj 819 158 atan2~;
#X obj 819 188 /~ 6.28319;
#X obj 819 235 *~ 360;
#X obj 392 426 *~ -1;
#X obj 392 459 /~ 90;
#X obj 392 495 +~ 1.5;
#X obj 137 331 /~;
#X text 63 33 signal;
#X text 538 33 x (-1 \, 1);
#X text 791 24 y (-1 \, 1);
#X text 449 246 distance;
#X text 900 235 angle in degrees;
#X obj 551 150 *~;
#X obj 602 148 *~;
#X obj 551 179 +~;
#X obj 638 215 r minDistance;
#X obj 551 208 sqrt~;
#X obj 551 248 max~ 0.25;
#X obj 1069 667 outlet~;
#X text 926 668 reverb outlet;
#X connect 0 0 20 0;
#X connect 0 1 21 0;
#X connect 0 2 22 0;
#X connect 0 3 23 0;
#X connect 2 0 32 0;
#X connect 2 0 44 0;
#X connect 5 0 2 0;
#X connect 24 0 38 0;
#X connect 24 0 38 1;
#X connect 24 0 26 1;
#X connect 25 0 39 1;
#X connect 25 0 39 0;
#X connect 25 0 26 0;
#X connect 26 0 27 0;
#X connect 27 0 28 0;
#X connect 28 0 29 0;
#X connect 29 0 30 0;
#X connect 30 0 31 0;
#X connect 31 0 0 1;
#X connect 32 0 0 0;
#X connect 38 0 40 0;
#X connect 39 0 40 1;
#X connect 40 0 42 0;
#X connect 41 0 43 1;
#X connect 42 0 43 0;
#X connect 43 0 32 1;
