#N canvas 0 23 1280 751 12;
#X msg 653 460 \$1 25;
#X obj 653 484 line~;
#X obj 372 533 *~;
#X obj 474 532 *~;
#X obj 218 357 osc~;
#X obj 218 387 *~;
#X obj 218 640 outlet~;
#X obj 303 640 outlet~;
#X obj 388 638 outlet~;
#X obj 474 639 outlet~;
#X obj 218 122 inlet;
#X obj 372 439 inlet~;
#X obj 423 439 inlet~;
#X obj 218 411 *~;
#X obj 1021 185 loadbang;
#X obj 1021 212 f \$1;
#X obj 924 194 unpack f f;
#X obj 924 230 <=;
#X obj 991 233 >=;
#X obj 924 281 ==;
#X obj 924 254 == 1;
#X obj 991 257 == 1;
#X msg 924 305 \$1 50;
#X obj 924 329 line~;
#X text 374 419 xfreq;
#X text 423 419 yfreq;
#X obj 983 305 loadmess 1;
#X msg 285 324 \$1 1;
#X obj 285 348 line~;
#X obj 306 204 r stabletime;
#X text 493 585 signal \, x \, y pos;
#N canvas 0 23 1280 751 stableharm 0;
#X obj 389 322 sel 0 1;
#X obj 290 90 inlet;
#X obj 389 359 timer;
#X obj 389 234 -;
#X obj 389 258 abs;
#X obj 284 465 gate 1;
#X obj 284 489 outlet;
#X obj 714 162 inlet;
#X obj 389 282 < 5;
#X obj 389 413 > 50;
#X obj 290 114 t l l;
#X msg 340 155 \$1;
#X text 372 153 frequency;
#X obj 340 193 t f f, f 10;
#X text 422 281 freq dev;
#X text 429 413 stable time;
#X obj 319 322 loadbang;
#X msg 230 411 1;
#X connect 0 0 2 0;
#X connect 0 1 2 1;
#X connect 1 0 10 0;
#X connect 2 0 9 0;
#X connect 3 0 4 0;
#X connect 4 0 8 0;
#X connect 5 0 6 0;
#X connect 7 0 9 1;
#X connect 8 0 0 0;
#X connect 9 0 5 0;
#X connect 10 0 11 0;
#X connect 10 1 5 1;
#X connect 11 0 13 0;
#X connect 13 0 3 1;
#X connect 13 1 3 0;
#X connect 16 0 2 0;
#X connect 16 0 17 0;
#X connect 17 0 5 0;
#X restore 218 231 pd stableharm;
#X obj 534 640 outlet~;
#X text 282 669 channels 1 - 4;
#X text 531 664 reverb channel;
#X obj 218 160 route harm randamt dist-xy range, f 135;
#N canvas 0 23 1280 751 freq-xy 0;
#X obj 765 374 inlet;
#X msg 765 398 \$1 25;
#X obj 765 422 line~;
#X obj 629 453 !-~ 1;
#X obj 364 490 *~;
#X obj 364 525 +~;
#X obj 364 608 outlet~;
#X obj 364 230 inlet~;
#X obj 503 450 *~;
#X obj 503 307 rand~;
#X obj 611 486 *~;
#X obj 611 521 +~;
#X obj 611 604 outlet~;
#X obj 611 226 inlet~;
#X obj 747 454 *~;
#X obj 748 301 rand~;
#N canvas 0 23 1280 751 freq 0;
#X obj 525 295 loadbang;
#X obj 525 322 f \$1;
#X obj 404 651 outlet~;
#X obj 664 194 t f f, f 48;
#X msg 694 389 0;
#X obj 664 218 > 0;
#X obj 405 284 inlet~;
#X obj 405 440 *~ 1;
#X obj 664 242 sel 1 0, f 9;
#X obj 694 328 t b b;
#X msg 726 359 1;
#X obj 405 493 osc~;
#X obj 507 360 *;
#X obj 664 276 f;
#X obj 507 384 + 1;
#X obj 664 170 r phasingAmount;
#X connect 0 0 1 0;
#X connect 1 0 12 1;
#X connect 3 0 5 0;
#X connect 3 1 13 1;
#X connect 4 0 11 1;
#X connect 5 0 8 0;
#X connect 6 0 7 0;
#X connect 7 0 11 0;
#X connect 8 0 13 0;
#X connect 8 1 9 0;
#X connect 9 0 4 0;
#X connect 9 1 10 0;
#X connect 10 0 7 1;
#X connect 11 0 2 0;
#X connect 12 0 14 0;
#X connect 13 0 12 0;
#X connect 14 0 7 1;
#X connect 15 0 3 0;
#X restore 364 306 pd freq;
#N canvas 0 23 1280 751 freq 0;
#X obj 525 295 loadbang;
#X obj 525 322 f \$1;
#X obj 404 651 outlet~;
#X obj 664 194 t f f, f 48;
#X msg 694 389 0;
#X obj 664 218 > 0;
#X obj 405 284 inlet~;
#X obj 405 440 *~ 1;
#X obj 664 242 sel 1 0, f 9;
#X obj 694 328 t b b;
#X msg 726 359 1;
#X obj 405 493 osc~;
#X obj 507 360 *;
#X obj 664 276 f;
#X obj 507 384 + 1;
#X obj 664 170 r phasingAmount;
#X connect 0 0 1 0;
#X connect 1 0 12 1;
#X connect 3 0 5 0;
#X connect 3 1 13 1;
#X connect 4 0 11 1;
#X connect 5 0 8 0;
#X connect 6 0 7 0;
#X connect 7 0 11 0;
#X connect 8 0 13 0;
#X connect 8 1 9 0;
#X connect 9 0 4 0;
#X connect 9 1 10 0;
#X connect 10 0 7 1;
#X connect 11 0 2 0;
#X connect 12 0 14 0;
#X connect 13 0 12 0;
#X connect 14 0 7 1;
#X connect 15 0 3 0;
#X restore 611 299 pd freq;
#X connect 0 0 1 0;
#X connect 1 0 2 0;
#X connect 2 0 3 0;
#X connect 2 0 8 1;
#X connect 2 0 14 1;
#X connect 3 0 4 1;
#X connect 3 0 10 1;
#X connect 4 0 5 0;
#X connect 5 0 6 0;
#X connect 7 0 9 0;
#X connect 7 0 16 0;
#X connect 8 0 5 1;
#X connect 9 0 8 0;
#X connect 10 0 11 0;
#X connect 11 0 12 0;
#X connect 13 0 15 0;
#X connect 13 0 17 0;
#X connect 14 0 11 1;
#X connect 15 0 14 0;
#X connect 16 0 4 0;
#X connect 17 0 10 0;
#X restore 372 484 pd freq-xy;
#X f 15;
#X obj 689 215 unpack f f;
#X obj 653 413 pow 2;
#X msg 756 458 \$1 25;
#X obj 756 482 line~;
#X obj 766 375 loadmess 0.5;
#X obj 756 411 pow 2;
#X obj 218 255 unpack f f;
#X msg 125 455 \$1 50;
#X obj 125 479 line~;
#X obj 125 432 r mainvol;
#X obj 218 435 *~;
#X obj 49 431 loadmess 1;
#X obj 218 586 pan4_with_center_and_distance~, f 37;
#X obj 474 562 tgl 15 0 empty empty empty 17 7 0 10 -262144 -1 -1 0
1;
#X obj 653 437 * 10;
#X obj 756 435 * 10;
#X obj 499 562 loadmess 0;
#X obj 219 304 * 1;
#X obj 134 270 r octave;
#X connect 0 0 1 0;
#X connect 1 0 2 1;
#X connect 2 0 49 1;
#X connect 3 0 49 2;
#X connect 4 0 5 0;
#X connect 5 0 13 0;
#X connect 10 0 35 0;
#X connect 11 0 36 0;
#X connect 12 0 36 1;
#X connect 13 0 47 0;
#X connect 14 0 15 0;
#X connect 15 0 17 1;
#X connect 15 0 18 1;
#X connect 16 0 17 0;
#X connect 16 1 18 0;
#X connect 17 0 20 0;
#X connect 18 0 21 0;
#X connect 19 0 22 0;
#X connect 20 0 19 0;
#X connect 21 0 19 1;
#X connect 22 0 23 0;
#X connect 23 0 13 1;
#X connect 26 0 22 0;
#X connect 27 0 28 0;
#X connect 28 0 5 1;
#X connect 29 0 31 1;
#X connect 31 0 43 0;
#X connect 35 0 31 0;
#X connect 35 1 36 2;
#X connect 35 2 37 0;
#X connect 35 3 16 0;
#X connect 36 0 2 0;
#X connect 36 1 3 0;
#X connect 37 0 38 0;
#X connect 37 1 42 0;
#X connect 38 0 51 0;
#X connect 39 0 40 0;
#X connect 40 0 3 1;
#X connect 41 0 42 0;
#X connect 41 0 38 0;
#X connect 42 0 52 0;
#X connect 43 0 54 0;
#X connect 43 1 27 0;
#X connect 44 0 45 0;
#X connect 45 0 47 1;
#X connect 46 0 44 0;
#X connect 47 0 49 0;
#X connect 47 0 32 0;
#X connect 48 0 44 0;
#X connect 49 0 6 0;
#X connect 49 1 7 0;
#X connect 49 2 8 0;
#X connect 49 3 9 0;
#X connect 50 0 49 3;
#X connect 51 0 0 0;
#X connect 52 0 39 0;
#X connect 53 0 50 0;
#X connect 54 0 4 0;
#X connect 55 0 54 1;
