#N canvas 0 23 1280 751 12;
#X msg 31 109 \; pd dsp \$1;
#X obj 31 84 tgl 15 0 empty empty empty 17 7 0 10 -262144 -1 -1 0 1
;
#X obj 514 634 hsl 128 15 0.01 1 1 0 empty empty empty -2 -8 0 10 -262144
-1 -1 0 1;
#X obj 711 393 hsl 128 15 0 1 0 0 empty empty empty -2 -8 0 10 -262144
-1 -1 0 1;
#X obj 461 362 hsl 128 15 -1 1 0 1 empty empty empty -2 -8 0 10 -262144
-1 -1 6350 1;
#X obj 1083 55 bng 15 250 50 0 empty empty empty 17 7 0 10 -262144
-1 -1;
#X obj 1083 78 loadmess 5000;
#X floatatom 476 384 5 0 0 0 - - -;
#X obj 1061 143 hsl 128 15 0.0001 1 1 1 empty empty empty -2 -8 0 10
-262144 -1 -1 12700 1;
#X obj 417 149 bng 15 250 50 0 empty empty empty 17 7 0 10 -262144
-1 -1;
#X floatatom 464 151 5 0 0 0 - pulse-t -;
#X floatatom 597 150 5 1 5000 0 - n-puls -;
#N canvas 0 23 1280 751 earlyreflections 0;
#X obj 1044 423 !-~ 1;
#X obj 831 599 outlet~;
#X obj 1043 598 outlet~;
#X obj 831 144 inlet~;
#X obj 831 200 +~ 0.5;
#X obj 831 176 *~ 0.5;
#X obj 1043 574 delread4~ earlyref;
#X obj 831 575 delread4~ earlyref;
#X obj 255 150 r pickup1;
#X msg 255 174 \$1 5;
#X obj 255 198 line~;
#X obj 255 227 *~ 0.5;
#X obj 255 251 +~ 0.5;
#X obj 254 442 -~;
#X msg 467 172 \$1 5;
#X obj 467 196 line~;
#X obj 466 446 -~;
#X obj 467 148 r pickup2;
#X obj 467 280 !-~ 1;
#X obj 467 227 *~ 0.5;
#X obj 467 252 +~ 0.5;
#X obj 222 604 outlet~;
#X obj 434 606 outlet~;
#X obj 466 549 delread4~ earlyref;
#X obj 254 543 delread4~ earlyref;
#X obj 254 466 abs~;
#X obj 466 470 abs~;
#X obj 484 408 !-~ 1;
#X text 897 599 to late reflections;
#X text 327 607 to output;
#X obj 222 575 gate~;
#X obj 222 310 >~ 0;
#X obj 434 574 gate~;
#X obj 434 310 >~ 0;
#X msg 1112 455 \$1 5;
#X obj 1112 484 line~;
#X obj 1112 432 r earlyT;
#X obj 466 521 *~;
#X obj 254 517 *~;
#X obj 831 514 *~;
#X obj 1043 515 *~;
#X connect 0 0 40 0;
#X connect 3 0 5 0;
#X connect 4 0 0 0;
#X connect 4 0 13 1;
#X connect 4 0 27 0;
#X connect 4 0 39 0;
#X connect 5 0 4 0;
#X connect 6 0 2 0;
#X connect 7 0 1 0;
#X connect 8 0 9 0;
#X connect 9 0 10 0;
#X connect 10 0 11 0;
#X connect 11 0 12 0;
#X connect 12 0 13 0;
#X connect 12 0 31 0;
#X connect 13 0 25 0;
#X connect 14 0 15 0;
#X connect 15 0 19 0;
#X connect 16 0 26 0;
#X connect 17 0 14 0;
#X connect 18 0 16 0;
#X connect 18 0 33 0;
#X connect 19 0 20 0;
#X connect 20 0 18 0;
#X connect 23 0 32 1;
#X connect 24 0 30 1;
#X connect 25 0 38 0;
#X connect 26 0 37 0;
#X connect 27 0 16 1;
#X connect 30 0 21 0;
#X connect 31 0 30 0;
#X connect 32 0 22 0;
#X connect 33 0 32 0;
#X connect 34 0 35 0;
#X connect 35 0 37 1;
#X connect 35 0 38 1;
#X connect 35 0 39 1;
#X connect 35 0 40 1;
#X connect 36 0 34 0;
#X connect 37 0 23 0;
#X connect 38 0 24 0;
#X connect 39 0 7 0;
#X connect 40 0 6 0;
#X restore 458 459 pd earlyreflections;
#X obj 458 431 line~;
#X text 564 131 amount of pulses;
#X obj 915 217 s earlyT;
#X obj 1009 217 s lateT;
#X floatatom 915 67 5 0 0 0 - - -;
#X floatatom 1009 66 5 0 0 0 - - -;
#X obj 915 187 * 1;
#X obj 1009 186 * 1;
#X obj 915 106 clip 0 5000;
#X obj 1009 106 clip 0 5000;
#X floatatom 915 40 5 0 0 0 - - -;
#N canvas 0 23 1280 751 out~ 0;
#X obj 483 425 *~;
#X msg 701 337 \$1 50;
#X obj 701 361 line~;
#X obj 568 423 *~;
#X obj 483 328 clip~ -1 1;
#X obj 568 330 clip~ -1 1;
#X obj 483 449 outlet~;
#X obj 568 447 outlet~;
#X obj 483 263 inlet~;
#X obj 568 264 inlet~;
#X obj 701 308 inlet;
#X connect 0 0 6 0;
#X connect 1 0 2 0;
#X connect 2 0 3 1;
#X connect 2 0 0 1;
#X connect 3 0 7 0;
#X connect 4 0 0 0;
#X connect 5 0 3 0;
#X connect 8 0 4 0;
#X connect 9 0 5 0;
#X connect 10 0 1 0;
#X restore 458 656 pd out~;
#X f 8;
#X obj 458 680 dac~ 1 2;
#X text 741 371 feedback;
#X text 443 341 position of pulse injection;
#X obj 1058 163 t b f;
#X floatatom 1067 216 5 0 0 0 - - -;
#X floatatom 872 218 5 0 0 0 - - -;
#X text 446 131 pulse time (ms);
#X text 1006 240 late reflections delay time (ms), f 17;
#X text 788 408 dampening freq;
#X obj 796 432 hsl 128 15 0 1 0 0 empty empty empty -2 -8 0 10 -262144
-1 -1 0 1;
#X floatatom 808 478 5 0 0 0 - - -;
#X obj 793 454 scale 0 1 50 10000 1.5;
#X obj 417 91 metro 1000;
#X obj 417 63 tgl 15 0 empty empty empty 17 7 0 10 -262144 -1 -1 0
1;
#X floatatom 484 63 5 0 0 0 - - -;
#X obj 417 206 delwrite~ earlyref 5000;
#X obj 915 17 loadmess 1000;
#X text 888 237 early delay time (ms), f 12;
#X msg 458 408 \$1 5;
#X obj 877 497 tgl 15 1 empty empty empty 17 7 0 10 -262144 -1 -1 0
1;
#X obj 750 168 mtof;
#X obj 750 192 !/ 1000;
#X floatatom 750 143 5 0 0 0 - - -;
#X floatatom 750 216 5 0 0 0 - - -;
#X floatatom 701 182 5 0 0 0 - - -;
#N canvas 0 23 1280 751 pulsetrain2 0;
#X obj 488 292 *~;
#X obj 540 270 curve~;
#X obj 540 213 pack f f;
#X msg 540 242 0 \, 1 \$1 0.5 0 \$2 -0.5;
#X obj 488 268 pink~;
#X obj 579 367 <;
#X obj 579 391 sel 1 0, f 13;
#X obj 540 185 f 1;
#X obj 488 316 outlet~;
#X obj 540 137 inlet;
#X obj 830 291 inlet;
#X obj 593 136 inlet;
#X text 529 116 trigger;
#X text 593 114 pulse time;
#X text 872 291 amount of pulses;
#X obj 634 325 + 1;
#X obj 579 301 i;
#X msg 623 418 1;
#X obj 579 325 t f f;
#N canvas 0 23 1280 751 pulsetrain 0;
#X obj 647 209 inlet;
#X obj 594 295 metro, f 8;
#X obj 594 339 i;
#X obj 624 338 + 1;
#X obj 594 379 <;
#X obj 617 493 click~;
#X obj 880 212 inlet;
#X obj 594 208 inlet;
#X msg 594 257 1;
#X obj 594 232 t b;
#X msg 491 367 0;
#X obj 491 342 t b;
#X obj 594 403 sel 0 1;
#X obj 617 517 outlet~;
#X connect 0 0 1 1;
#X connect 1 0 2 0;
#X connect 2 0 3 0;
#X connect 2 0 4 0;
#X connect 3 0 2 1;
#X connect 4 0 12 0;
#X connect 5 0 13 0;
#X connect 6 0 4 1;
#X connect 7 0 9 0;
#X connect 8 0 1 0;
#X connect 9 0 8 0;
#X connect 10 0 1 0;
#X connect 10 0 2 1;
#X connect 11 0 10 0;
#X connect 12 0 11 0;
#X connect 12 1 5 0;
#X restore 80 239 pd pulsetrain;
#X connect 0 0 8 0;
#X connect 1 0 0 1;
#X connect 1 1 16 0;
#X connect 2 0 3 0;
#X connect 3 0 1 0;
#X connect 4 0 0 0;
#X connect 5 0 6 0;
#X connect 6 0 7 0;
#X connect 6 1 17 0;
#X connect 7 0 2 0;
#X connect 9 0 7 0;
#X connect 10 0 5 1;
#X connect 11 0 2 1;
#X connect 15 0 16 1;
#X connect 16 0 18 0;
#X connect 17 0 16 1;
#X connect 18 0 5 0;
#X connect 18 1 15 0;
#X restore 417 177 pd pulsetrain2;
#X obj 205 81 s pickup1;
#X obj 205 131 s pickup2;
#X obj 208 58 hsl 128 15 -1 1 0 1 empty empty empty -2 -8 0 10 -262144
-1 -1 0 1;
#X obj 208 108 hsl 128 15 -1 1 0 1 empty empty empty -2 -8 0 10 -262144
-1 -1 12700 1;
#X text 851 475 invert fb;
#X text 171 35 pickup positions left & right;
#X obj 680 647 else/vu~;
#X obj 681 672 vu 15 120 empty empty -1 -8 0 10 -66577 -1 1 0;
#X obj 749 646 else/vu~;
#X obj 750 671 vu 15 120 empty empty -1 -8 0 10 -66577 -1 1 0;
#X floatatom 162 82 5 0 0 0 - - -;
#N canvas 0 23 1280 751 latereflections 0;
#X obj 431 423 *~;
#X obj 749 398 line~;
#X msg 749 374 \$1 5;
#X obj 433 263 onepole~ 8000;
#X obj 731 262 onepole~ 8000;
#X obj 433 194 delread4~ lateref1;
#X obj 731 191 delread4~ lateref2;
#X obj 431 569 delwrite~ lateref2 5000;
#X obj 731 571 delwrite~ lateref1 5000;
#X obj 731 429 *~;
#X obj 603 63 r lateT;
#X obj 168 459 inlet~;
#X obj 220 459 inlet~;
#X obj 749 317 inlet;
#X text 125 437 early reflections ch 1 & 2;
#X text 551 41 latereflections delay time;
#X obj 819 235 inlet;
#X text 810 215 dampening;
#X text 588 592 cross feedback: delread 1 into delwrite 2 and vice
versa, f 22;
#X obj 931 361 inlet;
#X obj 931 416 * 2;
#X obj 931 440 - 1;
#X obj 749 347 pow 0.2;
#X obj 931 385 !- 1;
#X text 900 338 fb inversion;
#X obj 431 470 *~ 1;
#X obj 731 467 *~ 1;
#X text 791 317 feedback;
#X obj 603 111 line~;
#X obj 431 520 +~;
#X obj 731 521 +~;
#X msg 603 87 \$1 5;
#X obj 65 331 outlet~;
#X obj 65 234 *~ 1;
#X obj 211 234 *~ 1;
#X obj 65 146 +~ 0.5;
#X obj 65 122 *~ 0.5;
#X obj 65 304 +~;
#X obj 236 210 r lateT;
#X msg 65 68 \$1 5;
#X obj 65 92 line~;
#X obj 1006 182 !-~ 1;
#X obj 1006 313 outlet~;
#X obj 1006 216 *~ 1;
#X obj 1145 216 *~ 1;
#X obj 1006 128 +~ 0.5;
#X obj 1006 104 *~ 0.5;
#X obj 1006 286 +~;
#X obj 1170 192 r lateT;
#X msg 1006 50 \$1 5;
#X obj 1006 74 line~;
#X obj 433 287 hip~ 10;
#X obj 731 287 hip~ 10;
#X text 489 286 remove dc;
#X obj 65 44 r pickup1;
#X obj 1006 26 r pickup2;
#X obj 65 191 !-~ 1;
#X obj 65 270 delread4~ lateref1;
#X obj 211 270 delread4~ lateref2;
#X obj 1006 252 delread4~ lateref1;
#X obj 1145 252 delread4~ lateref2;
#X obj 512 518 r cleardelay;
#X msg 512 542 clear;
#X connect 0 0 25 0;
#X connect 1 0 0 1;
#X connect 1 0 9 1;
#X connect 2 0 1 0;
#X connect 3 0 51 0;
#X connect 4 0 52 0;
#X connect 5 0 3 0;
#X connect 6 0 4 0;
#X connect 9 0 26 0;
#X connect 10 0 31 0;
#X connect 11 0 29 1;
#X connect 12 0 30 1;
#X connect 13 0 22 0;
#X connect 16 0 4 1;
#X connect 16 0 3 1;
#X connect 19 0 23 0;
#X connect 20 0 21 0;
#X connect 21 0 26 1;
#X connect 21 0 25 1;
#X connect 22 0 2 0;
#X connect 23 0 20 0;
#X connect 25 0 29 0;
#X connect 26 0 30 0;
#X connect 28 0 5 0;
#X connect 28 0 6 0;
#X connect 29 0 7 0;
#X connect 30 0 8 0;
#X connect 31 0 28 0;
#X connect 33 0 57 0;
#X connect 34 0 58 0;
#X connect 35 0 56 0;
#X connect 35 0 34 0;
#X connect 36 0 35 0;
#X connect 37 0 32 0;
#X connect 38 0 34 1;
#X connect 38 0 33 1;
#X connect 39 0 40 0;
#X connect 40 0 36 0;
#X connect 41 0 43 0;
#X connect 43 0 59 0;
#X connect 44 0 60 0;
#X connect 45 0 41 0;
#X connect 45 0 44 0;
#X connect 46 0 45 0;
#X connect 47 0 42 0;
#X connect 48 0 44 1;
#X connect 48 0 43 1;
#X connect 49 0 50 0;
#X connect 50 0 46 0;
#X connect 51 0 0 0;
#X connect 52 0 9 0;
#X connect 54 0 39 0;
#X connect 55 0 49 0;
#X connect 56 0 33 0;
#X connect 57 0 37 0;
#X connect 58 0 37 1;
#X connect 59 0 47 0;
#X connect 60 0 47 1;
#X connect 61 0 62 0;
#X connect 62 0 7 0;
#X connect 62 0 8 0;
#X restore 544 517 pd latereflections;
#X f 48;
#X obj 459 577 +~;
#X obj 501 577 +~;
#X obj 21 250 loadbang;
#X msg 21 276 \; pulse-t 50 \; n-puls 1 \;;
#X obj 922 544 tgl 15 1 empty empty empty 17 7 0 10 -262144 -1 -1 1
1;
#X obj 424 468 tgl 15 1 empty empty empty 17 7 0 10 -262144 -1 -1 1
1;
#X msg 412 349 0;
#X obj 458 483 *~ 1;
#X obj 501 482 *~ 1;
#X obj 544 541 *~ 1;
#X obj 877 542 *~ 1;
#X obj 1090 430 s cleardelay;
#X obj 1090 409 bng 15 250 50 0 empty empty empty 17 7 0 10 -262144
-1 -1;
#X connect 1 0 0 0;
#X connect 2 0 24 2;
#X connect 3 0 62 2;
#X connect 4 0 7 0;
#X connect 4 0 43 0;
#X connect 5 0 6 0;
#X connect 6 0 22 2;
#X connect 6 0 21 2;
#X connect 8 0 28 0;
#X connect 9 0 50 0;
#X connect 10 0 50 1;
#X connect 11 0 50 2;
#X connect 12 0 70 0;
#X connect 12 1 71 0;
#X connect 12 2 62 0;
#X connect 12 3 62 1;
#X connect 13 0 12 0;
#X connect 17 0 21 0;
#X connect 18 0 22 0;
#X connect 19 0 15 0;
#X connect 19 0 30 0;
#X connect 20 0 16 0;
#X connect 20 0 29 0;
#X connect 21 0 19 0;
#X connect 22 0 20 0;
#X connect 23 0 17 0;
#X connect 23 0 18 0;
#X connect 24 0 25 0;
#X connect 24 0 57 0;
#X connect 24 1 25 1;
#X connect 24 1 59 0;
#X connect 28 0 20 0;
#X connect 28 0 19 0;
#X connect 28 1 20 1;
#X connect 28 1 19 1;
#X connect 34 0 36 0;
#X connect 36 0 35 0;
#X connect 36 0 62 3;
#X connect 37 0 9 0;
#X connect 38 0 37 0;
#X connect 39 0 37 1;
#X connect 41 0 23 0;
#X connect 43 0 13 0;
#X connect 44 0 62 4;
#X connect 45 0 46 0;
#X connect 45 0 49 0;
#X connect 46 0 48 0;
#X connect 46 0 15 0;
#X connect 46 0 16 0;
#X connect 47 0 45 0;
#X connect 50 0 40 0;
#X connect 53 0 51 0;
#X connect 53 0 61 0;
#X connect 54 0 52 0;
#X connect 57 0 58 0;
#X connect 59 0 60 0;
#X connect 62 0 72 0;
#X connect 62 1 73 0;
#X connect 63 0 24 0;
#X connect 64 0 24 1;
#X connect 65 0 66 0;
#X connect 67 0 72 1;
#X connect 67 0 73 1;
#X connect 68 0 70 1;
#X connect 68 0 71 1;
#X connect 69 0 4 0;
#X connect 70 0 63 0;
#X connect 71 0 64 0;
#X connect 72 0 63 1;
#X connect 73 0 64 1;
#X connect 75 0 74 0;
