#N canvas 0 23 1280 751 12;
#X obj 82 156 inlet~;
#X obj 553 530 outlet~;
#X obj 860 131 loadbang;
#X obj 860 213 /;
#X obj 836 135 bng 15 250 50 0 empty empty empty 17 7 0 10 -262144
-1 -1;
#X msg 860 189 64;
#X msg 974 189 44100;
#X obj 860 237 * 1000;
#X obj 860 155 t b b b, f 33;
#X obj 728 531 outlet~;
#X msg 1088 263 7;
#X text 1033 301 maximum delay time (ms);
#X text 908 237 minimum delaytime (ms);
#X floatatom 860 266 5 0 0 0 - - -;
#X obj 554 236 clip~ 0 1;
#X obj 728 239 clip~ -1 0;
#X obj 554 363 scale~ 0 1 0 0;
#X obj 554 147 inlet~;
#X obj 277 264 delwrite~ \$0-ch2_delay 7;
#X obj 81 264 delwrite~ \$0-ch1_delay 7;
#X obj 553 495 delread4~ \$0-ch1_delay;
#X obj 728 496 delread4~ \$0-ch2_delay;
#X obj 728 365 scale~ 0 -1 0 0;
#X connect 0 0 18 0;
#X connect 0 0 19 0;
#X connect 2 0 8 0;
#X connect 3 0 7 0;
#X connect 4 0 8 0;
#X connect 5 0 3 0;
#X connect 6 0 3 1;
#X connect 7 0 13 0;
#X connect 7 0 16 3;
#X connect 7 0 22 3;
#X connect 8 0 5 0;
#X connect 8 1 6 0;
#X connect 8 2 10 0;
#X connect 10 0 16 4;
#X connect 10 0 22 4;
#X connect 14 0 16 0;
#X connect 15 0 22 0;
#X connect 16 0 20 0;
#X connect 17 0 14 0;
#X connect 17 0 15 0;
#X connect 20 0 1 0;
#X connect 21 0 9 0;
#X connect 22 0 21 0;
