#N canvas 0 23 1280 751 12;
#X obj 489 598 line~;
#X obj 603 491 pack f f, f 13;
#X msg 784 480 0 \$1;
#X obj 784 456 f;
#X obj 488 456 f;
#X obj 603 430 delay;
#X obj 457 372 t b b;
#X obj 603 462 f, f 7;
#X obj 489 622 outlet~;
#X obj 637 159 inlet;
#X obj 637 186 unpack f f f f, f 24;
#X obj 457 161 inlet;
#X msg 488 490 1 \$1;
#X obj 457 221 sel 1 0;
#X obj 480 252 t b b, f 12;
#X msg 562 387 stop;
#X text 816 184 1: attack (ms) 2: sustain (ms) 3: sustain-target (0-1)
4: decay (ms), f 56;
#X connect 0 0 8 0;
#X connect 1 0 0 0;
#X connect 2 0 0 0;
#X connect 3 0 2 0;
#X connect 4 0 12 0;
#X connect 5 0 7 0;
#X connect 6 0 5 0;
#X connect 6 1 4 0;
#X connect 7 0 1 0;
#X connect 9 0 10 0;
#X connect 10 0 4 1;
#X connect 10 0 5 1;
#X connect 10 1 1 1;
#X connect 10 2 7 1;
#X connect 10 3 3 1;
#X connect 11 0 13 0;
#X connect 12 0 0 0;
#X connect 13 0 6 0;
#X connect 13 1 14 0;
#X connect 14 0 3 0;
#X connect 14 1 15 0;
#X connect 15 0 5 0;
