#N canvas 0 23 1280 751 12;
#X obj 110 224 inlet~;
#X obj 582 528 outlet~;
#X obj 889 129 loadbang;
#X obj 889 211 /;
#X obj 865 133 bng 15 250 50 0 empty empty empty 17 7 0 10 -262144
-1 -1;
#X msg 889 187 64;
#X msg 1003 187 44100;
#X obj 889 235 * 1000;
#X obj 889 153 t b b b, f 33;
#X obj 757 529 outlet~;
#X obj 757 237 clip -1 0;
#X obj 583 234 clip 0 1;
#X msg 757 356 \$1 50;
#X obj 757 380 line~;
#X msg 583 351 \$1 50;
#X obj 583 375 line~;
#X text 1022 298 maximum delay time (ms);
#X text 937 235 minimum delaytime (ms);
#X floatatom 889 264 5 0 0 0 - - -;
#X obj 583 145 inlet;
#X obj 583 326 scale 0 1 0 0;
#X obj 582 493 delread4~ \$0-ch1_delay;
#X obj 757 494 delread4~ \$0-ch2_delay;
#X obj 757 328 scale 0 -1 0 0;
#X obj 310 263 delwrite~ \$0-ch2_delay 7;
#X obj 110 262 delwrite~ \$0-ch1_delay 7;
#X msg 1117 261 7;
#X connect 0 0 24 0;
#X connect 0 0 25 0;
#X connect 2 0 8 0;
#X connect 3 0 7 0;
#X connect 4 0 8 0;
#X connect 5 0 3 0;
#X connect 6 0 3 1;
#X connect 7 0 18 0;
#X connect 7 0 20 3;
#X connect 7 0 23 3;
#X connect 8 0 5 0;
#X connect 8 1 6 0;
#X connect 8 2 26 0;
#X connect 10 0 23 0;
#X connect 11 0 20 0;
#X connect 12 0 13 0;
#X connect 13 0 22 0;
#X connect 14 0 15 0;
#X connect 15 0 21 0;
#X connect 19 0 10 0;
#X connect 19 0 11 0;
#X connect 20 0 14 0;
#X connect 21 0 1 0;
#X connect 22 0 9 0;
#X connect 23 0 12 0;
#X connect 26 0 20 4;
#X connect 26 0 23 4;
