#N canvas 0 23 1280 751 12;
#X obj 536 268 i;
#X obj 600 268 + 1;
#X obj 474 238 t 0, f 5;
#X obj 536 177 tgl 30 0 empty empty Click_me -30 -10 0 20 -262144 -1
-1 0 1;
#X floatatom 635 193 5 0 0 0 - - -;
#X obj 536 316 sel 10;
#X obj 536 222 metro 250;
#X obj 635 139 loadbang;
#X msg 635 166 250;
#X obj 633 323 nbx 2 30 -1e+37 1e+37 0 0 empty empty empty 0 -8 0 30
-262144 -1 -1 10 256;
#X text 252 239 Stops metro and resets counter;
#X connect 0 0 1 0;
#X connect 0 0 5 0;
#X connect 0 0 9 0;
#X connect 1 0 0 1;
#X connect 2 0 3 0;
#X connect 2 0 0 1;
#X connect 3 0 6 0;
#X connect 4 0 6 1;
#X connect 5 0 2 0;
#X connect 6 0 0 0;
#X connect 7 0 8 0;
#X connect 8 0 4 0;
