#N canvas 0 23 1280 751 12;
#N canvas 89 141 450 278 (subpatch) 0;
#X array buffer 176400 float 2;
#X coords 0 1 176400 -1 200 140 1 0 0;
#X restore 961 329 graph;
#X obj 957 179 adc~;
#X msg 91 91 \; pd dsp \$1;
#X obj 91 57 tgl 15 0 empty empty empty 17 7 0 10 -262144 -1 -1 1 1
;
#X floatatom 1014 181 5 0 0 0 - - -;
#X obj 500 679 dac~;
#X obj 520 501 phasor~;
#X floatatom 520 476 5 0 0 0 - - -;
#X obj 520 572 tabread4~ buffer;
#X obj 427 146 key;
#X obj 957 223 *~ 1;
#X obj 427 211 sel 112 114;
#X obj 520 536 *~;
#X obj 520 450 !/ 1;
#X obj 660 556 env~;
#X obj 660 582 - 100;
#X obj 661 612 vu 15 120 empty empty -1 -8 0 10 -66577 -1 1 0;
#X obj 517 146 keyup;
#X obj 517 211 sel 112;
#X obj 427 245 tgl 15 0 empty empty empty 17 7 0 10 -262144 -1 -1 1
1;
#X obj 629 410 loadmess 4;
#X floatatom 629 433 5 0 0 0 - - -;
#X obj 629 461 * 44100;
#X obj 424 578 line~;
#X obj 501 634 *~;
#X obj 957 262 tabwrite~ buffer;
#X obj 427 181 spigot;
#X obj 517 185 spigot;
#X obj 475 115 tgl 15 0 empty empty empty 17 7 0 10 -262144 -1 -1 1
1;
#X obj 569 283 sel 1;
#X msg 569 309 0;
#X text 113 59 1 Turn on DAC;
#X text 613 283 reset phaser phase when starting playback;
#X text 298 532 quick fadein/out;
#X text 908 152 Record when r key pressed;
#X text 205 239 play back while p key pressed;
#X text 690 461 amount of samples;
#X text 486 425 playback speed;
#X msg 425 532 \$1 5;
#X text 469 73 2 Turn on key tracking. This patch assumes key repeat
is off for OSX;
#X connect 1 0 10 0;
#X connect 3 0 2 0;
#X connect 4 0 10 1;
#X connect 6 0 12 0;
#X connect 7 0 6 0;
#X connect 8 0 24 1;
#X connect 9 0 26 0;
#X connect 10 0 25 0;
#X connect 11 0 19 0;
#X connect 11 1 25 0;
#X connect 12 0 8 0;
#X connect 13 0 7 0;
#X connect 14 0 15 0;
#X connect 15 0 16 0;
#X connect 17 0 27 0;
#X connect 18 0 19 0;
#X connect 19 0 38 0;
#X connect 19 0 29 0;
#X connect 20 0 21 0;
#X connect 21 0 13 0;
#X connect 21 0 22 0;
#X connect 22 0 12 1;
#X connect 23 0 24 0;
#X connect 24 0 5 0;
#X connect 24 0 5 1;
#X connect 24 0 14 0;
#X connect 26 0 11 0;
#X connect 27 0 18 0;
#X connect 28 0 26 1;
#X connect 28 0 27 1;
#X connect 29 0 30 0;
#X connect 30 0 6 1;
#X connect 38 0 23 0;
#X coords 0 0 10000 1000 0 0 0;
