#N canvas 0 23 1280 751 12;
#N canvas 89 141 450 278 (subpatch) 0;
#X array buffer 88200 float 2;
#X coords 0 1 88200 -1 200 140 1 0 0;
#X restore 1032 354 graph;
#X obj 390 45 adc~;
#X msg 91 91 \; pd dsp \$1;
#X obj 91 57 tgl 15 0 empty empty empty 17 7 0 10 -262144 -1 -1 1 1
;
#X floatatom 447 47 5 0 0 0 - - -;
#X obj 502 912 dac~;
#X obj 592 893 tabread4~ buffer;
#X obj 390 89 *~ 1;
#X obj 295 140 - 100;
#X obj 296 170 vu 15 120 empty empty -1 -8 0 10 -66577 -1 1 0;
#X obj 497 827 line~;
#X obj 574 918 *~;
#X obj 389 319 tabwrite~ buffer;
#X msg 498 781 \$1 5;
#X obj 578 134 env~;
#X obj 578 173 >;
#X obj 751 133 rmstodb;
#X obj 578 242 sel 1;
#X floatatom 751 162 5 0 0 0 - - -;
#X obj 755 59 hsl 128 15 0 127 0 0 empty empty empty -2 -8 0 10 -262144
-1 -1 2500 1;
#X obj 751 82 / 127;
#X obj 578 337 delay 1000;
#X obj 592 866 line~;
#X obj 689 398 delay 1000;
#X obj 578 201 spigot 1;
#X obj 746 283 tgl 15 0 empty empty empty 17 7 0 10 -262144 -1 -1 0
1;
#X msg 626 641 1;
#X obj 578 363 t b b b, f 12;
#X msg 498 754 1;
#X obj 626 610 t b b;
#X msg 658 640 0;
#X obj 578 268 t b b b;
#X obj 751 109 pow 2;
#X msg 624 300 0;
#X text 895 56 env treshold in dB;
#X obj 753 32 loadmess 25;
#X text 113 59 Turn on DAC;
#X obj 881 483 array size buffer;
#X floatatom 881 343 5 0 0 0 - - -;
#X obj 881 369 t f f;
#X msg 592 837 0 \, \$1 \$2;
#X obj 913 395 * 1000;
#X obj 881 446 * 44100;
#X text 802 210 When level of incoming audio > threshold: - Start recording
n seconds of audio and disable volume tracking. After recording \,
playback the sound. After playback \, enable volume tracking again.
;
#X obj 882 317 loadmess 2;
#X obj 593 785 f;
#X obj 646 784 f;
#X obj 592 810 pack f f;
#X obj 595 400 t b b, f 8;
#X text 862 293 amount of seconds to record;
#X obj 626 586 gate 2, f 13;
#X obj 790 443 tgl 15 0 empty empty loop 17 7 0 10 -262144 -1 -1 1
1;
#X obj 714 488 sel 1;
#X msg 764 508 0;
#X obj 626 562 + 1;
#X obj 714 450 t f f;
#X obj 714 512 t b b;
#X connect 1 0 7 0;
#X connect 3 0 2 0;
#X connect 4 0 7 1;
#X connect 6 0 11 1;
#X connect 7 0 14 0;
#X connect 7 0 12 0;
#X connect 8 0 9 0;
#X connect 10 0 11 0;
#X connect 11 0 5 0;
#X connect 11 0 5 1;
#X connect 13 0 10 0;
#X connect 14 0 15 0;
#X connect 14 0 8 0;
#X connect 15 0 24 0;
#X connect 16 0 18 0;
#X connect 16 0 15 1;
#X connect 17 0 31 0;
#X connect 19 0 20 0;
#X connect 20 0 32 0;
#X connect 21 0 27 0;
#X connect 22 0 6 0;
#X connect 23 0 50 1;
#X connect 24 0 17 0;
#X connect 25 0 24 1;
#X connect 26 0 25 0;
#X connect 27 0 28 0;
#X connect 27 1 48 0;
#X connect 27 2 23 0;
#X connect 28 0 13 0;
#X connect 29 0 26 0;
#X connect 29 1 30 0;
#X connect 30 0 13 0;
#X connect 31 0 21 0;
#X connect 31 1 12 0;
#X connect 31 2 33 0;
#X connect 32 0 16 0;
#X connect 33 0 25 0;
#X connect 35 0 19 0;
#X connect 38 0 39 0;
#X connect 39 0 42 0;
#X connect 39 1 41 0;
#X connect 40 0 22 0;
#X connect 41 0 21 1;
#X connect 41 0 23 1;
#X connect 41 0 46 1;
#X connect 42 0 37 0;
#X connect 42 0 45 1;
#X connect 44 0 38 0;
#X connect 45 0 47 0;
#X connect 46 0 47 1;
#X connect 47 0 40 0;
#X connect 48 0 45 0;
#X connect 48 1 46 0;
#X connect 50 0 29 0;
#X connect 50 1 27 0;
#X connect 51 0 55 0;
#X connect 52 0 56 0;
#X connect 53 0 25 0;
#X connect 54 0 50 0;
#X connect 55 0 52 0;
#X connect 55 1 54 0;
#X connect 56 0 50 1;
#X connect 56 1 53 0;
