#N canvas 0 23 1280 751 12;
#X obj 529 204 inlet~;
#X obj 667 204 inlet;
#X obj 667 347 cos;
#X obj 667 228 + 1;
#X msg 667 371 \$1 25;
#X obj 667 395 line~;
#X msg 717 370 \$1 25;
#X obj 717 394 line~;
#X obj 717 346 sin;
#X obj 524 443 *~;
#X obj 595 444 *~;
#X obj 523 523 outlet~;
#X obj 595 522 outlet~;
#X obj 667 281 * 3.14159;
#X obj 667 252 * 0.25;
#X text 712 204 Scale position control (-1 - 1) to (0. - 0.5*PI);
#X connect 0 0 9 0;
#X connect 0 0 10 0;
#X connect 1 0 3 0;
#X connect 2 0 4 0;
#X connect 3 0 14 0;
#X connect 4 0 5 0;
#X connect 5 0 9 1;
#X connect 6 0 7 0;
#X connect 7 0 10 1;
#X connect 8 0 6 0;
#X connect 9 0 11 0;
#X connect 10 0 12 0;
#X connect 13 0 2 0;
#X connect 13 0 8 0;
#X connect 14 0 13 0;
