#N canvas 0 23 1280 751 12;
#X obj 581 578 *~;
#X obj 601 387 ssi-ramp~;
#X text 673 350 1: attack (ms) \, 2:sustain (ms) \, 3:sustain-target
(0-1) \, 4: decay (ms), f 24;
#X obj 492 166 inlet;
#X obj 581 605 ssi-pan2, f 12;
#X obj 662 640 outlet~;
#X text 584 228 env trig;
#X obj 491 431 *~;
#X obj 558 406 !/ 1;
#X obj 852 426 loadbang;
#X obj 852 449 f \$1;
#X msg 884 541 0;
#X obj 491 370 osc~;
#X obj 581 639 outlet~;
#X text 516 603 panning;
#X obj 492 201 route freq trig env, f 37;
#X obj 492 232 unpack f f;
#X text 326 231 f0 \, harmonic number;
#X obj 492 276 *;
#X obj 884 499 sel 0 1;
#X obj 930 552 scale 2 5 -1 1;
#X obj 852 473 t f f;
#X obj 852 607 pack f f, f 12;
#X connect 0 0 4 0;
#X connect 1 0 0 1;
#X connect 3 0 15 0;
#X connect 4 0 13 0;
#X connect 4 1 5 0;
#X connect 7 0 0 0;
#X connect 8 0 7 1;
#X connect 9 0 10 0;
#X connect 10 0 21 0;
#X connect 11 0 4 1;
#X connect 11 0 22 1;
#X connect 12 0 7 0;
#X connect 15 0 16 0;
#X connect 15 1 1 0;
#X connect 15 2 1 1;
#X connect 16 0 18 0;
#X connect 16 1 18 1;
#X connect 16 1 8 0;
#X connect 18 0 12 0;
#X connect 19 0 11 0;
#X connect 19 1 11 0;
#X connect 19 2 20 0;
#X connect 20 0 4 1;
#X connect 20 0 22 1;
#X connect 21 0 22 0;
#X connect 21 1 19 0;
