#N canvas 334 23 815 856 16;
#X obj 275 768 dac~;
#X obj 275 668 osc~;
#X obj 275 701 *~ 0.2;
#X obj 275 729 *~ 1;
#X msg 78 67 devices;
#X msg 105 203 close;
#X text 186 70 Click here to see in pd-window which ports are available
;
#X obj 356 335 bng 15 250 50 0 empty empty empty 17 7 0 10 -262144
-1 -1;
#X floatatom 356 395 5 0 0 0 - - -;
#X obj 428 367 + 1;
#X obj 311 302 sel 255;
#X msg 311 335 0;
#X obj 350 474 spigot;
#X obj 407 432 == 1;
#X obj 275 474 spigot;
#X obj 332 432 == 2;
#X floatatom 350 505 5 0 0 0 - - -;
#X floatatom 275 505 5 0 0 0 - - -;
#X obj 275 535 * 100;
#X obj 275 566 +;
#X floatatom 275 599 5 0 0 0 - - -;
#X obj 275 639 + 20;
#X obj 156 474 spigot;
#X obj 78 474 spigot;
#X floatatom 156 505 5 0 0 0 - - -;
#X floatatom 78 505 5 0 0 0 - - -;
#X obj 78 538 * 100;
#X obj 78 560 +;
#X floatatom 78 583 5 0 0 0 - - -;
#X obj 213 432 == 3;
#X obj 135 432 == 4;
#X obj 78 270 t f f;
#X obj 356 367 float;
#X obj 78 240 comport 1 9600;
#X text 79 27 **install comport-v1.1.1 via 'Find Externals'**;
#X msg 98 110 open 4;
#X text 190 109 Replace the number of the port with the arduino after
"open";
#X connect 1 0 2 0;
#X connect 2 0 3 0;
#X connect 3 0 0 1;
#X connect 3 0 0 0;
#X connect 4 0 33 0;
#X connect 5 0 33 0;
#X connect 7 0 32 0;
#X connect 8 0 15 0;
#X connect 8 0 13 0;
#X connect 8 0 29 0;
#X connect 8 0 30 0;
#X connect 9 0 32 1;
#X connect 10 0 11 0;
#X connect 10 1 7 0;
#X connect 11 0 32 0;
#X connect 12 0 16 0;
#X connect 13 0 12 1;
#X connect 14 0 17 0;
#X connect 15 0 14 1;
#X connect 16 0 19 1;
#X connect 17 0 18 0;
#X connect 18 0 19 0;
#X connect 19 0 20 0;
#X connect 20 0 21 0;
#X connect 21 0 1 0;
#X connect 22 0 24 0;
#X connect 23 0 25 0;
#X connect 24 0 27 1;
#X connect 25 0 26 0;
#X connect 26 0 27 0;
#X connect 27 0 28 0;
#X connect 29 0 22 1;
#X connect 30 0 23 1;
#X connect 31 0 14 0;
#X connect 31 0 12 0;
#X connect 31 0 23 0;
#X connect 31 0 22 0;
#X connect 31 1 10 0;
#X connect 32 0 8 0;
#X connect 32 0 9 0;
#X connect 33 0 31 0;
#X connect 35 0 33 0;
