#N canvas 0 23 1280 751 12;
#X obj 202 89 tgl 15 0 empty empty empty 17 7 0 10 -262144 -1 -1 1
1;
#X msg 202 109 \; pd dsp \$1;
#X obj 349 131 netreceive -u -b;
#X msg 349 105 listen 8000;
#X obj 349 78 loadbang;
#X obj 349 166 mrpeach/unpackOSC;
#X msg 450 107 listen 0;
#X obj 349 228 unpack f f;
#X obj 348 499 osc~;
#X obj 415 499 osc~;
#X obj 349 325 * 1;
#X obj 416 323 * 1;
#X floatatom 433 259 5 0 0 0 - - -;
#X obj 349 634 *~;
#X obj 535 601 line~;
#X obj 538 543 hsl 128 15 0.001 1 1 0 empty empty empty -2 -8 0 10
-262144 -1 -1 12700 1;
#X msg 535 570 \$1 50;
#X floatatom 586 572 5 0 0 0 - - -;
#X obj 416 634 *~;
#X obj 349 676 dac~ 1 2;
#X obj 433 284 t b f;
#X obj 433 235 loadmess 1;
#X obj 616 342 osc~;
#X obj 683 342 osc~;
#X obj 616 367 *~;
#X obj 683 367 *~;
#X obj 348 441 +~;
#X obj 415 441 +~;
#X obj 614 242 unpack f f f f, f 15;
#X obj 349 204 mrpeach/routeOSC /xy-freq /xy-mod /phase, f 114;
#X msg 880 313 0;
#X msg 915 313 -0.25;
#X obj 880 289 t b b;
#X connect 0 0 1 0;
#X connect 2 0 5 0;
#X connect 3 0 2 0;
#X connect 4 0 3 0;
#X connect 5 0 29 0;
#X connect 6 0 2 0;
#X connect 7 0 10 0;
#X connect 7 1 11 0;
#X connect 8 0 13 0;
#X connect 9 0 18 0;
#X connect 10 0 26 0;
#X connect 11 0 27 0;
#X connect 12 0 20 0;
#X connect 13 0 19 0;
#X connect 14 0 18 1;
#X connect 14 0 13 1;
#X connect 15 0 16 0;
#X connect 15 0 17 0;
#X connect 16 0 14 0;
#X connect 18 0 19 1;
#X connect 20 0 11 0;
#X connect 20 0 10 0;
#X connect 20 1 11 1;
#X connect 20 1 10 1;
#X connect 21 0 12 0;
#X connect 22 0 24 0;
#X connect 23 0 25 0;
#X connect 24 0 26 1;
#X connect 25 0 27 1;
#X connect 26 0 8 0;
#X connect 27 0 9 0;
#X connect 28 0 22 0;
#X connect 28 1 24 1;
#X connect 28 2 23 0;
#X connect 28 3 25 1;
#X connect 29 0 7 0;
#X connect 29 1 28 0;
#X connect 29 2 32 0;
#X connect 30 0 22 1;
#X connect 30 0 8 1;
#X connect 31 0 23 1;
#X connect 31 0 9 1;
#X connect 32 0 30 0;
#X connect 32 1 31 0;
