#N canvas 0 23 1280 751 12;
#X msg 31 109 \; pd dsp \$1;
#X obj 31 84 tgl 15 0 empty empty empty 17 7 0 10 -262144 -1 -1 1 1
;
#X obj 585 641 hsl 128 15 0.001 1 1 0 empty empty empty -2 -8 0 10
-262144 -1 -1 12700 1;
#X obj 369 571 env~;
#X obj 369 595 - 100;
#X obj 370 619 vu 15 120 empty empty -1 -8 0 10 -66577 -1 1 0;
#X obj 417 569 env~;
#X obj 417 593 - 100;
#X obj 418 617 vu 15 120 empty empty -1 -8 0 10 -66577 -1 1 0;
#X obj 823 501 hsl 128 15 0 1 0 0 empty empty empty -2 -8 0 10 -262144
-1 -1 0 1;
#X obj 672 500 hsl 128 15 0 1 0 0 empty empty empty -2 -8 0 10 -262144
-1 -1 0 1;
#X obj 823 479 hsl 128 15 0 1 0 0 empty empty empty -2 -8 0 10 -262144
-1 -1 0 1;
#X obj 530 348 hsl 128 15 -1 1 0 0 empty empty empty -2 -8 0 10 -262144
-1 -1 0 1;
#X obj 1083 55 bng 15 250 50 0 empty empty empty 17 7 0 10 -262144
-1 -1;
#X obj 598 221 delwrite~ earlyref2 5000;
#X obj 417 221 delwrite~ earlyref1 5000;
#X obj 1083 78 loadmess 5000;
#X floatatom 400 407 5 0 0 0 - - -;
#X obj 1061 143 hsl 128 15 0.0001 1 1 1 empty empty empty -2 -8 0 10
-262144 -1 -1 12700 1;
#N canvas 0 23 1280 751 pulsetrain 0;
#X obj 647 209 inlet;
#X obj 594 295 metro, f 8;
#X obj 594 339 i;
#X obj 624 338 + 1;
#X obj 594 379 <;
#X obj 617 493 click~;
#X obj 880 212 inlet;
#X obj 594 208 inlet;
#X msg 594 257 1;
#X obj 594 232 t b;
#X msg 491 367 0;
#X obj 491 342 t b;
#X obj 594 403 sel 0 1;
#X obj 617 517 outlet~;
#X connect 0 0 1 1;
#X connect 1 0 2 0;
#X connect 2 0 3 0;
#X connect 2 0 4 0;
#X connect 3 0 2 1;
#X connect 4 0 12 0;
#X connect 5 0 13 0;
#X connect 6 0 4 1;
#X connect 7 0 9 0;
#X connect 8 0 1 0;
#X connect 9 0 8 0;
#X connect 10 0 1 0;
#X connect 10 0 2 1;
#X connect 11 0 10 0;
#X connect 12 0 11 0;
#X connect 12 1 5 0;
#X restore 417 177 pd pulsetrain;
#X obj 417 149 bng 15 250 50 0 empty empty empty 17 7 0 10 -262144
-1 -1;
#X floatatom 461 151 5 0 0 0 - - -;
#X floatatom 573 148 5 0 0 0 - - -;
#N canvas 0 23 1280 751 earlyreflections 0;
#X obj 646 642 delread4~ earlyref2;
#X obj 498 643 delread4~ earlyref1;
#X obj 646 518 !-~ 1;
#X obj 498 667 outlet~;
#X obj 646 666 outlet~;
#X obj 498 618 *~ 1;
#X obj 646 619 *~ 1;
#X obj 551 425 +~;
#X obj 604 236 rand~ 0.05;
#X obj 605 391 *~;
#X obj 788 163 inlet;
#X msg 788 270 \$1 50;
#X obj 788 294 line~;
#X obj 550 237 inlet~;
#X obj 551 473 +~ 0.5;
#X obj 551 449 *~ 0.5;
#X obj 788 195 unpack f f;
#X obj 551 392 *~;
#X obj 788 318 !-~ 1;
#X obj 832 293 loadmess 0;
#X obj 739 570 r earlyT;
#X connect 0 0 4 0;
#X connect 1 0 3 0;
#X connect 2 0 6 0;
#X connect 5 0 1 0;
#X connect 6 0 0 0;
#X connect 7 0 15 0;
#X connect 8 0 9 0;
#X connect 9 0 7 1;
#X connect 10 0 16 0;
#X connect 11 0 12 0;
#X connect 12 0 9 1;
#X connect 12 0 18 0;
#X connect 13 0 17 0;
#X connect 14 0 2 0;
#X connect 14 0 5 0;
#X connect 15 0 14 0;
#X connect 16 0 11 0;
#X connect 16 1 8 0;
#X connect 17 0 7 0;
#X connect 18 0 17 1;
#X connect 19 0 12 0;
#X connect 20 0 5 1;
#X connect 20 0 6 1;
#X restore 527 445 pd earlyreflections;
#X obj 527 417 line~;
#X msg 527 368 \$1 1;
#X floatatom 748 372 5 0 1 0 - - -;
#X obj 748 395 pow 2;
#X floatatom 864 373 5 0 0 0 - - -;
#X obj 864 396 * 0.01;
#X obj 748 418 pak f f, f 10;
#X text 446 131 pulse time;
#X text 537 128 amount of pulses;
#X obj 915 217 s earlyT;
#X obj 1009 217 s lateT;
#X floatatom 915 67 5 0 0 0 - - -;
#X floatatom 1009 66 5 0 0 0 - - -;
#X obj 915 187 * 1;
#X obj 1009 186 * 1;
#X obj 915 106 clip 0 5000;
#X obj 1009 106 clip 0 5000;
#X floatatom 915 40 5 0 0 0 - - -;
#N canvas 0 23 1280 751 out~ 0;
#X obj 483 425 *~;
#X msg 657 330 \$1 50;
#X obj 657 354 line~;
#X obj 568 423 *~;
#X obj 483 328 clip~ -1 1;
#X obj 568 330 clip~ -1 1;
#X obj 483 449 outlet~;
#X obj 568 447 outlet~;
#X obj 484 263 inlet~;
#X obj 569 264 inlet~;
#X obj 657 301 inlet;
#X connect 0 0 6 0;
#X connect 1 0 2 0;
#X connect 2 0 3 1;
#X connect 2 0 0 1;
#X connect 3 0 7 0;
#X connect 4 0 0 0;
#X connect 5 0 3 0;
#X connect 8 0 4 0;
#X connect 9 0 5 0;
#X connect 10 0 1 0;
#X restore 529 667 pd out~;
#X f 8;
#X obj 529 691 dac~ 1 2;
#N canvas 0 23 1280 751 latereflections 0;
#X obj 747 392 line~;
#X msg 747 368 \$1 5;
#X obj 429 413 *~;
#X obj 447 385 line~;
#X msg 447 361 \$1 5;
#X obj 747 341 pow 0.3;
#X obj 447 334 pow 0.3;
#X obj 429 258 onepole~ 8000;
#X obj 728 255 onepole~ 8000;
#X floatatom 899 231 5 0 0 0 - - -;
#X obj 711 522 +~;
#X obj 411 522 +~;
#N canvas 0 23 450 300 rmdc 0;
#X obj 160 91 onepole~ 10;
#X obj 143 58 inlet~;
#X obj 142 120 -~;
#X obj 142 144 outlet~;
#X connect 0 0 2 1;
#X connect 1 0 2 0;
#X connect 1 0 0 0;
#X connect 2 0 3 0;
#X restore 429 283 pd rmdc;
#N canvas 0 23 450 300 rmdc 0;
#X obj 160 91 onepole~ 10;
#X obj 143 58 inlet~;
#X obj 142 120 -~;
#X obj 142 144 outlet~;
#X connect 0 0 2 1;
#X connect 1 0 2 0;
#X connect 1 0 0 0;
#X connect 2 0 3 0;
#X restore 728 279 pd rmdc;
#X obj 429 220 delread4~ lateref1;
#X obj 728 217 delread4~ lateref2;
#X obj 435 563 delwrite~ lateref2 5000;
#X obj 737 563 delwrite~ lateref1 5000;
#X obj 578 130 sig~;
#X obj 429 197 *~ 1;
#X obj 728 191 *~ 1;
#X obj 729 419 *~;
#X obj 578 105 r lateT;
#X obj 221 461 inlet~;
#X obj 276 461 inlet~;
#X obj 447 308 inlet;
#X obj 747 310 inlet;
#X text 178 439 early reflections ch 1 & 2;
#X text 636 104 latereflections delay time;
#X text 489 308 fb 1;
#X text 791 311 fb 2;
#X obj 411 603 outlet~;
#X obj 712 599 outlet~;
#X text 912 561 cross feedback: delread 1 into delwrite 2 and vice
versa;
#X connect 0 0 21 1;
#X connect 1 0 0 0;
#X connect 2 0 11 1;
#X connect 3 0 2 1;
#X connect 4 0 3 0;
#X connect 5 0 1 0;
#X connect 6 0 4 0;
#X connect 7 0 12 0;
#X connect 8 0 13 0;
#X connect 9 0 7 1;
#X connect 9 0 8 1;
#X connect 10 0 17 0;
#X connect 10 0 32 0;
#X connect 11 0 16 0;
#X connect 11 0 31 0;
#X connect 12 0 2 0;
#X connect 13 0 21 0;
#X connect 14 0 7 0;
#X connect 15 0 8 0;
#X connect 18 0 19 0;
#X connect 18 0 20 0;
#X connect 19 0 14 0;
#X connect 20 0 15 0;
#X connect 21 0 10 1;
#X connect 22 0 18 0;
#X connect 23 0 11 0;
#X connect 24 0 10 0;
#X connect 25 0 6 0;
#X connect 26 0 5 0;
#X restore 527 527 pd latereflections;
#X f 31;
#X text 853 457 feedback;
#X text 512 327 position of pulse injection;
#X obj 1058 163 t b f;
#X floatatom 1067 216 5 0 0 0 - - -;
#X floatatom 872 218 5 0 0 0 - - -;
#X text 867 238 early (initial) delay time;
#X text 1006 238 late reflections delay time;
#X text 714 350 rand amount (0-1);
#X text 859 347 rand freq;
#X connect 1 0 0 0;
#X connect 2 0 42 2;
#X connect 3 0 4 0;
#X connect 4 0 5 0;
#X connect 6 0 7 0;
#X connect 7 0 8 0;
#X connect 9 0 44 3;
#X connect 10 0 44 2;
#X connect 11 0 9 0;
#X connect 11 0 10 0;
#X connect 12 0 17 0;
#X connect 12 0 25 0;
#X connect 13 0 16 0;
#X connect 16 0 40 2;
#X connect 16 0 39 2;
#X connect 18 0 47 0;
#X connect 19 0 15 0;
#X connect 19 0 14 0;
#X connect 20 0 19 0;
#X connect 21 0 19 1;
#X connect 22 0 19 2;
#X connect 23 0 44 0;
#X connect 23 1 44 1;
#X connect 24 0 23 0;
#X connect 25 0 24 0;
#X connect 26 0 27 0;
#X connect 27 0 30 0;
#X connect 28 0 29 0;
#X connect 29 0 30 1;
#X connect 30 0 23 1;
#X connect 35 0 39 0;
#X connect 36 0 40 0;
#X connect 37 0 33 0;
#X connect 37 0 49 0;
#X connect 38 0 34 0;
#X connect 38 0 48 0;
#X connect 39 0 37 0;
#X connect 40 0 38 0;
#X connect 41 0 35 0;
#X connect 41 0 36 0;
#X connect 42 0 43 0;
#X connect 42 0 3 0;
#X connect 42 1 43 1;
#X connect 42 1 6 0;
#X connect 44 0 42 0;
#X connect 44 1 42 1;
#X connect 47 0 38 0;
#X connect 47 0 37 0;
#X connect 47 1 38 1;
#X connect 47 1 37 1;
