#N canvas 0 23 1280 751 12;
#X msg 31 109 \; pd dsp \$1;
#X obj 31 84 tgl 15 0 empty empty empty 17 7 0 10 -262144 -1 -1 1 1
;
#X obj 583 564 hsl 128 15 0.001 1 1 0 empty empty empty -2 -8 0 10
-262144 -1 -1 12700 1;
#X obj 369 571 env~;
#X obj 369 595 - 100;
#X obj 370 620 vu 15 120 empty empty -1 -8 0 10 -66577 -1 1 0;
#X obj 417 569 env~;
#X obj 417 593 - 100;
#X obj 418 621 vu 15 120 empty empty -1 -8 0 10 -66577 -1 1 0;
#X obj 805 502 hsl 128 15 0 1 0 0 empty empty empty -2 -8 0 10 -262144
-1 -1 0 1;
#X obj 668 501 hsl 128 15 0 1 0 0 empty empty empty -2 -8 0 10 -262144
-1 -1 0 1;
#X obj 805 480 hsl 128 15 0 1 0 0 empty empty empty -2 -8 0 10 -262144
-1 -1 0 1;
#X obj 530 348 hsl 128 15 -1 1 0 1 empty empty empty -2 -8 0 10 -262144
-1 -1 0 1;
#X obj 1083 55 bng 15 250 50 0 empty empty empty 17 7 0 10 -262144
-1 -1;
#X obj 1083 78 loadmess 5000;
#X floatatom 545 370 5 0 0 0 - - -;
#X obj 1061 143 hsl 128 15 0.0001 1 1 1 empty empty empty -2 -8 0 10
-262144 -1 -1 12700 1;
#X obj 417 149 bng 15 250 50 0 empty empty empty 17 7 0 10 -262144
-1 -1;
#X floatatom 464 151 5 0 0 0 - - -;
#X floatatom 597 147 5 1 5000 0 - - -;
#N canvas 0 23 1280 751 earlyreflections 0;
#X obj 722 373 !-~ 1;
#X obj 510 525 outlet~;
#X obj 722 524 outlet~;
#X obj 510 466 *~ 1;
#X obj 722 467 *~ 1;
#X obj 511 204 inlet~;
#X obj 511 284 +~ 0.5;
#X obj 511 260 *~ 0.5;
#X obj 747 439 r earlyT;
#X obj 722 500 delread4~ earlyref;
#X obj 510 501 delread4~ earlyref;
#X connect 0 0 4 0;
#X connect 3 0 10 0;
#X connect 4 0 9 0;
#X connect 5 0 7 0;
#X connect 6 0 0 0;
#X connect 6 0 3 0;
#X connect 7 0 6 0;
#X connect 8 0 3 1;
#X connect 8 0 4 1;
#X connect 9 0 2 0;
#X connect 10 0 1 0;
#X restore 527 445 pd earlyreflections;
#X obj 527 417 line~;
#X text 564 128 amount of pulses;
#X obj 915 217 s earlyT;
#X obj 1009 217 s lateT;
#X floatatom 915 67 5 0 0 0 - - -;
#X floatatom 1009 66 5 0 0 0 - - -;
#X obj 915 187 * 1;
#X obj 1009 186 * 1;
#X obj 915 106 clip 0 5000;
#X obj 1009 106 clip 0 5000;
#X floatatom 915 40 5 0 0 0 - - -;
#N canvas 0 23 1280 751 out~ 0;
#X obj 483 425 *~;
#X msg 657 330 \$1 50;
#X obj 657 354 line~;
#X obj 568 423 *~;
#X obj 483 328 clip~ -1 1;
#X obj 568 330 clip~ -1 1;
#X obj 483 449 outlet~;
#X obj 568 447 outlet~;
#X obj 484 263 inlet~;
#X obj 569 264 inlet~;
#X obj 657 301 inlet;
#X connect 0 0 6 0;
#X connect 1 0 2 0;
#X connect 2 0 3 1;
#X connect 2 0 0 1;
#X connect 3 0 7 0;
#X connect 4 0 0 0;
#X connect 5 0 3 0;
#X connect 8 0 4 0;
#X connect 9 0 5 0;
#X connect 10 0 1 0;
#X restore 527 590 pd out~;
#X f 8;
#X obj 527 614 dac~ 1 2;
#N canvas 0 23 1280 751 latereflections 1;
#X obj 751 447 line~;
#X msg 751 423 \$1 5;
#X obj 433 468 *~;
#X obj 451 440 line~;
#X msg 451 416 \$1 5;
#X obj 751 396 pow 0.3;
#X obj 451 389 pow 0.3;
#X obj 433 316 onepole~ 8000;
#X obj 732 315 onepole~ 8000;
#X obj 715 577 +~;
#X obj 415 577 +~;
#X obj 433 194 delread4~ lateref1;
#X obj 731 184 delread4~ lateref2;
#X obj 415 607 delwrite~ lateref2 5000;
#X obj 715 602 delwrite~ lateref1 5000;
#X obj 604 64 sig~;
#X obj 733 474 *~;
#X obj 604 34 r lateT;
#X obj 225 516 inlet~;
#X obj 277 516 inlet~;
#X obj 451 363 inlet;
#X obj 751 365 inlet;
#X text 182 494 early reflections ch 1 & 2;
#X text 662 33 latereflections delay time;
#X text 493 363 fb 1;
#X text 795 366 fb 2;
#X obj 953 288 inlet;
#X text 944 268 dampening;
#X text 571 635 cross feedback: delread 1 into delwrite 2 and vice
versa, f 22;
#X obj 433 520 *~ 1;
#X obj 733 526 *~ 1;
#X obj 1117 412 inlet;
#X obj 1117 458 * 2;
#X obj 1117 482 - 1;
#X obj 1117 436 tgl 15 0 empty empty empty 17 7 0 10 -262144 -1 -1
1 1;
#X text 1086 389 sign inversion;
#N canvas 0 23 450 300 rm-dc 0;
#X obj 160 91 onepole~ 10;
#X obj 143 58 inlet~;
#X obj 142 120 -~;
#X obj 142 144 outlet~;
#X connect 0 0 2 1;
#X connect 1 0 2 0;
#X connect 1 0 0 0;
#X connect 2 0 3 0;
#X restore 732 340 pd rm-dc;
#N canvas 0 23 450 300 rm-dc 0;
#X obj 160 91 onepole~ 10;
#X obj 142 59 inlet~;
#X obj 142 120 -~;
#X obj 142 144 outlet~;
#X connect 0 0 2 1;
#X connect 1 0 2 0;
#X connect 1 0 0 0;
#X connect 2 0 3 0;
#X restore 433 340 pd rm-dc;
#X obj 433 220 delwrite~ pickup1 5000;
#X obj 731 211 delwrite~ pickup2 5000;
#X obj 433 272 delread4~ pickup1;
#X obj 732 263 delread4~ pickup2;
#X obj 257 38 r pickup1;
#X obj 433 165 *~;
#X obj 266 109 !-~ 1;
#X obj 257 232 *~;
#X obj 1025 111 !-~ 1;
#X obj 1025 27 r pickup2;
#X obj 731 159 *~;
#X obj 674 208 outlet~;
#X obj 376 220 outlet~;
#X text 236 16 pickup pos 1 (0-1);
#X text 998 6 pickup pos 2 (0-1);
#X obj 82 109 block~ 1;
#X msg 257 60 \$1 5;
#X obj 257 82 line~;
#X obj 1025 82 line~;
#X msg 1025 51 \$1 5;
#X obj 1007 209 *~;
#X connect 0 0 16 1;
#X connect 1 0 0 0;
#X connect 2 0 29 0;
#X connect 3 0 2 1;
#X connect 4 0 3 0;
#X connect 5 0 1 0;
#X connect 6 0 4 0;
#X connect 7 0 37 0;
#X connect 8 0 36 0;
#X connect 9 0 14 0;
#X connect 10 0 13 0;
#X connect 11 0 38 0;
#X connect 11 0 50 0;
#X connect 12 0 39 0;
#X connect 12 0 49 0;
#X connect 15 0 43 1;
#X connect 15 0 45 1;
#X connect 15 0 48 0;
#X connect 15 0 58 0;
#X connect 16 0 30 0;
#X connect 17 0 15 0;
#X connect 18 0 10 0;
#X connect 19 0 9 0;
#X connect 20 0 6 0;
#X connect 21 0 5 0;
#X connect 26 0 8 1;
#X connect 26 0 7 1;
#X connect 29 0 10 1;
#X connect 30 0 9 1;
#X connect 31 0 34 0;
#X connect 32 0 33 0;
#X connect 33 0 30 1;
#X connect 33 0 29 1;
#X connect 34 0 32 0;
#X connect 36 0 16 0;
#X connect 37 0 2 0;
#X connect 40 0 7 0;
#X connect 41 0 8 0;
#X connect 42 0 54 0;
#X connect 43 0 11 0;
#X connect 44 0 43 0;
#X connect 45 0 40 0;
#X connect 46 0 58 1;
#X connect 47 0 57 0;
#X connect 48 0 12 0;
#X connect 54 0 55 0;
#X connect 55 0 44 0;
#X connect 55 0 45 0;
#X connect 56 0 46 0;
#X connect 56 0 48 1;
#X connect 57 0 56 0;
#X connect 58 0 41 0;
#X restore 527 527 pd latereflections;
#X f 79;
#X text 835 458 feedback;
#X text 512 327 position of pulse injection;
#X obj 1058 163 t b f;
#X floatatom 1067 216 5 0 0 0 - - -;
#X floatatom 872 218 5 0 0 0 - - -;
#X text 446 131 pulse time (ms);
#X text 1006 240 late reflections delay time (ms), f 17;
#X text 962 435 dampening freq;
#X obj 970 459 hsl 128 15 0 1 0 0 empty empty empty -2 -8 0 10 -262144
-1 -1 3300 1;
#X floatatom 982 505 5 0 0 0 - - -;
#X obj 967 481 scale 0 1 50 10000 1.5;
#X obj 417 91 metro 1000;
#X obj 417 63 tgl 15 0 empty empty empty 17 7 0 10 -262144 -1 -1 0
1;
#X floatatom 484 63 5 0 0 0 - - -;
#X obj 417 206 delwrite~ earlyref 5000;
#X obj 915 17 loadmess 1000;
#X obj 435 366 osc~;
#X floatatom 435 338 5 0 0 0 - - -;
#X text 888 237 early delay time (ms), f 12;
#X msg 527 394 \$1 5;
#X obj 1173 498 tgl 15 1 empty empty empty 17 7 0 10 -262144 -1 -1
1 1;
#X obj 750 168 mtof;
#X obj 750 192 !/ 1000;
#X floatatom 750 143 5 0 0 0 - - -;
#X floatatom 750 216 5 0 0 0 - - -;
#X floatatom 701 182 5 0 0 0 - - -;
#N canvas 0 23 1280 751 pulsetrain2 0;
#X obj 488 292 *~;
#X obj 540 270 curve~;
#X obj 540 213 pack f f;
#X msg 540 242 0 \, 1 \$1 0.5 0 \$2 -0.5;
#X obj 488 268 pink~;
#X obj 579 367 <;
#X obj 579 391 sel 1 0, f 13;
#X obj 540 185 f 1;
#X obj 488 316 outlet~;
#X obj 540 137 inlet;
#X obj 830 291 inlet;
#X obj 593 136 inlet;
#X text 529 116 trigger;
#X text 593 114 pulse time;
#X text 872 291 amount of pulses;
#X obj 634 325 + 1;
#X obj 579 301 i;
#X msg 623 418 1;
#X obj 579 325 t f f;
#X connect 0 0 8 0;
#X connect 1 0 0 1;
#X connect 1 1 16 0;
#X connect 2 0 3 0;
#X connect 3 0 1 0;
#X connect 4 0 0 0;
#X connect 5 0 6 0;
#X connect 6 0 7 0;
#X connect 6 1 17 0;
#X connect 7 0 2 0;
#X connect 9 0 7 0;
#X connect 10 0 5 1;
#X connect 11 0 2 1;
#X connect 15 0 16 1;
#X connect 16 0 18 0;
#X connect 17 0 16 1;
#X connect 18 0 5 0;
#X connect 18 1 15 0;
#X restore 417 177 pd pulsetrain2;
#N canvas 0 23 1280 751 pulsetrain 0;
#X obj 647 209 inlet;
#X obj 594 295 metro, f 8;
#X obj 594 339 i;
#X obj 624 338 + 1;
#X obj 594 379 <;
#X obj 617 493 click~;
#X obj 880 212 inlet;
#X obj 594 208 inlet;
#X msg 594 257 1;
#X obj 594 232 t b;
#X msg 491 367 0;
#X obj 491 342 t b;
#X obj 594 403 sel 0 1;
#X obj 617 517 outlet~;
#X connect 0 0 1 1;
#X connect 1 0 2 0;
#X connect 2 0 3 0;
#X connect 2 0 4 0;
#X connect 3 0 2 1;
#X connect 4 0 12 0;
#X connect 5 0 13 0;
#X connect 6 0 4 1;
#X connect 7 0 9 0;
#X connect 8 0 1 0;
#X connect 9 0 8 0;
#X connect 10 0 1 0;
#X connect 10 0 2 1;
#X connect 11 0 10 0;
#X connect 12 0 11 0;
#X connect 12 1 5 0;
#X restore 80 239 pd pulsetrain;
#X obj 205 81 s pickup1;
#X obj 205 130 s pickup2;
#X obj 208 58 hsl 128 15 0 1 0 0 empty empty empty -2 -8 0 10 -262144
-1 -1 0 1;
#X obj 208 108 hsl 128 15 0 1 0 1 empty empty empty -2 -8 0 10 -262144
-1 -1 12700 1;
#X text 1147 476 invert fb;
#X text 171 35 pickup positions left & right;
#X connect 1 0 0 0;
#X connect 2 0 32 2;
#X connect 3 0 4 0;
#X connect 4 0 5 0;
#X connect 6 0 7 0;
#X connect 7 0 8 0;
#X connect 9 0 34 3;
#X connect 10 0 34 2;
#X connect 11 0 9 0;
#X connect 11 0 10 0;
#X connect 12 0 15 0;
#X connect 12 0 54 0;
#X connect 13 0 14 0;
#X connect 14 0 30 2;
#X connect 14 0 29 2;
#X connect 16 0 37 0;
#X connect 17 0 61 0;
#X connect 18 0 61 1;
#X connect 19 0 61 2;
#X connect 20 0 34 0;
#X connect 20 1 34 1;
#X connect 21 0 20 0;
#X connect 25 0 29 0;
#X connect 26 0 30 0;
#X connect 27 0 23 0;
#X connect 27 0 39 0;
#X connect 28 0 24 0;
#X connect 28 0 38 0;
#X connect 29 0 27 0;
#X connect 30 0 28 0;
#X connect 31 0 25 0;
#X connect 31 0 26 0;
#X connect 32 0 33 0;
#X connect 32 0 3 0;
#X connect 32 1 33 1;
#X connect 32 1 6 0;
#X connect 34 0 32 0;
#X connect 34 1 32 1;
#X connect 37 0 28 0;
#X connect 37 0 27 0;
#X connect 37 1 28 1;
#X connect 37 1 27 1;
#X connect 43 0 45 0;
#X connect 45 0 44 0;
#X connect 45 0 34 4;
#X connect 46 0 17 0;
#X connect 47 0 46 0;
#X connect 48 0 46 1;
#X connect 50 0 31 0;
#X connect 52 0 51 0;
#X connect 54 0 21 0;
#X connect 55 0 34 5;
#X connect 56 0 57 0;
#X connect 56 0 60 0;
#X connect 57 0 59 0;
#X connect 57 0 23 0;
#X connect 57 0 24 0;
#X connect 58 0 56 0;
#X connect 61 0 49 0;
#X connect 65 0 63 0;
#X connect 66 0 64 0;
