#N canvas 0 23 1280 751 12;
#X msg 31 109 \; pd dsp \$1;
#X obj 31 84 tgl 15 0 empty empty empty 17 7 0 10 -262144 -1 -1 1 1
;
#X obj 513 637 hsl 128 15 0.01 1 1 0 empty empty empty -2 -8 0 10 -262144
-1 -1 12700 1;
#X obj 711 393 hsl 128 15 0 1 0 0 empty fb empty -2 -8 0 10 -262144
-1 -1 12500 1;
#X obj 463 406 hsl 128 15 -1 1 0 1 empty pos empty -2 -8 0 10 -262144
-1 -1 6950 1;
#X floatatom 408 424 5 0 0 0 - - -;
#X obj 1104 117 hsl 128 15 0.0001 1 1 1 empty empty empty -2 -8 0 10
-262144 -1 -1 5000 1;
#X obj 522 97 bng 15 250 50 0 empty empty empty 17 7 0 10 -262144 -1
-1;
#X floatatom 540 96 5 0 0 0 - pulse-t -;
#X floatatom 639 98 5 1 5000 0 - n-puls -;
#X text 617 76 amount of pulses;
#X floatatom 915 68 5 0 0 0 - early -;
#X floatatom 1009 66 5 0 0 0 - late -;
#X obj 915 158 * 1;
#X obj 1009 157 * 1;
#X obj 915 106 clip 0 5000;
#X obj 1009 106 clip 0 5000;
#N canvas 0 23 1280 751 out~ 0;
#X obj 483 425 *~;
#X msg 701 337 \$1 50;
#X obj 701 361 line~;
#X obj 568 423 *~;
#X obj 483 328 clip~ -1 1;
#X obj 568 330 clip~ -1 1;
#X obj 483 449 outlet~;
#X obj 568 447 outlet~;
#X obj 483 263 inlet~;
#X obj 568 264 inlet~;
#X obj 701 308 inlet;
#X connect 0 0 6 0;
#X connect 1 0 2 0;
#X connect 2 0 3 1;
#X connect 2 0 0 1;
#X connect 3 0 7 0;
#X connect 4 0 0 0;
#X connect 5 0 3 0;
#X connect 8 0 4 0;
#X connect 9 0 5 0;
#X connect 10 0 1 0;
#X restore 458 656 pd out~;
#X f 8;
#X obj 458 680 dac~ 1 2;
#X text 741 371 feedback;
#X text 445 361 position of pulse injection;
#X obj 1101 137 t b f;
#X text 507 77 pulse time (ms);
#X text 995 22 late reflections delay time (ms), f 17;
#X text 849 368 dampening freq;
#X obj 857 392 hsl 128 15 0 1 0 0 empty damp empty -2 -8 0 10 -262144
-1 -1 9300 1;
#X text 892 25 early delay time (ms), f 12;
#X obj 764 167 mtof;
#X obj 764 191 !/ 1000;
#X floatatom 720 114 5 0 0 0 - - -;
#X obj 254 105 hsl 128 15 -1 1 0 1 empty pickup2 empty -2 -8 0 10 -262144
-1 -1 4400 1;
#X obj 208 86 hsl 128 15 -1 1 0 1 empty pickup1 empty -2 -8 0 10 -262144
-1 -1 3800 1;
#X text 202 64 pickup positions left & right;
#X obj 693 682 else/vu~;
#X obj 694 554 vu 15 120 empty empty -1 -8 0 10 -66577 -1 1 0;
#X obj 762 681 else/vu~;
#X obj 763 554 vu 15 120 empty empty -1 -8 0 10 -66577 -1 1 0;
#X obj 21 250 loadbang;
#X msg 460 382 0;
#X obj 1090 430 s cleardelay;
#X obj 1090 409 bng 15 250 50 0 empty empty empty 17 7 0 10 -262144
-1 -1;
#X obj 522 127 f;
#X obj 205 130 pak f f;
#X msg 205 154 all pickup \$1 \$2;
#X obj 205 178 s snaar-voice;
#X obj 374 239 s snaar-voice;
#X obj 339 463 r snaar-voice;
#X obj 915 234 s snaar-voice;
#X msg 460 426 all pos \$1;
#X msg 854 412 all damp \$1;
#X obj 915 186 pak f f;
#X msg 915 210 all delay \$1 \$2;
#X msg 708 413 all feedback \$1;
#X obj 460 500 clone snaar-voice 10;
#X msg 21 276 \; pickup1 -1 \; pickup2 1 \; pulse-t 50 \; n-puls 1
\; early 1000 \; late 1000 \; pos 0 \; fb 0 \; damp 1 \;;
#X floatatom 1009 184 5 0 0 0 - - -;
#X msg 374 215 all pulse \$1 \$2;
#X obj 720 137 t b f;
#X obj 710 245 pack f f;
#X obj 700 163 i;
#X obj 730 164 + 1;
#X obj 700 187 % 10;
#X msg 710 269 \$1 delay \$2 \$2;
#X obj 700 211 t f f;
#X obj 522 179 pack f f f;
#X msg 522 203 \$1 pulse \$2 \$3;
#X floatatom 631 259 5 0 0 0 - - -;
#X floatatom 811 219 5 0 0 0 - - -;
#X obj 710 293 s snaar-voice;
#X connect 1 0 0 0;
#X connect 2 0 17 2;
#X connect 3 0 52 0;
#X connect 4 0 5 0;
#X connect 4 0 48 0;
#X connect 6 0 21 0;
#X connect 7 0 41 0;
#X connect 8 0 41 1;
#X connect 9 0 64 2;
#X connect 11 0 15 0;
#X connect 12 0 16 0;
#X connect 13 0 50 0;
#X connect 14 0 50 1;
#X connect 14 0 55 0;
#X connect 15 0 13 0;
#X connect 16 0 14 0;
#X connect 17 0 18 0;
#X connect 17 0 33 0;
#X connect 17 1 18 1;
#X connect 17 1 35 0;
#X connect 21 0 14 0;
#X connect 21 0 13 0;
#X connect 21 1 14 1;
#X connect 21 1 13 1;
#X connect 25 0 49 0;
#X connect 27 0 28 0;
#X connect 28 0 58 1;
#X connect 28 0 67 0;
#X connect 29 0 57 0;
#X connect 30 0 42 1;
#X connect 31 0 42 0;
#X connect 33 0 34 0;
#X connect 35 0 36 0;
#X connect 37 0 54 0;
#X connect 38 0 4 0;
#X connect 40 0 39 0;
#X connect 41 0 64 1;
#X connect 42 0 43 0;
#X connect 43 0 44 0;
#X connect 46 0 53 0;
#X connect 48 0 53 0;
#X connect 49 0 53 0;
#X connect 50 0 51 0;
#X connect 51 0 47 0;
#X connect 52 0 53 0;
#X connect 53 0 17 0;
#X connect 53 1 17 1;
#X connect 56 0 45 0;
#X connect 57 0 59 0;
#X connect 57 1 27 0;
#X connect 58 0 62 0;
#X connect 59 0 60 0;
#X connect 59 0 61 0;
#X connect 60 0 59 1;
#X connect 61 0 63 0;
#X connect 62 0 68 0;
#X connect 63 0 64 0;
#X connect 63 0 66 0;
#X connect 63 1 58 0;
#X connect 64 0 65 0;
#X connect 65 0 45 0;
