#N canvas 0 23 1280 751 12;
#X obj 653 691 delread4~ earlyref2;
#X obj 505 692 delread4~ earlyref1;
#X obj 653 567 !-~ 1;
#X obj 755 155 loadbang;
#X obj 755 181 f \$1;
#X obj 506 77 inlet;
#X obj 755 212 / 1;
#X obj 825 154 r numVoices;
#X obj 825 178 t b f;
#X obj 505 338 +;
#X obj 596 289 *;
#X msg 505 362 \$1 25;
#X obj 505 386 line~;
#X obj 505 716 outlet~;
#X obj 505 601 *~;
#X obj 653 602 *~;
#X obj 653 715 outlet~;
#X obj 506 106 unpack f f, f 16;
#X obj 597 219 !-;
#X obj 506 177 t f f;
#X obj 746 619 r scaleT;
#X obj 505 667 *~ 1;
#X obj 653 668 *~ 1;
#X obj 748 569 r maxDelayTime;
#X obj 562 506 +~;
#X obj 618 346 rand~ 0.05;
#X obj 618 443 *~;
#X obj 802 357 inlet;
#X msg 802 381 \$1 50;
#X obj 802 405 line~;
#X obj 523 426 !-~ 1;
#X obj 505 452 *~;
#X obj 618 394 +~ 0.5;
#X obj 618 370 *~ 0.5;
#X connect 0 0 16 0;
#X connect 1 0 13 0;
#X connect 2 0 15 0;
#X connect 3 0 4 0;
#X connect 4 0 6 0;
#X connect 5 0 17 0;
#X connect 6 0 10 1;
#X connect 7 0 8 0;
#X connect 8 0 6 0;
#X connect 8 1 6 1;
#X connect 9 0 11 0;
#X connect 10 0 9 1;
#X connect 11 0 12 0;
#X connect 12 0 31 0;
#X connect 14 0 21 0;
#X connect 15 0 22 0;
#X connect 17 0 19 0;
#X connect 17 1 18 1;
#X connect 18 0 10 0;
#X connect 19 0 9 0;
#X connect 19 1 18 0;
#X connect 20 0 21 1;
#X connect 20 0 22 1;
#X connect 21 0 1 0;
#X connect 22 0 0 0;
#X connect 23 0 14 1;
#X connect 23 0 15 1;
#X connect 24 0 14 0;
#X connect 24 0 2 0;
#X connect 25 0 33 0;
#X connect 26 0 24 1;
#X connect 27 0 28 0;
#X connect 28 0 29 0;
#X connect 29 0 30 0;
#X connect 29 0 26 1;
#X connect 30 0 31 1;
#X connect 31 0 24 0;
#X connect 32 0 26 0;
#X connect 33 0 32 0;
