#N canvas 20 23 1493 937 12;
#X floatatom 330 325 5 0 0 0 - - -;
#X obj 371 478 vcf~, f 12;
#X obj 321 426 noise~;
#X floatatom 459 425 5 0 0 0 - - -;
#X obj 458 357 loadbang;
#X obj 381 264 osc~ 0.05;
#X obj 381 358 osc~ 0.02;
#X obj 381 293 *~ 0.2;
#X obj 381 322 +~ 0.3;
#X obj 381 428 +~ 250;
#X obj 484 602 hsl 128 15 0 0.01 0 0 empty empty empty -2 -8 0 10 -262144
-1 -1 12700 1;
#X floatatom 622 272 5 0 0 0 - - -;
#X obj 662 400 vcf~, f 12;
#X obj 623 351 noise~;
#X floatatom 767 349 5 0 0 0 - - -;
#X obj 767 299 loadbang;
#X obj 381 391 *~ 85;
#X obj 681 357 +~ 500;
#X obj 681 328 *~ 250;
#X obj 681 212 osc~ 0.5;
#X obj 681 241 *~ 0.01;
#X obj 681 270 +~ 0.2;
#X obj 681 299 osc~ 0.05;
#X msg 458 391 1;
#X msg 767 322 1;
#X floatatom 905 238 5 0 0 0 - - -;
#X obj 949 462 vcf~, f 12;
#X obj 910 413 noise~;
#X floatatom 1037 409 5 0 0 0 - - -;
#X obj 1061 332 loadbang;
#X obj 958 364 +~ 500;
#X obj 957 317 *~ 250;
#X obj 977 165 osc~ 0.5;
#X obj 977 194 *~ 0.01;
#X obj 958 270 osc~ 0.05;
#X msg 1057 370 1;
#X obj 723 562 line~;
#X obj 723 532 pack 0 2000;
#X floatatom 723 503 5 0 0 0 - - -;
#X text 475 577 Master volume slider;
#X text 948 604 delwrite and delread create a delay of 2 seconds for
an echo effect.;
#X text 165 227 Two osc objects are used for the acceleration and speed
of the variation of sounds.;
#X obj 376 752 outlet~;
#X obj 675 750 outlet~;
#X obj 374 619 *~ 1;
#X obj 673 620 *~ 1;
#X obj 775 93 inlet;
#X obj 977 223 +~ 0.15;
#X text 1046 223 was 0.2;
#X text 807 482 new cable;
#X obj 775 117 * 2000;
#X obj 723 592 delread4~ del_waves 2000;
#X obj 945 558 delwrite~ del_waves 2000;
#X connect 0 0 6 0;
#X connect 1 0 44 0;
#X connect 2 0 1 0;
#X connect 3 0 1 2;
#X connect 4 0 23 0;
#X connect 5 0 7 0;
#X connect 6 0 16 0;
#X connect 7 0 8 0;
#X connect 8 0 6 0;
#X connect 9 0 1 1;
#X connect 10 0 44 1;
#X connect 10 0 45 1;
#X connect 11 0 22 0;
#X connect 12 0 45 0;
#X connect 13 0 12 0;
#X connect 14 0 12 2;
#X connect 15 0 24 0;
#X connect 16 0 9 0;
#X connect 17 0 12 1;
#X connect 18 0 17 0;
#X connect 19 0 20 0;
#X connect 20 0 21 0;
#X connect 21 0 22 0;
#X connect 22 0 18 0;
#X connect 23 0 3 0;
#X connect 24 0 14 0;
#X connect 25 0 34 0;
#X connect 26 0 44 0;
#X connect 26 0 52 0;
#X connect 27 0 26 0;
#X connect 28 0 26 2;
#X connect 29 0 35 0;
#X connect 30 0 26 1;
#X connect 31 0 30 0;
#X connect 32 0 33 0;
#X connect 33 0 47 0;
#X connect 34 0 31 0;
#X connect 35 0 28 0;
#X connect 36 0 51 0;
#X connect 37 0 36 0;
#X connect 38 0 37 0;
#X connect 44 0 42 0;
#X connect 45 0 43 0;
#X connect 46 0 50 0;
#X connect 47 0 34 0;
#X connect 50 0 38 0;
#X connect 51 0 45 0;
