#N canvas 20 23 1493 937 12;
#X floatatom 550 221 5 0 0 0 - - -;
#X obj 570 399 vcf~, f 12;
#X obj 612 790 dac~ 1 2;
#X obj 622 148 osc~ 0.05;
#X obj 603 253 osc~ 0.02;
#X obj 622 227 +~ 0.3;
#X obj 577 447 *~;
#X obj 746 433 hsl 128 15 0 1 0 0 empty empty empty -2 -8 0 10 -262144
-1 -1 6350 1;
#X obj 715 576 *~;
#X obj 603 347 +~ 250;
#X obj 603 300 *~ 125;
#X obj 622 195 *~ 0.15;
#X floatatom 731 686 0 0 1000 0 - - -;
#X obj 731 736 line~;
#X floatatom 676 319 5 0 0 0 - - -;
#X obj 676 254 loadbang;
#X msg 676 287 16;
#X obj 502 281 cyclone/pink~;
#X obj 407 773 bp~ 1000 100;
#X obj 409 622 cyclone/pink~;
#X floatatom 445 745 5 0 0 0 - - -;
#X floatatom 486 744 5 0 0 0 - - -;
#X text 258 185 Part of the patch for the left speaker;
#X obj 739 349 loadbang;
#X msg 740 374 0.5;
#X obj 668 522 *~;
#X obj 445 645 loadbang;
#X msg 445 695 12;
#X msg 486 694 24;
#X obj 731 769 delread4~ delay_wind 2000;
#X obj 730 711 pack 0 2000;
#X obj 715 614 delwrite~ delay_wind 2000;
#X obj 785 518 - 0.2;
#X text 919 715 Delwrite and delread4 are used to register the input
sound of the object "delwrite" into the delay line "delay_wind" which
will be played with a delay of 2 seconds by the object "delread4~"
\, this creates an echo effect.;
#X text 826 392 Master volume slider set at 0.5 when the patch is launched
;
#N canvas 20 23 1493 937 wind2 1;
#X floatatom 551 293 5 0 0 0 - - -;
#X obj 595 517 vcf~, f 12;
#X obj 556 468 noise~;
#X floatatom 683 468 5 0 0 0 - - -;
#X obj 703 385 loadbang;
#X obj 604 372 *~ 250;
#X obj 623 220 osc~ 0.5;
#X obj 604 325 osc~ 0.05;
#X obj 604 419 +~ 400;
#X obj 623 267 *~ 0.3;
#X obj 623 296 +~ 0.1;
#X msg 704 418 19;
#X obj 770 541 bob~, f 7;
#X text 742 218 Part of the patch for the right speaker;
#X text 739 285 Using one first oscillator for the acceleration and
another one for the speed of the variation of the sound.;
#X floatatom 894 412 5 0 200 0 - - -;
#X obj 894 434 / 25;
#X floatatom 777 398 5 0 150 0 - - -;
#X obj 777 420 mtof;
#X obj 778 465 pack 0 50;
#X obj 778 490 line~;
#X floatatom 777 443 7 0 0 0 - - -;
#X obj 894 361 loadbang;
#X msg 894 386 10;
#X obj 893 462 line~;
#X obj 777 349 loadbang;
#X msg 777 374 69;
#X obj 775 607 outlet~;
#X connect 0 0 7 0;
#X connect 1 0 12 0;
#X connect 2 0 1 0;
#X connect 3 0 1 2;
#X connect 4 0 11 0;
#X connect 5 0 8 0;
#X connect 6 0 9 0;
#X connect 7 0 5 0;
#X connect 8 0 1 1;
#X connect 9 0 10 0;
#X connect 10 0 7 0;
#X connect 11 0 3 0;
#X connect 12 0 27 0;
#X connect 15 0 16 0;
#X connect 16 0 24 0;
#X connect 17 0 18 0;
#X connect 18 0 21 0;
#X connect 19 0 20 0;
#X connect 20 0 12 1;
#X connect 21 0 19 0;
#X connect 22 0 23 0;
#X connect 23 0 15 0;
#X connect 24 0 12 2;
#X connect 25 0 26 0;
#X connect 26 0 17 0;
#X restore 667 487 pd wind2;
#N canvas 20 23 1493 937 wind3 0;
#X floatatom 551 293 5 0 0 0 - - -;
#X obj 595 517 vcf~, f 12;
#X obj 556 468 noise~;
#X floatatom 683 468 5 0 0 0 - - -;
#X obj 703 385 loadbang;
#X obj 604 372 *~ 250;
#X obj 623 220 osc~ 0.5;
#X obj 604 325 osc~ 0.05;
#X obj 604 419 +~ 400;
#X obj 623 267 *~ 0.3;
#X obj 623 296 +~ 0.1;
#X msg 704 418 19;
#X obj 770 541 bob~, f 7;
#X text 742 218 Part of the patch for the right speaker;
#X text 739 285 Using one first oscillator for the acceleration and
another one for the speed of the variation of the sound.;
#X floatatom 894 412 5 0 200 0 - - -;
#X obj 894 434 / 25;
#X floatatom 777 398 5 0 150 0 - - -;
#X obj 777 420 mtof;
#X obj 778 465 pack 0 50;
#X obj 778 490 line~;
#X floatatom 777 443 7 0 0 0 - - -;
#X obj 894 361 loadbang;
#X msg 894 386 10;
#X obj 893 462 line~;
#X obj 777 349 loadbang;
#X msg 777 374 69;
#X obj 775 607 outlet~;
#X connect 0 0 7 0;
#X connect 1 0 12 0;
#X connect 2 0 1 0;
#X connect 3 0 1 2;
#X connect 4 0 11 0;
#X connect 5 0 8 0;
#X connect 6 0 9 0;
#X connect 7 0 5 0;
#X connect 8 0 1 1;
#X connect 9 0 10 0;
#X connect 10 0 7 0;
#X connect 11 0 3 0;
#X connect 12 0 27 0;
#X connect 15 0 16 0;
#X connect 16 0 24 0;
#X connect 17 0 18 0;
#X connect 18 0 21 0;
#X connect 19 0 20 0;
#X connect 20 0 12 1;
#X connect 21 0 19 0;
#X connect 22 0 23 0;
#X connect 23 0 15 0;
#X connect 24 0 12 2;
#X connect 25 0 26 0;
#X connect 26 0 17 0;
#X restore 714 519 pd wind3;
#X text 702 176 Using one first oscillator for the acceleration and
another one for the speed of the variation of the sound.;
#X text 277 591 Constant wind sound in the background;
#X connect 0 0 4 0;
#X connect 1 0 6 0;
#X connect 3 0 11 0;
#X connect 4 0 10 0;
#X connect 5 0 4 0;
#X connect 6 0 2 0;
#X connect 7 0 6 1;
#X connect 7 0 25 1;
#X connect 7 0 32 0;
#X connect 8 0 31 0;
#X connect 9 0 1 1;
#X connect 10 0 9 0;
#X connect 11 0 5 0;
#X connect 12 0 30 0;
#X connect 13 0 29 0;
#X connect 14 0 1 2;
#X connect 15 0 16 0;
#X connect 16 0 14 0;
#X connect 17 0 1 0;
#X connect 18 0 2 0;
#X connect 19 0 18 0;
#X connect 20 0 18 1;
#X connect 21 0 18 2;
#X connect 23 0 24 0;
#X connect 24 0 7 0;
#X connect 25 0 2 1;
#X connect 26 0 27 0;
#X connect 26 0 28 0;
#X connect 27 0 20 0;
#X connect 28 0 21 0;
#X connect 29 0 2 1;
#X connect 30 0 13 0;
#X connect 32 0 8 1;
#X connect 35 0 25 0;
#X connect 36 0 8 0;
