#N canvas 576 177 1031 664 12;
#X obj 129 234 else/brown~;
#X obj 143 205 line;
#X obj 134 140 delay;
#X floatatom 80 234 5 0 0 0 - - -;
#X obj 73 91 bng 15 250 50 0 empty empty empty 17 7 0 10 -262144 -1
-1;
#X obj 69 64 t b b;
#X obj 135 163 t b b;
#X obj 211 158 + 1800;
#X obj 210 132 random 1500;
#X obj 50 133 random 7;
#X obj 51 163 / 10;
#X obj 383 120 lop~;
#X msg 386 95 200;
#X obj 288 93 else/brown~;
#X msg 428 91 0.38;
#X obj 162 17 loadbang;
#X obj 140 309 *~;
#X obj 552 233 *~;
#X obj 141 434 outlet~;
#X obj 217 434 outlet~;
#X connect 0 0 16 0;
#X connect 1 0 3 0;
#X connect 2 0 6 0;
#X connect 3 0 16 1;
#X connect 4 0 2 0;
#X connect 5 0 9 0;
#X connect 5 1 8 0;
#X connect 6 0 9 0;
#X connect 6 1 8 0;
#X connect 7 0 2 1;
#X connect 7 0 1 1;
#X connect 8 0 7 0;
#X connect 9 0 4 0;
#X connect 9 0 10 0;
#X connect 10 0 1 0;
#X connect 11 0 17 0;
#X connect 12 0 11 1;
#X connect 13 0 11 0;
#X connect 14 0 17 1;
#X connect 15 0 14 0;
#X connect 15 0 12 0;
#X connect 15 0 5 0;
#X connect 16 0 18 0;
#X connect 16 0 19 0;
#X connect 17 0 18 0;
#X connect 17 0 19 0;
