#N canvas 279 317 1031 664 12;
#X obj 183 314 else/out~;
#X obj 159 222 hsl 140 17 20 20000 1 0 empty \$0-freq-set empty 5 9
0 10 -228856 -1 -1 7300 0;
#X obj 222 253 hsl 128 17 0.1 10 1 0 empty \$0-Q-set empty 5 9 0 10
-228856 -1 -1 5100 0;
#X obj 219 274 nbx 8 14 -1e+37 1e+37 0 0 \$0-Q empty empty 0 -8 0 10
-228856 -1 -1 3.6255 256;
#X obj 156 255 nbx 5 14 -1e+37 1e+37 0 0 \$0-freq empty empty 0 -8
0 10 -228856 -1 -1 1039.14 256;
#X text 167 222 Resonant Frequency;
#X text 248 253 Q/Resonance;
#X obj 130 279 lowpass~;
#X msg 376 235 0.6;
#X obj 98 254 noise~;
#X obj 14 152 line;
#X obj 122 112 delay;
#X floatatom 58 155 5 0 0 0 - - -;
#X obj 120 88 bng 15 250 50 0 empty empty empty 17 7 0 10 -262144 -1
-1;
#X obj 62 38 t b b;
#X obj 123 150 t b b;
#X obj 178 127 + 1500;
#X obj 177 97 random 1000;
#X obj 13 126 + 400;
#X obj 13 97 * 10;
#X obj 280 148 line;
#X obj 397 110 delay;
#X floatatom 321 148 5 0 0 0 - - -;
#X obj 397 83 bng 15 250 50 0 empty empty empty 17 7 0 10 -262144 -1
-1;
#X obj 367 34 t b b;
#X obj 398 142 t b b;
#X obj 449 109 + 1500;
#X obj 449 84 random 1000;
#X obj 279 121 + 1.2;
#X obj 279 94 / 10;
#X obj 279 68 random 28;
#X obj 14 69 random 100;
#X obj 375 205 loadbang;
#X obj 219 8 loadbang;
#X connect 1 0 4 0;
#X connect 2 0 3 0;
#X connect 3 0 7 2;
#X connect 4 0 7 1;
#X connect 7 0 0 0;
#X connect 7 0 0 1;
#X connect 8 0 0 2;
#X connect 9 0 7 0;
#X connect 10 0 12 0;
#X connect 10 0 4 0;
#X connect 11 0 15 0;
#X connect 13 0 11 0;
#X connect 14 0 31 0;
#X connect 14 1 17 0;
#X connect 15 0 31 0;
#X connect 15 1 17 0;
#X connect 16 0 11 1;
#X connect 16 0 10 1;
#X connect 17 0 16 0;
#X connect 18 0 10 0;
#X connect 19 0 18 0;
#X connect 20 0 22 0;
#X connect 20 0 3 0;
#X connect 21 0 25 0;
#X connect 23 0 21 0;
#X connect 24 0 30 0;
#X connect 24 1 27 0;
#X connect 25 0 30 0;
#X connect 25 1 27 0;
#X connect 26 0 21 1;
#X connect 26 0 20 1;
#X connect 27 0 26 0;
#X connect 28 0 20 0;
#X connect 29 0 28 0;
#X connect 30 0 23 0;
#X connect 30 0 29 0;
#X connect 31 0 13 0;
#X connect 31 0 19 0;
#X connect 32 0 8 0;
#X connect 33 0 14 0;
#X connect 33 0 24 0;
