#N canvas 0 23 1680 953 12;
#X obj 505 708 dac~ 1 2;
#X obj 543 343 else/brown~;
#X floatatom 673 391 5 0 0 0 - - -;
#X obj 265 539 delread~ del1;
#X obj 267 659 delwrite~ del1 1000;
#X floatatom 273 513 5 0 0 0 - - -;
#X obj 265 568 *~;
#X obj 402 552 clip 0 1;
#X floatatom 402 522 5 0 0 0 - - -;
#X floatatom 402 584 5 0 0 0 - - -;
#X obj 674 542 delread~ del1;
#X obj 678 662 delwrite~ del1 1000;
#X floatatom 684 510 5 0 0 0 - - -;
#X obj 676 571 *~;
#X obj 811 555 clip 0 1;
#X floatatom 811 525 5 0 0 0 - - -;
#X obj 274 457 loadbang;
#X msg 274 482 500;
#X obj 684 455 loadbang;
#X msg 684 480 1000;
#X obj 811 471 loadbang;
#X msg 811 496 0.6;
#X obj 402 466 loadbang;
#X msg 402 491 0.3;
#X obj 673 333 loadbang;
#X msg 673 362 1, f 4;
#X obj 538 553 osc~ 0.01;
#X obj 607 182 osc~ 0.16;
#X obj 607 291 snapshot~;
#X floatatom 608 371 5 0 0 0 - - -;
#X obj 666 259 bng 15 250 50 0 empty empty empty 17 7 0 10 -262144
-1 -1;
#X obj 607 224 +~ 1.5;
#X obj 666 232 metro 10;
#X obj 666 208 tgl 15 0 empty empty empty 17 7 0 10 -262144 -1 -1 1
1;
#X obj 607 255 *~ 200;
#X obj 682 182 loadbang;
#X obj 543 420 bp~ 1000 10, f 19;
#X obj 508 467 *~ 0.4;
#X obj 508 592 carlo_pan~;
#X connect 1 0 36 0;
#X connect 2 0 36 2;
#X connect 3 0 6 0;
#X connect 3 0 0 0;
#X connect 5 0 3 0;
#X connect 6 0 4 0;
#X connect 7 0 6 1;
#X connect 7 0 9 0;
#X connect 8 0 7 0;
#X connect 10 0 13 0;
#X connect 10 0 0 1;
#X connect 12 0 10 0;
#X connect 13 0 11 0;
#X connect 14 0 13 1;
#X connect 15 0 14 0;
#X connect 16 0 17 0;
#X connect 17 0 5 0;
#X connect 18 0 19 0;
#X connect 19 0 12 0;
#X connect 20 0 21 0;
#X connect 21 0 15 0;
#X connect 22 0 23 0;
#X connect 23 0 8 0;
#X connect 24 0 25 0;
#X connect 25 0 2 0;
#X connect 26 0 38 1;
#X connect 27 0 31 0;
#X connect 28 0 29 0;
#X connect 29 0 36 1;
#X connect 30 0 28 0;
#X connect 31 0 34 0;
#X connect 32 0 30 0;
#X connect 33 0 32 0;
#X connect 34 0 28 0;
#X connect 35 0 33 0;
#X connect 36 0 37 0;
#X connect 37 0 38 0;
#X connect 38 0 4 0;
#X connect 38 1 11 0;
