#N canvas 0 23 1680 953 12;
#X obj 543 420 bp~ 3000 10, f 19;
#X floatatom 673 391 5 0 0 0 - - -;
#X obj 674 542 delread~ del1;
#X obj 678 662 delwrite~ del1 1000;
#X floatatom 684 510 5 0 0 0 - - -;
#X obj 676 571 *~;
#X obj 811 555 clip 0 1;
#X floatatom 811 525 5 0 0 0 - - -;
#X obj 684 455 loadbang;
#X msg 684 480 1000;
#X obj 811 471 loadbang;
#X msg 811 496 0.6;
#X obj 673 333 loadbang;
#X msg 673 362 1, f 4;
#X obj 607 182 osc~ 0.16;
#X obj 607 291 snapshot~;
#X floatatom 608 371 5 0 0 0 - - -;
#X obj 666 259 bng 15 250 50 0 empty empty empty 17 7 0 10 -262144
-1 -1;
#X obj 607 224 +~ 1.5;
#X obj 666 232 metro 10;
#X obj 666 208 tgl 15 0 empty empty empty 17 7 0 10 -262144 -1 -1 1
1;
#X obj 682 182 loadbang;
#X obj 542 345 noise~;
#X obj 392 345 else/pinknoise~ 1039;
#X obj 538 553 osc~ 0.02;
#X obj 607 255 *~ 400;
#X obj 508 467 *~ 0.1;
#X obj 508 592 carlo_pan~;
#X obj 509 742 outlet~;
#X obj 626 742 outlet~;
#X connect 0 0 26 0;
#X connect 1 0 0 2;
#X connect 2 0 5 0;
#X connect 2 0 29 0;
#X connect 4 0 2 0;
#X connect 5 0 3 0;
#X connect 6 0 5 1;
#X connect 7 0 6 0;
#X connect 8 0 9 0;
#X connect 9 0 4 0;
#X connect 10 0 11 0;
#X connect 11 0 7 0;
#X connect 12 0 13 0;
#X connect 13 0 1 0;
#X connect 14 0 18 0;
#X connect 15 0 16 0;
#X connect 16 0 0 1;
#X connect 17 0 15 0;
#X connect 18 0 25 0;
#X connect 19 0 17 0;
#X connect 20 0 19 0;
#X connect 21 0 20 0;
#X connect 22 0 0 0;
#X connect 23 0 0 0;
#X connect 24 0 27 1;
#X connect 25 0 15 0;
#X connect 26 0 27 0;
#X connect 27 0 28 0;
#X connect 27 1 3 0;
