#N canvas 317 246 450 300 12;
#X obj 124 66 inlet;
#X msg 124 128 \$1 50;
#X obj 124 159 line~;
#X obj 124 190 outlet~;
#X obj 124 97 cyclone/scale 0 1 5e-05 0.5 2;
#X connect 0 0 4 0;
#X connect 1 0 2 0;
#X connect 2 0 3 0;
#X connect 4 0 1 0;
