#N canvas 133 118 1180 711 12;
#X obj 87 181 noise~;
#X text 207 186 Q;
#X floatatom 161 187 5 0 0 0 - - -;
#X obj 161 163 cyclone/loadmess 11;
#X obj 281 369 dac~;
#X obj 87 270 *~ 0.25;
#X obj 303 183 noise~;
#X text 420 190 Q;
#X floatatom 377 189 5 0 0 0 - - -;
#X text 676 190 Q;
#X floatatom 633 189 5 0 0 0 - - -;
#X obj 87 211 bp~ 3000 10;
#X obj 173 64 hsl 128 15 400 2500 0 0 empty empty empty -2 -8 0 10
-262144 -1 -1 0 1;
#X floatatom 170 84 5 0 0 0 - - -;
#X obj 303 212 bandpass~;
#X obj 303 272 *~ 0.5;
#X obj 559 212 lowpass~;
#X obj 633 165 cyclone/loadmess 5;
#X obj 377 165 cyclone/loadmess 20;
#X obj 392 68 bng 15 250 50 0 empty empty empty 17 7 0 10 -262144 -1
-1;
#X obj 559 272 *~ 0.01;
#X text 411 66 Press here to load all numbers.;
#X text 195 43 Slide me!;
#X obj 559 183 noise~;
#X connect 0 0 11 0;
#X connect 2 0 11 2;
#X connect 3 0 2 0;
#X connect 5 0 4 0;
#X connect 6 0 14 0;
#X connect 8 0 14 2;
#X connect 10 0 16 2;
#X connect 11 0 5 0;
#X connect 12 0 13 0;
#X connect 13 0 11 1;
#X connect 13 0 14 1;
#X connect 13 0 16 1;
#X connect 14 0 15 0;
#X connect 15 0 4 1;
#X connect 16 0 20 0;
#X connect 17 0 10 0;
#X connect 18 0 8 0;
#X connect 19 0 3 0;
#X connect 19 0 18 0;
#X connect 19 0 17 0;
#X connect 20 0 4 0;
#X connect 20 0 4 1;
#X connect 23 0 16 0;
