#N canvas 12 23 1313 709 12;
#X obj 217 311 noise~;
#X obj 274 311 sig~;
#X obj 251 354 vcf~ 10;
#X obj 59 152 noise~;
#X obj 60 200 lop~;
#X floatatom 111 175 5 0 0 0 - - -;
#X floatatom 274 248 5 0 0 0 - - -;
#X floatatom 325 311 5 0 0 0 - - -;
#X text 314 243 3000 Hz;
#X text 370 310 5 Q;
#X floatatom 565 152 5 0 0 0 - - -;
#X obj 565 229 snapshot~;
#X floatatom 564 256 5 0 0 0 - - -;
#X obj 676 201 metro;
#X obj 676 180 tgl 15 0 empty empty empty 17 7 0 10 -262144 -1 -1 1
1;
#X floatatom 708 177 5 0 0 0 - - -;
#X floatatom 565 285 5 0 0 0 - - -;
#X text 608 149 0.1;
#X obj 565 314 * -1;
#X floatatom 565 341 5 0 0 0 - - -;
#X obj 565 366 + 1;
#X floatatom 565 393 5 0 0 0 - - -;
#X text 604 298 Two waves \, one increasing and one decreasing in sound
\, to create a wave sound.;
#X obj 274 222 cyclone/loadmess 3000;
#X obj 325 284 cyclone/loadmess 5;
#X obj 291 94 bng 15 250 50 0 empty empty empty 17 7 0 10 -262144 -1
-1;
#X obj 111 152 cyclone/loadmess 60;
#X text 16 251 This is the background sea noise;
#X obj 565 175 osc~;
#X obj 565 125 cyclone/loadmess 0.05;
#X text 242 77 Press here to start the waves!;
#X obj 565 202 *~ 1;
#X obj 251 562 *~;
#X obj 270 531 line~;
#X msg 270 505 \$1 10;
#X obj 270 469 pow 4;
#X obj 381 562 *~;
#X obj 400 531 line~;
#X msg 400 505 \$1 10;
#X obj 400 469 pow 4;
#X obj 292 37 loadbang;
#X obj 708 154 cyclone/loadmess 10;
#X obj 248 629 outlet~;
#X obj 378 629 outlet~;
#X obj 251 592 *~ 0.5;
#X obj 381 592 *~ 0.5;
#X connect 0 0 2 0;
#X connect 1 0 2 1;
#X connect 2 0 32 0;
#X connect 2 1 36 0;
#X connect 3 0 4 0;
#X connect 4 0 44 0;
#X connect 5 0 4 1;
#X connect 6 0 1 0;
#X connect 7 0 2 2;
#X connect 10 0 28 0;
#X connect 11 0 12 0;
#X connect 12 0 16 0;
#X connect 13 0 11 0;
#X connect 14 0 13 0;
#X connect 15 0 13 1;
#X connect 16 0 18 0;
#X connect 16 0 35 0;
#X connect 18 0 19 0;
#X connect 19 0 20 0;
#X connect 20 0 21 0;
#X connect 21 0 39 0;
#X connect 23 0 6 0;
#X connect 24 0 7 0;
#X connect 25 0 23 0;
#X connect 25 0 24 0;
#X connect 25 0 14 0;
#X connect 25 0 26 0;
#X connect 25 0 29 0;
#X connect 25 0 41 0;
#X connect 26 0 5 0;
#X connect 28 0 31 0;
#X connect 29 0 10 0;
#X connect 31 0 11 0;
#X connect 32 0 44 0;
#X connect 33 0 32 1;
#X connect 34 0 33 0;
#X connect 35 0 34 0;
#X connect 36 0 45 0;
#X connect 37 0 36 1;
#X connect 38 0 37 0;
#X connect 39 0 38 0;
#X connect 40 0 25 0;
#X connect 41 0 15 0;
#X connect 44 0 42 0;
#X connect 45 0 43 0;
