#N canvas 422 23 958 1005 12;
#X text 36 68 Sea;
#X text 522 70 wind;
#X obj 199 192 vsl 15 128 -1 1 0 0 empty empty empty 0 -9 0 10 -228856
-1 -1 7530 1;
#X obj 120 439 *~, f 6;
#X obj 235 446 vcf~, f 11;
#X obj 583 324 vcf~, f 11;
#X floatatom 685 247 5 0 0 0 - - -;
#X obj 596 178 env~;
#X obj 697 110 delay \$1;
#X obj 620 33 bng 15 250 50 0 empty empty empty 17 7 0 10 -262144 -1
-1;
#X obj 595 148 osc~ 0.06;
#X obj 697 74 * 100;
#X obj 595 73 random 80;
#X obj 597 112 * 0.1;
#X obj 224 591 else/bandpass~;
#X obj 340 591 else/lowpass~;
#X obj 314 759 else/lowpass~;
#X obj 507 269 else/pinknoise~ 400;
#X obj 715 372 else/lowpass~;
#X obj 431 171 else/gray~ 300;
#X obj 46 264 else/crackle~;
#X obj 61 504 else/brown~ 500;
#X obj 314 707 *~ 1, f 5;
#X obj 53 355 pinknoise~ 600;
#X obj 482 209 else/brown~ 200;
#X obj 484 306 *~ 0.8, f 7;
#X obj 432 233 *~ 0.3;
#X obj 596 209 * 5, f 5;
#X obj 64 469 *~ 0.3;
#X obj 340 546 *~ 0.9;
#X msg 703 290 0.3;
#X obj 777 282 * 0.6;
#X msg 847 326 5;
#X msg 398 539 450;
#X msg 394 668 6382;
#X msg 267 366 6000;
#X msg 316 376 1.2;
#X obj 248 820 delwrite~ foam 800;
#X obj 43 590 *~ 0.3;
#X obj 84 554 osc~ 1;
#X obj 394 415 loadbang;
#X obj 259 725 line~;
#X msg 246 693 1 300;
#X obj 199 108 else/rampnoise~ 0.5;
#X msg 47 214 0.7;
#X msg 320 503 1.12;
#X msg 257 519 1218;
#X msg 438 684 0.5;
#X msg 442 539 1.23;
#X obj 108 663 delread~ foam 600;
#X obj 620 5 loadbang;
#X floatatom 809 718 5 0 0 0 - - -;
#X floatatom 217 744 5 0 0 0 - - -;
#X obj 94 774 *~ 0.22;
#X obj 160 773 *~ 0.22;
#X obj 660 692 *~ 0.1;
#X obj 722 692 *~ 0.1;
#X obj 80 926 outlet~;
#X obj 147 926 outlet~;
#X obj 566 881 outlet~;
#X obj 633 881 outlet~;
#X obj 199 162 snapshot~;
#X obj 215 135 metro 20;
#X obj 215 81 tgl 15 0 empty empty empty 17 7 0 10 -262144 -1 -1 1
1;
#X msg 215 50 1;
#X connect 2 0 3 1;
#X connect 3 0 4 0;
#X connect 3 0 15 0;
#X connect 3 0 22 0;
#X connect 3 0 29 0;
#X connect 3 0 14 0;
#X connect 4 0 53 0;
#X connect 4 0 54 0;
#X connect 5 0 56 0;
#X connect 6 0 5 1;
#X connect 6 0 31 0;
#X connect 7 0 27 0;
#X connect 8 0 9 0;
#X connect 9 0 12 0;
#X connect 10 0 7 0;
#X connect 11 0 8 0;
#X connect 12 0 11 0;
#X connect 12 0 13 0;
#X connect 13 0 10 0;
#X connect 14 0 53 0;
#X connect 14 0 54 0;
#X connect 14 0 56 0;
#X connect 15 0 53 0;
#X connect 15 0 54 0;
#X connect 16 0 37 0;
#X connect 17 0 25 0;
#X connect 18 0 55 0;
#X connect 18 0 56 0;
#X connect 19 0 26 0;
#X connect 20 0 3 0;
#X connect 20 0 38 0;
#X connect 21 0 28 0;
#X connect 21 0 38 0;
#X connect 21 0 39 0;
#X connect 22 0 16 0;
#X connect 23 0 3 0;
#X connect 24 0 25 0;
#X connect 25 0 5 0;
#X connect 26 0 25 0;
#X connect 26 0 18 0;
#X connect 27 0 6 0;
#X connect 28 0 3 0;
#X connect 29 0 15 0;
#X connect 30 0 5 2;
#X connect 31 0 18 1;
#X connect 32 0 18 2;
#X connect 33 0 15 1;
#X connect 34 0 16 1;
#X connect 35 0 4 1;
#X connect 36 0 4 2;
#X connect 38 0 53 0;
#X connect 38 0 54 0;
#X connect 39 0 38 0;
#X connect 40 0 48 0;
#X connect 40 0 35 0;
#X connect 40 0 36 0;
#X connect 40 0 33 0;
#X connect 40 0 34 0;
#X connect 40 0 46 0;
#X connect 40 0 45 0;
#X connect 40 0 47 0;
#X connect 40 0 42 0;
#X connect 40 0 44 0;
#X connect 40 0 32 0;
#X connect 40 0 30 0;
#X connect 41 0 37 0;
#X connect 42 0 41 0;
#X connect 43 0 61 0;
#X connect 44 0 20 0;
#X connect 45 0 14 2;
#X connect 46 0 14 1;
#X connect 47 0 16 2;
#X connect 48 0 15 2;
#X connect 49 0 53 0;
#X connect 50 0 9 0;
#X connect 50 0 64 0;
#X connect 51 0 55 1;
#X connect 51 0 56 1;
#X connect 52 0 53 1;
#X connect 52 0 54 1;
#X connect 53 0 57 0;
#X connect 54 0 58 0;
#X connect 55 0 59 0;
#X connect 56 0 60 0;
#X connect 61 0 2 0;
#X connect 62 0 61 0;
#X connect 63 0 62 0;
#X connect 64 0 63 0;
