#N canvas 417 90 524 507 12;
#X obj 111 259 cyclone/degrade~;
#X obj 177 74 vsl 15 128 0 1 0 0 empty empty empty 0 -9 0 10 -262144
-1 -1 0 1;
#X floatatom 177 210 5 0 0 0 - - -;
#X obj 64 184 else/brown~;
#X obj 123 389 else/lowpass~;
#X obj 315 309 hsl 128 15 0.1 1 0 0 empty empty empty -2 -8 0 10 -262144
-1 -1 0 1;
#X floatatom 312 329 5 0 0 0 - - -;
#X obj 172 308 hsl 128 15 400 5000 0 0 empty empty empty -2 -8 0 10
-262144 -1 -1 6600 1;
#X floatatom 169 328 5 0 0 0 - - -;
#X obj 304 191 *~ 0.4;
#X obj 304 214 +~ 0.6;
#X obj 247 167 *~ -1;
#X obj 123 412 *~;
#X obj 248 215 +~ 0.5;
#X obj 248 192 *~ 0.4;
#X obj 374 166 *~ -1;
#X obj 304 104 osc~ 0.06;
#X obj 169 350 max 3000;
#X obj 117 440 niels_pan~;
#X obj 96 21 inlet;
#X obj 96 45 * 2000;
#X obj 96 69 + 3000;
#X obj 128 481 outlet~;
#X obj 193 481 outlet~;
#X obj 195 283 cyclone/loadmess 3000;
#X connect 0 0 4 0;
#X connect 1 0 2 0;
#X connect 2 0 0 1;
#X connect 3 0 0 0;
#X connect 4 0 12 0;
#X connect 5 0 6 0;
#X connect 6 0 4 2;
#X connect 7 0 8 0;
#X connect 8 0 17 0;
#X connect 9 0 10 0;
#X connect 10 0 4 2;
#X connect 10 0 12 1;
#X connect 11 0 14 0;
#X connect 12 0 18 0;
#X connect 13 0 0 1;
#X connect 14 0 13 0;
#X connect 15 0 18 1;
#X connect 16 0 9 0;
#X connect 16 0 11 0;
#X connect 16 0 15 0;
#X connect 17 0 4 1;
#X connect 18 0 22 0;
#X connect 18 1 23 0;
#X connect 19 0 20 0;
#X connect 20 0 21 0;
#X connect 21 0 7 0;
#X connect 24 0 7 0;
#X coords 0 507 1 506 0 0 0;
