#N canvas 509 63 1132 980 12;
#X obj 291 692 dac~ 1 2;
#X obj 181 605 noise~;
#X obj 349 615 noise~;
#X obj 204 638 else/lowpass~;
#X obj 363 641 else/lowpass~;
#X obj 522 312 noise~;
#X obj 493 359 snapshot~;
#X obj 473 270 bng 15 250 50 0 empty empty empty 17 7 0 10 -262144
-1 -1;
#X floatatom 493 382 5 0 0 0 - - -;
#X obj 493 404 abs;
#X obj 493 427 * 400;
#X floatatom 492 473 5 0 0 0 - - -;
#X obj 492 518 line;
#X floatatom 492 541 5 0 0 0 - - -;
#X obj 473 241 metro 200;
#X obj 493 450 + 1000;
#X msg 492 495 \$1 100;
#X obj 276 340 noise~;
#X obj 247 387 snapshot~;
#X obj 227 298 bng 15 250 50 0 empty empty empty 17 7 0 10 -262144
-1 -1;
#X floatatom 247 410 5 0 0 0 - - -;
#X obj 247 432 abs;
#X obj 247 455 * 400;
#X floatatom 246 501 5 0 0 0 - - -;
#X obj 246 546 line;
#X floatatom 246 569 5 0 0 0 - - -;
#X obj 227 269 metro 200;
#X obj 247 478 + 1000;
#X msg 246 523 \$1 100;
#X obj 320 126 loadbang;
#X connect 1 0 3 0;
#X connect 2 0 4 0;
#X connect 3 0 0 0;
#X connect 4 0 0 1;
#X connect 5 0 6 0;
#X connect 6 0 8 0;
#X connect 7 0 6 0;
#X connect 8 0 9 0;
#X connect 9 0 10 0;
#X connect 10 0 15 0;
#X connect 11 0 16 0;
#X connect 12 0 13 0;
#X connect 13 0 4 1;
#X connect 14 0 7 0;
#X connect 15 0 11 0;
#X connect 16 0 12 0;
#X connect 17 0 18 0;
#X connect 18 0 20 0;
#X connect 19 0 18 0;
#X connect 20 0 21 0;
#X connect 21 0 22 0;
#X connect 22 0 27 0;
#X connect 23 0 28 0;
#X connect 24 0 25 0;
#X connect 25 0 3 1;
#X connect 26 0 19 0;
#X connect 27 0 23 0;
#X connect 28 0 24 0;
#X connect 29 0 26 0;
#X connect 29 0 14 0;
#X coords 0 980 1 979 0 0 0;
