#N canvas 0 23 1126 795 12;
#X obj 150 347 inlet~;
#X obj 207 347 inlet~;
#X obj 189 531 cos~;
#X obj 238 531 sin~;
#X obj 161 637 *~;
#X obj 161 660 outlet~;
#X obj 230 637 *~;
#X obj 230 660 outlet~;
#X obj 208 435 *~ 0.125;
#X obj 208 458 +~ 0.125;
#X connect 0 0 6 0;
#X connect 0 0 4 0;
#X connect 1 0 8 0;
#X connect 2 0 4 1;
#X connect 3 0 6 1;
#X connect 4 0 5 0;
#X connect 6 0 7 0;
#X connect 8 0 9 0;
#X connect 9 0 2 0;
#X connect 9 0 3 0;
