#N canvas 0 23 1280 751 12;
#X obj 392 164 else/brown~;
#X obj 391 314 bob~, f 22;
#X obj 392 534 *~;
#X obj 187 454 hsl 128 15 0.0001 1 1 0 empty empty empty -2 -8 0 10
-262144 -1 -1 12700 1;
#X obj 184 502 line~;
#X msg 184 478 \$1 50;
#X obj 392 378 *~;
#X obj 735 133 osc~;
#X msg 203 129 \; pd dsp \$1;
#X obj 203 106 tgl 15 0 empty empty empty 17 7 0 10 -262144 -1 -1 0
1;
#X obj 735 58 osc~;
#X obj 735 82 *~;
#X obj 735 106 +~;
#X floatatom 774 94 5 0 0 0 - ml -;
#X floatatom 777 66 5 0 0 0 - mh -;
#X floatatom 735 32 5 0 0 0 - mod -;
#X obj 776 318 bob~, f 22;
#X obj 777 382 *~;
#X obj 767 537 *~;
#X obj 647 195 rand~;
#X obj 647 219 *~;
#X floatatom 647 169 5 0 0 0 - rf1 -;
#X obj 776 204 else/brown~;
#X floatatom 680 220 5 0 1 0 - r1 -;
#X obj 1020 121 rand~;
#X obj 1020 145 *~;
#X floatatom 1020 95 5 0 0 0 - rf2 -;
#X floatatom 1053 147 5 0 1 0 - r1 -;
#X obj 542 221 +~;
#X obj 542 195 *~;
#X obj 952 217 +~;
#X obj 952 192 *~;
#X obj 435 189 noise~;
#X obj 466 262 *~ 50;
#X obj 1041 333 *~ 0.5;
#X obj 656 329 *~ 0.5;
#X obj 392 439 +~;
#X obj 812 441 +~;
#X obj 792 233 noise~;
#X obj 851 266 *~ 100;
#X obj 656 353 +~ 0.6;
#X obj 1041 357 +~ 0.55;
#X obj 792 257 *~ 0.5;
#X obj 735 160 delwrite~ del_high 1000;
#X obj 868 125 delread4~ del_high;
#X floatatom 868 102 5 0 0 0 - d1 -;
#X obj 542 263 *~ 0.75;
#X obj 42 100 else/initmess \; mod 0.05 \; mh 0.04 \; ml 0.1 \; rf1
0.11 \; rf2 0.2 \; r1 0.4 \; r2 0.5 \; p1 -0.5 \; p2 0.5 \; d1 1000
\;;
#X obj 435 213 *~ 0.75;
#X obj 466 286 +~ 80;
#X obj 542 287 +~ 2.25;
#X text 182 433 main volume;
#X obj 392 463 *~ 2;
#X obj 812 465 *~ 2;
#X text 373 74 sea patch;
#X obj 851 290 +~ 200;
#X obj 392 412 ssi-pan2~;
#X obj 474 405 *~ 0.5;
#X obj 777 413 ssi-pan2~;
#X obj 854 413 *~ 0.5;
#X obj 474 381 rand~ 0.05;
#X obj 854 389 rand~ 0.08;
#X obj 927 291 +~ 1;
#X obj 927 267 *~ 0.5;
#X obj 156 401 loadmess 1;
#X obj 392 572 outlet~;
#X obj 767 575 outlet~;
#X obj 680 293 -;
#X msg 680 268 1;
#X obj 1053 222 -;
#X msg 1053 197 1;
#X obj 680 243 t b f;
#X obj 1053 172 t b f;
#X connect 0 0 1 0;
#X connect 1 0 6 0;
#X connect 2 0 65 0;
#X connect 3 0 5 0;
#X connect 4 0 2 1;
#X connect 4 0 18 1;
#X connect 5 0 4 0;
#X connect 6 0 56 0;
#X connect 7 0 29 0;
#X connect 7 0 43 0;
#X connect 9 0 8 0;
#X connect 10 0 11 0;
#X connect 11 0 12 0;
#X connect 12 0 7 0;
#X connect 13 0 12 1;
#X connect 14 0 11 1;
#X connect 15 0 10 0;
#X connect 16 0 17 0;
#X connect 17 0 58 0;
#X connect 18 0 66 0;
#X connect 19 0 20 0;
#X connect 20 0 28 1;
#X connect 21 0 19 0;
#X connect 22 0 16 0;
#X connect 23 0 20 1;
#X connect 23 0 71 0;
#X connect 24 0 25 0;
#X connect 25 0 30 1;
#X connect 26 0 24 0;
#X connect 27 0 25 1;
#X connect 27 0 72 0;
#X connect 28 0 33 0;
#X connect 28 0 35 0;
#X connect 28 0 46 0;
#X connect 29 0 28 0;
#X connect 30 0 34 0;
#X connect 30 0 39 0;
#X connect 30 0 63 0;
#X connect 31 0 30 0;
#X connect 32 0 48 0;
#X connect 33 0 49 0;
#X connect 34 0 41 0;
#X connect 35 0 40 0;
#X connect 36 0 52 0;
#X connect 37 0 53 0;
#X connect 38 0 42 0;
#X connect 39 0 55 0;
#X connect 40 0 6 1;
#X connect 41 0 17 1;
#X connect 42 0 16 0;
#X connect 44 0 31 0;
#X connect 45 0 44 0;
#X connect 46 0 50 0;
#X connect 48 0 1 0;
#X connect 49 0 1 1;
#X connect 50 0 1 2;
#X connect 52 0 2 0;
#X connect 53 0 18 0;
#X connect 55 0 16 1;
#X connect 56 0 36 0;
#X connect 56 1 37 0;
#X connect 57 0 56 1;
#X connect 58 0 36 1;
#X connect 58 1 37 1;
#X connect 59 0 58 1;
#X connect 60 0 57 0;
#X connect 61 0 59 0;
#X connect 62 0 16 2;
#X connect 63 0 62 0;
#X connect 64 0 3 0;
#X connect 67 0 29 1;
#X connect 68 0 67 0;
#X connect 69 0 31 1;
#X connect 70 0 69 0;
#X connect 71 0 68 0;
#X connect 71 1 67 1;
#X connect 72 0 70 0;
#X connect 72 1 69 1;
