#N canvas 0 23 1354 966 12;
#X obj 114 239 osc~ 0.05;
#X obj 117 281 *~ 250;
#X obj 17 302 pinknoise~;
#X obj 66 456 bob~, f 50;
#X text 214 281 comment: this way the filter frequency is controlled
by a signal;
#X floatatom 445 416 5 0 0 0 - - -;
#X obj 73 656 *~;
#X obj 240 557 hsl 128 15 0 2 0 0 empty empty empty -2 -8 0 10 -262144
-1 -1 3175 1;
#X obj 237 615 line~;
#X obj 723 421 bob~, f 50;
#X floatatom 1102 381 5 0 0 0 - - -;
#X obj 657 656 *~;
#X text 871 245 comment: I copied the structure on the left so that
both right and left of the audio can have different input for a more
diverse and deeper sound.;
#X obj 771 204 osc~ 0.05;
#X obj 674 267 pinknoise~;
#X obj 119 326 +~ 750;
#X obj 773 246 *~ 100;
#X obj 776 291 +~ 1000;
#X msg 237 584 \$1 60;
#X obj 448 116 inlet;
#X obj 448 140 * 3;
#X obj 1101 111 inlet;
#X obj 1101 135 * 3;
#X obj 73 717 outlet~;
#X obj 238 505 loadbang;
#X msg 238 529 0.5;
#X obj 654 712 outlet~;
#X connect 0 0 1 0;
#X connect 1 0 15 0;
#X connect 2 0 3 0;
#X connect 3 0 6 0;
#X connect 5 0 3 2;
#X connect 6 0 23 0;
#X connect 7 0 18 0;
#X connect 8 0 6 1;
#X connect 8 0 11 0;
#X connect 9 0 11 1;
#X connect 10 0 9 2;
#X connect 11 0 26 0;
#X connect 13 0 16 0;
#X connect 14 0 9 0;
#X connect 15 0 3 1;
#X connect 16 0 17 0;
#X connect 17 0 9 1;
#X connect 18 0 8 0;
#X connect 19 0 20 0;
#X connect 20 0 5 0;
#X connect 21 0 22 0;
#X connect 22 0 10 0;
#X connect 24 0 25 0;
#X connect 25 0 7 0;
