#N canvas 443 215 487 563 12;
#X obj 175 403 lop~;
#X floatatom 200 321 5 0 0 0 - - -;
#X obj 200 288 snapshot~;
#X obj 201 244 line~;
#X obj 296 247 metro 10;
#X obj 306 58 tgl 40 0 empty empty empty 17 7 0 10 -262144 -1 -1 1
1;
#X obj 219 138 metro 5000;
#X obj 82 178 delay 2500 1 msec;
#X msg 148 210 5 2500;
#X msg 218 210 50 2500;
#X obj 138 321 noise~;
#X obj 304 24 loadmess 1;
#X obj 175 454 outlet~;
#X obj 252 454 outlet~;
#X obj 138 345 *~ 2;
#X connect 0 0 12 0;
#X connect 0 0 13 0;
#X connect 1 0 0 1;
#X connect 2 0 1 0;
#X connect 3 0 2 0;
#X connect 4 0 2 0;
#X connect 5 0 6 0;
#X connect 5 0 4 0;
#X connect 6 0 9 0;
#X connect 6 0 7 0;
#X connect 7 0 8 0;
#X connect 8 0 3 0;
#X connect 9 0 3 0;
#X connect 10 0 14 0;
#X connect 11 0 5 0;
#X connect 14 0 0 0;
