#N canvas -9 -9 1920 976 12;
#X declare -path else;
#X text 41 30 Wind;
#X obj 583 177 nbx 5 14 1 1e+037 0 0 \$0-q q-set empty 0 -8 0 10 -228856
-1 -1 33 256;
#N canvas 246 25 1108 572 (subpatch) 0;
#N canvas 169 136 742 523 plot 0;
#N canvas 159 22 181 220 loop 0;
#X obj 28 100 until;
#X obj 68 138 + 1;
#X msg 72 100 0;
#X obj 28 137 f;
#X obj 28 13 inlet;
#X obj 28 173 outlet;
#X obj 28 42 trigger b b;
#X obj 28 71 v table_size_\$0;
#X connect 0 0 3 0;
#X connect 1 0 3 1;
#X connect 2 0 3 1;
#X connect 3 0 1 0;
#X connect 3 0 5 0;
#X connect 4 0 6 0;
#X connect 6 0 7 0;
#X connect 6 1 2 0;
#X connect 7 0 0 0;
#X restore 184 96 pd loop;
#N canvas 259 145 659 527 init 0;
#X obj 110 66 loadbang;
#X obj 180 353 s \$0-dbrange;
#X obj 282 91 samplerate~;
#X obj 282 114 v sr_\$0;
#X msg 217 289 400;
#X text 247 289 array size;
#X obj 110 102 trigger b b b;
#X msg 180 320 24;
#X obj 273 193 v midi_range_\$0;
#X obj 273 167 ftom;
#X msg 273 141 8750.55;
#X obj 265 224 expr atan(1) * 4;
#X obj 266 255 v pi_\$0;
#N canvas 760 51 502 549 get-freq 0;
#X msg 211 218 resize \$1;
#X obj 88 66 change;
#X obj 230 157 v table_size_\$0;
#X obj 88 99 trigger bang float;
#X obj 211 192 change 400;
#X obj 88 29 inlet;
#N canvas 192 80 935 668 loop 0;
#X obj 106 192 until;
#X obj 144 241 + 1;
#X msg 124 216 0;
#X obj 106 95 t f f;
#X obj 483 216 until;
#X obj 529 265 + 1;
#X msg 501 241 0;
#X obj 106 270 t f f;
#X obj 211 355 +;
#X obj 106 370 mtof;
#X obj 106 144 t f b f;
#X obj 483 191 t f b f;
#X obj 483 326 /;
#X obj 106 31 inlet;
#X obj 106 574 outlet;
#X obj 259 583 outlet;
#X obj 483 144 expr table_size_\$0 - $f1;
#X obj 483 265 f;
#X obj 483 379 expr pow($f1 \, 0.4);
#X obj 106 241 f;
#X obj 483 296 trigger f f;
#X obj 106 63 expr rint(table_size_\$0 * 0.98);
#X obj 483 407 * 20.6017;
#X text 556 407 MIDI 16;
#X obj 106 298 expr (($f1 + 1) * (midi_range_\$0 / $f2)) + 16;
#X obj 106 465 expr $f1 * (2 * pi_\$0) / 44100;
#X obj 483 498 expr $f1 * (2 * pi_\$0) / 44100;
#X connect 0 0 19 0;
#X connect 1 0 19 1;
#X connect 2 0 19 1;
#X connect 3 0 10 0;
#X connect 3 1 16 0;
#X connect 4 0 17 0;
#X connect 5 0 17 1;
#X connect 6 0 17 1;
#X connect 7 0 24 0;
#X connect 7 1 8 0;
#X connect 8 0 15 0;
#X connect 9 0 25 0;
#X connect 10 0 0 0;
#X connect 10 1 2 0;
#X connect 10 2 24 1;
#X connect 11 0 4 0;
#X connect 11 1 6 0;
#X connect 11 2 12 1;
#X connect 12 0 18 0;
#X connect 13 0 21 0;
#X connect 16 0 8 1;
#X connect 16 0 11 0;
#X connect 17 0 5 0;
#X connect 17 0 20 0;
#X connect 18 0 22 0;
#X connect 19 0 1 0;
#X connect 19 0 7 0;
#X connect 20 0 12 0;
#X connect 20 1 15 0;
#X connect 21 0 3 0;
#X connect 22 0 26 0;
#X connect 24 0 9 0;
#X connect 25 0 14 0;
#X connect 26 0 14 0;
#X restore 88 129 pd loop;
#X obj 211 257 s freq_\$0;
#X obj 73 280 expr cos($f1) \; sin($f1) \; cos($f1 * 2) \; sin($f1
* 2) \; $f2;
#X obj 66 433 tabwrite sinW_\$0;
#X obj 99 461 tabwrite cos2W_\$0;
#X obj 35 397 tabwrite cosW_\$0;
#X obj 131 492 tabwrite sin2W_\$0;
#X connect 0 0 7 0;
#X connect 1 0 3 0;
#X connect 3 0 6 0;
#X connect 3 1 2 0;
#X connect 3 1 4 0;
#X connect 4 0 0 0;
#X connect 5 0 1 0;
#X connect 6 0 8 0;
#X connect 6 1 8 1;
#X connect 8 0 11 0;
#X connect 8 1 9 0;
#X connect 8 2 10 0;
#X connect 8 3 12 0;
#X connect 8 4 9 1;
#X connect 8 4 10 1;
#X connect 8 4 11 1;
#X connect 8 4 12 1;
#X restore 217 317 pd get-freq;
#X msg 142 380 \; q-set 10 \; freq-set 3000 \; freq-slider-set set
3000 \; pd dsp 1;
#X obj 428 233 table sin2W_\$0 400;
#X obj 428 208 table cos2W_\$0 400;
#X obj 429 171 table sinW_\$0 400;
#X obj 429 146 table cosW_\$0 400;
#X connect 0 0 6 0;
#X connect 2 0 3 0;
#X connect 4 0 13 0;
#X connect 6 0 14 0;
#X connect 6 1 4 0;
#X connect 6 1 7 0;
#X connect 6 2 2 0;
#X connect 6 2 10 0;
#X connect 6 2 11 0;
#X connect 7 0 1 0;
#X connect 9 0 8 0;
#X connect 10 0 9 0;
#X connect 11 0 12 0;
#X restore 459 156 pd init \; tables;
#N canvas 121 22 226 277 db-scale 0;
#X obj 42 31 inlet;
#X obj 42 61 rmstodb;
#X obj 42 90 - 100;
#X obj 98 61 r \$0-dbrange;
#X obj 108 109 * -1;
#X obj 41 147 clip;
#X obj 80 183 /;
#X obj 80 216 outlet;
#X connect 0 0 1 0;
#X connect 1 0 2 0;
#X connect 2 0 5 0;
#X connect 3 0 4 0;
#X connect 3 0 5 2;
#X connect 3 0 6 1;
#X connect 4 0 5 1;
#X connect 5 0 6 0;
#X connect 6 0 7 0;
#X restore 303 401 pd db-scale;
#X obj 407 421 r \$0-index;
#X obj 303 373 expr $f1 * gain;
#X obj 303 349 /;
#X obj 287 37 r \$0-q;
#X obj 185 38 r \$0-freq;
#X obj 303 423 tabwrite \$0-re;
#X obj 303 448 tabwrite \$0-im;
#N canvas 121 22 226 277 db-scale 0;
#X obj 42 31 inlet;
#X obj 42 61 rmstodb;
#X obj 42 90 - 100;
#X obj 98 61 r \$0-dbrange;
#X obj 108 109 * -1;
#X obj 41 147 clip;
#X obj 80 183 /;
#X obj 80 216 outlet;
#X connect 0 0 1 0;
#X connect 1 0 2 0;
#X connect 2 0 5 0;
#X connect 3 0 4 0;
#X connect 3 0 5 2;
#X connect 3 0 6 1;
#X connect 4 0 5 1;
#X connect 5 0 6 0;
#X connect 6 0 7 0;
#X restore 191 401 pd db-scale;
#X obj 191 373 expr $f1 * gain;
#X obj 191 349 /;
#N canvas 184 24 750 512 freq/GUI 0;
#X obj 48 60 r \$0-freq;
#X obj 87 309 s \$0-freq-slider-set;
#X msg 87 281 set \$1;
#X obj 87 130 ftom;
#X obj 87 187 / 16;
#X obj 87 216 * 3;
#X obj 140 207 expr (($f1 - 16) / midi_range_\$0) * 124 + 3;
#X obj 87 159 moses 16;
#X obj 48 98 sel 0;
#X msg 51 216 0;
#X obj 279 256 r \$0-freq-slider;
#X obj 279 290 / 127;
#X obj 279 320 * 800;
#X obj 279 396 s \$0-label;
#X msg 279 352 label_pos \$1 9;
#X obj 461 236 pack f f;
#X msg 433 303 label \$1.\$2Khz;
#X obj 461 185 expr int($f1 / 1000) \; $f1 % 1000;
#X obj 433 345 spigot;
#X obj 605 284 > 100;
#X obj 566 347 spigot;
#X msg 461 269 label \$1.0\$2Khz;
#X obj 605 319 expr 1 - $f1;
#X obj 461 115 route set;
#X obj 461 83 r \$0-freq-set;
#X obj 513 155 s \$0-Hz;
#X obj 350 84 r \$0-freq;
#X obj 87 248 max 0;
#X obj 350 115 expr rint($f1);
#X connect 0 0 8 0;
#X connect 2 0 1 0;
#X connect 3 0 7 0;
#X connect 4 0 5 0;
#X connect 5 0 27 0;
#X connect 6 0 2 0;
#X connect 6 0 11 0;
#X connect 7 0 4 0;
#X connect 7 1 6 0;
#X connect 8 0 9 0;
#X connect 8 1 3 0;
#X connect 9 0 2 0;
#X connect 9 0 11 0;
#X connect 10 0 11 0;
#X connect 11 0 12 0;
#X connect 12 0 14 0;
#X connect 14 0 13 0;
#X connect 15 0 16 0;
#X connect 15 0 21 0;
#X connect 16 0 18 0;
#X connect 17 0 15 0;
#X connect 17 1 15 1;
#X connect 17 1 19 0;
#X connect 18 0 13 0;
#X connect 19 0 18 1;
#X connect 19 0 22 0;
#X connect 20 0 13 0;
#X connect 21 0 20 0;
#X connect 22 0 20 1;
#X connect 23 0 17 0;
#X connect 23 0 25 0;
#X connect 23 1 17 0;
#X connect 24 0 23 0;
#X connect 26 0 28 0;
#X connect 27 0 2 0;
#X connect 27 0 11 0;
#X connect 28 0 17 0;
#X restore 450 205 pd freq/GUI;
#N canvas 107 28 562 487 coefficients 0;
#X obj 81 425 outlet;
#X obj 339 23 inlet;
#X obj 64 28 inlet;
#X obj 64 123 f;
#X obj 339 70 trigger bang float;
#X obj 255 180 expr 2 - 2 / (Q + 2) \; 1 - r \; if (qinv > 0 \, 1 -
cf * qinv \, 0) \; max($f1 * 2 * pi_\$0 / sr_\$0 \, 0) \; 1/Q \; max($f2
\, 1);
#X obj 93 315 expr ampcorrect * oneminusr \; r * cos(cf) \; r * sin(cf)
;
#X obj 125 377 v gain;
#X obj 301 384 v ampcorrect;
#X obj 318 351 v oneminusr;
#X obj 349 289 v r;
#X obj 381 330 v cf;
#X obj 412 306 v qinv;
#X obj 444 282 v Q;
#X obj 64 156 trigger bang bang float;
#X obj 222 386 v ai;
#X obj 178 386 v ar;
#X connect 1 0 4 0;
#X connect 2 0 3 0;
#X connect 3 0 14 0;
#X connect 4 0 3 0;
#X connect 4 1 5 1;
#X connect 5 0 8 0;
#X connect 5 1 9 0;
#X connect 5 2 10 0;
#X connect 5 3 11 0;
#X connect 5 4 12 0;
#X connect 5 5 13 0;
#X connect 6 0 7 0;
#X connect 6 1 16 0;
#X connect 6 2 15 0;
#X connect 14 0 0 0;
#X connect 14 1 6 0;
#X connect 14 2 5 0;
#X restore 185 69 pd coefficients;
#X obj 223 149 s \$0-index;
#X obj 184 123 t f b f;
#X obj 203 202 v a_2;
#X obj 385 268 expr 1 - 2*ar*cosW_\$0[$f1] + a_2*cos2W_\$0[$f1] \;
2*ar*sinW_\$0[$f1] - a_2*sin2W_\$0[$f1];
#X obj 184 268 expr 1 - ar*cosW_\$0[$f1] \; ar*sinW_\$0[$f1];
#X obj 23 268 expr ai*cosW_\$0[$f1] \; -ai*sinW_\$0[$f1];
#X obj 203 179 expr pow(ar \, 2) + pow(ai \, 2);
#X obj 184 229 trigger float float;
#X obj 184 309 car2pol;
#X obj 101 309 car2pol;
#X obj 385 309 car2pol;
#X obj 452 49 declare -path else;
#X connect 0 0 16 0;
#X connect 2 0 8 0;
#X connect 3 0 8 1;
#X connect 3 0 9 1;
#X connect 4 0 2 0;
#X connect 5 0 4 0;
#X connect 6 0 14 1;
#X connect 7 0 14 0;
#X connect 10 0 9 0;
#X connect 11 0 10 0;
#X connect 12 0 11 0;
#X connect 14 0 0 0;
#X connect 16 0 22 0;
#X connect 16 1 21 0;
#X connect 16 2 15 0;
#X connect 18 0 25 0;
#X connect 18 1 25 1;
#X connect 19 0 23 0;
#X connect 19 1 23 1;
#X connect 20 0 24 0;
#X connect 20 1 24 1;
#X connect 21 0 17 0;
#X connect 22 0 19 0;
#X connect 22 0 20 0;
#X connect 22 1 18 0;
#X connect 23 0 5 0;
#X connect 24 0 12 0;
#X connect 25 0 5 1;
#X connect 25 0 12 1;
#X restore 198 48 pd plot;
#X obj 103 101 cnv 15 930 384 empty empty empty 18 9 1 15 -262144 -1
0;
#X obj 527 461 cnv 15 15 15 empty empty Kilohertz 18 9 1 16 -262144
-1 0;
#X obj 157 271 cnv 15 808 184 empty empty empty 20 12 0 14 -1 -262144
0;
#X obj 162 419 cnv 15 798 27 empty empty empty 20 12 0 14 -257983 -66577
0;
#X obj 162 307 cnv 15 798 27 empty empty empty 20 12 0 14 -261429 -66577
0;
#X obj 162 363 cnv 15 798 27 empty empty empty 20 12 0 14 -257983 -66577
0;
#X obj 162 391 cnv 15 798 27 empty empty empty 20 12 0 14 -241340 -66577
0;
#X text 967 410 -18;
#X text 967 436 -24;
#X text 973 325 0;
#X text 967 380 -12;
#X obj 162 335 cnv 15 798 27 empty empty empty 20 12 0 14 -241340 -66577
0;
#N canvas 0 22 450 278 (subpatch) 0;
#X coords 0 1 100 -1 100 142 1;
#X restore 179 307 graph;
#N canvas 0 22 450 278 (subpatch) 0;
#X coords 0 1 100 -1 80 142 1;
#X restore 356 307 graph;
#N canvas 0 22 450 278 (subpatch) 0;
#X coords 0 1 100 -1 78 142 1;
#X restore 538 307 graph;
#N canvas 0 22 450 278 (subpatch) 0;
#X coords 0 1 100 -1 78 142 1;
#X restore 616 307 graph;
#N canvas 0 22 450 278 (subpatch) 0;
#X coords 0 1 100 -1 78 142 1;
#X restore 797 307 graph;
#N canvas 0 22 450 278 (subpatch) 0;
#X coords 0 1 100 -1 78 142 1;
#X restore 875 307 graph;
#X text 969 353 -6;
#N canvas 391 118 975 563 (subpatch) 0;
#X array \$0-im 400 float 1;
#A 0 -1 -1 -1 -1 -1 -1 -1 -1 -1 -1 -1 -1 -1 -1 -1 -1 -1 -1 -1 -1 -1
-1 -1 -1 -1 -1 -1 -1 -1 -1 -1 -1 -1 -1 -1 -1 -1 -1 -1 -1 -1 -1 -1 -1
-1 -1 -1 -1 -1 -1 -1 -1 -1 -1 -1 -1 -1 -1 -1 -1 -1 -1 -1 -1 -1 -1 -1
-1 -1 -1 -1 -1 -1 -1 -1 -1 -1 -1 -1 -1 -1 -1 -1 -1 -1 -1 -1 -1 -1 -1
-1 -1 -1 -1 -1 -1 -1 -1 -1 -1 -1 -1 -1 -1 -1 -1 -1 -1 -1 -1 -1 -1 -1
-1 -1 -1 -1 -1 -1 -1 -1 -1 -1 -1 -1 -1 -1 -1 -1 -1 -1 -1 -1 -1 -1 -1
-1 -1 -1 -1 -1 -1 -1 -1 -1 -1 -1 -1 -1 -1 -1 -1 -1 -1 -1 -1 -1 -1 -1
-1 -1 -1 -1 -1 -1 -1 -1 -1 -1 -1 -1 -1 -1 -1 -1 -1 -1 -1 -1 -1 -1 -1
-1 -1 -1 -1 -1 -1 -1 -1 -1 -1 -1 -1 -1 -1 -1 -1 -1 -1 -1 -1 -1 -1 -1
-1 -1 -1 -1 -1 -1 -1 -1 -1 -1 -1 -1 -1 -1 -1 -1 -1 -1 -1 -1 -1 -1 -1
-1 -1 -1 -1 -1 -1 -1 -1 -1 -1 -1 -1 -1 -1 -1 -1 -1 -1 -1 -1 -1 -1 -1
-1 -1 -1 -1 -1 -1 -1 -1 -1 -1 -1 -1 -1 -1 -1 -1 -1 -1 -1 -1 -1 -1 -1
-1 -1 -1 -1 -1 -1 -1 -1 -1 -1 -1 -1 -1 -1 -1 -1 -1 -1 -1 -1 -1 -1 -1
-1 -1 -1 -1 -1 -1 -1 -1 -1 -1 -1 -1 -1 -1 -1 -1 -1 -1 -1 -1 -1 -1 -1
-1 -1 -1 -1 -1 -1 -1 -1 -1 -1 -1 -1 -1 -1 -1 -1 -1 -1 -1 -1 -1 -1 -1
-1 -1 -1 -1 -1 -1 -1 -1 -1 -1 -1 -1 -1 -1 -1 -1 -1 -1 -1 -1 -1 -1 -1
-1 -1 -1 -1 -1 -1 -1 -1 -1 -1 -1 -1 -1 -1 -1 -1 -1 -1 -1 -1 -1 -1 -1
-1 -1 -1 -1 -1 -1 -1 -1 -1 -1 -1;
#X coords 0 0.25 399 -1 800 142 1;
#X restore 161 307 graph;
#X text 973 304 6;
#X obj 157 123 cnv 15 808 184 empty empty empty 20 12 0 14 -1 -262144
0;
#X obj 162 273 cnv 15 798 27 empty empty empty 20 12 0 14 -257983 -66577
0;
#X obj 164 131 hsl 795 29 0 127 0 0 \$0-freq-slider \$0-freq-slider-set
empty -2 -8 0 10 -228856 -228856 -1 0 0;
#X obj 162 161 cnv 15 798 27 empty empty empty 20 12 0 14 -261429 -66577
0;
#X obj 162 217 cnv 15 798 27 empty empty empty 20 12 0 14 -257983 -66577
0;
#X text 266 134 0.05;
#X text 166 134 0.02;
#X obj 162 245 cnv 15 798 27 empty empty empty 20 12 0 14 -241340 -66577
0;
#X text 867 133 10;
#X text 944 134 20;
#X text 792 133 5;
#X text 689 133 2;
#X text 611 134 1;
#X text 525 134 0.5;
#X text 423 134 0.2;
#X text 343 134 0.1;
#X text 967 264 -18;
#X text 967 287 -24;
#X text 973 179 0;
#X obj 985 295 cnv 15 15 15 empty empty dB 18 9 1 17 -262144 -1 0;
#X text 967 234 -12;
#X obj 162 189 cnv 15 798 27 empty empty empty 20 12 0 14 -241340 -66577
0;
#N canvas 0 22 450 278 (subpatch) 0;
#X coords 0 1 100 -1 100 170 1;
#X restore 179 131 graph;
#N canvas 0 22 450 278 (subpatch) 0;
#X coords 0 1 100 -1 77 170 1;
#X restore 279 131 graph;
#N canvas 0 22 450 278 (subpatch) 0;
#X coords 0 1 100 -1 80 170 1;
#X restore 356 131 graph;
#N canvas 0 22 450 278 (subpatch) 0;
#X coords 0 1 100 -1 102 170 1;
#X restore 436 131 graph;
#N canvas 0 22 450 278 (subpatch) 0;
#X coords 0 1 100 -1 78 170 1;
#X restore 538 131 graph;
#N canvas 0 22 450 278 (subpatch) 0;
#X coords 0 1 100 -1 78 170 1;
#X restore 616 131 graph;
#N canvas 0 22 450 278 (subpatch) 0;
#X coords 0 1 100 -1 103 170 1;
#X restore 694 131 graph;
#N canvas 0 22 450 278 (subpatch) 0;
#X coords 0 1 100 -1 78 170 1;
#X restore 797 131 graph;
#N canvas 0 22 450 278 (subpatch) 0;
#X coords 0 1 100 -1 78 170 1;
#X restore 875 131 graph;
#X text 969 207 -6;
#N canvas 391 118 975 563 (subpatch) 0;
#X array \$0-re 400 float 1;
#A 0 -1 -1 -1 -1 -1 -1 -1 -1 -1 -1 -1 -1 -1 -1 -1 -1 -1 -1 -1 -1 -1
-1 -1 -1 -1 -1 -1 -1 -1 -1 -1 -1 -1 -1 -1 -1 -1 -1 -1 -1 -1 -1 -1 -1
-1 -1 -1 -1 -1 -1 -1 -1 -1 -1 -1 -1 -1 -1 -1 -1 -1 -1 -1 -1 -1 -1 -1
-1 -1 -1 -1 -1 -1 -1 -1 -1 -1 -1 -1 -1 -1 -1 -1 -1 -1 -1 -1 -1 -1 -1
-1 -1 -1 -1 -1 -1 -1 -1 -1 -1 -1 -1 -1 -1 -1 -1 -1 -1 -1 -1 -1 -1 -1
-1 -1 -1 -1 -1 -1 -1 -1 -1 -1 -1 -1 -1 -1 -1 -1 -1 -1 -1 -1 -1 -1 -1
-1 -1 -1 -1 -1 -1 -1 -1 -1 -1 -1 -1 -1 -1 -1 -1 -1 -1 -1 -1 -1 -1 -1
-1 -1 -1 -1 -1 -1 -1 -1 -1 -1 -1 -1 -1 -1 -1 -1 -1 -1 -1 -1 -1 -1 -1
-1 -1 -1 -1 -1 -1 -1 -1 -1 -1 -1 -1 -1 -1 -1 -1 -1 -1 -1 -1 -1 -1 -1
-1 -1 -1 -1 -1 -1 -1 -1 -1 -1 -1 -1 -1 -1 -1 -1 -1 -1 -1 -1 -1 -1 -1
-1 -1 -1 -1 -1 -1 -1 -1 -1 -1 -1 -1 -1 -1 -1 -1 -1 -1 -1 -1 -1 -1 -1
-1 -1 -1 -1 -1 -1 -1 -1 -1 -1 -1 -1 -1 -1 -1 -1 -1 -1 -1 -1 -1 -1 -1
-1 -1 -1 -1 -1 -1 -1 -1 -1 -1 -1 -1 -1 -1 -1 -1 -1 -1 -1 -1 -1 -1 -1
-1 -1 -1 -1 -1 -1 -1 -1 -1 -1 -1 -1 -1 -1 -1 -1 -1 -1 -1 -1 -1 -1 -1
-1 -1 -1 -1 -1 -1 -1 -1 -1 -1 -1 -1 -1 -1 -1 -1 -1 -1 -1 -1 -1 -1 -1
-1 -1 -1 -1 -1 -1 -1 -1 -1 -1 -1 -1 -1 -1 -1 -1 -1 -1 -1 -1 -1 -1 -1
-1 -1 -1 -1 -1 -1 -1 -1 -1 -1 -1 -1 -1 -1 -1 -1 -1 -1 -1 -1 -1 -1 -1
-1 -1 -1 -1 -1 -1 -1 -1 -1 -1 -1;
#X coords 0 0.5 399 -1 800 170 1;
#X restore 161 131 graph;
#X text 973 150 6;
#X obj 152 107 cnv 15 815 20 empty \$0-label 3.00Khz 576 9 1 15 -262144
-1 0;
#X obj 111 232 cnv 15 15 15 empty empty left 0 0 1 17 -262144 -1 0
;
#X obj 111 374 cnv 15 15 15 empty empty right 0 0 1 17 -262144 -1 0
;
#X coords 0 -1 1 1 936 386 2 100 100;
#X restore 216 433 pd;
#X obj 497 269 vcf~ 10;
#X obj 599 310 hsl 128 15 0 1 0 0 empty ganho empty -2 -8 0 10 -228856
-1 -1 0 1;
#N canvas 64 23 655 392 output 0;
#X obj 206 206 *~;
#X obj 225 175 line~;
#X msg 225 149 \$1 10;
#X obj 225 113 pow 4;
#X obj 190 245 dac~;
#X obj 300 56 inlet;
#X obj 177 60 inlet~;
#X obj 336 212 *~;
#X obj 355 181 line~;
#X msg 355 155 \$1 10;
#X obj 355 119 pow 4;
#X obj 320 251 dac~;
#X obj 356 66 inlet;
#X obj 242 56 inlet~;
#X connect 0 0 4 0;
#X connect 0 0 4 1;
#X connect 1 0 0 1;
#X connect 2 0 1 0;
#X connect 3 0 2 0;
#X connect 5 0 3 0;
#X connect 6 0 0 0;
#X connect 7 0 11 0;
#X connect 7 0 11 1;
#X connect 8 0 7 1;
#X connect 9 0 8 0;
#X connect 10 0 9 0;
#X connect 12 0 10 0;
#X connect 13 0 7 0;
#X restore 517 357 pd output;
#X obj 599 331 hsl 128 15 0 1 0 0 empty ganho empty -2 -8 0 10 -228856
-1 -1 0 1;
#X text 643 310 Left;
#X text 640 329 Right;
#X obj 520 120 osc~ 0.05;
#X obj 520 147 *~ 250;
#X obj 520 172 +~ 750;
#X obj 415 175 else/ikeda~;
#X msg 557 311 1;
#X obj 271 174 cyclone/scope~ 130 130 256 3 128 -1 1 0 0 0 0 205 229
232 74 79 77 96 98 102 0;
#X obj 721 40 bng 45 250 50 0 empty empty start 12 20 0 10 -204786
-1 -1;
#X text 595 278 Change volume value when desired., f 19;
#X text 35 245 (-1 = 500) (0 = 750) (1 = 1000);
#X msg 583 151 33;
#X obj 1041 175 nbx 5 14 1 1e+037 0 0 \$0-q q-set empty 0 -8 0 10 -228856
-1 -1 33 256;
#X obj 950 270 vcf~ 10;
#X obj 1310 165 cyclone/scope~ 130 130 256 3 128 -1 1 0 0 0 0 205 229
232 74 79 77 96 98 102 0;
#X msg 1041 149 33;
#X obj 978 118 osc~ 0.08;
#X obj 967 205 delwrite~ delay 500;
#X obj 966 234 delread4~ delay;
#X obj 873 173 else/ikeda~;
#X text 218 315 The filter vcf has two outlets: Right output = frequency
response of [pb~]. Left output = similar characteristics as the right
outlet \, but more evident with lower Q values., f 35;
#X msg 415 110 u 0.75;
#X text 384 53 [ikeda~] is an ikeda map chaotic generator, f 17;
#X obj 978 174 +~ 650;
#X obj 978 145 *~ 400;
#X msg 873 136 u 0.75;
#X text 1067 113 (-1 = 250) (0 = 650) (1 = 1050);
#X text 444 269 Filter;
#X text 898 269 Filter;
#X text 1099 171 Resonance Q/ filter sharpness.;
#X text 641 173 Resonance Q/ filter sharpness.;
#X text 520 37 The oscillator makes a cosine wave. (from -1 to 1).
The value 0.05 determines the length of the waves., f 25;
#X text 35 170 We can hear frequencies between 20 – 2000 \, that
is the reason why I multiplied the osc value with 250 and added 750
, f 25;
#X text 1067 38 We can hear frequencies between 20 – 2000 \, that
is the reason why I multiplied the osc value with 250 and added 750
, f 25;
#X text 1114 205 delwrite and delread create a delay., f 17;
#X connect 1 0 3 2;
#X connect 3 0 5 0;
#X connect 3 1 5 1;
#X connect 4 0 5 2;
#X connect 6 0 5 3;
#X connect 9 0 10 0;
#X connect 9 0 14 0;
#X connect 10 0 11 0;
#X connect 11 0 3 1;
#X connect 12 0 3 0;
#X connect 13 0 5 2;
#X connect 13 0 5 3;
#X connect 15 0 13 0;
#X connect 15 0 18 0;
#X connect 15 0 22 0;
#X connect 18 0 1 0;
#X connect 19 0 20 2;
#X connect 20 0 5 0;
#X connect 20 1 5 1;
#X connect 22 0 19 0;
#X connect 23 0 21 0;
#X connect 23 0 31 0;
#X connect 25 0 20 1;
#X connect 26 0 20 0;
#X connect 28 0 12 0;
#X connect 30 0 24 0;
#X connect 31 0 30 0;
#X connect 32 0 26 0;
