#N canvas 517 40 828 844 12;
#X obj 282 437 nbx 5 14 -1e+37 1e+37 0 0 empty empty empty 0 -8 0 10
-228856 -1 -1 461.456 256;
#X obj 285 412 hsl 128 15 100 5000 0 0 empty empty empty -2 -8 0 10
-228856 -1 -1 937 1;
#X text 313 411 Frequency;
#X obj 149 451 noise~;
#X obj 274 508 bob~;
#X obj 307 293 line;
#X obj 173 183 t b b;
#X obj 176 343 select 5000;
#X obj 349 168 t b b;
#X obj 359 348 select 0;
#X obj 347 108 delay;
#X obj 220 123 delay;
#X obj 158 112 bng 15 250 50 0 empty empty empty 17 7 0 10 -262144
-1 -1;
#X obj 343 45 random 1000;
#X obj 213 68 random 4000;
#X msg 339 227 0 3000;
#X msg 158 234 5000 2000;
#X obj 92 79 loadbang;
#X obj 274 551 outlet~;
#X obj 339 551 outlet~;
#X connect 0 0 4 1;
#X connect 1 0 0 0;
#X connect 3 0 4 0;
#X connect 4 0 18 0;
#X connect 4 0 19 0;
#X connect 5 0 7 0;
#X connect 5 0 9 0;
#X connect 6 0 16 0;
#X connect 7 0 10 0;
#X connect 7 0 13 0;
#X connect 7 1 1 0;
#X connect 8 0 15 0;
#X connect 9 0 11 0;
#X connect 9 0 14 0;
#X connect 9 1 1 0;
#X connect 10 0 8 0;
#X connect 11 0 6 0;
#X connect 12 0 6 0;
#X connect 13 0 10 1;
#X connect 14 0 11 0;
#X connect 15 0 5 0;
#X connect 16 0 5 0;
#X connect 17 0 12 0;
