#N canvas 0 23 1200 727 12;
#X obj 116 225 vcf~ 10;
#X obj 74 120 osc~ 0.05;
#X obj 115 69 *~ 0.1;
#X floatatom 202 201 5 0 0 0 - - -;
#X obj 74 168 +~ 250;
#X obj 74 144 *~ 250;
#X obj 116 43 osc~ 0.1;
#X obj 113 91 +~ 0.1;
#X obj 379 244 vcf~ 10;
#X obj 362 144 osc~ 0.05;
#X obj 376 91 *~ 0.1;
#X floatatom 499 184 5 0 0 0 - - -;
#X obj 362 192 +~ 250;
#X obj 362 168 *~ 250;
#X obj 375 65 osc~ 0.1;
#X obj 374 113 +~ 0.1;
#X obj 500 149 loadmess 1;
#X obj 203 169 loadmess 1;
#X obj 501 503 noise~;
#X obj 501 530 bp~ 3000 10, f 19;
#X floatatom 638 505 5 0 0 0 - - -;
#X obj 669 470 loadmess 1;
#X floatatom 566 505 5 0 0 0 - - -;
#X obj 566 471 loadmess 750;
#X obj 501 558 *~ 0.1;
#X msg 440 242 clear;
#X obj 412 367 line~;
#X floatatom 412 318 5 0 0 0 - - -;
#X text 405 300 amount of delay;
#X text 493 248 max. amount of delay;
#X text 491 331 reduce clicks ramp: amount of time for line to go the
delay(first value);
#X obj 412 340 pack 0 50;
#X obj 352 219 else/pinknoise~;
#X obj 70 199 else/pinknoise~;
#X obj 47 317 line~;
#X floatatom 49 268 5 0 0 0 - - -;
#X obj 48 291 pack 0 50;
#X msg 176 232 clear;
#X obj 405 271 delwrite~ wave2 1000;
#X obj 412 390 delread4~ wave2;
#X obj 47 343 delread4~ wave1;
#X obj 136 258 delwrite~ wave1 500;
#X obj 224 17 inlet;
#X obj 224 41 * 1000;
#X obj 502 17 inlet;
#X obj 502 41 * 1000;
#X obj 47 591 outlet~;
#X obj 412 591 outlet~;
#X connect 0 0 41 0;
#X connect 1 0 5 0;
#X connect 2 0 7 0;
#X connect 3 0 0 2;
#X connect 4 0 0 1;
#X connect 5 0 4 0;
#X connect 6 0 2 0;
#X connect 7 0 1 0;
#X connect 8 0 38 0;
#X connect 9 0 13 0;
#X connect 10 0 15 0;
#X connect 11 0 8 2;
#X connect 12 0 8 1;
#X connect 13 0 12 0;
#X connect 14 0 10 0;
#X connect 15 0 9 0;
#X connect 16 0 11 0;
#X connect 17 0 3 0;
#X connect 18 0 19 0;
#X connect 19 0 24 0;
#X connect 20 0 19 2;
#X connect 21 0 20 0;
#X connect 22 0 19 1;
#X connect 23 0 22 0;
#X connect 24 0 46 0;
#X connect 24 0 47 0;
#X connect 25 0 38 0;
#X connect 26 0 39 0;
#X connect 27 0 31 0;
#X connect 31 0 26 0;
#X connect 32 0 8 0;
#X connect 33 0 0 0;
#X connect 34 0 40 0;
#X connect 35 0 36 0;
#X connect 36 0 34 0;
#X connect 37 0 41 0;
#X connect 39 0 47 0;
#X connect 40 0 46 0;
#X connect 42 0 43 0;
#X connect 43 0 35 0;
#X connect 44 0 45 0;
#X connect 45 0 27 0;
