#N canvas -8 -8 1200 727 12;
#X obj 40 313 bp~ 3000 10, f 24;
#X floatatom 82 247 5 0 0 0 - - -;
#X floatatom 146 275 5 0 0 0 - - -;
#X obj 331 233 vcf~ 10;
#X obj 338 114 osc~ 0.05;
#X obj 292 55 *~ 0.1;
#X floatatom 409 197 5 0 0 0 - - -;
#X obj 338 162 +~ 250;
#X obj 338 138 *~ 250;
#X obj 293 29 osc~ 0.1;
#X obj 290 77 +~ 0.1;
#X obj 395 509 out~;
#X obj 263 386 *~ 0.5;
#X obj 250 196 pinknoise~;
#X obj 40 285 else/brown~;
#X obj 368 387 line~;
#X floatatom 370 338 5 0 0 0 - - -;
#X obj 369 361 pack 0 50;
#X obj 368 413 delread4~ wind1;
#X msg 373 270 clear;
#X obj 333 296 delwrite~ wind1 500;
#X obj 597 247 vcf~ 10;
#X obj 604 128 osc~ 0.05;
#X obj 558 69 *~ 0.1;
#X floatatom 675 211 5 0 0 0 - - -;
#X obj 604 176 +~ 250;
#X obj 604 152 *~ 250;
#X obj 559 43 osc~ 0.1;
#X obj 556 91 +~ 0.1;
#X obj 516 210 pinknoise~;
#X obj 634 401 line~;
#X floatatom 636 352 5 0 0 0 - - -;
#X obj 635 375 pack 0 50;
#X msg 639 284 clear;
#X obj 634 427 delread4~ wind2;
#X obj 600 309 delwrite~ wind2 1000;
#X obj 410 165 loadmess 10;
#X obj 676 179 loadmess 10;
#X obj 146 249 loadmess 25;
#X obj 81 217 loadmess 700;
#X connect 0 0 12 0;
#X connect 1 0 0 1;
#X connect 2 0 0 2;
#X connect 3 0 20 0;
#X connect 4 0 8 0;
#X connect 5 0 10 0;
#X connect 6 0 3 2;
#X connect 7 0 3 1;
#X connect 8 0 7 0;
#X connect 9 0 5 0;
#X connect 10 0 4 0;
#X connect 12 0 11 0;
#X connect 12 0 11 1;
#X connect 13 0 3 0;
#X connect 14 0 0 0;
#X connect 15 0 18 0;
#X connect 16 0 17 0;
#X connect 17 0 15 0;
#X connect 18 0 11 0;
#X connect 19 0 20 0;
#X connect 21 0 35 0;
#X connect 22 0 26 0;
#X connect 23 0 28 0;
#X connect 24 0 21 2;
#X connect 25 0 21 1;
#X connect 26 0 25 0;
#X connect 27 0 23 0;
#X connect 28 0 22 0;
#X connect 29 0 21 0;
#X connect 30 0 34 0;
#X connect 31 0 32 0;
#X connect 32 0 30 0;
#X connect 33 0 35 0;
#X connect 34 0 11 1;
#X connect 36 0 6 0;
#X connect 37 0 24 0;
#X connect 38 0 2 0;
#X connect 39 0 1 0;
