#N canvas 0 23 1280 751 12;
#X obj 432 68 inlet;
#X obj 431 531 osc~;
#X obj 431 575 *~;
#X obj 431 605 outlet~;
#X obj 498 527 line~;
#X obj 431 415 *;
#X obj 449 386 !- 1;
#X obj 498 417 *;
#X obj 516 388 !- 1;
#X obj 431 467 +;
#X obj 498 468 +;
#X obj 623 413 *;
#X obj 689 410 *;
#X msg 812 290 \$1 10;
#X msg 886 291 \$1 10;
#X obj 812 321 line;
#X obj 886 322 line;
#X obj 812 262 unpack f f, f 11;
#X obj 432 96 route sound1 sound2 mix, f 82;
#X obj 978 271 loadbang;
#X msg 978 295 0;
#X msg 498 503 \$1 1;
#X obj 432 197 unpack f f;
#X obj 520 144 r stabletime1;
#X obj 711 156 r stabletime2;
#X obj 622 216 unpack f f;
#N canvas 0 23 1280 751 stableharm 0;
#X obj 389 322 sel 0 1;
#X obj 290 90 inlet;
#X obj 389 359 timer;
#X obj 389 234 -;
#X obj 389 258 abs;
#X obj 284 517 gate 1;
#X obj 284 541 outlet;
#X obj 714 162 inlet;
#X obj 389 282 < 5;
#X obj 290 114 t l l;
#X msg 340 155 \$1;
#X text 372 153 frequency;
#X obj 340 193 t f f, f 10;
#X text 422 281 freq dev;
#X text 432 439 stable time;
#X obj 319 322 loadbang;
#X obj 389 413 >;
#X connect 0 0 2 0;
#X connect 0 1 2 1;
#X connect 1 0 9 0;
#X connect 2 0 16 0;
#X connect 3 0 4 0;
#X connect 4 0 8 0;
#X connect 5 0 6 0;
#X connect 7 0 16 1;
#X connect 8 0 0 0;
#X connect 9 0 10 0;
#X connect 9 1 5 1;
#X connect 10 0 12 0;
#X connect 12 0 3 1;
#X connect 12 1 3 0;
#X connect 15 0 2 0;
#X connect 16 0 5 0;
#X restore 623 180 pd stableharm;
#N canvas 0 23 1280 751 stableharm 0;
#X obj 389 322 sel 0 1;
#X obj 290 90 inlet;
#X obj 389 359 timer;
#X obj 389 234 -;
#X obj 389 258 abs;
#X obj 284 517 gate 1;
#X obj 284 541 outlet;
#X obj 714 162 inlet;
#X obj 389 282 < 5;
#X obj 290 114 t l l;
#X msg 340 155 \$1;
#X text 372 153 frequency;
#X obj 340 193 t f f, f 10;
#X text 422 281 freq dev;
#X text 432 439 stable time;
#X obj 319 322 loadbang;
#X obj 389 413 >;
#X connect 0 0 2 0;
#X connect 0 1 2 1;
#X connect 1 0 9 0;
#X connect 2 0 16 0;
#X connect 3 0 4 0;
#X connect 4 0 8 0;
#X connect 5 0 6 0;
#X connect 7 0 16 1;
#X connect 8 0 0 0;
#X connect 9 0 10 0;
#X connect 9 1 5 1;
#X connect 10 0 12 0;
#X connect 12 0 3 1;
#X connect 12 1 3 0;
#X connect 15 0 2 0;
#X connect 16 0 5 0;
#X restore 432 168 pd stableharm;
#X connect 0 0 18 0;
#X connect 1 0 2 0;
#X connect 2 0 3 0;
#X connect 4 0 2 1;
#X connect 5 0 9 0;
#X connect 6 0 5 1;
#X connect 7 0 10 0;
#X connect 8 0 7 1;
#X connect 9 0 1 0;
#X connect 10 0 21 0;
#X connect 11 0 9 1;
#X connect 12 0 10 1;
#X connect 13 0 15 0;
#X connect 14 0 16 0;
#X connect 15 0 11 1;
#X connect 15 0 6 0;
#X connect 16 0 12 1;
#X connect 16 0 8 0;
#X connect 17 0 13 0;
#X connect 17 1 14 0;
#X connect 18 0 27 0;
#X connect 18 1 26 0;
#X connect 18 2 17 0;
#X connect 19 0 20 0;
#X connect 20 0 15 0;
#X connect 20 0 16 0;
#X connect 21 0 4 0;
#X connect 22 0 5 0;
#X connect 22 1 7 0;
#X connect 23 0 27 1;
#X connect 24 0 26 1;
#X connect 25 0 11 0;
#X connect 25 1 12 0;
#X connect 26 0 25 0;
#X connect 27 0 22 0;
