#N canvas 0 23 1280 751 12;
#N canvas 89 141 450 278 (subpatch) 0;
#X array buffer 44100 float 2;
#X coords 0 1 44100 -1 200 140 1 0 0;
#X restore 961 329 graph;
#X obj 390 45 adc~;
#X msg 91 91 \; pd dsp \$1;
#X obj 91 57 tgl 15 0 empty empty empty 17 7 0 10 -262144 -1 -1 1 1
;
#X floatatom 447 47 5 0 0 0 - - -;
#X obj 581 671 dac~;
#X obj 601 564 tabread4~ buffer;
#X obj 390 89 *~ 1;
#X obj 425 554 env~;
#X obj 425 580 - 100;
#X obj 426 610 vu 15 120 empty empty -1 -8 0 10 -66577 -1 1 0;
#X obj 505 570 line~;
#X obj 582 626 *~;
#X obj 388 287 tabwrite~ buffer;
#X msg 506 524 \$1 5;
#X obj 578 134 env~;
#X obj 578 173 >;
#X obj 751 133 rmstodb;
#X obj 578 242 sel 1;
#X floatatom 533 157 5 0 0 0 - - -;
#X floatatom 751 162 5 0 0 0 - - -;
#X obj 755 59 hsl 128 15 0 127 0 0 empty empty empty -2 -8 0 10 -262144
-1 -1 2500 1;
#X obj 751 82 / 127;
#X obj 578 337 delay 1000;
#X obj 601 537 line~;
#X msg 601 508 0 \, 44100 1000;
#X obj 624 398 delay 1000;
#X obj 578 201 spigot 1;
#X obj 746 283 tgl 15 0 empty empty empty 17 7 0 10 -262144 -1 -1 1
1;
#X msg 624 458 1;
#X obj 578 363 t b b b;
#X msg 506 454 1;
#X obj 624 427 t b b;
#X msg 656 454 0;
#X obj 578 268 t b b b;
#X obj 751 109 pow 2;
#X msg 624 300 0;
#X text 895 56 env treshold in dB;
#X obj 753 32 loadmess 25;
#X text 113 59 Turn on DAC;
#X text 802 210 When level of incoming audio > threshold: - Start recording
one second of audio and disable volume tracking. After recording \,
playback the sound. After playback \, enable volume tracking again.
;
#X connect 1 0 7 0;
#X connect 3 0 2 0;
#X connect 4 0 7 1;
#X connect 6 0 12 1;
#X connect 7 0 15 0;
#X connect 7 0 13 0;
#X connect 8 0 9 0;
#X connect 9 0 10 0;
#X connect 11 0 12 0;
#X connect 12 0 5 0;
#X connect 12 0 5 1;
#X connect 12 0 8 0;
#X connect 14 0 11 0;
#X connect 15 0 16 0;
#X connect 15 0 19 0;
#X connect 16 0 27 0;
#X connect 17 0 20 0;
#X connect 17 0 16 1;
#X connect 18 0 34 0;
#X connect 21 0 22 0;
#X connect 22 0 35 0;
#X connect 23 0 30 0;
#X connect 24 0 6 0;
#X connect 25 0 24 0;
#X connect 26 0 32 0;
#X connect 27 0 18 0;
#X connect 28 0 27 1;
#X connect 29 0 28 0;
#X connect 30 0 31 0;
#X connect 30 1 25 0;
#X connect 30 2 26 0;
#X connect 31 0 14 0;
#X connect 32 0 29 0;
#X connect 32 1 33 0;
#X connect 33 0 14 0;
#X connect 34 0 23 0;
#X connect 34 1 13 0;
#X connect 34 2 36 0;
#X connect 35 0 17 0;
#X connect 36 0 28 0;
#X connect 38 0 21 0;
