#N canvas 0 23 1366 916 12;
#X declare -stdpath iemnet;
#X declare -stdpath else;
#X declare -stdpath cyclone;
#X declare -path include;
#X obj 31 324 Anastasia_sea;
#X obj 134 324 Asbjorn_sea;
#X obj 342 324 Caitlin_sea;
#X obj 446 324 Carlo_sea;
#X obj 549 324 Kasper_sea;
#X obj 653 324 Marthe_sea;
#X obj 238 763 Olaf_sea;
#X obj 343 763 Thijs_sea;
#X obj 447 763 Veerle_sea;
#X obj 549 763 Vitor_sea;
#X obj 654 763 Xiaoqing_sea;
#X obj 31 421 dac~ 1 2;
#X obj 31 391 *~;
#X obj 84 391 *~;
#X obj 134 421 dac~ 1 2;
#X obj 134 391 *~;
#X obj 187 391 *~;
#X obj 238 421 dac~ 1 2;
#X obj 238 391 *~;
#X obj 291 391 *~;
#X obj 342 421 dac~ 1 2;
#X obj 342 391 *~;
#X obj 395 391 *~;
#X obj 446 421 dac~ 1 2;
#X obj 446 391 *~;
#X obj 499 391 *~;
#X obj 549 421 dac~ 1 2;
#X obj 549 391 *~;
#X obj 602 391 *~;
#X obj 654 421 dac~ 1 2;
#X obj 654 391 *~;
#X obj 707 391 *~;
#X obj 31 860 dac~ 1 2;
#X obj 31 830 *~;
#X obj 84 830 *~;
#X obj 133 860 dac~ 1 2;
#X obj 133 830 *~;
#X obj 186 830 *~;
#X obj 238 860 dac~ 1 2;
#X obj 238 830 *~;
#X obj 291 830 *~;
#X obj 343 860 dac~ 1 2;
#X obj 343 830 *~;
#X obj 396 830 *~;
#X obj 447 860 dac~ 1 2;
#X obj 447 830 *~;
#X obj 500 830 *~;
#X obj 549 860 dac~ 1 2;
#X obj 549 830 *~;
#X obj 602 830 *~;
#X obj 654 860 dac~ 1 2;
#X obj 654 830 *~;
#X obj 707 830 *~;
#X obj 238 324 Avita;
#X obj 133 763 Niels_sea;
#X obj 49 357 log_gain~;
#X obj 152 357 log_gain~;
#X obj 256 357 log_gain~;
#X obj 360 357 log_gain~;
#X obj 464 357 log_gain~;
#X obj 567 357 log_gain~;
#X obj 672 357 log_gain~;
#X obj 49 796 log_gain~;
#X obj 151 796 log_gain~;
#X obj 256 796 log_gain~;
#X obj 361 796 log_gain~;
#X obj 465 796 log_gain~;
#X obj 567 796 log_gain~;
#X obj 672 796 log_gain~;
#X floatatom 1046 745 5 0 0 0 - - -;
#X floatatom 1152 745 5 0 0 0 - - -;
#X floatatom 1257 744 5 0 0 0 - - -;
#X floatatom 31 69 5 0 0 0 - - -;
#X obj 41 128 vsl 15 128 0 1 0 0 empty empty empty 0 -9 0 10 -262144
-1 -1 8600 1;
#X msg 41 97 set \$1;
#X floatatom 31 298 5 0 0 0 - - -;
#X floatatom 134 69 5 0 0 0 - - -;
#X obj 144 128 vsl 15 128 0 1 0 0 empty empty empty 0 -9 0 10 -262144
-1 -1 9900 1;
#X floatatom 134 298 5 0 0 0 - - -;
#X floatatom 238 69 5 0 0 0 - - -;
#X obj 248 128 vsl 15 128 0 1 0 0 empty empty empty 0 -9 0 10 -262144
-1 -1 6000 1;
#X floatatom 238 298 5 0 0 0 - - -;
#X floatatom 342 69 5 0 0 0 - - -;
#X obj 352 128 vsl 15 128 0 1 0 0 empty empty empty 0 -9 0 10 -262144
-1 -1 1400 1;
#X floatatom 342 298 5 0 0 0 - - -;
#X msg 144 97 set \$1;
#X msg 248 97 set \$1;
#X msg 352 97 set \$1;
#X msg 41 271 val1 \$1;
#X msg 144 271 val2 \$1;
#X msg 248 271 val3 \$1;
#X msg 352 271 val4 \$1;
#X obj 861 298 send \$0.data_to_server;
#X obj 31 18 receive \$0.data_from_server;
#X obj 31 44 route val1 val2 val3 val4 val5 val6 val7 val8, f 119
;
#X floatatom 446 69 5 0 0 0 - - -;
#X obj 456 128 vsl 15 128 0 1 0 0 empty empty empty 0 -9 0 10 -262144
-1 -1 5400 1;
#X floatatom 446 298 5 0 0 0 - - -;
#X msg 456 97 set \$1;
#X floatatom 549 69 5 0 0 0 - - -;
#X obj 559 128 vsl 15 128 0 1 0 0 empty empty empty 0 -9 0 10 -262144
-1 -1 10000 1;
#X floatatom 549 298 5 0 0 0 - - -;
#X msg 559 97 set \$1;
#X floatatom 653 69 5 0 0 0 - - -;
#X obj 663 128 vsl 15 128 0 1 0 0 empty empty empty 0 -9 0 10 -262144
-1 -1 6800 1;
#X floatatom 653 298 5 0 0 0 - - -;
#X msg 663 97 set \$1;
#X floatatom 757 69 5 0 0 0 - - -;
#X obj 767 128 vsl 15 128 0 1 0 0 empty empty empty 0 -9 0 10 -262144
-1 -1 8300 1;
#X floatatom 757 298 5 0 0 0 - - -;
#X msg 767 97 set \$1;
#X msg 456 271 val5 \$1;
#X msg 559 271 val6 \$1;
#X msg 663 271 val7 \$1;
#X msg 767 271 val8 \$1;
#X floatatom 31 504 5 0 0 0 - - -;
#X obj 41 562 vsl 15 128 0 1 0 0 empty empty empty 0 -9 0 10 -262144
-1 -1 7900 1;
#X msg 41 531 set \$1;
#X floatatom 31 735 5 0 0 0 - - -;
#X floatatom 134 504 5 0 0 0 - - -;
#X obj 144 562 vsl 15 128 0 1 0 0 empty empty empty 0 -9 0 10 -262144
-1 -1 9000 1;
#X floatatom 134 735 5 0 0 0 - - -;
#X floatatom 238 504 5 0 0 0 - - -;
#X obj 248 562 vsl 15 128 0 1 0 0 empty empty empty 0 -9 0 10 -262144
-1 -1 9200 1;
#X floatatom 238 735 5 0 0 0 - - -;
#X floatatom 342 504 5 0 0 0 - - -;
#X obj 352 562 vsl 15 128 0 1 0 0 empty empty empty 0 -9 0 10 -262144
-1 -1 9000 1;
#X floatatom 342 735 5 0 0 0 - - -;
#X msg 144 531 set \$1;
#X msg 248 531 set \$1;
#X msg 352 531 set \$1;
#X obj 861 732 send \$0.data_to_server;
#X obj 31 452 receive \$0.data_from_server;
#X floatatom 446 504 5 0 0 0 - - -;
#X obj 456 562 vsl 15 128 0 1 0 0 empty empty empty 0 -9 0 10 -262144
-1 -1 2400 1;
#X floatatom 446 735 5 0 0 0 - - -;
#X msg 456 531 set \$1;
#X floatatom 549 504 5 0 0 0 - - -;
#X obj 559 562 vsl 15 128 0 1 0 0 empty empty empty 0 -9 0 10 -262144
-1 -1 12700 1;
#X floatatom 549 735 5 0 0 0 - - -;
#X msg 559 531 set \$1;
#X floatatom 653 504 5 0 0 0 - - -;
#X obj 663 562 vsl 15 128 0 1 0 0 empty empty empty 0 -9 0 10 -262144
-1 -1 12600 1;
#X floatatom 653 735 5 0 0 0 - - -;
#X msg 663 531 set \$1;
#X floatatom 757 504 5 0 0 0 - - -;
#X obj 767 562 vsl 15 128 0 1 0 0 empty empty empty 0 -9 0 10 -262144
-1 -1 9400 1;
#X floatatom 757 735 5 0 0 0 - - -;
#X msg 767 531 set \$1;
#X floatatom 1047 66 5 0 0 0 - - -;
#X obj 1057 126 vsl 15 128 0 1 0 0 empty empty empty 0 -9 0 10 -262144
-1 -1 1800 1;
#X msg 1057 95 set \$1;
#X floatatom 1047 307 5 0 0 0 - - -;
#X floatatom 1151 67 5 0 0 0 - - -;
#X obj 1161 127 vsl 15 128 0 1 0 0 empty empty empty 0 -9 0 10 -262144
-1 -1 2400 1;
#X floatatom 1151 308 5 0 0 0 - - -;
#X floatatom 1255 67 5 0 0 0 - - -;
#X obj 1265 127 vsl 15 128 0 1 0 0 empty empty empty 0 -9 0 10 -262144
-1 -1 3300 1;
#X floatatom 1255 308 5 0 0 0 - - -;
#X msg 1161 93 set \$1;
#X msg 1265 93 set \$1;
#X obj 1047 42 route val17 val18 val19, f 45;
#X obj 31 478 route val9 val10 val11 val12 val13 val14 val15 val16
, f 119;
#X msg 1072 269 val17 \$1;
#X msg 1161 269 val18 \$1;
#X msg 1265 269 val19 \$1;
#X msg 41 705 val9 \$1;
#X msg 144 705 val10 \$1;
#X msg 248 705 val11 \$1;
#X msg 352 705 val12 \$1;
#X msg 456 705 val13 \$1;
#X msg 559 705 val14 \$1;
#X msg 663 705 val15 \$1;
#X msg 767 705 val16 \$1;
#X obj 758 421 dac~ 1 2;
#X obj 758 391 *~;
#X obj 811 391 *~;
#X obj 776 357 log_gain~;
#X obj 757 763 Mitchell_sea+wind;
#X obj 757 860 dac~ 1 2;
#X obj 757 830 *~;
#X obj 810 830 *~;
#X obj 775 796 log_gain~;
#X obj 31 763 Daphne_wind;
#X obj 758 324 Simone_wind;
#X text 1076 148 avita;
#X text 1180 147 avita;
#X text 1282 145 avita;
#X text 1077 180 niels;
#X text 1077 209 veerle;
#X text 1077 224 xiaoqing;
#X text 1179 209 veerle;
#X text 1178 224 xiaoqing;
#X text 1075 131 anastasia;
#X text 1046 16 CONTROL PARAMETERS:;
#X text 1076 164 daphne;
#X text 1180 165 daphne;
#X text 1077 195 simone;
#X text 1179 195 simone;
#X msg 1661 122 disconnect;
#X obj 1665 227 unpack 0 0 0 0;
#X floatatom 1665 250 3 0 0 0 - - -;
#X floatatom 1696 250 3 0 0 0 - - -;
#X floatatom 1728 250 3 0 0 0 - - -;
#X floatatom 1760 250 3 0 0 0 - - -;
#X text 1629 249 from;
#X obj 1528 229 tgl 15 0 empty empty connected 18 7 0 8 -24198 -13381
-1 1 1;
#X obj 1451 427 fudiparse;
#X obj 1409 68 fudiformat;
#X obj 1451 697 list split 1;
#X obj 1491 726 list trim;
#X obj 1451 518 t a a;
#X obj 1483 545 list split 1;
#X floatatom 1483 569 5 0 0 0 - - -;
#X obj 1451 671 spigot;
#X obj 1483 620 tgl 15 0 empty empty empty 17 7 0 10 -262144 -1 -1
1 1;
#X text 1504 671 open when not send originating from our socket;
#X text 1624 695 == filter out when sent by us;
#X text 1525 569 socket number sender;
#X obj 1451 453 route fromsocket socketnumber;
#X floatatom 1551 491 5 0 0 0 - - -;
#X text 1593 491 our socket number;
#X obj 1483 643 ||;
#X obj 1501 620 tgl 15 0 empty empty empty 17 7 0 10 -262144 -1 -1
0 1;
#X text 1522 618 pass all messages when 1;
#X obj 1450 98 loadbang;
#X text 1665 446 syntax: "fromsocket <number> val# <value>";
#X text 1665 461 syntax: "socketnumber <number>";
#X obj 1483 593 != -1;
#X obj 1409 42 receive \$0.data_to_server;
#X obj 1491 752 send \$0.data_from_server;
#X text 1515 643 || = logical OR;
#X text 1583 193 tcpclient opens a tcp socket with the server to send
and receive bytes on;
#X msg 1450 160 connect www.edwinvanderheide.nl 55556;
#X msg 1725 160 connect 127.0.0.1 55556;
#X obj 1130 809 tgl 25 0 empty empty empty 17 7 0 10 -262144 -1 -1
1 1;
#X msg 1130 846 \; pd dsp \$1;
#X obj 1045 810 loadbang;
#X msg 1045 858 1;
#X obj 1045 834 delay 4000;
#X obj 1450 129 delay 3000;
#N canvas 689 524 125 216 CPU_LOAD 0;
#X obj 14 77 cputime;
#X obj 14 55 t b b;
#X obj 14 101 int;
#X obj 14 10 loadbang;
#X obj 14 32 metro 4000;
#X obj 14 125 * 0.025;
#X obj 14 146 outlet;
#X connect 0 0 2 0;
#X connect 1 0 0 0;
#X connect 1 1 0 1;
#X connect 2 0 5 0;
#X connect 3 0 4 0;
#X connect 4 0 1 0;
#X connect 5 0 6 0;
#X restore 1232 809 pd CPU_LOAD;
#X floatatom 1232 833 5 0 0 0 - - -;
#X text 1271 832 %;
#X obj 1452 390 list store;
#X msg 1549 288 append \$1;
#X obj 1501 264 i;
#X obj 1452 228 t f f b f;
#X obj 1501 288 == 59;
#X obj 1452 288 == 10;
#X obj 1452 312 &&;
#X obj 1452 336 sel 1;
#X obj 1452 360 t b b;
#X text 1533 392 bang on the right clears;
#X obj 1451 200 iemnet/tcpclient;
#X obj 1446 796 declare -stdpath iemnet;
#X obj 1446 823 declare -stdpath else;
#X obj 1446 848 declare -stdpath cyclone;
#X obj 1630 796 declare -path include;
#X text 883 802 required libraries:;
#X text 883 822 - iemnet[v0.2.2];
#X text 883 842 - cyclone[v0.4];
#X text 883 862 - else[v1.0beta27];
#X connect 0 0 12 0;
#X connect 0 1 13 0;
#X connect 1 0 15 0;
#X connect 1 1 16 0;
#X connect 2 0 21 0;
#X connect 2 1 22 0;
#X connect 3 0 24 0;
#X connect 3 1 25 0;
#X connect 4 0 27 0;
#X connect 4 1 28 0;
#X connect 5 0 30 0;
#X connect 5 1 31 0;
#X connect 6 0 39 0;
#X connect 6 1 40 0;
#X connect 7 0 42 0;
#X connect 7 1 43 0;
#X connect 8 0 45 0;
#X connect 8 1 46 0;
#X connect 9 0 48 0;
#X connect 9 1 49 0;
#X connect 10 0 51 0;
#X connect 10 1 52 0;
#X connect 12 0 11 0;
#X connect 13 0 11 1;
#X connect 15 0 14 0;
#X connect 16 0 14 1;
#X connect 18 0 17 0;
#X connect 19 0 17 1;
#X connect 21 0 20 0;
#X connect 22 0 20 1;
#X connect 24 0 23 0;
#X connect 25 0 23 1;
#X connect 27 0 26 0;
#X connect 28 0 26 1;
#X connect 30 0 29 0;
#X connect 31 0 29 1;
#X connect 33 0 32 0;
#X connect 34 0 32 1;
#X connect 36 0 35 0;
#X connect 37 0 35 1;
#X connect 39 0 38 0;
#X connect 40 0 38 1;
#X connect 42 0 41 0;
#X connect 43 0 41 1;
#X connect 45 0 44 0;
#X connect 46 0 44 1;
#X connect 48 0 47 0;
#X connect 49 0 47 1;
#X connect 51 0 50 0;
#X connect 52 0 50 1;
#X connect 53 0 18 0;
#X connect 53 1 19 0;
#X connect 54 0 36 0;
#X connect 54 1 37 0;
#X connect 55 0 12 1;
#X connect 55 0 13 1;
#X connect 56 0 15 1;
#X connect 56 0 16 1;
#X connect 57 0 18 1;
#X connect 57 0 19 1;
#X connect 58 0 21 1;
#X connect 58 0 22 1;
#X connect 59 0 24 1;
#X connect 59 0 25 1;
#X connect 60 0 27 1;
#X connect 60 0 28 1;
#X connect 61 0 30 1;
#X connect 61 0 31 1;
#X connect 62 0 33 1;
#X connect 62 0 34 1;
#X connect 63 0 36 1;
#X connect 63 0 37 1;
#X connect 64 0 39 1;
#X connect 64 0 40 1;
#X connect 65 0 42 1;
#X connect 65 0 43 1;
#X connect 66 0 45 1;
#X connect 66 0 46 1;
#X connect 67 0 48 1;
#X connect 67 0 49 1;
#X connect 68 0 51 1;
#X connect 68 0 52 1;
#X connect 69 0 54 0;
#X connect 69 0 8 0;
#X connect 69 0 10 0;
#X connect 69 0 183 0;
#X connect 70 0 8 1;
#X connect 70 0 10 1;
#X connect 70 0 183 1;
#X connect 72 0 74 0;
#X connect 72 0 75 0;
#X connect 73 0 75 0;
#X connect 73 0 88 0;
#X connect 74 0 73 0;
#X connect 75 0 55 0;
#X connect 76 0 78 0;
#X connect 76 0 85 0;
#X connect 77 0 78 0;
#X connect 77 0 89 0;
#X connect 78 0 56 0;
#X connect 79 0 81 0;
#X connect 79 0 86 0;
#X connect 80 0 81 0;
#X connect 80 0 90 0;
#X connect 81 0 57 0;
#X connect 82 0 84 0;
#X connect 82 0 87 0;
#X connect 83 0 84 0;
#X connect 83 0 91 0;
#X connect 84 0 58 0;
#X connect 85 0 77 0;
#X connect 86 0 80 0;
#X connect 87 0 83 0;
#X connect 88 0 92 0;
#X connect 89 0 92 0;
#X connect 90 0 92 0;
#X connect 91 0 92 0;
#X connect 93 0 94 0;
#X connect 94 0 72 0;
#X connect 94 1 76 0;
#X connect 94 2 79 0;
#X connect 94 3 82 0;
#X connect 94 4 95 0;
#X connect 94 5 99 0;
#X connect 94 6 103 0;
#X connect 94 7 107 0;
#X connect 94 8 161 0;
#X connect 95 0 97 0;
#X connect 95 0 98 0;
#X connect 96 0 97 0;
#X connect 96 0 111 0;
#X connect 97 0 59 0;
#X connect 98 0 96 0;
#X connect 99 0 101 0;
#X connect 99 0 102 0;
#X connect 100 0 101 0;
#X connect 100 0 112 0;
#X connect 101 0 60 0;
#X connect 102 0 100 0;
#X connect 103 0 105 0;
#X connect 103 0 106 0;
#X connect 104 0 105 0;
#X connect 104 0 113 0;
#X connect 105 0 61 0;
#X connect 106 0 104 0;
#X connect 107 0 109 0;
#X connect 107 0 110 0;
#X connect 108 0 109 0;
#X connect 108 0 114 0;
#X connect 109 0 177 0;
#X connect 110 0 108 0;
#X connect 111 0 92 0;
#X connect 112 0 92 0;
#X connect 113 0 92 0;
#X connect 114 0 92 0;
#X connect 115 0 117 0;
#X connect 115 0 118 0;
#X connect 116 0 118 0;
#X connect 116 0 166 0;
#X connect 117 0 116 0;
#X connect 118 0 62 0;
#X connect 119 0 121 0;
#X connect 119 0 128 0;
#X connect 120 0 121 0;
#X connect 120 0 167 0;
#X connect 121 0 63 0;
#X connect 122 0 124 0;
#X connect 122 0 129 0;
#X connect 123 0 124 0;
#X connect 123 0 168 0;
#X connect 124 0 64 0;
#X connect 125 0 127 0;
#X connect 125 0 130 0;
#X connect 126 0 127 0;
#X connect 126 0 169 0;
#X connect 127 0 65 0;
#X connect 128 0 120 0;
#X connect 129 0 123 0;
#X connect 130 0 126 0;
#X connect 132 0 162 0;
#X connect 133 0 135 0;
#X connect 133 0 136 0;
#X connect 134 0 135 0;
#X connect 134 0 170 0;
#X connect 135 0 66 0;
#X connect 136 0 134 0;
#X connect 137 0 139 0;
#X connect 137 0 140 0;
#X connect 138 0 139 0;
#X connect 138 0 171 0;
#X connect 139 0 67 0;
#X connect 140 0 138 0;
#X connect 141 0 143 0;
#X connect 141 0 144 0;
#X connect 142 0 143 0;
#X connect 142 0 172 0;
#X connect 143 0 68 0;
#X connect 144 0 142 0;
#X connect 145 0 147 0;
#X connect 145 0 148 0;
#X connect 146 0 147 0;
#X connect 146 0 173 0;
#X connect 147 0 182 0;
#X connect 148 0 146 0;
#X connect 149 0 151 0;
#X connect 149 0 152 0;
#X connect 150 0 152 0;
#X connect 150 0 163 0;
#X connect 151 0 150 0;
#X connect 152 0 69 0;
#X connect 152 0 0 0;
#X connect 152 0 53 0;
#X connect 152 0 184 0;
#X connect 153 0 155 0;
#X connect 153 0 159 0;
#X connect 154 0 155 0;
#X connect 154 0 164 0;
#X connect 155 0 70 0;
#X connect 155 0 53 1;
#X connect 155 0 184 1;
#X connect 156 0 158 0;
#X connect 156 0 160 0;
#X connect 157 0 158 0;
#X connect 157 0 165 0;
#X connect 158 0 71 0;
#X connect 158 0 53 2;
#X connect 159 0 154 0;
#X connect 160 0 157 0;
#X connect 161 0 149 0;
#X connect 161 1 153 0;
#X connect 161 2 156 0;
#X connect 162 0 115 0;
#X connect 162 1 119 0;
#X connect 162 2 122 0;
#X connect 162 3 125 0;
#X connect 162 4 133 0;
#X connect 162 5 137 0;
#X connect 162 6 141 0;
#X connect 162 7 145 0;
#X connect 163 0 92 0;
#X connect 164 0 92 0;
#X connect 165 0 92 0;
#X connect 166 0 131 0;
#X connect 167 0 131 0;
#X connect 168 0 131 0;
#X connect 169 0 131 0;
#X connect 170 0 131 0;
#X connect 171 0 131 0;
#X connect 172 0 131 0;
#X connect 173 0 131 0;
#X connect 175 0 174 0;
#X connect 176 0 174 1;
#X connect 177 0 175 1;
#X connect 177 0 176 1;
#X connect 178 0 180 0;
#X connect 178 1 181 0;
#X connect 180 0 179 0;
#X connect 181 0 179 1;
#X connect 182 0 180 1;
#X connect 182 0 181 1;
#X connect 183 0 33 0;
#X connect 183 1 34 0;
#X connect 184 0 175 0;
#X connect 184 1 176 0;
#X connect 199 0 254 0;
#X connect 200 0 201 0;
#X connect 200 1 202 0;
#X connect 200 2 203 0;
#X connect 200 3 204 0;
#X connect 207 0 219 0;
#X connect 208 0 254 0;
#X connect 209 1 210 0;
#X connect 210 0 230 0;
#X connect 211 0 214 0;
#X connect 211 1 212 0;
#X connect 212 0 213 0;
#X connect 213 0 228 0;
#X connect 214 0 209 0;
#X connect 215 0 222 0;
#X connect 219 0 211 0;
#X connect 219 1 220 0;
#X connect 220 0 228 1;
#X connect 222 0 214 1;
#X connect 223 0 222 1;
#X connect 225 0 240 0;
#X connect 228 0 215 0;
#X connect 229 0 208 0;
#X connect 233 0 254 0;
#X connect 234 0 254 0;
#X connect 235 0 236 0;
#X connect 237 0 239 0;
#X connect 238 0 235 0;
#X connect 239 0 238 0;
#X connect 240 0 233 0;
#X connect 241 0 242 0;
#X connect 244 0 207 0;
#X connect 245 0 244 0;
#X connect 246 0 248 0;
#X connect 247 0 249 0;
#X connect 247 1 246 1;
#X connect 247 2 246 0;
#X connect 247 3 245 0;
#X connect 248 0 250 1;
#X connect 249 0 250 0;
#X connect 250 0 251 0;
#X connect 251 0 252 0;
#X connect 252 0 244 1;
#X connect 252 1 244 0;
#X connect 254 0 247 0;
#X connect 254 1 200 0;
#X connect 254 2 206 0;
