#N canvas 643 23 1037 464 12;
#X msg 87 347 disconnect;
#X floatatom 156 145 5 0 0 0 - - -;
#X msg 54 73 send /1/fader1 \$1;
#X floatatom 54 42 5 0 0 0 - - -;
#X floatatom 206 42 5 0 0 0 - - -;
#X floatatom 361 42 5 0 0 0 - - -;
#X floatatom 517 42 5 0 0 0 - - -;
#X msg 206 73 send /1/fader2 \$1;
#X msg 361 73 send /1/fader3 \$1;
#X msg 517 73 send /1/fader4 \$1;
#X obj 738 42 tgl 15 0 empty empty empty 17 7 0 10 -262144 -1 -1 0
1;
#X msg 738 73 send /1/toggle1 \$1;
#X msg 86 316 connect 132.229.130.255 8000;
#X obj 54 105 mrpeach/packOSC;
#X msg 86 287 connect 192.168.0.14 9000;
#X text 288 285 ip address and port number;
#X text 529 347 localhost: 127.0.0.1;
#X text 530 372 to create a broadcast invert all bits that are 0 in
subnet mask, f 67;
#X msg 86 258 connect localhost 8000;
#X obj 54 188 list prepend send;
#X obj 54 219 list trim;
#X obj 54 381 netsend -u -b;
#X connect 0 0 21 0;
#X connect 2 0 13 0;
#X connect 3 0 2 0;
#X connect 4 0 7 0;
#X connect 5 0 8 0;
#X connect 6 0 9 0;
#X connect 7 0 13 0;
#X connect 8 0 13 0;
#X connect 9 0 13 0;
#X connect 10 0 11 0;
#X connect 11 0 13 0;
#X connect 12 0 21 0;
#X connect 13 0 19 0;
#X connect 13 1 1 0;
#X connect 14 0 21 0;
#X connect 18 0 21 0;
#X connect 19 0 20 0;
#X connect 20 0 21 0;
