#N canvas 234 23 1446 875 16;
#X floatatom 76 483 5 0 0 0 - - -;
#X floatatom 215 482 5 0 0 0 - - -;
#X floatatom 354 483 5 0 0 0 - - -;
#X floatatom 494 483 5 0 0 0 - - -;
#X floatatom 633 483 5 0 0 0 - - -;
#X obj 76 538 * 1000;
#X obj 76 677 osc~;
#X obj 76 709 *~;
#X obj 76 741 *~ 1;
#X obj 354 675 osc~;
#X obj 354 705 *~;
#X obj 354 735 *~ 1;
#X obj 354 541 * 1000;
#X obj 76 773 dac~ 1 2;
#X floatatom 97 574 5 0 0 0 - - -;
#X floatatom 364 573 5 0 0 0 - - -;
#X msg 76 613 \$1 1000;
#X obj 76 645 line~;
#X obj 96 128 print raw;
#X obj 76 173 oscparse;
#X obj 77 95 netreceive -u -b 8000;
#X obj 76 259 unpack s s 0;
#X obj 76 331 pack 0 s 0;
#X obj 76 452 route fader1 fader2 fader3 fader4 toggle1, f 70;
#X obj 76 295 float;
#X text 311 96 8000 is the port number;
#X text 77 21 this patch is meant to receive and parse incoming OSC
messages with the following structure: /1/fader1 \, /1/fader2 \, /1/fader3
\, /1/fader4 and /1/toggle1, f 80;
#X obj 76 388 route 1 2 3 4;
#X text 229 385 parsing the OSC string in steps;
#X floatatom 633 625 5 0 0 0 - - -;
#X floatatom 772 624 5 0 0 0 - - -;
#X floatatom 911 625 5 0 0 0 - - -;
#X floatatom 1051 625 5 0 0 0 - - -;
#X floatatom 1190 625 5 0 0 0 - - -;
#X obj 633 594 route fader1 fader2 fader3 fader4 toggle1, f 70;
#X text 217 255 route doesn't seem to be able to deal with '1' as a
symbol therefore these three objects are here to convert the first
symbol ('1' or '2' \, etc.) of the OSC string into a float '1'., f
75;
#X obj 100 207 print parsed_string;
#X connect 0 0 5 0;
#X connect 1 0 7 1;
#X connect 2 0 12 0;
#X connect 3 0 10 1;
#X connect 4 0 8 1;
#X connect 4 0 11 1;
#X connect 5 0 14 0;
#X connect 5 0 16 0;
#X connect 6 0 7 0;
#X connect 7 0 8 0;
#X connect 8 0 13 0;
#X connect 9 0 10 0;
#X connect 10 0 11 0;
#X connect 11 0 13 1;
#X connect 12 0 9 0;
#X connect 12 0 15 0;
#X connect 16 0 17 0;
#X connect 17 0 6 0;
#X connect 19 0 21 0;
#X connect 19 0 36 0;
#X connect 20 0 19 0;
#X connect 21 0 24 0;
#X connect 21 1 22 1;
#X connect 21 2 22 2;
#X connect 22 0 27 0;
#X connect 23 0 0 0;
#X connect 23 1 1 0;
#X connect 23 2 2 0;
#X connect 23 3 3 0;
#X connect 23 4 4 0;
#X connect 24 0 22 0;
#X connect 27 0 23 0;
#X connect 27 1 34 0;
#X connect 34 0 29 0;
#X connect 34 1 30 0;
#X connect 34 2 31 0;
#X connect 34 3 32 0;
#X connect 34 4 33 0;
