#N canvas 40 23 1640 875 16;
#X floatatom 1104 285 3 0 0 0 - - -;
#X floatatom 1143 285 3 0 0 0 - - -;
#X floatatom 1182 285 3 0 0 0 - - -;
#X floatatom 1221 285 3 0 0 0 - - -;
#X obj 1104 255 unpack 0 0 0 0 0;
#X floatatom 1261 285 8 0 0 0 - - -;
#X obj 1011 223 route received from;
#X floatatom 1011 286 5 0 0 0 - - -;
#X obj 806 227 print raw;
#X floatatom 72 488 5 0 0 0 - - -;
#X floatatom 211 487 5 0 0 0 - - -;
#X floatatom 350 488 5 0 0 0 - - -;
#X floatatom 490 487 5 0 0 0 - - -;
#X obj 72 456 mrpeach/routeOSC /1/fader1 /1/fader2 /1/fader3 /1/fader4
/1/toggle1, f 70;
#X floatatom 629 488 5 0 0 0 - - -;
#X obj 72 545 * 1000;
#X obj 72 684 osc~;
#X obj 72 716 *~;
#X obj 72 748 *~ 1;
#X obj 350 682 osc~;
#X obj 350 712 *~;
#X obj 350 742 *~ 1;
#X obj 350 548 * 1000;
#X obj 72 780 dac~ 1 2;
#X floatatom 93 581 5 0 0 0 - - -;
#X floatatom 360 580 5 0 0 0 - - -;
#X msg 72 620 \$1 1000;
#X obj 72 652 line~;
#X obj 105 186 print raw;
#X obj 784 187 mrpeach/udpreceive 8001;
#X msg 819 137 port 8000;
#X obj 73 144 netreceive -u -b 8000;
#X obj 72 295 mrpeach/unpackOSC;
#X text 73 89 this patch requires the 'mrpeach' library;
#X text 301 145 8000 is the port number;
#X text 72 20 this patch is meant to receive and parse incoming OSC
messages with the following structure: /1/fader1 \, /1/fader2 \, /1/fader3
\, /1/fader4 and /1/toggle1, f 80;
#X floatatom 821 489 5 0 0 0 - - -;
#X floatatom 936 489 5 0 0 0 - - -;
#X floatatom 1051 489 5 0 0 0 - - -;
#X floatatom 1167 489 5 0 0 0 - - -;
#X floatatom 1282 489 5 0 0 0 - - -;
#X obj 821 456 mrpeach/routeOSC /fader1 /fader2 /fader3 /fader4 /toggle1
, f 58;
#X obj 821 399 mrpeach/routeOSC /1 /2 /3 /4, f 29;
#X floatatom 892 582 5 0 0 0 - - -;
#X floatatom 1007 582 5 0 0 0 - - -;
#X floatatom 1122 582 5 0 0 0 - - -;
#X floatatom 1238 582 5 0 0 0 - - -;
#X floatatom 1353 582 5 0 0 0 - - -;
#X obj 892 549 mrpeach/routeOSC /fader1 /fader2 /fader3 /fader4 /toggle1
, f 58;
#X text 98 421 parsing the whole string at once;
#X text 1131 397 parsing the string in steps;
#X connect 4 0 0 0;
#X connect 4 1 1 0;
#X connect 4 2 2 0;
#X connect 4 3 3 0;
#X connect 4 4 5 0;
#X connect 6 0 7 0;
#X connect 6 1 4 0;
#X connect 9 0 15 0;
#X connect 10 0 17 1;
#X connect 11 0 22 0;
#X connect 12 0 20 1;
#X connect 13 0 9 0;
#X connect 13 1 10 0;
#X connect 13 2 11 0;
#X connect 13 3 12 0;
#X connect 13 4 14 0;
#X connect 14 0 18 1;
#X connect 14 0 21 1;
#X connect 15 0 24 0;
#X connect 15 0 26 0;
#X connect 16 0 17 0;
#X connect 17 0 18 0;
#X connect 18 0 23 0;
#X connect 19 0 20 0;
#X connect 20 0 21 0;
#X connect 21 0 23 1;
#X connect 22 0 19 0;
#X connect 22 0 25 0;
#X connect 26 0 27 0;
#X connect 27 0 16 0;
#X connect 29 0 8 0;
#X connect 29 1 6 0;
#X connect 30 0 29 0;
#X connect 31 0 32 0;
#X connect 32 0 13 0;
#X connect 32 0 42 0;
#X connect 41 0 36 0;
#X connect 41 1 37 0;
#X connect 41 2 38 0;
#X connect 41 3 39 0;
#X connect 41 4 40 0;
#X connect 42 0 41 0;
#X connect 42 1 48 0;
#X connect 48 0 43 0;
#X connect 48 1 44 0;
#X connect 48 2 45 0;
#X connect 48 3 46 0;
#X connect 48 4 47 0;
