#N canvas 413 23 1010 483 12;
#X msg 99 340 disconnect;
#X msg 98 306 connect 192.168.0.14 9000;
#X obj 52 385 netsend -u -b;
#X obj 52 228 list prepend send;
#X obj 52 259 list trim;
#X floatatom 52 75 5 0 0 0 - - -;
#X obj 52 118 oscformat 1 fader1;
#X floatatom 217 75 5 0 0 0 - - -;
#X text 57 145 this corresponds to "/1/fader1";
#X floatatom 386 75 5 0 0 0 - - -;
#X floatatom 558 75 5 0 0 0 - - -;
#X floatatom 726 75 5 0 0 0 - - -;
#X obj 726 40 tgl 15 0 empty empty empty 17 7 0 10 -262144 -1 -1 0
1;
#X obj 726 118 oscformat 1 toggle1;
#X obj 558 118 oscformat 1 fader4;
#X obj 386 118 oscformat 1 fader3;
#X obj 217 118 oscformat 1 fader2;
#X text 730 143 this corresponds to "/1/toggle1";
#X text 491 357 localhost: 127.0.0.1;
#X text 492 382 to create a broadcast invert all bits that are 0 in
subnet mask, f 67;
#X text 310 306 ip address and port number;
#X connect 0 0 2 0;
#X connect 1 0 2 0;
#X connect 3 0 4 0;
#X connect 4 0 2 0;
#X connect 5 0 6 0;
#X connect 6 0 3 0;
#X connect 7 0 16 0;
#X connect 9 0 15 0;
#X connect 10 0 14 0;
#X connect 11 0 13 0;
#X connect 12 0 11 0;
#X connect 13 0 3 0;
#X connect 14 0 3 0;
#X connect 15 0 3 0;
#X connect 16 0 3 0;
