#N canvas 0 23 1280 751 12;
#X obj 638 120 sel Up Down;
#X obj 798 518 > 9;
#X obj 760 517 < 0;
#X obj 760 547 sel 1;
#X obj 673 518 clip 0 9;
#X obj 574 499 i;
#X msg 636 199 1;
#X obj 674 477 + 1;
#X msg 592 466 0;
#X msg 673 200 -1;
#X obj 760 602 print;
#X msg 760 575 OUT OF RANGE;
#X obj 673 554 nbx 2 30 -1e+37 1e+37 0 0 empty empty empty 0 -8 0 30
-262144 -1 -1 0 256;
#X obj 576 370 t b f;
#X obj 577 240 i;
#X obj 576 333 spigot;
#X obj 638 151 t b b;
#X obj 704 152 t b b;
#X msg 735 221 1;
#X obj 779 154 t b;
#X msg 778 221 0;
#X text 589 560 The result;
#X text 505 499 counter;
#X obj 578 173 sel 1;
#X obj 580 89 keyname;
#X text 419 174 Only trigger on key up;
#X text 410 238 +1 for up \, -1 for down;
#X text 630 331 Spigot opens on up or down arrow keys \, Closes otherwise
;
#X connect 0 0 16 0;
#X connect 0 1 17 0;
#X connect 0 2 19 0;
#X connect 1 0 3 0;
#X connect 2 0 3 0;
#X connect 3 0 11 0;
#X connect 4 0 5 1;
#X connect 4 0 12 0;
#X connect 5 0 7 0;
#X connect 6 0 14 1;
#X connect 7 0 4 0;
#X connect 7 0 2 0;
#X connect 7 0 1 0;
#X connect 8 0 5 1;
#X connect 9 0 14 1;
#X connect 11 0 10 0;
#X connect 13 0 5 0;
#X connect 13 1 7 1;
#X connect 14 0 15 0;
#X connect 15 0 13 0;
#X connect 16 0 6 0;
#X connect 16 1 18 0;
#X connect 17 0 9 0;
#X connect 17 1 18 0;
#X connect 18 0 15 1;
#X connect 19 0 20 0;
#X connect 20 0 15 1;
#X connect 23 0 14 0;
#X connect 24 0 23 0;
#X connect 24 1 0 0;
