#N canvas 80 23 1280 751 12;
#X obj 35 304 *~;
#X obj 938 276 hsl 128 15 0.0001 8 1 0 empty empty empty -2 -8 0 10
-257985 -1 -1 9200 1;
#X floatatom 935 296 5 0 0 0 - - -;
#X obj 268 557 vsl 12 40 -100 0 0 0 empty empty empty 0 -9 0 10 -228856
-1 -1 3900 1;
#X obj 48 343 else/vu~;
#X obj 49 377 vu 15 120 empty empty -1 -8 0 10 -66577 -1 1 0;
#X obj 33 630 dac~ 3 4 5 6, f 114;
#X obj 298 302 *~;
#X obj 531 555 vsl 12 40 -100 0 0 0 empty empty empty 0 -9 0 10 -228856
-1 -1 3900 1;
#X obj 311 341 else/vu~;
#X obj 312 375 vu 15 120 empty empty -1 -8 0 10 -66577 -1 1 0;
#X obj 564 301 *~;
#X obj 797 554 vsl 12 40 -100 0 0 0 empty empty empty 0 -9 0 10 -228856
-1 -1 3900 1;
#X obj 577 340 else/vu~;
#X obj 578 374 vu 15 120 empty empty -1 -8 0 10 -66577 -1 1 0;
#X obj 828 299 *~;
#X obj 1061 552 vsl 12 40 -100 0 0 0 empty empty empty 0 -9 0 10 -228856
-1 -1 3900 1;
#X obj 841 338 else/vu~;
#X obj 842 372 vu 15 120 empty empty -1 -8 0 10 -66577 -1 1 0;
#X text 933 252 volume control;
#X obj 41 659 dac~ 1 2 2 1, f 114;
#X text 127 555 compression amount:;
#X text 389 553 compression amount:;
#X text 655 551 compression amount:;
#X text 922 550 compression amount:;
#X obj 35 219 catch~ speaker0;
#X obj 298 220 catch~ speaker1;
#X obj 564 220 catch~ speaker2;
#X obj 828 222 catch~ speaker3;
#X obj 35 26 throw~ speaker0;
#X obj 151 26 throw~ speaker1;
#X obj 266 26 throw~ speaker2;
#X obj 382 26 throw~ speaker3;
#X obj 33 528 else/compress~ -12 100 2 100 0 256;
#X obj 296 526 else/compress~ -12 100 2 100 0 256;
#X obj 562 525 else/compress~ -12 100 2 100 0 256;
#X obj 826 523 else/compress~ -12 100 2 100 0 256;
#X connect 0 0 4 0;
#X connect 0 0 33 0;
#X connect 1 0 0 1;
#X connect 1 0 2 0;
#X connect 1 0 15 1;
#X connect 1 0 11 1;
#X connect 1 0 7 1;
#X connect 4 0 5 0;
#X connect 7 0 9 0;
#X connect 7 0 34 0;
#X connect 9 0 10 0;
#X connect 11 0 13 0;
#X connect 11 0 35 0;
#X connect 13 0 14 0;
#X connect 15 0 17 0;
#X connect 15 0 36 0;
#X connect 17 0 18 0;
#X connect 25 0 0 0;
#X connect 26 0 7 0;
#X connect 27 0 11 0;
#X connect 28 0 15 0;
#X connect 33 0 6 0;
#X connect 33 0 20 0;
#X connect 33 1 3 0;
#X connect 34 0 6 1;
#X connect 34 0 20 1;
#X connect 34 1 8 0;
#X connect 35 0 6 2;
#X connect 35 0 20 2;
#X connect 35 1 12 0;
#X connect 36 0 6 3;
#X connect 36 0 20 3;
#X connect 36 1 16 0;
