#N canvas 0 23 1280 751 16;
#X obj 135 605 pan4~, f 12;
#X floatatom 814 465 0 0 120 0 - - -;
#X text 852 467 level \, dB;
#X floatatom 854 493 0 0 100 0 - - -;
#X text 896 488 liveness \, 0-100;
#X floatatom 893 522 4 0 5000 0 - - -;
#X floatatom 933 547 0 0 100 0 - - -;
#X text 941 520 crossover frequency \, Hz.;
#X text 969 549 HF damping \, percent;
#X obj 736 580 *~ 0.5;
#X floatatom 192 457 5 0 0 0 - - -;
#X text 184 429 loudness of the direct signal;
#X text 261 524 position control 0..4;
#X obj 135 497 *~ 0.5;
#X text 310 310 0..360 -> 0..4;
#X text 379 237 angle in degrees;
#X text 270 603 spatialization of the direct signal;
#X text 967 618 4 channel reverb;
#X obj 137 34 inlet~;
#X obj 1236 95 cnv 15 404 370 empty empty empty 20 12 0 14 -233017
-66577 0;
#X text 1262 122 speaker 0;
#X text 1511 122 speaker 1;
#X text 1511 385 speaker 2;
#X text 1262 385 speaker 3;
#X text 1567 260 x=1;
#X text 1419 260 0 \, 0;
#X text 1266 260 x=-1;
#X text 1277 143 dac~ 3;
#X text 1530 143 dac~ 4;
#X text 1532 408 dac~ 5;
#X text 1280 408 dac~ 6;
#X text 1419 122 y=1;
#X text 1419 385 y=-1;
#X text 1272 132 comment;
#X obj 348 685 outlet~;
#X obj 430 684 outlet~;
#X obj 516 684 outlet~;
#X obj 598 684 outlet~;
#X obj 788 39 inlet~;
#X obj 956 36 inlet~;
#X obj 731 146 atan2~;
#X obj 731 176 /~ 6.28319;
#X obj 731 211 *~ 360;
#X obj 731 275 s~ \$0-angle;
#X obj 879 159 *~;
#X obj 936 160 *~;
#X obj 879 188 +~;
#X obj 879 217 sqrt~;
#X obj 164 177 r~ \$0-distance;
#X obj 253 238 r~ \$0-angle;
#X obj 253 277 *~ -1;
#X obj 253 310 /~ 90;
#X obj 253 346 +~ 1.5;
#X obj 419 57 inlet~;
#X obj 599 59 inlet~;
#X obj 879 278 s~ \$0-distance;
#X obj 135 542 /~;
#X text 63 33 signal;
#X text 590 30 distance;
#X obj 736 616 rev3~ 90 90 3000 20, f 20;
#X text 775 14 x (-1 \, 1);
#X text 408 26 angle (0 \, 360);
#X text 940 10 y (-1 \, 1);
#X obj 164 210 max~ 0.25;
#X connect 0 0 34 0;
#X connect 0 1 35 0;
#X connect 0 2 36 0;
#X connect 0 3 37 0;
#X connect 1 0 59 2;
#X connect 3 0 59 3;
#X connect 5 0 59 4;
#X connect 6 0 59 5;
#X connect 9 0 59 0;
#X connect 10 0 13 1;
#X connect 13 0 56 0;
#X connect 18 0 13 0;
#X connect 18 0 9 0;
#X connect 38 0 40 1;
#X connect 38 0 44 0;
#X connect 38 0 44 1;
#X connect 39 0 40 0;
#X connect 39 0 45 0;
#X connect 39 0 45 1;
#X connect 40 0 41 0;
#X connect 41 0 42 0;
#X connect 42 0 43 0;
#X connect 44 0 46 0;
#X connect 45 0 46 1;
#X connect 46 0 47 0;
#X connect 47 0 55 0;
#X connect 48 0 63 0;
#X connect 49 0 50 0;
#X connect 50 0 51 0;
#X connect 51 0 52 0;
#X connect 52 0 0 1;
#X connect 53 0 43 0;
#X connect 54 0 55 0;
#X connect 56 0 0 0;
#X connect 59 0 34 0;
#X connect 59 1 35 0;
#X connect 59 2 36 0;
#X connect 59 3 37 0;
#X connect 63 0 56 1;
