#N canvas 0 23 1280 751 12;
#X obj 486 543 dac~ 1 2 2 1, f 19;
#X obj 486 578 dac~ 3 4 5 6, f 19;
#X obj 483 143 *~;
#X obj 669 69 hsl 128 15 0 1 0 0 empty empty empty -2 -8 0 10 -262144
-1 -1 12700 1;
#X msg 666 89 \$1 25;
#X obj 666 113 line~;
#X obj 387 517 env~;
#X obj 387 541 - 100;
#X obj 388 565 vu 15 120 empty empty -1 -8 0 10 -66577 -1 1 0;
#X obj 437 517 env~;
#X obj 437 541 - 100;
#X obj 438 565 vu 15 120 empty empty -1 -8 0 10 -66577 -1 1 0;
#X msg 41 104 \; pd dsp \$1;
#X obj 41 79 tgl 15 0 empty empty empty 17 7 0 10 -262144 -1 -1 1 1
;
#N canvas 0 23 1280 751 voice-alloc 0;
#X obj 441 245 t l l, f 68;
#X msg 441 272 \$4;
#X obj 914 291 unpack f f f f, f 16;
#X msg 501 430 set \$1;
#X obj 441 330 t b b, f 9;
#X obj 501 375 i;
#X obj 441 213 inlet;
#X obj 498 680 outlet;
#X obj 441 295 sel 1 0, f 47;
#X obj 422 633 loadbang;
#X msg 424 665 set 0;
#X obj 677 432 i;
#X obj 677 465 pack f f f;
#X msg 760 601 next \$1 \$2;
#X obj 760 570 pack f f;
#X obj 761 543 f;
#X obj 501 401 + 1;
#X connect 0 0 1 0;
#X connect 0 1 2 0;
#X connect 1 0 8 0;
#X connect 2 0 5 1;
#X connect 2 0 11 1;
#X connect 2 1 12 1;
#X connect 2 1 15 1;
#X connect 2 2 12 2;
#X connect 2 2 14 1;
#X connect 3 0 7 0;
#X connect 4 0 15 0;
#X connect 4 1 5 0;
#X connect 5 0 16 0;
#X connect 6 0 0 0;
#X connect 8 0 4 0;
#X connect 8 1 11 0;
#X connect 9 0 10 0;
#X connect 10 0 7 0;
#X connect 11 0 12 0;
#X connect 12 0 7 0;
#X connect 13 0 7 0;
#X connect 14 0 13 0;
#X connect 15 0 14 0;
#X connect 16 0 3 0;
#X restore 1101 72 pd voice-alloc;
#X obj 558 83 tgl 15 0 empty empty empty 17 7 0 10 -262144 -1 -1 0
1;
#X obj 483 83 bng 15 250 50 0 empty empty empty 17 7 0 10 -262144 -1
-1;
#X obj 520 84 tgl 15 0 empty empty empty 17 7 0 10 -262144 -1 -1 0
1;
#N canvas 0 23 1280 751 playfile 0;
#X obj 569 526 readsf~;
#X obj 569 315 openpanel;
#X msg 569 424 open \$1;
#X obj 852 365 gate 1;
#X obj 569 391 list store;
#X obj 569 339 t b l, f 10;
#X obj 852 389 t b b;
#X msg 852 413 1;
#X obj 741 332 sel 1;
#X obj 709 308 t f f;
#X obj 569 284 inlet;
#X obj 569 550 outlet~;
#X obj 709 282 inlet;
#X obj 852 288 inlet;
#X connect 0 0 11 0;
#X connect 0 1 3 1;
#X connect 1 0 5 0;
#X connect 2 0 0 0;
#X connect 3 0 6 0;
#X connect 4 0 2 0;
#X connect 5 0 4 0;
#X connect 5 1 4 1;
#X connect 6 0 7 0;
#X connect 6 1 4 0;
#X connect 7 0 0 0;
#X connect 8 0 4 0;
#X connect 9 0 0 0;
#X connect 9 1 8 0;
#X connect 10 0 1 0;
#X connect 12 0 9 0;
#X connect 13 0 3 0;
#X restore 483 104 pd playfile;
#X text 477 62 load play loop;
#X floatatom 379 107 5 0 0 0 - - -;
#X obj 290 324 hsl 128 15 0 1 0 0 empty empty empty -2 -8 0 10 -262144
-1 -1 0 1;
#X obj 289 376 hsl 128 15 0 1 0 0 empty empty empty -2 -8 0 10 -262144
-1 -1 8900 1;
#X obj 1050 472 phasor~;
#X obj 1173 472 phasor~;
#X obj 1050 524 scope~ 130 130 128 3 64 -1 1 0 0 0 0 205 229 232 74
79 77 96 98 102 0;
#X obj 922 294 s numVoices;
#X msg 922 270 50;
#X obj 922 245 loadbang;
#X obj 1031 292 s maxLinPhasing;
#X floatatom 1031 264 5 0 10 0 - - -;
#X msg 483 203 \$1 harm \$2 \$3;
#X msg 287 347 all randamt \$1;
#X msg 286 398 all maxdist \$1;
#X obj 1031 240 loadmess 0;
#X obj 379 159 *~;
#X obj 335 158 tgl 15 0 empty empty empty 17 7 0 10 -262144 -1 -1 1
1;
#X obj 1050 496 triangle~;
#X obj 1173 496 triangle~;
#X obj 553 333 osc~;
#X floatatom 553 307 5 0 0 0 - - -;
#X obj 723 332 osc~;
#X floatatom 723 306 5 0 0 0 - - -;
#X obj 723 394 scale~ -1 1 0 1;
#X obj 553 394 scale~ -1 1 0 1, f 17;
#X floatatom 784 365 5 0 0 0 - - -;
#X floatatom 827 367 5 0 0 0 - - -;
#X text 510 394 xfreq;
#X text 838 396 yfreq;
#X obj 723 418 s~ yfreq;
#X obj 561 418 s~ xfreq;
#X obj 1050 443 r~ xfreq;
#X obj 1173 443 r~ yfreq;
#X floatatom 626 272 5 0 0 0 - - -;
#X floatatom 827 336 5 0 0 0 - - -;
#X obj 379 135 else/saw~;
#X floatatom 643 346 5 0 0 0 - - -;
#X obj 681 571 writesf~ 4, f 14;
#X msg 800 554 start;
#X msg 849 554 stop;
#X obj 483 170 sigmund~ -npts 4096 -hop 2048 -npeak 50 peaks;
#X obj 167 463 hsl 128 15 0 49 0 0 empty empty empty -2 -8 0 10 -262144
-1 -1 0 1;
#X obj 212 505 hsl 128 15 0 49 0 0 empty empty empty -2 -8 0 10 -262144
-1 -1 12700 1;
#X obj 163 531 pak f f;
#X msg 163 556 all range \$1 \$2;
#X msg 680 514 open /Users/olafwisselink/Desktop/ssi4-2.wav;
#X obj 486 497 clone ssi4-voice 50;
#X msg 1131 252 0;
#X connect 2 0 60 0;
#X connect 3 0 4 0;
#X connect 4 0 5 0;
#X connect 5 0 2 1;
#X connect 6 0 7 0;
#X connect 7 0 8 0;
#X connect 9 0 10 0;
#X connect 10 0 11 0;
#X connect 13 0 12 0;
#X connect 15 0 18 2;
#X connect 16 0 18 0;
#X connect 17 0 18 1;
#X connect 18 0 2 0;
#X connect 20 0 55 0;
#X connect 21 0 32 0;
#X connect 22 0 33 0;
#X connect 23 0 37 0;
#X connect 24 0 38 0;
#X connect 27 0 26 0;
#X connect 28 0 27 0;
#X connect 30 0 29 0;
#X connect 31 0 66 0;
#X connect 32 0 66 0;
#X connect 33 0 66 0;
#X connect 34 0 30 0;
#X connect 35 0 2 0;
#X connect 36 0 35 1;
#X connect 37 0 25 0;
#X connect 38 0 25 1;
#X connect 39 0 44 0;
#X connect 40 0 39 0;
#X connect 41 0 43 0;
#X connect 42 0 41 0;
#X connect 43 0 49 0;
#X connect 43 0 66 2;
#X connect 44 0 50 0;
#X connect 44 0 66 1;
#X connect 45 0 44 3;
#X connect 45 0 43 3;
#X connect 46 0 43 4;
#X connect 46 0 44 4;
#X connect 51 0 23 0;
#X connect 52 0 24 0;
#X connect 53 0 40 0;
#X connect 53 0 42 0;
#X connect 54 0 45 0;
#X connect 54 0 46 0;
#X connect 55 0 35 0;
#X connect 56 0 44 4;
#X connect 58 0 57 0;
#X connect 59 0 57 0;
#X connect 60 0 31 0;
#X connect 61 0 63 0;
#X connect 62 0 63 1;
#X connect 63 0 64 0;
#X connect 64 0 66 0;
#X connect 65 0 57 0;
#X connect 66 0 6 0;
#X connect 66 0 0 0;
#X connect 66 0 57 0;
#X connect 66 1 9 0;
#X connect 66 1 0 1;
#X connect 66 1 57 1;
#X connect 66 2 6 0;
#X connect 66 2 0 2;
#X connect 66 2 57 2;
#X connect 66 3 0 3;
#X connect 66 3 57 3;
#X connect 67 0 30 0;
