#N canvas 0 23 1280 751 12;
#X text 432 585 signal \, (angle \, distance) \, (x \, y);
#X obj 218 586 4channel_abstraction_xy~, f 29;
#X msg 689 453 \$1 25;
#X obj 689 477 line~;
#X obj 689 430 * 100;
#X obj 689 406 pow 4;
#X obj 368 540 *~;
#X obj 490 535 *~;
#X obj 218 191 unpack 0 0;
#X obj 218 357 osc~;
#X obj 218 387 *~;
#X obj 218 610 outlet~;
#X obj 284 611 outlet~;
#X obj 351 612 outlet~;
#X obj 418 611 outlet~;
#X obj 698 378 loadmess 0.5;
#X msg 285 331 \$1 1;
#X obj 285 355 line~;
#X obj 218 122 inlet;
#X obj 369 265 inlet~;
#X obj 430 266 inlet~;
#X obj 218 411 *~;
#X obj 1021 185 loadbang;
#X obj 1021 212 f \$1;
#X obj 924 194 unpack f f;
#X obj 924 230 <=;
#X obj 991 233 >=;
#X obj 924 281 ==;
#X obj 924 254 == 1;
#X obj 991 257 == 1;
#X msg 924 305 \$1 50;
#X obj 924 329 line~;
#X obj 218 160 route harm randamt maxdist range, f 135;
#X text 371 245 xfreq;
#X text 430 246 yfreq;
#N canvas 0 23 1280 751 xy-freq 1;
#X obj 872 367 inlet;
#X msg 872 391 \$1 25;
#X obj 872 415 line~;
#X obj 379 460 !-~ 1;
#X obj 361 490 *~;
#X obj 361 525 +~;
#X obj 361 608 outlet~;
#N canvas 0 23 1280 751 linearMovement 0;
#X obj 363 403 phasor~;
#X obj 512 179 loadbang;
#X obj 512 220 f \$1;
#X obj 602 139 r numVoices;
#X obj 602 163 - 1;
#X obj 602 187 t b f;
#X obj 362 561 outlet~;
#X obj 937 153 r maxLinPhasing;
#X obj 724 163 + 1;
#X obj 512 247 scale 0 49 1 1, f 44;
#X obj 724 185 t b f;
#X obj 363 427 triangle~;
#X obj 937 177 t f f, f 13;
#X obj 1007 287 f;
#X obj 937 225 sel 0 1;
#X msg 937 249 0;
#X obj 937 201 > 0;
#X obj 364 194 inlet~;
#X obj 364 350 *~ 1;
#X connect 0 0 11 0;
#X connect 1 0 2 0;
#X connect 2 0 9 0;
#X connect 3 0 4 0;
#X connect 4 0 5 0;
#X connect 5 0 2 0;
#X connect 5 1 9 2;
#X connect 7 0 12 0;
#X connect 8 0 10 0;
#X connect 9 0 18 1;
#X connect 10 0 2 0;
#X connect 10 1 9 4;
#X connect 11 0 6 0;
#X connect 12 0 16 0;
#X connect 12 1 13 1;
#X connect 13 0 8 0;
#X connect 14 0 15 0;
#X connect 14 1 13 0;
#X connect 15 0 0 1;
#X connect 16 0 14 0;
#X connect 17 0 18 0;
#X connect 18 0 0 0;
#X restore 364 306 pd linearMovement;
#X obj 364 230 inlet~;
#X obj 500 458 *~;
#X obj 501 305 rand~;
#X obj 626 456 !-~ 1;
#X obj 608 486 *~;
#X obj 608 521 +~;
#X obj 608 604 outlet~;
#N canvas 0 23 1280 751 linearMovement 0;
#X obj 363 403 phasor~;
#X obj 512 179 loadbang;
#X obj 512 220 f \$1;
#X obj 602 139 r numVoices;
#X obj 602 163 - 1;
#X obj 602 187 t b f;
#X obj 362 561 outlet~;
#X obj 937 153 r maxLinPhasing;
#X obj 724 163 + 1;
#X obj 512 247 scale 0 49 1 1, f 44;
#X obj 724 185 t b f;
#X obj 363 427 triangle~;
#X obj 937 177 t f f, f 13;
#X obj 1007 287 f;
#X obj 937 225 sel 0 1;
#X msg 937 249 0;
#X obj 937 201 > 0;
#X obj 364 194 inlet~;
#X obj 364 350 *~ 1;
#X connect 0 0 11 0;
#X connect 1 0 2 0;
#X connect 2 0 9 0;
#X connect 3 0 4 0;
#X connect 4 0 5 0;
#X connect 5 0 2 0;
#X connect 5 1 9 2;
#X connect 7 0 12 0;
#X connect 8 0 10 0;
#X connect 9 0 18 1;
#X connect 10 0 2 0;
#X connect 10 1 9 4;
#X connect 11 0 6 0;
#X connect 12 0 16 0;
#X connect 12 1 13 1;
#X connect 13 0 8 0;
#X connect 14 0 15 0;
#X connect 14 1 13 0;
#X connect 15 0 0 1;
#X connect 16 0 14 0;
#X connect 17 0 18 0;
#X connect 18 0 0 0;
#X restore 611 302 pd linearMovement;
#X obj 611 226 inlet~;
#X obj 747 454 *~;
#X obj 748 301 rand~;
#X connect 0 0 1 0;
#X connect 1 0 2 0;
#X connect 2 0 3 0;
#X connect 2 0 9 1;
#X connect 2 0 17 1;
#X connect 2 0 11 0;
#X connect 3 0 4 1;
#X connect 4 0 5 0;
#X connect 5 0 6 0;
#X connect 7 0 4 0;
#X connect 8 0 7 0;
#X connect 8 0 10 0;
#X connect 9 0 5 1;
#X connect 10 0 9 0;
#X connect 11 0 12 1;
#X connect 12 0 13 0;
#X connect 13 0 14 0;
#X connect 15 0 12 0;
#X connect 16 0 15 0;
#X connect 16 0 18 0;
#X connect 17 0 13 1;
#X connect 18 0 17 0;
#X restore 369 310 pd xy-freq;
#X f 18;
#X connect 1 0 11 0;
#X connect 1 1 12 0;
#X connect 1 2 13 0;
#X connect 1 3 14 0;
#X connect 2 0 3 0;
#X connect 3 0 7 1;
#X connect 3 0 6 1;
#X connect 4 0 2 0;
#X connect 5 0 4 0;
#X connect 6 0 1 3;
#X connect 7 0 1 4;
#X connect 8 0 9 0;
#X connect 8 1 16 0;
#X connect 9 0 10 0;
#X connect 10 0 21 0;
#X connect 15 0 5 0;
#X connect 16 0 17 0;
#X connect 17 0 10 1;
#X connect 18 0 32 0;
#X connect 19 0 35 0;
#X connect 20 0 35 1;
#X connect 21 0 1 0;
#X connect 22 0 23 0;
#X connect 23 0 25 1;
#X connect 23 0 26 1;
#X connect 24 0 25 0;
#X connect 24 1 26 0;
#X connect 25 0 28 0;
#X connect 26 0 29 0;
#X connect 27 0 30 0;
#X connect 28 0 27 0;
#X connect 29 0 27 1;
#X connect 30 0 31 0;
#X connect 31 0 21 1;
#X connect 32 0 8 0;
#X connect 32 1 35 2;
#X connect 32 2 5 0;
#X connect 32 3 24 0;
#X connect 35 0 6 0;
#X connect 35 1 7 0;
