#N canvas 0 23 1280 751 12;
#X text 568 573 signal \, (angle \, distance) \, (x \, y);
#X obj 359 574 4channel_abstraction_xy~, f 29;
#X obj 642 387 hsl 128 15 0 1 0 0 empty empty empty -2 -8 0 10 -262144
-1 -1 6350 1;
#X msg 639 454 \$1 25;
#X obj 639 478 line~;
#X obj 639 431 * 100;
#X obj 639 407 pow 4;
#X obj 509 528 *~;
#X obj 559 529 *~;
#X obj 359 228 inlet;
#X obj 359 252 unpack 0 0;
#X obj 359 345 osc~;
#X obj 359 375 *~;
#X obj 359 598 outlet~;
#X obj 425 599 outlet~;
#X obj 492 600 outlet~;
#X obj 559 599 outlet~;
#X obj 1081 277 f \$1;
#X obj 1081 220 loadbang;
#X obj 425 308 sig~;
#X obj 891 485 osc~;
#X obj 967 493 osc~;
#X obj 993 431 loadbang;
#X obj 1194 209 r numVoices;
#X obj 1194 233 - 1;
#X obj 921 331 * 1;
#X obj 1081 301 scale 0 25 0 1, f 19;
#X obj 887 270 t f f;
#X obj 895 392 +;
#X msg 993 455 -0.25;
#X obj 1005 356 * 1;
#X obj 887 235 unpack f f;
#X obj 1180 256 t b f;
#X obj 639 364 loadmess 0.5;
#X obj 358 437 gate~;
#X obj 242 443 loadbang;
#X obj 242 467 f \$1;
#X obj 242 491 == 0;
#X text 883 208 inlet;
#X obj 509 226 inlet~;
#X obj 425 339 slide~ 5 5;
#X obj 564 226 inlet~;
#X connect 1 0 13 0;
#X connect 1 1 14 0;
#X connect 1 2 15 0;
#X connect 1 3 16 0;
#X connect 2 0 6 0;
#X connect 3 0 4 0;
#X connect 4 0 8 1;
#X connect 4 0 7 1;
#X connect 5 0 3 0;
#X connect 6 0 5 0;
#X connect 7 0 1 3;
#X connect 8 0 1 4;
#X connect 9 0 10 0;
#X connect 10 0 11 0;
#X connect 10 1 19 0;
#X connect 11 0 12 0;
#X connect 12 0 34 1;
#X connect 17 0 26 0;
#X connect 18 0 17 0;
#X connect 19 0 40 0;
#X connect 22 0 29 0;
#X connect 23 0 24 0;
#X connect 24 0 32 0;
#X connect 25 0 28 1;
#X connect 26 0 30 1;
#X connect 27 0 28 0;
#X connect 27 1 25 0;
#X connect 28 0 21 0;
#X connect 28 0 20 0;
#X connect 29 0 21 1;
#X connect 30 0 25 1;
#X connect 31 0 27 0;
#X connect 31 1 30 0;
#X connect 32 0 17 0;
#X connect 32 1 26 2;
#X connect 33 0 2 0;
#X connect 34 0 1 0;
#X connect 35 0 36 0;
#X connect 36 0 37 0;
#X connect 37 0 34 0;
#X connect 39 0 7 0;
#X connect 40 0 12 1;
#X connect 41 0 8 0;
