#N canvas 640 23 640 751 12;
#X obj 480 220 readsf~;
#X obj 480 88 openpanel;
#X msg 480 182 open \$1;
#X obj 572 120 tgl 15 0 empty empty empty 17 7 0 10 -262144 -1 -1 1
1;
#X obj 572 141 gate 1;
#X obj 480 64 bng 15 250 50 0 empty empty empty 17 7 0 10 -262144 -1
-1;
#X obj 398 99 tgl 15 0 empty empty empty 17 7 0 10 -262144 -1 -1 1
1;
#X obj 480 149 list store;
#X obj 480 112 t b l;
#X obj 470 644 dac~ 1 2 2 1, f 19;
#X obj 572 165 t b b;
#X msg 572 189 1;
#X obj 398 119 t f b;
#X obj 469 679 dac~ 3 4 5 6, f 19;
#X obj 480 268 *~;
#X obj 666 194 hsl 128 15 0 1 0 0 empty empty empty -2 -8 0 10 -262144
-1 -1 12700 1;
#X msg 663 214 \$1 25;
#X obj 663 238 line~;
#X obj 338 509 env~;
#X obj 338 533 - 100;
#X obj 339 558 vu 15 120 empty empty -1 -8 0 10 -66577 -1 1 0;
#X obj 388 509 env~;
#X obj 388 533 - 100;
#X obj 389 558 vu 15 120 empty empty -1 -8 0 10 -66577 -1 1 0;
#X msg 174 101 \; pd dsp \$1;
#X obj 174 76 tgl 15 0 empty empty empty 17 7 0 10 -262144 -1 -1 1
1;
#X obj 929 172 s numVoices;
#X floatatom 929 144 5 0 0 0 - - -;
#X msg 986 138 25;
#X msg 519 552 all 0 0;
#N canvas 0 23 1280 751 voice-alloc 1;
#X obj 441 245 t l l, f 68;
#X msg 441 272 \$4;
#X obj 914 291 unpack f f f f, f 16;
#X msg 501 430 set \$1;
#X obj 441 330 t b b, f 9;
#X obj 501 375 i;
#X obj 441 213 inlet;
#X obj 498 680 outlet;
#X obj 441 295 sel 1 0, f 47;
#X obj 422 633 loadbang;
#X msg 424 665 set 0;
#X obj 677 432 i;
#X obj 677 465 pack f f f;
#X msg 760 601 next \$1 \$2;
#X obj 760 570 pack f f;
#X obj 761 543 f;
#X obj 501 401 + 1;
#X connect 0 0 1 0;
#X connect 0 1 2 0;
#X connect 1 0 8 0;
#X connect 2 0 5 1;
#X connect 2 0 11 1;
#X connect 2 1 12 1;
#X connect 2 1 15 1;
#X connect 2 2 12 2;
#X connect 2 2 14 1;
#X connect 3 0 7 0;
#X connect 4 0 15 0;
#X connect 4 1 5 0;
#X connect 5 0 16 0;
#X connect 6 0 0 0;
#X connect 8 0 4 0;
#X connect 8 1 11 0;
#X connect 9 0 10 0;
#X connect 10 0 7 0;
#X connect 11 0 12 0;
#X connect 12 0 7 0;
#X connect 13 0 7 0;
#X connect 14 0 13 0;
#X connect 15 0 14 0;
#X connect 16 0 3 0;
#X restore 480 326 pd voice-alloc;
#X obj 490 407 print;
#X obj 491 382 gate;
#X obj 545 360 tgl 15 0 empty empty empty 17 7 0 10 -262144 -1 -1 0
1;
#X obj 627 567 osc~;
#X obj 683 575 osc~;
#X floatatom 627 542 5 0 0 0 - - -;
#X floatatom 683 541 5 0 0 0 - - -;
#X floatatom 730 544 5 0 0 0 - - -;
#X msg 602 374 \$1 \$2 \$3;
#X obj 470 601 clone ssi4-voice 25;
#X obj 480 295 sigmund~ -npts 4096 -hop 2048 -npeak 1 tracks;
#X connect 0 0 14 0;
#X connect 0 1 4 1;
#X connect 1 0 8 0;
#X connect 2 0 0 0;
#X connect 3 0 4 0;
#X connect 4 0 10 0;
#X connect 5 0 1 0;
#X connect 6 0 12 0;
#X connect 7 0 2 0;
#X connect 8 0 7 0;
#X connect 8 1 7 1;
#X connect 10 0 11 0;
#X connect 10 1 7 0;
#X connect 11 0 0 0;
#X connect 12 0 0 0;
#X connect 12 1 7 0;
#X connect 14 0 41 0;
#X connect 15 0 16 0;
#X connect 16 0 17 0;
#X connect 17 0 14 1;
#X connect 18 0 19 0;
#X connect 19 0 20 0;
#X connect 21 0 22 0;
#X connect 22 0 23 0;
#X connect 25 0 24 0;
#X connect 27 0 26 0;
#X connect 28 0 26 0;
#X connect 29 0 40 0;
#X connect 30 0 32 1;
#X connect 30 0 40 0;
#X connect 32 0 31 0;
#X connect 33 0 32 0;
#X connect 34 0 40 1;
#X connect 35 0 40 2;
#X connect 36 0 34 0;
#X connect 37 0 35 0;
#X connect 38 0 37 0;
#X connect 38 0 36 0;
#X connect 39 0 40 0;
#X connect 40 0 18 0;
#X connect 40 0 9 0;
#X connect 40 1 21 0;
#X connect 40 1 9 1;
#X connect 40 2 18 0;
#X connect 40 2 9 2;
#X connect 40 3 9 3;
#X connect 41 0 30 0;
