#N canvas 0 23 1280 751 12;
#X obj 336 625 dac~ 1 2 2 1, f 19;
#X obj 336 602 dac~ 3 4 5 6, f 19;
#X obj 509 146 *~;
#X obj 695 72 hsl 128 15 0 1 0 0 empty empty empty -2 -8 0 10 -262144
-1 -1 12700 1;
#X obj 692 116 line~;
#X msg 41 104 \; pd dsp \$1;
#X obj 41 79 tgl 15 0 empty empty empty 17 7 0 10 -262144 -1 -1 1 1
;
#N canvas 0 23 1280 751 voice-alloc 0;
#X obj 441 245 t l l, f 68;
#X msg 441 272 \$4;
#X obj 914 291 unpack f f f f, f 16;
#X msg 501 430 set \$1;
#X obj 441 330 t b b, f 9;
#X obj 501 375 i;
#X obj 441 213 inlet;
#X obj 498 680 outlet;
#X obj 441 295 sel 1 0, f 47;
#X obj 422 633 loadbang;
#X msg 424 665 set 0;
#X obj 677 432 i;
#X obj 677 465 pack f f f;
#X msg 760 601 next \$1 \$2;
#X obj 760 570 pack f f;
#X obj 761 543 f;
#X obj 501 401 + 1;
#X connect 0 0 1 0;
#X connect 0 1 2 0;
#X connect 1 0 8 0;
#X connect 2 0 5 1;
#X connect 2 0 11 1;
#X connect 2 1 12 1;
#X connect 2 1 15 1;
#X connect 2 2 12 2;
#X connect 2 2 14 1;
#X connect 3 0 7 0;
#X connect 4 0 15 0;
#X connect 4 1 5 0;
#X connect 5 0 16 0;
#X connect 6 0 0 0;
#X connect 8 0 4 0;
#X connect 8 1 11 0;
#X connect 9 0 10 0;
#X connect 10 0 7 0;
#X connect 11 0 12 0;
#X connect 12 0 7 0;
#X connect 13 0 7 0;
#X connect 14 0 13 0;
#X connect 15 0 14 0;
#X connect 16 0 3 0;
#X restore 1101 72 pd voice-alloc;
#X obj 583 55 tgl 15 0 empty empty empty 17 7 0 10 -262144 -1 -1 1
1;
#X obj 509 55 bng 15 250 50 0 empty empty empty 17 7 0 10 -262144 -1
-1;
#X obj 546 56 tgl 15 0 empty empty empty 17 7 0 10 -262144 -1 -1 1
1;
#N canvas 0 23 1280 751 playfile 0;
#X obj 569 526 readsf~;
#X obj 569 315 openpanel;
#X msg 569 424 open \$1;
#X obj 852 365 gate 1;
#X obj 569 391 list store;
#X obj 569 339 t b l, f 10;
#X obj 852 389 t b b;
#X msg 852 413 1;
#X obj 741 332 sel 1;
#X obj 709 308 t f f;
#X obj 569 284 inlet;
#X obj 569 550 outlet~;
#X obj 709 282 inlet;
#X obj 852 288 inlet;
#X connect 0 0 11 0;
#X connect 0 1 3 1;
#X connect 1 0 5 0;
#X connect 2 0 0 0;
#X connect 3 0 6 0;
#X connect 4 0 2 0;
#X connect 5 0 4 0;
#X connect 5 1 4 1;
#X connect 6 0 7 0;
#X connect 6 1 4 0;
#X connect 7 0 0 0;
#X connect 8 0 4 0;
#X connect 9 0 0 0;
#X connect 9 1 8 0;
#X connect 10 0 1 0;
#X connect 12 0 9 0;
#X connect 13 0 3 0;
#X restore 509 76 pd playfile;
#X text 503 34 load play loop;
#X floatatom 405 110 5 0 0 0 - - -;
#X obj 289 435 hsl 128 15 0 1 0 0 empty empty empty -2 -8 0 10 -262144
-1 -1 0 1;
#X obj 291 314 hsl 128 15 0 1 0 0 empty empty empty -2 -8 0 10 -262144
-1 -1 3000 1;
#X obj 1069 505 scope~ 130 130 128 3 64 -1 1 0 0 0 0 205 229 232 74
79 77 96 98 102 0;
#X obj 1034 193 s numVoices;
#X obj 1034 144 loadbang;
#X floatatom 1031 264 5 0 10 0 - - -;
#X msg 509 206 \$1 harm \$2 \$3;
#X msg 286 458 all randamt \$1;
#X obj 1031 240 loadmess 0;
#X obj 405 162 *~;
#X obj 387 164 tgl 15 0 empty empty empty 17 7 0 10 -262144 -1 -1 0
1;
#X obj 553 333 osc~;
#X floatatom 553 307 5 0 0 0 - - -;
#X obj 723 332 osc~;
#X floatatom 723 306 5 0 0 0 - - -;
#X obj 723 394 scale~ -1 1 0 1;
#X obj 553 394 scale~ -1 1 0 1, f 17;
#X floatatom 784 365 5 0 0 0 - - -;
#X floatatom 827 367 5 0 0 0 - - -;
#X text 510 394 xfreq;
#X text 838 396 yfreq;
#X obj 723 418 s~ yfreq;
#X obj 561 418 s~ xfreq;
#X obj 1069 381 r~ xfreq;
#X obj 1206 381 r~ yfreq;
#X floatatom 626 272 5 0 0 0 - - -;
#X floatatom 827 336 5 0 0 0 - - -;
#X obj 751 526 writesf~ 4, f 14;
#X msg 805 496 start;
#X msg 854 496 stop;
#X obj 94 426 hsl 128 15 0 49 0 0 empty empty empty -2 -8 0 10 -262144
-1 -1 0 1;
#X obj 139 443 hsl 128 15 0 49 0 0 empty empty empty -2 -8 0 10 -262144
-1 -1 12700 1;
#X obj 90 469 pak f f;
#X msg 90 494 all range \$1 \$2;
#X msg 1131 252 0;
#X msg 751 470 open /Users/olafwisselink/Desktop/ssi4.2.wav;
#X obj 148 468 loadmess 49;
#X obj 509 100 *~ 1;
#X floatatom 553 102 5 0 0 0 - - -;
#X msg 692 92 \$1 100;
#X obj 932 294 s stabletime;
#X floatatom 932 272 5 0 5000 0 - - -;
#X floatatom 622 364 5 0 0 0 - - -;
#X floatatom 665 366 5 0 0 0 - - -;
#X floatatom 665 335 5 0 0 0 - - -;
#X obj 484 248 gate;
#X obj 484 208 tgl 15 1 empty empty empty 17 7 0 10 -262144 -1 -1 0
1;
#N canvas 0 23 1280 751 constrain-complex 0;
#X obj 493 568 *~;
#X obj 637 568 *~;
#X obj 765 371 max~ 0.5;
#X obj 738 403 !/~;
#X obj 634 184 inlet~;
#X obj 491 183 inlet~;
#X obj 738 277 *~;
#X obj 795 278 *~;
#X obj 738 306 +~;
#X obj 909 256 r minDistance;
#X obj 493 597 outlet~;
#X obj 637 597 outlet~;
#X obj 738 330 sqrt~;
#X connect 0 0 10 0;
#X connect 1 0 11 0;
#X connect 2 0 3 1;
#X connect 3 0 1 1;
#X connect 3 0 0 1;
#X connect 4 0 7 0;
#X connect 4 0 7 1;
#X connect 4 0 1 0;
#X connect 5 0 6 0;
#X connect 5 0 6 1;
#X connect 5 0 0 0;
#X connect 6 0 8 0;
#X connect 7 0 8 1;
#X connect 8 0 12 0;
#X connect 9 0 2 1;
#X connect 12 0 3 0;
#X connect 12 0 2 0;
#X restore 1069 474 pd constrain-complex;
#X obj 1069 405 osc~;
#X obj 1206 405 osc~;
#N canvas 0 23 1280 751 4ch-reverb 0;
#X floatatom 557 281 0 0 120 0 - - -;
#X text 595 283 level \, dB;
#X floatatom 597 309 0 0 100 0 - - -;
#X text 639 304 liveness \, 0-100;
#X floatatom 636 338 4 0 5000 0 - - -;
#X floatatom 676 363 0 0 100 0 - - -;
#X text 684 336 crossover frequency \, Hz.;
#X text 712 365 HF damping \, percent;
#X text 690 404 4 channel reverb;
#X obj 482 448 outlet~;
#X obj 481 204 inlet~;
#X obj 481 254 *~;
#X obj 561 223 !/ 1;
#X obj 546 449 outlet~;
#X obj 610 449 outlet~;
#X obj 675 450 outlet~;
#X obj 561 195 sqrt;
#X obj 482 402 rev3~ 100 90 3000 20, f 28;
#X obj 561 168 r numVoices;
#X connect 0 0 17 2;
#X connect 2 0 17 3;
#X connect 4 0 17 4;
#X connect 5 0 17 5;
#X connect 10 0 11 0;
#X connect 11 0 17 0;
#X connect 12 0 11 1;
#X connect 16 0 12 0;
#X connect 17 0 9 0;
#X connect 17 1 13 0;
#X connect 17 2 14 0;
#X connect 17 3 15 0;
#X connect 18 0 16 0;
#X restore 630 552 pd 4ch-reverb;
#X obj 405 138 else/bl.saw~;
#X obj 1031 292 s phasingAmount;
#X msg 1163 252 0.01;
#X obj 288 334 pak f f;
#X obj 352 335 hsl 128 15 0 1 0 0 empty empty empty -2 -8 0 10 -262144
-1 -1 11021 1;
#X obj 1069 429 *~;
#X obj 1206 429 *~;
#X obj 423 362 s dxy;
#X obj 1125 406 r dxy;
#X obj 1125 430 unpack f f;
#X msg 288 362 all dist-xy \$1 \$2;
#X msg 1034 169 50;
#X obj 509 173 sigmund~ -npts 4096 -hop 2048 -npeak 50 peaks pitch
;
#X obj 486 602 throw~ speaker0;
#X obj 604 601 throw~ speaker1;
#X obj 719 601 throw~ speaker2;
#X obj 835 601 throw~ speaker3;
#X obj 630 527 *~ 0.25;
#X floatatom 204 312 5 0 1 0 - - -;
#X obj 204 336 s mainvol;
#X obj 248 313 tgl 15 0 empty empty empty 17 7 0 10 -262144 -1 -1 1
1;
#X obj 860 210 mtof;
#X floatatom 860 234 5 0 0 0 - - -;
#X obj 486 497 clone ssi4-voice 50, f 21;
#X obj 272 213 s octave;
#X floatatom 274 166 5 0 0 0 - - -;
#X obj 274 189 !/ 1;
#X msg 676 500 0.5;
#X floatatom 216 183 5 0 0 0 - - -;
#X connect 2 0 77 0;
#X connect 3 0 53 0;
#X connect 4 0 2 1;
#X connect 6 0 5 0;
#X connect 8 0 11 2;
#X connect 9 0 11 0;
#X connect 10 0 11 1;
#X connect 11 0 51 0;
#X connect 13 0 65 0;
#X connect 14 0 21 0;
#X connect 15 0 68 0;
#X connect 18 0 76 0;
#X connect 19 0 66 0;
#X connect 20 0 59 1;
#X connect 21 0 88 0;
#X connect 22 0 19 0;
#X connect 22 0 55 0;
#X connect 23 0 2 0;
#X connect 24 0 23 1;
#X connect 25 0 30 0;
#X connect 26 0 25 0;
#X connect 27 0 29 0;
#X connect 28 0 27 0;
#X connect 29 0 35 0;
#X connect 29 0 88 2;
#X connect 30 0 36 0;
#X connect 30 0 88 1;
#X connect 31 0 29 3;
#X connect 32 0 29 4;
#X connect 37 0 62 0;
#X connect 38 0 63 0;
#X connect 39 0 26 0;
#X connect 39 0 28 0;
#X connect 40 0 32 0;
#X connect 40 0 31 0;
#X connect 42 0 41 0;
#X connect 43 0 41 0;
#X connect 44 0 46 0;
#X connect 45 0 46 1;
#X connect 46 0 47 0;
#X connect 47 0 88 0;
#X connect 48 0 19 0;
#X connect 49 0 41 0;
#X connect 50 0 45 0;
#X connect 51 0 2 0;
#X connect 52 0 51 1;
#X connect 53 0 4 0;
#X connect 55 0 54 0;
#X connect 56 0 30 3;
#X connect 57 0 30 4;
#X connect 58 0 56 0;
#X connect 58 0 57 0;
#X connect 59 0 88 0;
#X connect 60 0 59 0;
#X connect 61 0 16 0;
#X connect 61 1 16 1;
#X connect 62 0 70 0;
#X connect 63 0 71 0;
#X connect 64 0 78 0;
#X connect 64 1 79 0;
#X connect 64 2 80 0;
#X connect 64 3 81 0;
#X connect 65 0 23 0;
#X connect 67 0 19 0;
#X connect 68 0 75 0;
#X connect 68 0 72 0;
#X connect 69 0 68 1;
#X connect 70 0 61 0;
#X connect 71 0 61 1;
#X connect 73 0 74 0;
#X connect 74 0 70 1;
#X connect 74 1 71 1;
#X connect 75 0 88 0;
#X connect 76 0 17 0;
#X connect 77 0 20 0;
#X connect 77 1 86 0;
#X connect 82 0 64 0;
#X connect 83 0 84 0;
#X connect 85 0 84 0;
#X connect 86 0 87 0;
#X connect 88 0 78 0;
#X connect 88 0 41 0;
#X connect 88 1 79 0;
#X connect 88 1 41 1;
#X connect 88 2 80 0;
#X connect 88 2 41 2;
#X connect 88 3 81 0;
#X connect 88 3 41 3;
#X connect 88 4 82 0;
#X connect 90 0 91 0;
#X connect 91 0 89 0;
#X connect 92 0 82 1;
#X connect 93 0 89 0;
