#N canvas 31 23 1567 826 10;
#X text 136 41 attack time \, decay time 1 \, decay destination value
\, decay time 2, f 69;
#X obj 34 42 unpack 0 0 0 0;
#X msg 72 197 0;
#X obj 34 161 pack 1 0;
#X obj 34 95 t b f b;
#X obj 33 298 line~;
#X obj 116 142 delay;
#X msg 113 11 10 5 0.5 10000;
#X obj 116 197 pack 0 0;
#X obj 116 173 float;
#X obj 247 250 delay;
#X obj 247 229 bng 15 250 50 0 empty empty empty 17 7 0 10 -262144
-1 -1;
#X obj 247 272 pack 0 0;
#X obj 34 10 inlet;
#X obj 33 321 outlet~;
#X text 210 10 example;
#X obj 163 173 bng 15 250 50 0 empty empty empty 17 7 0 10 -262144
-1 -1;
#X obj 313 272 bng 15 250 50 0 empty empty empty 17 7 0 10 -262144
-1 -1;
#X connect 1 0 4 0;
#X connect 1 1 8 1;
#X connect 1 1 10 1;
#X connect 1 2 9 1;
#X connect 1 3 12 1;
#X connect 3 0 5 0;
#X connect 4 0 3 0;
#X connect 4 0 6 0;
#X connect 4 1 3 1;
#X connect 4 1 6 1;
#X connect 4 2 2 0;
#X connect 5 0 14 0;
#X connect 6 0 9 0;
#X connect 6 0 16 0;
#X connect 8 0 5 0;
#X connect 8 0 11 0;
#X connect 9 0 8 0;
#X connect 10 0 12 0;
#X connect 10 0 17 0;
#X connect 11 0 10 0;
#X connect 12 0 5 0;
#X connect 13 0 1 0;
