#N canvas 42 173 1448 769 10;
#X obj 79 83 saw_ssi~;
#X obj 149 287 dac~ 1 2;
#X floatatom 79 36 5 0 0 0 - - -, f 5;
#X text 118 34 frequency in Hz;
#X obj 123 231 +~;
#X obj 182 167 bob~;
#X obj 164 79 noise~;
#X floatatom 273 127 5 0 0 0 - - -, f 5;
#X obj 223 22 osc~ 0.1;
#X obj 223 44 *~ 300;
#X obj 223 66 +~ 500;
#X obj 461 198 bob~;
#X obj 456 121 noise~;
#X floatatom 552 158 5 0 0 0 - - -, f 5;
#X obj 502 75 *~ 300;
#X obj 502 97 +~ 500;
#X obj 502 53 osc~ 0.15;
#X obj 172 211 *~ 0.1;
#X obj 243 258 *~ 0.1;
#X obj 367 103 saw_ssi~;
#X floatatom 367 56 5 0 0 0 - - -, f 5;
#X connect 0 0 5 0;
#X connect 2 0 0 0;
#X connect 4 0 1 0;
#X connect 4 0 1 1;
#X connect 5 0 17 0;
#X connect 7 0 5 2;
#X connect 8 0 9 0;
#X connect 9 0 10 0;
#X connect 10 0 5 1;
#X connect 11 0 18 0;
#X connect 13 0 11 2;
#X connect 14 0 15 0;
#X connect 15 0 11 1;
#X connect 16 0 14 0;
#X connect 17 0 1 0;
#X connect 18 0 1 1;
#X connect 19 0 11 0;
#X connect 20 0 19 0;
