#N canvas 291 173 1258 805 10;
#X obj 121 361 dac~ 1 2;
#X obj 92 305 +~;
#X obj 92 200 bob~;
#X floatatom 540 138 5 0 0 0 - - -, f 5;
#X obj 92 127 saw_ssi~;
#X floatatom 92 80 5 0 0 0 - - -, f 5;
#X obj 92 278 *~ 0.1;
#X obj 217 102 my_ramp~;
#X msg 217 68 2 500 0.5 1000;
#X obj 211 291 my_ramp~;
#X msg 211 257 2 500 0.5 1000;
#X obj 92 241 *~;
#X obj 92 5 key;
#X obj 92 49 mtof;
#X obj 156 29 bng 15 250 50 0 empty empty empty 17 7 0 10 -262144 -1
-1;
#X obj 92 27 + -24;
#X obj 217 146 +~ 20;
#X obj 217 124 *~ 500;
#X connect 1 0 0 0;
#X connect 1 0 0 1;
#X connect 2 0 11 0;
#X connect 3 0 2 2;
#X connect 4 0 2 0;
#X connect 5 0 4 0;
#X connect 6 0 1 0;
#X connect 7 0 17 0;
#X connect 8 0 7 0;
#X connect 9 0 11 1;
#X connect 10 0 9 0;
#X connect 11 0 6 0;
#X connect 12 0 14 0;
#X connect 12 0 15 0;
#X connect 13 0 5 0;
#X connect 14 0 8 0;
#X connect 14 0 10 0;
#X connect 15 0 13 0;
#X connect 16 0 2 1;
#X connect 17 0 16 0;
