#N canvas 0 23 1280 751 12;
#X msg 52 65 \; pd dsp \$1;
#X obj 52 41 tgl 15 0 empty empty empty 17 7 0 10 -262144 -1 -1 1 1
;
#X obj 675 568 - 100;
#X obj 676 592 vu 15 120 empty empty -1 -8 0 10 -66577 -1 1 0;
#X obj 675 544 env~;
#X obj 750 567 - 100;
#X obj 751 591 vu 15 120 empty empty -1 -8 0 10 -66577 -1 1 0;
#X obj 750 543 env~;
#X obj 556 561 dac~;
#X obj 1027 210 openpanel;
#X obj 1027 187 bng 15 250 50 0 empty empty empty 17 7 0 10 -262144
-1 -1;
#X obj 1027 266 soundfiler;
#N canvas 0 22 450 278 (subpatch) 0;
#X array buffer 529200 float 2;
#X coords 0 1 529200 -1 200 140 1;
#X restore 1026 309 graph;
#X msg 1027 234 read -resize \$1 buffer;
#X obj 404 231 hsl 128 15 0 127 0 0 empty empty empty -2 -8 0 10 -262144
-1 -1 6300 1;
#X obj 401 251 scale 0 127 -1 1;
#X obj 490 103 tabplay~ buffer;
#X obj 490 81 bng 15 250 50 0 empty empty empty 17 7 0 10 -262144 -1
-1;
#X obj 606 102 gate;
#X obj 606 81 tgl 15 0 empty empty empty 17 7 0 10 -262144 -1 -1 1
1;
#X msg 445 83 stop;
#X obj 290 322 selector~ 2;
#X obj 601 322 selector~ 2;
#X obj 290 297 + 1;
#X obj 290 263 tgl 15 0 empty empty empty 17 7 0 10 -262144 -1 -1 1
1;
#X obj 290 346 send~ ch1;
#X obj 601 346 send~ ch2;
#X obj 556 513 r~ ch1;
#X obj 612 511 r~ ch2;
#X obj 606 55 loadmess 1;
#X text 629 79 toggle looping;
#X text 482 57 play;
#X text 1049 185 load soundfile;
#X obj 594 284 ssi-pan2~, f 12;
#X obj 327 280 ssi-pan2, f 11;
#X text 25 216 toggle between panning modes (message or signal);
#X obj 401 208 loadmess 63;
#X obj 189 260 loadmess 1;
#X obj 675 256 cycle~ 0.1;
#X floatatom 675 229 5 0 0 0 - - -;
#X connect 1 0 0 0;
#X connect 2 0 3 0;
#X connect 4 0 2 0;
#X connect 5 0 6 0;
#X connect 7 0 5 0;
#X connect 9 0 13 0;
#X connect 10 0 9 0;
#X connect 13 0 11 0;
#X connect 14 0 15 0;
#X connect 15 0 34 1;
#X connect 16 0 33 0;
#X connect 16 0 34 0;
#X connect 16 1 18 1;
#X connect 17 0 16 0;
#X connect 18 0 17 0;
#X connect 19 0 18 0;
#X connect 20 0 16 0;
#X connect 21 0 25 0;
#X connect 22 0 26 0;
#X connect 23 0 21 0;
#X connect 23 0 22 0;
#X connect 24 0 23 0;
#X connect 27 0 8 0;
#X connect 27 0 4 0;
#X connect 28 0 8 1;
#X connect 28 0 7 0;
#X connect 29 0 19 0;
#X connect 33 0 21 2;
#X connect 33 1 22 2;
#X connect 34 0 21 1;
#X connect 34 1 22 1;
#X connect 36 0 14 0;
#X connect 37 0 24 0;
#X connect 38 0 33 1;
#X connect 39 0 38 0;
