#N canvas 0 23 1280 755 12;
#X msg 7 46 \; pd dsp \$1;
#X obj 7 21 tgl 15 0 empty empty empty 17 7 0 10 -262144 -1 -1 1 1
;
#X obj 514 634 hsl 128 15 0.01 4 1 0 empty empty empty -2 -8 0 10 -262144
-1 -1 9300 1;
#X obj 719 79 hsl 128 15 0 1 0 0 empty fb empty -2 -8 0 10 -262144
-1 -1 12065 1;
#N canvas 0 23 1280 751 out~ 0;
#X obj 483 425 *~;
#X msg 701 337 \$1 50;
#X obj 701 361 line~;
#X obj 568 423 *~;
#X obj 483 449 outlet~;
#X obj 568 447 outlet~;
#X obj 485 126 inlet~;
#X obj 570 127 inlet~;
#X obj 701 308 inlet;
#X obj 484 264 *~;
#X obj 569 265 *~;
#X obj 702 137 r numVoices;
#X obj 702 161 sqrt;
#X obj 702 185 !/ 1;
#X connect 0 0 4 0;
#X connect 1 0 2 0;
#X connect 2 0 3 1;
#X connect 2 0 0 1;
#X connect 3 0 5 0;
#X connect 6 0 9 0;
#X connect 7 0 10 0;
#X connect 8 0 1 0;
#X connect 9 0 0 0;
#X connect 10 0 3 0;
#X connect 11 0 12 0;
#X connect 12 0 13 0;
#X connect 13 0 10 1;
#X connect 13 0 9 1;
#X restore 458 656 pd out~;
#X f 8;
#X obj 458 682 dac~ 1 2;
#X text 749 57 feedback;
#X text 857 54 dampening freq;
#X obj 865 78 hsl 128 15 0 1 0 0 empty damp empty -2 -8 0 10 -262144
-1 -1 8225 1;
#X obj 527 85 !/ 1000;
#X obj 254 105 hsl 128 15 -1 1 0 1 empty pickup2 empty -2 -8 0 10 -262144
-1 -1 12700 1;
#X obj 208 86 hsl 128 15 -1 1 0 1 empty pickup1 empty -2 -8 0 10 -262144
-1 -1 0 1;
#X text 202 64 pickup positions left & right;
#X obj 693 682 else/vu~;
#X obj 694 554 vu 15 120 empty empty -1 -8 0 10 -66577 -1 1 0;
#X obj 762 681 else/vu~;
#X obj 763 554 vu 15 120 empty empty -1 -8 0 10 -66577 -1 1 0;
#X obj 6 92 loadbang;
#X obj 1047 70 s cleardelay;
#X obj 1047 49 bng 15 250 50 0 empty empty empty 17 7 0 10 -262144
-1 -1;
#X obj 205 130 pak f f;
#X msg 205 154 all pickup \$1 \$2;
#X obj 205 178 s snaar-voice;
#X obj 595 517 r snaar-voice;
#X msg 862 98 all damp \$1;
#X msg 716 99 all feedback \$1;
#X msg 209 338 devices;
#X msg 210 308 close;
#X floatatom 520 652 5 0 0 0 - - -;
#X msg 147 308 open 1;
#N canvas 0 23 1280 755 parse1 0;
#X obj 614 187 sel 255;
#X obj 660 251 i;
#X obj 696 251 + 1;
#X obj 582 161 t f f;
#X obj 660 212 t b;
#X msg 614 213 0;
#X obj 582 136 inlet;
#X obj 582 390 +;
#X obj 582 498 outlet;
#X obj 582 344 * 100;
#X obj 582 414 * 2;
#X obj 536 317 gate 2, f 7;
#X obj 582 466 / 50;
#X obj 582 442 - 12500;
#N canvas 0 23 1280 755 parse3 0;
#X obj 627 104 sel 255;
#X obj 673 168 i;
#X obj 709 168 + 1;
#X obj 595 78 t f f;
#X obj 673 129 t b;
#X msg 627 130 0;
#X obj 595 53 inlet;
#X obj 373 257 gate 6, f 32;
#X obj 417 330 +;
#X obj 505 330 +;
#X obj 594 330 +;
#X obj 400 557 outlet;
#X obj 400 531 pack f f f;
#X obj 594 279 * 100;
#X obj 505 283 * 100;
#X obj 417 284 * 100;
#X obj 417 354 * 2;
#X obj 505 357 * 2;
#X obj 594 357 * 2;
#X obj 417 406 / 10;
#X obj 505 405 / 10;
#X obj 594 405 / 10;
#X obj 417 382 - 2500;
#X obj 505 381 - 2500;
#X obj 594 381 - 2500;
#X obj 400 505 f;
#X obj 594 429 t b f;
#X connect 0 0 5 0;
#X connect 0 1 4 0;
#X connect 1 0 2 0;
#X connect 1 0 7 0;
#X connect 2 0 1 1;
#X connect 3 0 7 1;
#X connect 3 1 0 0;
#X connect 4 0 1 0;
#X connect 5 0 1 0;
#X connect 6 0 3 0;
#X connect 7 0 8 1;
#X connect 7 1 15 0;
#X connect 7 2 9 1;
#X connect 7 3 14 0;
#X connect 7 4 10 1;
#X connect 7 5 13 0;
#X connect 8 0 16 0;
#X connect 9 0 17 0;
#X connect 10 0 18 0;
#X connect 12 0 11 0;
#X connect 13 0 10 0;
#X connect 14 0 9 0;
#X connect 15 0 8 0;
#X connect 16 0 22 0;
#X connect 17 0 23 0;
#X connect 18 0 24 0;
#X connect 19 0 25 1;
#X connect 20 0 12 1;
#X connect 21 0 26 0;
#X connect 22 0 19 0;
#X connect 23 0 20 0;
#X connect 24 0 21 0;
#X connect 25 0 12 0;
#X connect 26 0 25 0;
#X connect 26 1 12 2;
#X restore 222 349 pd parse3;
#X connect 0 0 5 0;
#X connect 0 1 4 0;
#X connect 1 0 2 0;
#X connect 1 0 11 0;
#X connect 2 0 1 1;
#X connect 3 0 11 1;
#X connect 3 1 0 0;
#X connect 4 0 1 0;
#X connect 5 0 1 0;
#X connect 6 0 3 0;
#X connect 7 0 10 0;
#X connect 9 0 7 0;
#X connect 10 0 13 0;
#X connect 11 0 7 1;
#X connect 11 1 9 0;
#X connect 12 0 8 0;
#X connect 13 0 12 0;
#X restore 147 390 pd parse1;
#X floatatom 527 56 5 0 0 0 - f0 -;
#X text 572 53 base freq (Hz);
#X msg 280 339 baud 115200;
#X obj 147 366 comport 1 115200;
#X obj 280 315 loadbang;
#N canvas 0 23 1280 755 mpu_to_sig 0;
#X obj 483 245 sig~;
#X floatatom 529 343 5 0 0 0 - - -;
#X floatatom 550 370 5 0 0 0 - - -;
#X obj 676 231 max;
#X obj 721 230 f;
#X msg 692 209 0;
#X floatatom 676 255 5 0 0 0 - - -;
#X obj 483 273 clip~ 0 1;
#X obj 483 211 / 250;
#X obj 483 454 outlet~;
#X obj 483 175 inlet;
#X obj 611 423 *~ 0.05;
#X obj 611 447 +~ 0.95;
#X obj 611 399 noise~;
#X obj 483 395 slide~ 7 7;
#X obj 483 368 hip~ 20;
#X obj 483 419 *~;
#X connect 0 0 7 0;
#X connect 1 0 15 1;
#X connect 2 0 14 2;
#X connect 2 0 14 1;
#X connect 3 0 4 0;
#X connect 3 0 6 0;
#X connect 4 0 3 1;
#X connect 5 0 3 1;
#X connect 7 0 15 0;
#X connect 8 0 0 0;
#X connect 8 0 3 0;
#X connect 10 0 8 0;
#X connect 11 0 12 0;
#X connect 12 0 16 1;
#X connect 13 0 11 0;
#X connect 14 0 16 0;
#X connect 15 0 14 0;
#X connect 16 0 9 0;
#X restore 147 419 pd mpu_to_sig;
#X obj 147 443 *~;
#X obj 181 445 hsl 100 15 0.01 1 1 0 empty empty empty -2 -8 0 10 -262144
-1 -1 7900 1;
#X floatatom 549 436 5 0 0 0 - - -;
#X obj 549 461 osc~;
#X obj 716 123 s snaar-voice;
#X msg 527 133 all delay \$1;
#X obj 527 157 s snaar-voice;
#X obj 662 381 clip~ 0 1;
#X obj 1037 383 scope~ 130 130 256 3 128 0 1 0 0 0 0 205 229 232 74
79 77 96 98 102 0;
#X obj 662 413 delwrite~ interact-fb 250;
#X obj 822 305 delread~ interact-fb;
#X msg 6 118 \; pickup1 -1 \; pickup2 1 \; f0 60 \; fb 0.95 \; damp
0.75 \; numVoices 10 \;;
#X obj 502 405 loadmess 0.1;
#N canvas 0 23 1280 755 mod-f0 0;
#X obj 874 331 random 1000;
#X obj 682 127 inlet~;
#X obj 686 324 random 1000;
#X obj 697 418 s f0;
#X obj 682 171 threshold~ 0.8 1000 0.15 1000;
#X obj 682 195 i;
#X obj 725 196 + 1;
#X obj 682 219 % 3;
#X obj 682 243 == 0;
#X obj 682 267 sel 0 1;
#X obj 686 348 scale 0 1000 50 100;
#X obj 874 355 scale 0 1000 100 500 0.8;
#X obj 894 263 bng 15 250 50 0 empty empty empty 17 7 0 10 -262144
-1 -1;
#X connect 0 0 11 0;
#X connect 1 0 4 0;
#X connect 2 0 10 0;
#X connect 4 0 5 0;
#X connect 5 0 6 0;
#X connect 5 0 7 0;
#X connect 6 0 5 1;
#X connect 7 0 8 0;
#X connect 8 0 9 0;
#X connect 9 0 2 0;
#X connect 9 1 0 0;
#X connect 10 0 3 0;
#X connect 11 0 3 0;
#X connect 12 0 0 0;
#X restore 847 412 pd mod-f0;
#X obj 258 641 writesf~ 2;
#X msg 119 576 open /Users/olafwisselink/Desktop/snaar1.wav, f 22
;
#X msg 310 588 start;
#X msg 364 596 stop;
#X obj 157 648 adc~;
#X obj 157 672 *~;
#X obj 213 680 tgl 15 0 empty empty empty 17 7 0 10 -262144 -1 -1 0
1;
#X obj 335 550 *~ 0.5;
#X obj 390 549 *~ 0.5;
#X msg 936 355 clear;
#X obj 822 281 loadmess 50;
#X obj 662 341 slide~ 400 400;
#X obj 822 354 *~ 0.995;
#X obj 822 329 slide~ 100 400;
#X obj 458 556 clone snaar-voice 10;
#X connect 1 0 0 0;
#X connect 2 0 4 2;
#X connect 2 0 28 0;
#X connect 3 0 25 0;
#X connect 4 0 13 0;
#X connect 4 0 5 0;
#X connect 4 0 58 0;
#X connect 4 1 15 0;
#X connect 4 1 5 1;
#X connect 4 1 59 0;
#X connect 8 0 24 0;
#X connect 9 0 42 0;
#X connect 10 0 20 1;
#X connect 11 0 20 0;
#X connect 13 0 14 0;
#X connect 15 0 16 0;
#X connect 17 0 48 0;
#X connect 19 0 18 0;
#X connect 20 0 21 0;
#X connect 21 0 22 0;
#X connect 23 0 65 3;
#X connect 24 0 41 0;
#X connect 25 0 41 0;
#X connect 26 0 34 0;
#X connect 27 0 34 0;
#X connect 29 0 34 0;
#X connect 30 0 36 0;
#X connect 31 0 9 0;
#X connect 33 0 34 0;
#X connect 34 0 30 0;
#X connect 35 0 33 0;
#X connect 36 0 37 0;
#X connect 36 0 62 0;
#X connect 37 0 65 0;
#X connect 38 0 37 1;
#X connect 39 0 40 0;
#X connect 40 0 65 2;
#X connect 42 0 43 0;
#X connect 44 0 45 0;
#X connect 44 0 46 0;
#X connect 44 0 50 0;
#X connect 44 0 65 1;
#X connect 47 0 64 0;
#X connect 49 0 39 0;
#X connect 52 0 51 0;
#X connect 53 0 51 0;
#X connect 54 0 51 0;
#X connect 55 0 56 0;
#X connect 56 0 51 0;
#X connect 56 0 51 1;
#X connect 57 0 56 1;
#X connect 58 0 51 0;
#X connect 59 0 51 1;
#X connect 60 0 46 0;
#X connect 61 0 47 0;
#X connect 62 0 44 0;
#X connect 63 0 44 0;
#X connect 64 0 63 0;
#X connect 65 0 4 0;
#X connect 65 1 4 1;
