#N struct 1023-point float x0 float y0 float xs float ys float fg float
in float gridx float gridy;
#N canvas 0 23 1335 775 12;
#X floatatom 474 262 5 0 0 0 - - -;
#X floatatom 530 261 5 0 0 0 - - -;
#X text 459 260 X;
#X text 516 260 Y;
#X obj 474 33 else/initmess set 0 0;
#X obj 474 294 else/f2s~ 10;
#X obj 474 208 unpack;
#X obj 530 317 else/f2s~ 10;
#X obj 474 61 else/slider2d 127 127 -1 1 -1 1 0 210 210 210 0 0 0 1
0 0 0 0 empty empty;
#X text 464 58 0;
#X text 602 56 1;
#X text 601 185 2;
#X text 463 182 3;
#X obj 107 128 pink~;
#X floatatom 559 208 5 0 0 0 - - -;
#X obj 316 204 tgl 15 0 empty empty empty 17 7 0 10 -262144 -1 -1 0
1;
#X obj 128 419 else/vu~;
#X obj 129 482 vu 15 120 empty empty -1 -8 0 10 -66577 -1 1 0;
#X obj 193 419 else/vu~;
#X obj 194 482 vu 15 120 empty empty -1 -8 0 10 -66577 -1 1 0;
#X obj 258 419 else/vu~;
#X obj 259 482 vu 15 120 empty empty -1 -8 0 10 -66577 -1 1 0;
#X obj 322 419 else/vu~;
#X obj 323 482 vu 15 120 empty empty -1 -8 0 10 -66577 -1 1 0;
#X obj 474 235 * 1;
#X obj 530 235 * 1;
#X obj 106 359 pan4_with_center_and_distance~;
#X obj 106 656 throw~ speaker0;
#X obj 222 656 throw~ speaker1;
#X obj 337 656 throw~ speaker2;
#X obj 453 656 throw~ speaker3;
#X floatatom 798 306 0 0 120 0 - - -;
#X text 836 308 level \, dB;
#X floatatom 838 334 0 0 100 0 - - -;
#X text 880 329 liveness \, 0-100;
#X floatatom 877 363 4 0 5000 0 - - -;
#X floatatom 917 388 0 0 100 0 - - -;
#X text 925 361 crossover frequency \, Hz.;
#X text 953 390 HF damping \, percent;
#X obj 720 457 rev3~ 100 90 3000 20;
#X text 951 459 4 channel reverb;
#X obj 720 421 *~ 0.2;
#X obj 123 311 throw~ to_reverb;
#X obj 107 152 *~ 0.1;
#X obj 720 379 catch~ to_reverb;
#X obj 720 657 throw~ speaker0;
#X obj 836 657 throw~ speaker1;
#X obj 951 657 throw~ speaker2;
#X obj 1067 657 throw~ speaker3;
#X connect 0 0 5 0;
#X connect 1 0 7 0;
#X connect 4 0 8 0;
#X connect 5 0 26 1;
#X connect 6 0 24 0;
#X connect 6 1 25 0;
#X connect 7 0 26 2;
#X connect 8 0 6 0;
#X connect 13 0 43 0;
#X connect 14 0 24 1;
#X connect 14 0 25 1;
#X connect 15 0 26 3;
#X connect 16 0 17 0;
#X connect 16 1 17 1;
#X connect 18 0 19 0;
#X connect 18 1 19 1;
#X connect 20 0 21 0;
#X connect 20 1 21 1;
#X connect 22 0 23 0;
#X connect 22 1 23 1;
#X connect 24 0 0 0;
#X connect 25 0 1 0;
#X connect 26 0 16 0;
#X connect 26 0 27 0;
#X connect 26 1 18 0;
#X connect 26 1 28 0;
#X connect 26 2 20 0;
#X connect 26 2 29 0;
#X connect 26 3 22 0;
#X connect 26 3 30 0;
#X connect 31 0 39 2;
#X connect 33 0 39 3;
#X connect 35 0 39 4;
#X connect 36 0 39 5;
#X connect 39 0 45 0;
#X connect 39 1 46 0;
#X connect 39 2 47 0;
#X connect 39 3 48 0;
#X connect 41 0 39 0;
#X connect 43 0 26 0;
#X connect 43 0 42 0;
#X connect 44 0 41 0;
#X coords 0 0 1 1 85 60 0;
