#N struct 1017-point float x0 float y0 float xs float ys float fg float
in float gridx float gridy;
#N canvas 293 23 1265 947 12;
#X obj 31 16 else/slider2d 127 127 -1 1 -1 1 0 210 210 210 0 0 0 1
0 0 77 47 empty empty;
#X obj 31 159 unpack 0 0;
#X floatatom 30 187 8 0 0 0 - - -;
#X floatatom 98 187 8 0 0 0 - - -;
#X obj 541 40 !- 1;
#X obj 587 40 !- 1;
#X obj 541 100 *;
#X obj 587 100 *;
#X obj 541 131 +;
#X floatatom 541 155 5 0 0 0 - - -;
#X obj 541 178 sqrt;
#X floatatom 540 226 5 0 0 0 - - -;
#X obj 541 202 * 0.5;
#X floatatom 663 73 8 0 0 0 - - -;
#X floatatom 467 73 8 0 0 0 - - -;
#X obj 541 64 t f f;
#X obj 588 65 t f f;
#X obj 540 249 !- 1;
#X obj 540 273 clip 0 1;
#X obj 540 297 sqrt;
#X floatatom 540 321 5 0 0 0 - - -;
#X obj 539 375 !- 1;
#X obj 539 435 *;
#X obj 585 435 *;
#X obj 539 466 +;
#X floatatom 539 490 5 0 0 0 - - -;
#X obj 539 513 sqrt;
#X floatatom 538 561 5 0 0 0 - - -;
#X obj 539 537 * 0.5;
#X floatatom 661 408 8 0 0 0 - - -;
#X floatatom 465 408 8 0 0 0 - - -;
#X obj 539 399 t f f;
#X obj 586 400 t f f;
#X obj 538 584 !- 1;
#X obj 538 608 clip 0 1;
#X obj 538 632 sqrt;
#X floatatom 538 656 5 0 0 0 - - -;
#X obj 585 375 !- -1;
#X obj 313 40 !- 1;
#X obj 267 100 *;
#X obj 313 100 *;
#X obj 267 131 +;
#X floatatom 267 155 5 0 0 0 - - -;
#X obj 267 178 sqrt;
#X floatatom 266 226 5 0 0 0 - - -;
#X obj 267 202 * 0.5;
#X floatatom 389 73 8 0 0 0 - - -;
#X floatatom 193 73 8 0 0 0 - - -;
#X obj 267 64 t f f;
#X obj 314 65 t f f;
#X obj 266 249 !- 1;
#X obj 266 273 clip 0 1;
#X obj 266 297 sqrt;
#X floatatom 266 321 5 0 0 0 - - -;
#X obj 265 435 *;
#X obj 311 435 *;
#X obj 265 466 +;
#X floatatom 265 490 5 0 0 0 - - -;
#X obj 265 513 sqrt;
#X floatatom 264 561 5 0 0 0 - - -;
#X obj 265 537 * 0.5;
#X floatatom 387 408 8 0 0 0 - - -;
#X floatatom 191 408 8 0 0 0 - - -;
#X obj 265 399 t f f;
#X obj 312 400 t f f;
#X obj 264 584 !- 1;
#X obj 264 608 clip 0 1;
#X obj 264 632 sqrt;
#X floatatom 264 656 5 0 0 0 - - -;
#X obj 311 375 !- -1;
#X obj 267 40 !- -1;
#X obj 265 375 !- -1;
#X obj 155 351 *;
#X obj 425 347 *;
#X obj 203 695 *;
#X obj 470 694 *;
#X obj 155 383 +;
#X obj 185 722 +;
#X obj 104 663 +;
#X floatatom 104 687 5 0 0 0 - - -;
#X obj 833 92 *~ 0.125;
#X obj 833 156 cos~;
#X obj 833 63 +~ 1;
#X obj 876 128 -~ 0.25;
#X obj 876 156 cos~;
#X obj 832 25 sig~;
#X obj 828 409 *~ 0.125;
#X obj 828 473 cos~;
#X obj 828 380 +~ 1;
#X obj 871 445 -~ 0.25;
#X obj 871 473 cos~;
#X obj 827 342 sig~;
#X obj 842 181 *~;
#X obj 885 181 *~;
#X obj 832 262 *~;
#X obj 875 262 *~;
#X obj 905 216 number~;
#X obj 971 239 number~;
#X obj 914 301 number~;
#X obj 980 324 number~;
#X obj 884 634 cyclone/greaterthan~ 1;
#X floatatom 736 545 5 0 0 0 - - -;
#X obj 736 574 sig~;
#X obj 866 668 *~;
#X obj 737 722 /~;
#X obj 866 695 +~;
#X obj 915 667 cyclone/rminus~ 1;
#X obj 866 607 abs~;
#X obj 739 896 number~;
#X floatatom 798 545 5 0 0 0 - - -;
#X obj 798 574 sig~;
#X obj 799 722 /~;
#X obj 801 922 number~;
#X obj 886 778 cyclone/greaterthan~ 1;
#X obj 868 812 *~;
#X obj 739 866 /~;
#X obj 868 839 +~;
#X obj 917 811 cyclone/rminus~ 1;
#X obj 868 751 abs~;
#X obj 801 866 /~;
#X connect 0 0 1 0;
#X connect 1 0 2 0;
#X connect 1 1 3 0;
#X connect 2 0 4 0;
#X connect 2 0 70 0;
#X connect 2 0 21 0;
#X connect 2 0 71 0;
#X connect 2 0 85 0;
#X connect 3 0 5 0;
#X connect 3 0 38 0;
#X connect 3 0 37 0;
#X connect 3 0 69 0;
#X connect 3 0 91 0;
#X connect 4 0 14 0;
#X connect 4 0 15 0;
#X connect 5 0 13 0;
#X connect 5 0 16 0;
#X connect 6 0 8 0;
#X connect 7 0 8 1;
#X connect 8 0 9 0;
#X connect 9 0 10 0;
#X connect 10 0 12 0;
#X connect 11 0 17 0;
#X connect 12 0 11 0;
#X connect 15 0 6 0;
#X connect 15 1 6 1;
#X connect 16 0 7 0;
#X connect 16 1 7 1;
#X connect 17 0 18 0;
#X connect 18 0 19 0;
#X connect 19 0 20 0;
#X connect 20 0 73 1;
#X connect 20 0 73 0;
#X connect 21 0 30 0;
#X connect 21 0 31 0;
#X connect 22 0 24 0;
#X connect 23 0 24 1;
#X connect 24 0 25 0;
#X connect 25 0 26 0;
#X connect 26 0 28 0;
#X connect 27 0 33 0;
#X connect 28 0 27 0;
#X connect 31 0 22 0;
#X connect 31 1 22 1;
#X connect 32 0 23 0;
#X connect 32 1 23 1;
#X connect 33 0 34 0;
#X connect 34 0 35 0;
#X connect 35 0 36 0;
#X connect 36 0 75 1;
#X connect 36 0 75 0;
#X connect 37 0 29 0;
#X connect 37 0 32 0;
#X connect 38 0 46 0;
#X connect 38 0 49 0;
#X connect 39 0 41 0;
#X connect 40 0 41 1;
#X connect 41 0 42 0;
#X connect 42 0 43 0;
#X connect 43 0 45 0;
#X connect 44 0 50 0;
#X connect 45 0 44 0;
#X connect 48 0 39 0;
#X connect 48 1 39 1;
#X connect 49 0 40 0;
#X connect 49 1 40 1;
#X connect 50 0 51 0;
#X connect 51 0 52 0;
#X connect 52 0 53 0;
#X connect 53 0 72 1;
#X connect 53 0 72 0;
#X connect 54 0 56 0;
#X connect 55 0 56 1;
#X connect 56 0 57 0;
#X connect 57 0 58 0;
#X connect 58 0 60 0;
#X connect 59 0 65 0;
#X connect 60 0 59 0;
#X connect 63 0 54 0;
#X connect 63 1 54 1;
#X connect 64 0 55 0;
#X connect 64 1 55 1;
#X connect 65 0 66 0;
#X connect 66 0 67 0;
#X connect 67 0 68 0;
#X connect 68 0 74 1;
#X connect 68 0 74 0;
#X connect 69 0 61 0;
#X connect 69 0 64 0;
#X connect 70 0 47 0;
#X connect 70 0 48 0;
#X connect 71 0 62 0;
#X connect 71 0 63 0;
#X connect 72 0 76 0;
#X connect 73 0 76 1;
#X connect 74 0 77 0;
#X connect 75 0 77 1;
#X connect 76 0 78 1;
#X connect 77 0 78 0;
#X connect 78 0 79 0;
#X connect 80 0 81 0;
#X connect 80 0 83 0;
#X connect 81 0 92 0;
#X connect 81 0 94 0;
#X connect 82 0 80 0;
#X connect 83 0 84 0;
#X connect 84 0 93 0;
#X connect 84 0 95 0;
#X connect 85 0 82 0;
#X connect 86 0 87 0;
#X connect 86 0 89 0;
#X connect 87 0 94 1;
#X connect 87 0 95 1;
#X connect 88 0 86 0;
#X connect 89 0 90 0;
#X connect 90 0 92 1;
#X connect 90 0 93 1;
#X connect 91 0 88 0;
#X connect 92 0 96 0;
#X connect 93 0 97 0;
#X connect 94 0 98 0;
#X connect 95 0 99 0;
#X connect 100 0 106 0;
#X connect 100 0 103 1;
#X connect 101 0 102 0;
#X connect 102 0 104 0;
#X connect 102 0 107 0;
#X connect 103 0 105 0;
#X connect 104 0 115 0;
#X connect 105 0 104 1;
#X connect 105 0 111 1;
#X connect 106 0 105 1;
#X connect 107 0 100 0;
#X connect 107 0 103 0;
#X connect 109 0 110 0;
#X connect 110 0 111 0;
#X connect 111 0 118 0;
#X connect 111 0 119 0;
#X connect 113 0 117 0;
#X connect 113 0 114 1;
#X connect 114 0 116 0;
#X connect 115 0 108 0;
#X connect 116 0 115 1;
#X connect 116 0 119 1;
#X connect 117 0 116 1;
#X connect 118 0 113 0;
#X connect 118 0 114 0;
#X connect 119 0 112 0;
