#N struct 1056-point float x0 float y0 float xs float ys float fg float
in float gridx float gridy;
#N canvas 30 23 1106 827 12;
#X floatatom 152 278 5 0 0 0 - - -;
#X floatatom 208 277 5 0 0 0 - - -;
#X text 137 276 X;
#X text 194 276 Y;
#X obj 152 49 else/initmess set 0 0;
#X obj 152 310 else/f2s~ 10;
#X obj 152 224 unpack;
#X obj 208 333 else/f2s~ 10;
#X obj 152 77 else/slider2d 127 127 -1 1 -1 1 0 210 210 210 0 0 0 1
0 0 68 127 empty empty;
#X text 142 74 0;
#X text 280 72 1;
#X text 279 201 2;
#X text 141 198 3;
#X floatatom 237 224 5 0 0 0 - - -;
#X obj 252 378 tgl 15 0 empty empty empty 17 7 0 10 -262144 -1 -1 0
1;
#X obj 67 482 else/vu~;
#X obj 68 545 vu 15 120 empty empty -1 -8 0 10 -66577 -1 1 0;
#X obj 132 482 else/vu~;
#X obj 133 545 vu 15 120 empty empty -1 -8 0 10 -66577 -1 1 0;
#X obj 197 482 else/vu~;
#X obj 198 545 vu 15 120 empty empty -1 -8 0 10 -66577 -1 1 0;
#X obj 261 482 else/vu~;
#X obj 262 545 vu 15 120 empty empty -1 -8 0 10 -66577 -1 1 0;
#X obj 45 422 pan4_with_center_and_distance~;
#X obj 45 719 throw~ speaker0;
#X obj 161 719 throw~ speaker1;
#X obj 276 719 throw~ speaker2;
#X obj 392 719 throw~ speaker3;
#X text 687 687 4 channel reverb;
#X obj 67 379 throw~ to_reverb;
#X obj 565 652 catch~ to_reverb;
#X obj 565 719 throw~ speaker0;
#X obj 681 719 throw~ speaker1;
#X obj 796 719 throw~ speaker2;
#X obj 912 719 throw~ speaker3;
#X obj 565 687 our_4ch_reverb~;
#X text 272 377 0 = pythagorian distance for loudness scaling;
#X obj 45 74 *~ 0.5;
#X text 269 272 x and y between -1 and 1 is 'inside' the space defined
by the speakers \, otherwise 'outside' the space defined by the speakers.
;
#X obj 152 251 * 10;
#X obj 208 251 * 10;
#X obj 45 50 phasor~ 2;
#X text 46 751 use in combination with the '4ch_output_section.pd'
patch;
#X connect 0 0 5 0;
#X connect 1 0 7 0;
#X connect 4 0 8 0;
#X connect 5 0 23 1;
#X connect 6 0 39 0;
#X connect 6 1 40 0;
#X connect 7 0 23 2;
#X connect 8 0 6 0;
#X connect 13 0 39 1;
#X connect 13 0 40 1;
#X connect 14 0 23 3;
#X connect 15 0 16 0;
#X connect 17 0 18 0;
#X connect 19 0 20 0;
#X connect 21 0 22 0;
#X connect 23 0 15 0;
#X connect 23 0 24 0;
#X connect 23 1 17 0;
#X connect 23 1 25 0;
#X connect 23 2 19 0;
#X connect 23 2 26 0;
#X connect 23 3 21 0;
#X connect 23 3 27 0;
#X connect 30 0 35 0;
#X connect 35 0 31 0;
#X connect 35 1 32 0;
#X connect 35 2 33 0;
#X connect 35 3 34 0;
#X connect 37 0 29 0;
#X connect 37 0 23 0;
#X connect 39 0 0 0;
#X connect 40 0 1 0;
#X connect 41 0 37 0;
#X coords 0 0 1 1 85 60 0;
