#N canvas 0 23 842 514 16;
#X obj 202 361 *~ 4;
#X floatatom 445 278 0 0 120 0 - - -;
#X text 485 280 level \, dB;
#X floatatom 478 307 0 0 100 0 - - -;
#X text 520 302 liveness \, 0-100;
#X floatatom 514 326 4 0 5000 0 - - -;
#X floatatom 549 349 0 0 100 0 - - -;
#X text 562 324 crossover frequency \, Hz.;
#X text 585 351 HF damping \, percent;
#X obj 374 375 rev3~ 100 90 3000 20;
#X obj 491 178 *~ 0.5;
#X obj 491 79 -~ 0.5;
#X obj 75 313 *~ 0.2;
#X floatatom 64 221 5 0 0 0 - - -;
#X obj 202 332 phasor~ 0.5;
#X obj 491 49 phasor~ 0;
#X obj 68 430 dac~ 3 4 5 6;
#X obj 70 469 dac~ 1 2 2 1;
#X obj 377 425 dac~ 3 4 5 6;
#X obj 379 461 dac~ 1 2 2 1;
#X text 569 78 audio signal;
#X text 50 177 loudness of the direct signal;
#X text 201 272 position control 0..4;
#X obj 490 125 *~ 1;
#X floatatom 588 132 5 0 0 0 - - -;
#X obj 70 391 our_pan4~;
#X connect 0 0 25 1;
#X connect 1 0 9 2;
#X connect 3 0 9 3;
#X connect 5 0 9 4;
#X connect 6 0 9 5;
#X connect 9 0 18 0;
#X connect 9 1 18 1;
#X connect 9 2 18 2;
#X connect 9 3 18 3;
#X connect 10 0 9 0;
#X connect 11 0 23 0;
#X connect 12 0 25 0;
#X connect 13 0 12 1;
#X connect 14 0 0 0;
#X connect 15 0 11 0;
#X connect 23 0 10 0;
#X connect 23 0 12 0;
#X connect 24 0 23 1;
#X connect 25 0 16 0;
#X connect 25 1 16 1;
#X connect 25 2 16 2;
#X connect 25 3 16 3;
