#N canvas 11 23 1560 855 16;
#X obj 192 262 *~ 4;
#X obj 52 265 *~ 0.2;
#X floatatom 110 236 5 0 0 0 - - -;
#X obj 45 334 dac~ 3 4 5 6;
#X obj 47 373 dac~ 1 2 2 1;
#X text 178 73 audio signal;
#X text 63 204 loudness of the direct signal;
#X text 192 293 position control 0..4;
#X obj 52 77 *~ 1;
#X floatatom 119 76 5 0 0 0 - - -;
#X floatatom 52 13 5 0 0 0 - - -;
#X obj 51 43 else/bl.saw~;
#X floatatom 510 182 0 0 120 0 - - -;
#X text 550 184 level \, dB;
#X floatatom 543 211 0 0 100 0 - - -;
#X text 585 206 liveness \, 0-100;
#X floatatom 579 230 4 0 5000 0 - - -;
#X floatatom 614 253 0 0 100 0 - - -;
#X text 627 228 crossover frequency \, Hz.;
#X text 650 255 HF damping \, percent;
#X obj 439 279 rev3~ 100 90 3000 20;
#X obj 442 329 dac~ 3 4 5 6;
#X obj 444 365 dac~ 1 2 2 1;
#X obj 370 68 readsf~ 1;
#X obj 460 103 bng 15 250 50 0 empty empty empty 17 7 0 10 -262144
-1 -1;
#X msg 439 32 open cherokee.aif;
#X obj 324 39 tgl 15 0 empty empty empty 17 7 0 10 -262144 -1 -1 0
1;
#X obj 368 3 bng 15 250 50 0 empty empty empty 17 7 0 10 -262144 -1
-1;
#X obj 368 21 t b b;
#X msg 322 8 1;
#X obj 1080 286 *~ 4;
#X obj 940 289 *~ 0.2;
#X floatatom 998 260 5 0 0 0 - - -;
#X obj 933 358 dac~ 3 4 5 6;
#X obj 935 397 dac~ 1 2 2 1;
#X text 1066 97 audio signal;
#X text 951 228 loudness of the direct signal;
#X text 1080 317 position control 0..4;
#X obj 940 101 *~ 1;
#X floatatom 1007 100 5 0 0 0 - - -;
#X obj 1258 92 readsf~ 1;
#X obj 1348 127 bng 15 250 50 0 empty empty empty 17 7 0 10 -262144
-1 -1;
#X obj 1212 63 tgl 15 0 empty empty empty 17 7 0 10 -262144 -1 -1 0
1;
#X obj 1256 27 bng 15 250 50 0 empty empty empty 17 7 0 10 -262144
-1 -1;
#X obj 1256 45 t b b;
#X msg 1210 32 1;
#X msg 1327 56 open anton.aif;
#X obj 192 233 phasor~ 0.4;
#X obj 1080 257 phasor~ 1;
#X obj 47 294 our_pan4~, f 12;
#X obj 935 319 our_pan4~, f 12;
#X connect 0 0 49 1;
#X connect 1 0 49 0;
#X connect 2 0 1 1;
#X connect 8 0 1 0;
#X connect 8 0 20 0;
#X connect 9 0 8 1;
#X connect 10 0 11 0;
#X connect 12 0 20 2;
#X connect 14 0 20 3;
#X connect 16 0 20 4;
#X connect 17 0 20 5;
#X connect 20 0 21 0;
#X connect 20 1 21 1;
#X connect 20 2 21 2;
#X connect 20 3 21 3;
#X connect 23 0 8 0;
#X connect 23 1 24 0;
#X connect 24 0 27 0;
#X connect 25 0 23 0;
#X connect 26 0 23 0;
#X connect 27 0 28 0;
#X connect 28 0 29 0;
#X connect 28 1 25 0;
#X connect 29 0 26 0;
#X connect 30 0 50 1;
#X connect 31 0 50 0;
#X connect 32 0 31 1;
#X connect 38 0 31 0;
#X connect 39 0 38 1;
#X connect 40 0 38 0;
#X connect 40 0 20 0;
#X connect 40 1 41 0;
#X connect 41 0 43 0;
#X connect 42 0 40 0;
#X connect 43 0 44 0;
#X connect 44 0 45 0;
#X connect 44 1 46 0;
#X connect 45 0 42 0;
#X connect 46 0 40 0;
#X connect 47 0 0 0;
#X connect 48 0 30 0;
#X connect 49 0 3 0;
#X connect 49 1 3 1;
#X connect 49 2 3 2;
#X connect 49 3 3 3;
#X connect 50 0 33 0;
#X connect 50 1 33 1;
#X connect 50 2 33 2;
#X connect 50 3 33 3;
