#N canvas 0 23 1651 932 16;
#X floatatom 814 481 0 0 120 0 - - -;
#X text 852 483 level \, dB;
#X floatatom 854 509 0 0 100 0 - - -;
#X text 896 504 liveness \, 0-100;
#X floatatom 893 538 4 0 5000 0 - - -;
#X floatatom 933 563 0 0 100 0 - - -;
#X text 941 536 crossover frequency \, Hz.;
#X text 969 565 HF damping \, percent;
#X obj 736 632 rev3~ 100 90 3000 20;
#X floatatom 192 482 5 0 0 0 - - -;
#X text 184 454 loudness of the direct signal;
#X text 329 557 position control 0..4;
#X floatatom 162 130 5 0 0 0 - - -;
#X obj 253 310 / 90;
#X floatatom 253 378 8 0 0 0 - - -;
#X obj 252 562 sig~;
#X obj 135 562 /~;
#X obj 253 277 * -1;
#X obj 253 346 + 1.5;
#X text 310 310 0..360 -> 0..4;
#X floatatom 253 239 5 0 0 0 - - -;
#X text 313 238 angle in degrees;
#X floatatom 798 97 8 0 0 0 - - -;
#X floatatom 1026 97 8 0 0 0 - - -;
#X text 807 69 x;
#X text 1036 69 y, f 2;
#X obj 798 183 atan2;
#X obj 798 136 t b f;
#X floatatom 798 222 7 0 0 0 - - -;
#X obj 798 258 / 6.28319;
#X obj 798 293 * 360;
#X floatatom 798 331 7 0 0 0 - - -;
#X text 804 364 angle in degrees;
#X obj 1026 177 *;
#X obj 1099 176 *;
#X obj 1026 257 +;
#X obj 1099 215 t b f;
#X floatatom 1026 292 5 0 0 0 - - -;
#X obj 1026 329 sqrt;
#X floatatom 1026 363 7 0 0 0 - - -;
#X text 1103 364 distance;
#X obj 1099 136 t f f;
#X obj 1026 136 t f f;
#X text 860 183 atan2(y/x);
#X obj 798 402 s \$0-angle;
#X obj 1026 402 s \$0-distance;
#X obj 162 102 r \$0-distance;
#X obj 253 209 r \$0-angle;
#X text 270 603 spatialization of the direct signal;
#X text 130 33 audio signal to be spatialized;
#X text 967 634 4 channel reverb;
#X obj 60 35 inlet~;
#X obj 798 32 inlet;
#X obj 1026 32 inlet;
#X obj 1236 95 cnv 15 404 370 empty empty empty 20 12 0 14 -233017
-66577 0;
#X text 1261 120 speaker 0;
#X text 1511 122 speaker 1;
#X text 1511 385 speaker 2;
#X text 1262 385 speaker 3;
#X text 1567 260 x=1;
#X text 1419 260 0 \, 0;
#X text 1266 260 x=-1;
#X text 1277 143 dac~ 3;
#X text 1530 143 dac~ 4;
#X text 1532 408 dac~ 5;
#X text 1280 408 dac~ 6;
#X text 1419 122 y=1;
#X text 1419 385 y=-1;
#X obj 497 32 inlet;
#X obj 634 32 inlet;
#X obj 497 96 s \$0-angle;
#X obj 634 97 s \$0-distance;
#X text 1243 53 space:;
#X obj 135 605 our_pan4~, f 12;
#X obj 135 522 *~ 0.2;
#X obj 736 596 *~ 0.2;
#X text 494 135 0..360 deg.;
#X text 137 825 use in combination with the '4ch_output_section.pd'
patch;
#X obj 162 160 clip~ 0.2 1e+12;
#X obj 819 707 throw~ speaker3;
#X obj 647 707 throw~ speaker2;
#X obj 475 707 throw~ speaker1;
#X obj 302 707 throw~ speaker0;
#X connect 0 0 8 2;
#X connect 2 0 8 3;
#X connect 4 0 8 4;
#X connect 5 0 8 5;
#X connect 8 0 82 0;
#X connect 8 1 81 0;
#X connect 8 2 80 0;
#X connect 8 3 79 0;
#X connect 9 0 74 1;
#X connect 12 0 78 0;
#X connect 13 0 18 0;
#X connect 14 0 15 0;
#X connect 15 0 73 1;
#X connect 16 0 73 0;
#X connect 17 0 13 0;
#X connect 18 0 14 0;
#X connect 20 0 17 0;
#X connect 22 0 27 0;
#X connect 22 0 42 0;
#X connect 23 0 26 0;
#X connect 23 0 41 0;
#X connect 26 0 28 0;
#X connect 27 0 23 0;
#X connect 27 1 26 1;
#X connect 28 0 29 0;
#X connect 29 0 30 0;
#X connect 30 0 31 0;
#X connect 31 0 44 0;
#X connect 33 0 35 0;
#X connect 34 0 36 0;
#X connect 35 0 37 0;
#X connect 36 0 35 0;
#X connect 36 1 35 1;
#X connect 37 0 38 0;
#X connect 38 0 39 0;
#X connect 39 0 45 0;
#X connect 41 0 34 0;
#X connect 41 1 34 1;
#X connect 42 0 33 0;
#X connect 42 1 33 1;
#X connect 46 0 12 0;
#X connect 47 0 20 0;
#X connect 51 0 74 0;
#X connect 51 0 75 0;
#X connect 52 0 22 0;
#X connect 53 0 23 0;
#X connect 68 0 70 0;
#X connect 69 0 71 0;
#X connect 73 0 82 0;
#X connect 73 1 81 0;
#X connect 73 2 80 0;
#X connect 73 3 79 0;
#X connect 74 0 16 0;
#X connect 75 0 8 0;
#X connect 78 0 16 1;
