#N canvas 136 23 724 412 12;
#X obj 167 193 cos~;
#X obj 255 193 cos~;
#X obj 255 165 -~ 0.25;
#X obj 167 64 inlet~;
#X obj 149 275 *~;
#X obj 237 275 *~;
#X obj 90 64 inlet~;
#X obj 149 302 outlet~;
#X obj 237 302 outlet~;
#X obj 167 103 *~ 0.25;
#X obj 341 193 cos~;
#X obj 323 275 *~;
#X obj 323 302 outlet~;
#X obj 429 193 cos~;
#X obj 409 275 *~;
#X obj 409 302 outlet~;
#X obj 341 165 -~ 0.5;
#X obj 429 165 -~ 0.75;
#X obj 167 233 clip~ 0 1;
#X obj 255 233 clip~ 0 1;
#X obj 341 233 clip~ 0 1;
#X obj 427 233 clip~ 0 1;
#X connect 0 0 18 0;
#X connect 1 0 19 0;
#X connect 2 0 1 0;
#X connect 3 0 9 0;
#X connect 4 0 7 0;
#X connect 5 0 8 0;
#X connect 6 0 4 0;
#X connect 6 0 5 0;
#X connect 6 0 11 0;
#X connect 6 0 14 0;
#X connect 9 0 0 0;
#X connect 9 0 2 0;
#X connect 9 0 16 0;
#X connect 9 0 17 0;
#X connect 10 0 20 0;
#X connect 11 0 12 0;
#X connect 13 0 21 0;
#X connect 14 0 15 0;
#X connect 16 0 10 0;
#X connect 17 0 13 0;
#X connect 18 0 4 1;
#X connect 19 0 5 1;
#X connect 20 0 11 1;
#X connect 21 0 14 1;
