#N canvas 18 23 1262 675 12;
#X obj 30 132 *~ 0.05;
#X obj 31 106 *~;
#X obj 112 88 hsl 128 15 0 1 0 0 empty empty empty -2 -8 0 10 -262144
-1 -1 12750 1;
#X obj 30 193 4channel_abstraction_xy_input;
#X floatatom 78 156 5 0 0 0 - - -;
#X floatatom 128 124 5 0 0 0 - - -;
#X obj 292 139 *~ 0.05;
#X obj 293 113 *~;
#X obj 374 95 hsl 128 15 0 1 0 0 empty empty empty -2 -8 0 10 -262144
-1 -1 12250 1;
#X obj 292 200 4channel_abstraction_xy_input;
#X obj 31 72 readsf~;
#X msg 38 46 open anton.aif;
#X msg 6 47 1;
#X obj 30 21 t b b;
#X obj 33 2 bng 15 250 50 0 empty empty empty 17 7 0 10 -262144 -1
-1;
#X obj 82 93 bng 15 250 50 0 empty empty empty 17 7 0 10 -262144 -1
-1;
#X obj 283 69 readsf~;
#X msg 258 44 1;
#X obj 282 18 t b b;
#X obj 285 -1 bng 15 250 50 0 empty empty empty 17 7 0 10 -262144 -1
-1;
#X obj 334 90 bng 15 250 50 0 empty empty empty 17 7 0 10 -262144 -1
-1;
#X msg 290 43 open cherokee.aif;
#X floatatom 442 130 5 0 0 0 - - -;
#X floatatom 493 129 5 0 0 0 - - -;
#X obj 261 316 writesf~ 4;
#X obj 31 229 +~;
#X obj 96 230 +~;
#X obj 165 227 +~;
#X obj 233 229 +~;
#X obj 49 301 dac~ 3 4 5 6;
#X msg 338 268 open ourRecording.wav;
#X msg 338 236 start;
#X msg 400 235 stop;
#X obj 640 71 readsf~ 4;
#X obj 640 118 dac~ 3 4 5 6;
#X msg 639 32 open ourRecording.wav;
#X msg 580 36 1;
#X connect 0 0 3 0;
#X connect 1 0 0 0;
#X connect 2 0 1 1;
#X connect 3 0 25 0;
#X connect 3 1 26 0;
#X connect 3 2 27 0;
#X connect 3 3 28 0;
#X connect 4 0 3 1;
#X connect 5 0 3 2;
#X connect 6 0 9 0;
#X connect 7 0 6 0;
#X connect 8 0 7 1;
#X connect 9 0 25 1;
#X connect 9 1 26 1;
#X connect 9 2 27 1;
#X connect 9 3 28 1;
#X connect 10 0 1 0;
#X connect 10 1 15 0;
#X connect 11 0 10 0;
#X connect 12 0 10 0;
#X connect 13 0 12 0;
#X connect 13 1 11 0;
#X connect 14 0 13 0;
#X connect 16 0 7 0;
#X connect 16 1 20 0;
#X connect 17 0 16 0;
#X connect 18 0 17 0;
#X connect 18 1 21 0;
#X connect 19 0 18 0;
#X connect 21 0 16 0;
#X connect 22 0 9 3;
#X connect 23 0 9 4;
#X connect 25 0 24 0;
#X connect 25 0 29 0;
#X connect 26 0 24 1;
#X connect 26 0 29 1;
#X connect 27 0 24 2;
#X connect 27 0 29 2;
#X connect 28 0 24 3;
#X connect 28 0 29 3;
#X connect 30 0 24 0;
#X connect 31 0 24 0;
#X connect 32 0 24 0;
#X connect 33 0 34 0;
#X connect 33 1 34 1;
#X connect 33 2 34 2;
#X connect 33 3 34 3;
#X connect 35 0 33 0;
#X connect 36 0 33 0;
