#N canvas 0 23 1280 751 12;
#X obj 1027 148 scale 0 1 50 10000 1.5;
#X obj 737 471 tgl 15 1 empty empty empty 17 7 0 10 -262144 -1 -1 0
1;
#X text 763 469 invert fb;
#X obj 470 575 +~;
#X obj 547 576 +~;
#N canvas 0 23 1280 751 pulsetrain2 0;
#X obj 489 350 *~;
#X obj 572 270 curve~;
#X obj 572 203 pack f f;
#X msg 572 232 0 \, 1 \$1 0.5 0 \$2 -0.5;
#X obj 489 268 pink~;
#X obj 647 364 <;
#X obj 647 388 sel 1 0, f 13;
#X obj 572 175 f 1;
#X obj 490 565 outlet~;
#X obj 572 127 inlet;
#X obj 780 344 inlet;
#X obj 625 126 inlet;
#X text 561 106 trigger;
#X text 625 104 pulse time;
#X text 822 344 amount of pulses;
#X obj 691 322 + 1;
#X obj 647 298 i;
#X msg 691 415 1;
#X obj 647 322 t f f;
#N canvas 0 23 1280 751 pulsetrain 0;
#X obj 647 209 inlet;
#X obj 594 295 metro, f 8;
#X obj 594 339 i;
#X obj 624 338 + 1;
#X obj 594 379 <;
#X obj 617 493 click~;
#X obj 880 212 inlet;
#X obj 594 208 inlet;
#X msg 594 257 1;
#X obj 594 232 t b;
#X msg 491 367 0;
#X obj 491 342 t b;
#X obj 594 403 sel 0 1;
#X obj 617 517 outlet~;
#X connect 0 0 1 1;
#X connect 1 0 2 0;
#X connect 2 0 3 0;
#X connect 2 0 4 0;
#X connect 3 0 2 1;
#X connect 4 0 12 0;
#X connect 5 0 13 0;
#X connect 6 0 4 1;
#X connect 7 0 9 0;
#X connect 8 0 1 0;
#X connect 9 0 8 0;
#X connect 10 0 1 0;
#X connect 10 0 2 1;
#X connect 11 0 10 0;
#X connect 12 0 11 0;
#X connect 12 1 5 0;
#X restore 80 239 pd pulsetrain;
#X connect 0 0 8 0;
#X connect 1 0 0 1;
#X connect 1 1 16 0;
#X connect 2 0 3 0;
#X connect 3 0 1 0;
#X connect 4 0 0 0;
#X connect 5 0 6 0;
#X connect 6 0 7 0;
#X connect 6 1 17 0;
#X connect 7 0 2 0;
#X connect 9 0 7 0;
#X connect 10 0 5 1;
#X connect 11 0 2 1;
#X connect 15 0 16 1;
#X connect 16 0 18 0;
#X connect 17 0 16 1;
#X connect 18 0 5 0;
#X connect 18 1 15 0;
#X restore 267 253 pd pulsetrain2;
#X obj 97 97 inlet;
#X obj 100 414 unpack f f, f 13;
#X obj 100 483 s \$0-earlyT;
#X obj 188 482 s \$0-lateT;
#X obj 268 325 delwrite~ \$0-earlyref 5000;
#X obj 282 195 unpack f f, f 12;
#X obj 282 223 t b f;
#X obj 470 606 outlet~;
#X obj 547 606 outlet~;
#N canvas 0 23 1280 751 latereflections 0;
#X obj 431 423 *~;
#X obj 749 398 line~;
#X msg 749 374 \$1 5;
#X obj 433 263 onepole~ 8000;
#X obj 731 262 onepole~ 8000;
#X obj 731 429 *~;
#X obj 749 317 inlet;
#X text 125 437 early reflections ch 1 & 2;
#X text 551 41 latereflections delay time;
#X obj 819 235 inlet;
#X text 810 215 dampening;
#X text 588 592 cross feedback: delread 1 into delwrite 2 and vice
versa, f 22;
#X obj 931 361 inlet;
#X obj 931 416 * 2;
#X obj 931 440 - 1;
#X obj 749 347 pow 0.2;
#X obj 931 385 !- 1;
#X text 900 338 fb inversion;
#X obj 431 470 *~ 1;
#X obj 731 467 *~ 1;
#X text 791 317 feedback;
#X obj 603 111 line~;
#X obj 431 520 +~;
#X obj 731 521 +~;
#X msg 603 87 \$1 5;
#X obj 65 331 outlet~;
#X obj 65 234 *~ 1;
#X obj 227 235 *~ 1;
#X obj 65 146 +~ 0.5;
#X obj 65 122 *~ 0.5;
#X obj 65 304 +~;
#X msg 65 68 \$1 5;
#X obj 65 92 line~;
#X obj 1006 182 !-~ 1;
#X obj 1006 313 outlet~;
#X obj 1006 216 *~ 1;
#X obj 1162 216 *~ 1;
#X obj 1006 128 +~ 0.5;
#X obj 1006 104 *~ 0.5;
#X obj 1006 286 +~;
#X msg 1006 50 \$1 5;
#X obj 1006 74 line~;
#X obj 433 287 hip~ 10;
#X obj 731 287 hip~ 10;
#X text 489 286 remove dc;
#X obj 65 191 !-~ 1;
#X obj 512 518 r cleardelay;
#X msg 512 542 clear;
#X obj 227 271 delread4~ \$0-lateref2;
#X obj 65 270 delread4~ \$0-lateref1;
#X obj 65 44 r \$0-pickup1;
#X obj 252 211 r \$0-lateT;
#X obj 603 63 r \$0-lateT;
#X obj 1006 26 r \$0-pickup2;
#X obj 1187 192 r \$0-lateT;
#X obj 1006 252 delread4~ \$0-lateref1;
#X obj 1162 252 delread4~ \$0-lateref2;
#X obj 433 194 delread4~ \$0-lateref1;
#X obj 731 191 delread4~ \$0-lateref2;
#X obj 431 569 delwrite~ \$0-lateref2 5000;
#X obj 731 571 delwrite~ \$0-lateref1 5000;
#X obj 130 458 inlet~;
#X obj 220 459 inlet~;
#X connect 0 0 18 0;
#X connect 1 0 0 1;
#X connect 1 0 5 1;
#X connect 2 0 1 0;
#X connect 3 0 42 0;
#X connect 4 0 43 0;
#X connect 5 0 19 0;
#X connect 6 0 15 0;
#X connect 9 0 4 1;
#X connect 9 0 3 1;
#X connect 12 0 16 0;
#X connect 13 0 14 0;
#X connect 14 0 19 1;
#X connect 14 0 18 1;
#X connect 15 0 2 0;
#X connect 16 0 13 0;
#X connect 18 0 22 0;
#X connect 19 0 23 0;
#X connect 21 0 57 0;
#X connect 21 0 58 0;
#X connect 22 0 59 0;
#X connect 23 0 60 0;
#X connect 24 0 21 0;
#X connect 26 0 49 0;
#X connect 27 0 48 0;
#X connect 28 0 45 0;
#X connect 28 0 27 0;
#X connect 29 0 28 0;
#X connect 30 0 25 0;
#X connect 31 0 32 0;
#X connect 32 0 29 0;
#X connect 33 0 35 0;
#X connect 35 0 55 0;
#X connect 36 0 56 0;
#X connect 37 0 33 0;
#X connect 37 0 36 0;
#X connect 38 0 37 0;
#X connect 39 0 34 0;
#X connect 40 0 41 0;
#X connect 41 0 38 0;
#X connect 42 0 0 0;
#X connect 43 0 5 0;
#X connect 45 0 26 0;
#X connect 46 0 47 0;
#X connect 47 0 59 0;
#X connect 47 0 60 0;
#X connect 48 0 30 1;
#X connect 49 0 30 0;
#X connect 50 0 31 0;
#X connect 51 0 27 1;
#X connect 51 0 26 1;
#X connect 52 0 24 0;
#X connect 53 0 40 0;
#X connect 54 0 36 1;
#X connect 54 0 35 1;
#X connect 55 0 39 0;
#X connect 56 0 39 1;
#X connect 57 0 3 0;
#X connect 58 0 4 0;
#X connect 61 0 22 1;
#X connect 62 0 23 1;
#X restore 572 497 pd latereflections;
#X f 24;
#N canvas 0 23 1280 751 earlyreflections 0;
#X obj 1044 423 !-~ 1;
#X obj 831 599 outlet~;
#X obj 1043 598 outlet~;
#X obj 831 200 +~ 0.5;
#X obj 831 176 *~ 0.5;
#X msg 255 174 \$1 5;
#X obj 255 198 line~;
#X obj 255 227 *~ 0.5;
#X obj 255 251 +~ 0.5;
#X obj 254 442 -~;
#X msg 467 172 \$1 5;
#X obj 467 196 line~;
#X obj 466 446 -~;
#X obj 467 280 !-~ 1;
#X obj 467 227 *~ 0.5;
#X obj 467 252 +~ 0.5;
#X obj 222 604 outlet~;
#X obj 434 606 outlet~;
#X obj 254 466 abs~;
#X obj 466 470 abs~;
#X obj 484 408 !-~ 1;
#X text 897 599 to late reflections;
#X text 327 607 to output;
#X obj 222 575 gate~;
#X obj 222 310 >~ 0;
#X obj 434 574 gate~;
#X obj 434 310 >~ 0;
#X msg 1112 455 \$1 5;
#X obj 1112 484 line~;
#X obj 831 148 line~;
#X msg 831 125 \$1 5;
#X obj 1112 432 r \$0-earlyT;
#X obj 1043 574 delread4~ \$0-earlyref;
#X obj 831 575 delread4~ \$0-earlyref;
#X obj 466 549 delread4~ \$0-earlyref;
#X obj 254 543 delread4~ \$0-earlyref;
#X obj 255 150 r \$0-pickup1;
#X obj 467 148 r \$0-pickup2;
#X obj 831 98 inlet;
#X obj 254 517 *~;
#X obj 466 521 *~;
#X obj 831 514 *~;
#X obj 1043 515 *~;
#X connect 0 0 42 0;
#X connect 3 0 0 0;
#X connect 3 0 9 1;
#X connect 3 0 20 0;
#X connect 3 0 41 0;
#X connect 4 0 3 0;
#X connect 5 0 6 0;
#X connect 6 0 7 0;
#X connect 7 0 8 0;
#X connect 8 0 9 0;
#X connect 8 0 24 0;
#X connect 9 0 18 0;
#X connect 10 0 11 0;
#X connect 11 0 14 0;
#X connect 12 0 19 0;
#X connect 13 0 12 0;
#X connect 13 0 26 0;
#X connect 14 0 15 0;
#X connect 15 0 13 0;
#X connect 18 0 39 0;
#X connect 19 0 40 0;
#X connect 20 0 12 1;
#X connect 23 0 16 0;
#X connect 24 0 23 0;
#X connect 25 0 17 0;
#X connect 26 0 25 0;
#X connect 27 0 28 0;
#X connect 28 0 39 1;
#X connect 28 0 40 1;
#X connect 28 0 41 1;
#X connect 28 0 42 1;
#X connect 29 0 4 0;
#X connect 30 0 29 0;
#X connect 31 0 27 0;
#X connect 32 0 2 0;
#X connect 33 0 1 0;
#X connect 34 0 25 1;
#X connect 35 0 23 1;
#X connect 36 0 5 0;
#X connect 37 0 10 0;
#X connect 38 0 30 0;
#X connect 39 0 35 0;
#X connect 40 0 34 0;
#X connect 41 0 33 0;
#X connect 42 0 32 0;
#X restore 469 457 pd earlyreflections;
#X f 21;
#X obj 97 121 route delay pulse pos pickup feedback damp, f 160;
#X obj 655 147 unpack f f;
#X obj 655 192 s \$0-pickup1;
#X obj 722 170 s \$0-pickup2;
#X obj 12 178 inlet~;
#X obj 251 400 f \$1;
#X obj 251 424 + 1;
#X obj 251 370 loadbang;
#X obj 188 448 / 1;
#X obj 100 447 / 1;
#X obj 239 68 block~ 16;
#X connect 0 0 15 3;
#X connect 1 0 15 4;
#X connect 3 0 13 0;
#X connect 4 0 14 0;
#X connect 5 0 10 0;
#X connect 6 0 17 0;
#X connect 7 0 26 0;
#X connect 7 1 25 0;
#X connect 11 0 12 0;
#X connect 11 1 5 2;
#X connect 12 0 5 0;
#X connect 12 1 5 1;
#X connect 15 0 3 1;
#X connect 15 1 4 1;
#X connect 16 0 3 0;
#X connect 16 1 4 0;
#X connect 16 2 15 0;
#X connect 16 3 15 1;
#X connect 17 0 7 0;
#X connect 17 1 11 0;
#X connect 17 2 16 0;
#X connect 17 3 18 0;
#X connect 17 4 15 2;
#X connect 17 5 0 0;
#X connect 18 0 19 0;
#X connect 18 1 20 0;
#X connect 21 0 10 0;
#X connect 22 0 23 0;
#X connect 23 0 25 1;
#X connect 23 0 26 1;
#X connect 24 0 22 0;
#X connect 25 0 9 0;
#X connect 26 0 8 0;
