#N canvas 0 23 1280 755 12;
#X msg 7 46 \; pd dsp \$1;
#X obj 7 21 tgl 15 0 empty empty empty 17 7 0 10 -262144 -1 -1 1 1
;
#X obj 514 634 hsl 128 15 0.01 4 1 0 empty empty empty -2 -8 0 10 -262144
-1 -1 12700 1;
#X obj 721 435 hsl 128 15 0 1 0 0 empty fb empty -2 -8 0 10 -262144
-1 -1 10400 1;
#X obj 600 391 hsl 128 15 -1 1 0 1 empty pos empty -2 -8 0 10 -262144
-1 -1 11800 1;
#X floatatom 545 409 5 0 0 0 - - -;
#X obj 1045 78 bng 15 250 50 0 empty empty empty 17 7 0 10 -262144
-1 -1;
#X floatatom 1063 77 5 0 0 0 - pulse-t -;
#X floatatom 1162 79 5 1 5000 0 - n-puls -;
#X text 1140 57 amount of pulses;
#N canvas 0 23 1280 751 out~ 0;
#X obj 483 425 *~;
#X msg 701 337 \$1 50;
#X obj 701 361 line~;
#X obj 568 423 *~;
#X obj 483 449 outlet~;
#X obj 568 447 outlet~;
#X obj 485 126 inlet~;
#X obj 570 127 inlet~;
#X obj 701 308 inlet;
#X obj 484 264 *~;
#X obj 569 265 *~;
#X obj 702 137 r numVoices;
#X obj 702 161 sqrt;
#X obj 702 185 !/ 1;
#X connect 0 0 4 0;
#X connect 1 0 2 0;
#X connect 2 0 3 1;
#X connect 2 0 0 1;
#X connect 3 0 5 0;
#X connect 6 0 9 0;
#X connect 7 0 10 0;
#X connect 8 0 1 0;
#X connect 9 0 0 0;
#X connect 10 0 3 0;
#X connect 11 0 12 0;
#X connect 12 0 13 0;
#X connect 13 0 10 1;
#X connect 13 0 9 1;
#X restore 458 656 pd out~;
#X f 8;
#X obj 458 682 dac~ 1 2;
#X text 751 413 feedback;
#X text 582 346 position of pulse injection;
#X text 1030 58 pulse time (ms);
#X text 859 410 dampening freq;
#X obj 867 434 hsl 128 15 0 1 0 0 empty damp empty -2 -8 0 10 -262144
-1 -1 7225 1;
#X obj 432 96 !/ 1000;
#X obj 254 105 hsl 128 15 -1 1 0 1 empty pickup2 empty -2 -8 0 10 -262144
-1 -1 8700 1;
#X obj 208 86 hsl 128 15 -1 1 0 1 empty pickup1 empty -2 -8 0 10 -262144
-1 -1 1800 1;
#X text 202 64 pickup positions left & right;
#X obj 693 682 else/vu~;
#X obj 694 554 vu 15 120 empty empty -1 -8 0 10 -66577 -1 1 0;
#X obj 762 681 else/vu~;
#X obj 763 554 vu 15 120 empty empty -1 -8 0 10 -66577 -1 1 0;
#X obj 6 92 loadbang;
#X msg 597 367 0;
#X obj 1090 430 s cleardelay;
#X obj 1090 409 bng 15 250 50 0 empty empty empty 17 7 0 10 -262144
-1 -1;
#X obj 1045 108 f;
#X obj 205 130 pak f f;
#X msg 205 154 all pickup \$1 \$2;
#X obj 205 178 s snaar-voice;
#X obj 1043 186 s snaar-voice;
#X obj 610 502 r snaar-voice;
#X msg 597 411 all pos \$1;
#X msg 864 454 all damp \$1;
#X msg 718 455 all feedback \$1;
#X obj 432 158 s snaar-voice;
#X msg 209 338 devices;
#X msg 210 308 close;
#X floatatom 520 652 5 0 0 0 - - -;
#X msg 147 308 open 1;
#N canvas 0 23 1280 755 parse1 0;
#X obj 614 187 sel 255;
#X obj 660 251 i;
#X obj 696 251 + 1;
#X obj 582 161 t f f;
#X obj 660 212 t b;
#X msg 614 213 0;
#X obj 582 136 inlet;
#X obj 582 390 +;
#X obj 582 498 outlet;
#X obj 582 344 * 100;
#X obj 582 414 * 2;
#X obj 536 317 gate 2, f 7;
#X obj 582 466 / 50;
#X obj 582 442 - 12500;
#N canvas 0 23 1280 755 parse3 0;
#X obj 627 104 sel 255;
#X obj 673 168 i;
#X obj 709 168 + 1;
#X obj 595 78 t f f;
#X obj 673 129 t b;
#X msg 627 130 0;
#X obj 595 53 inlet;
#X obj 373 257 gate 6, f 32;
#X obj 417 330 +;
#X obj 505 330 +;
#X obj 594 330 +;
#X obj 400 557 outlet;
#X obj 400 531 pack f f f;
#X obj 594 279 * 100;
#X obj 505 283 * 100;
#X obj 417 284 * 100;
#X obj 417 354 * 2;
#X obj 505 357 * 2;
#X obj 594 357 * 2;
#X obj 417 406 / 10;
#X obj 505 405 / 10;
#X obj 594 405 / 10;
#X obj 417 382 - 2500;
#X obj 505 381 - 2500;
#X obj 594 381 - 2500;
#X obj 400 505 f;
#X obj 594 429 t b f;
#X connect 0 0 5 0;
#X connect 0 1 4 0;
#X connect 1 0 2 0;
#X connect 1 0 7 0;
#X connect 2 0 1 1;
#X connect 3 0 7 1;
#X connect 3 1 0 0;
#X connect 4 0 1 0;
#X connect 5 0 1 0;
#X connect 6 0 3 0;
#X connect 7 0 8 1;
#X connect 7 1 15 0;
#X connect 7 2 9 1;
#X connect 7 3 14 0;
#X connect 7 4 10 1;
#X connect 7 5 13 0;
#X connect 8 0 16 0;
#X connect 9 0 17 0;
#X connect 10 0 18 0;
#X connect 12 0 11 0;
#X connect 13 0 10 0;
#X connect 14 0 9 0;
#X connect 15 0 8 0;
#X connect 16 0 22 0;
#X connect 17 0 23 0;
#X connect 18 0 24 0;
#X connect 19 0 25 1;
#X connect 20 0 12 1;
#X connect 21 0 26 0;
#X connect 22 0 19 0;
#X connect 23 0 20 0;
#X connect 24 0 21 0;
#X connect 25 0 12 0;
#X connect 26 0 25 0;
#X connect 26 1 12 2;
#X restore 222 349 pd parse3;
#X connect 0 0 5 0;
#X connect 0 1 4 0;
#X connect 1 0 2 0;
#X connect 1 0 11 0;
#X connect 2 0 1 1;
#X connect 3 0 11 1;
#X connect 3 1 0 0;
#X connect 4 0 1 0;
#X connect 5 0 1 0;
#X connect 6 0 3 0;
#X connect 7 0 10 0;
#X connect 9 0 7 0;
#X connect 10 0 13 0;
#X connect 11 0 7 1;
#X connect 11 1 9 0;
#X connect 12 0 8 0;
#X connect 13 0 12 0;
#X restore 147 390 pd parse1;
#X obj 147 414 / 100;
#X obj 147 438 sig~;
#X obj 147 576 hip~ 10;
#X floatatom 193 554 5 0 0 0 - - -;
#X floatatom 214 578 5 0 0 0 - - -;
#X obj 61 506 else/vu~;
#X obj 62 532 vu 15 120 empty empty -1 -8 0 10 -66577 -1 1 0;
#X floatatom 241 430 5 0 0 0 - - -;
#X obj 147 461 clip~ 0 1;
#X obj 147 498 pow~ 2;
#X floatatom 202 484 5 0 0 0 - - -;
#X msg 432 134 all delay \$1 \$1;
#X floatatom 432 67 5 0 0 0 - f0 -;
#X text 477 64 base freq (Hz);
#X msg 6 118 \; pickup1 -1 \; pickup2 1 \; pulse-t 50 \; n-puls 1 \;
f0 50 \; pos 0 \; fb 0.95 \; damp 0.75 \; numVoices 10 \;;
#X obj 1045 134 pack f f;
#X msg 1045 158 all pulse \$1 \$2;
#X text 517 284 setserial /dev/ttyS0 spd_cust divisor 8;
#X msg 280 339 baud 115200;
#X obj 147 366 comport 1 115200;
#X obj 280 315 loadbang;
#X obj 147 603 slide~ 1 1;
#X obj 147 522 *~ 2;
#X obj 147 546 -~ 1;
#X msg 194 532 clear;
#X obj 460 500 clone snaar-voice 10;
#X obj 147 635 *~ 0.05;
#X connect 1 0 0 0;
#X connect 2 0 10 2;
#X connect 2 0 41 0;
#X connect 3 0 37 0;
#X connect 4 0 5 0;
#X connect 4 0 35 0;
#X connect 6 0 29 0;
#X connect 7 0 29 1;
#X connect 8 0 59 1;
#X connect 10 0 21 0;
#X connect 10 0 11 0;
#X connect 10 1 23 0;
#X connect 10 1 11 1;
#X connect 16 0 36 0;
#X connect 17 0 55 0;
#X connect 18 0 30 1;
#X connect 19 0 30 0;
#X connect 21 0 22 0;
#X connect 23 0 24 0;
#X connect 25 0 58 0;
#X connect 26 0 4 0;
#X connect 28 0 27 0;
#X connect 29 0 59 0;
#X connect 30 0 31 0;
#X connect 31 0 32 0;
#X connect 34 0 69 1;
#X connect 35 0 69 1;
#X connect 36 0 69 1;
#X connect 37 0 69 1;
#X connect 39 0 63 0;
#X connect 40 0 63 0;
#X connect 42 0 63 0;
#X connect 43 0 44 0;
#X connect 44 0 45 0;
#X connect 44 0 51 0;
#X connect 45 0 52 0;
#X connect 46 0 65 0;
#X connect 47 0 46 1;
#X connect 48 0 65 2;
#X connect 48 0 65 1;
#X connect 49 0 50 0;
#X connect 52 0 53 0;
#X connect 53 0 66 0;
#X connect 54 0 53 1;
#X connect 55 0 38 0;
#X connect 56 0 17 0;
#X connect 59 0 60 0;
#X connect 62 0 63 0;
#X connect 63 0 43 0;
#X connect 64 0 62 0;
#X connect 65 0 70 0;
#X connect 66 0 67 0;
#X connect 67 0 46 0;
#X connect 68 0 46 0;
#X connect 69 0 10 0;
#X connect 69 1 10 1;
#X connect 70 0 49 0;
#X connect 70 0 69 0;
