#N canvas 15 22 748 399 10;
#X obj 160 79 myplus;
#X floatatom 159 46 5 0 0 0 - - -, f 5;
#X floatatom 193 46 5 0 0 0 - - -, f 5;
#X floatatom 160 114 5 0 0 0 - - -, f 5;
#X obj 275 99 myplus~;
#X obj 275 70 sig~;
#X floatatom 275 45 5 0 0 0 - - -, f 5;
#X obj 318 70 sig~;
#X floatatom 318 45 5 0 0 0 - - -, f 5;
#X obj 275 150 snapshot~;
#X obj 359 121 metro 100;
#X obj 359 90 tgl 15 0 empty empty empty 17 7 0 10 -262144 -1 -1 0
1;
#X floatatom 275 172 5 0 0 0 - - -, f 5;
#X obj 487 96 myplus~;
#X obj 487 131 *~ 0.5;
#X obj 487 164 dac~ 1 2;
#X obj 487 57 osc~ 400;
#X obj 561 57 osc~ 600;
#X connect 0 0 3 0;
#X connect 1 0 0 0;
#X connect 2 0 0 1;
#X connect 4 0 9 0;
#X connect 5 0 4 0;
#X connect 6 0 5 0;
#X connect 7 0 4 1;
#X connect 8 0 7 0;
#X connect 9 0 12 0;
#X connect 10 0 9 0;
#X connect 11 0 10 0;
#X connect 13 0 14 0;
#X connect 14 0 15 0;
#X connect 14 0 15 1;
#X connect 16 0 13 0;
#X connect 17 0 13 1;
